<?xml version="1.0" standalone="no"?>
<!DOCTYPE svg PUBLIC "-//W3C//DTD SVG 20010904//EN"
 "http://www.w3.org/TR/2001/REC-SVG-20010904/DTD/svg10.dtd">
<svg version="1.0" xmlns="http://www.w3.org/2000/svg"
 width="247.000000pt" height="379.000000pt" viewBox="0 0 247.000000 379.000000"
 preserveAspectRatio="xMidYMid meet">

<g transform="translate(0.000000,379.000000) scale(0.100000,-0.100000)"
fill="#000000" stroke="none">
<path d="M1735 3406 c-55 -21 -91 -64 -104 -125 -14 -68 -15 -789 0 -851 24
-107 98 -145 263 -138 114 5 160 26 196 89 23 42 24 53 25 209 l0 165 -80 0
-80 0 -3 -140 c-3 -164 -8 -175 -82 -175 -83 0 -80 -17 -80 417 0 433 -4 413
83 413 69 0 77 -17 77 -162 l0 -118 80 0 80 0 0 148 c0 136 -2 153 -23 192
-35 66 -78 84 -207 87 -73 2 -117 -1 -145 -11z"/>
<path d="M360 2855 l0 -555 188 2 187 3 3 73 3 72 -106 0 -105 0 0 170 0 169
98 3 97 3 0 70 0 70 -97 3 -98 3 0 159 0 160 100 0 100 0 0 75 0 75 -185 0
-185 0 0 -555z"/>
<path d="M820 2855 l0 -556 83 3 82 3 3 196 2 196 84 5 c104 7 159 34 190 93
19 36 21 61 24 237 4 227 -6 288 -58 332 -46 38 -90 46 -257 46 l-153 0 0
-555z m282 388 c16 -14 18 -34 18 -185 0 -155 -2 -170 -20 -188 -14 -14 -33
-20 -65 -20 l-45 0 0 205 0 205 47 0 c29 0 53 -6 65 -17z"/>
<path d="M1365 3398 c-3 -7 -4 -256 -3 -553 l3 -540 83 -3 82 -3 0 556 0 555
-80 0 c-55 0 -82 -4 -85 -12z"/>
<path d="M448 2140 c-20 -11 -46 -34 -59 -51 -23 -33 -36 -110 -25 -153 8 -33
52 -83 90 -103 46 -24 135 -20 186 8 l41 23 -3 76 -3 75 -70 0 -70 0 -3 -32
c-3 -31 -1 -33 28 -33 38 0 52 -27 25 -46 -55 -40 -135 11 -135 86 0 76 68
112 140 75 28 -14 29 -14 50 15 25 35 20 47 -26 66 -47 20 -122 17 -166 -6z"/>
<path d="M850 2141 c-17 -33 -130 -303 -130 -312 0 -5 20 -9 44 -9 40 0 45 3
55 30 10 29 11 30 78 30 67 0 69 -1 80 -30 10 -27 15 -30 58 -30 34 0 46 4 42
13 -3 6 -35 83 -72 170 l-67 157 -39 0 c-27 0 -41 -5 -49 -19z m66 -136 c8
-20 12 -40 9 -45 -7 -12 -52 -13 -58 -2 -5 7 22 82 30 82 2 0 11 -16 19 -35z"/>
<path d="M1127 2153 c-4 -3 -7 -80 -7 -170 l0 -164 43 3 42 3 0 88 c0 48 3 87
7 87 4 0 22 -25 40 -55 18 -30 36 -55 40 -55 4 0 22 25 40 55 18 30 36 55 40
55 5 0 8 -41 8 -91 l0 -90 43 3 42 3 0 165 0 165 -42 3 c-42 3 -43 3 -83 -59
-22 -35 -42 -65 -45 -67 -2 -2 -21 22 -41 54 -21 33 -42 62 -48 66 -14 10 -70
10 -79 1z"/>
<path d="M1547 2154 c-4 -4 -7 -81 -7 -171 l0 -163 130 0 130 0 0 40 0 40 -90
0 c-89 0 -90 0 -90 25 0 23 3 24 78 27 l77 3 3 32 3 32 -78 3 c-77 3 -78 3
-81 31 l-3 27 91 0 91 0 -3 38 -3 37 -121 3 c-66 1 -123 -1 -127 -4z"/>
<path d="M1914 2150 c-33 -13 -64 -59 -64 -96 0 -48 34 -80 110 -101 51 -15
65 -23 65 -39 0 -26 -46 -30 -103 -8 -45 17 -46 17 -64 -6 -25 -31 -23 -37 22
-60 27 -14 59 -20 104 -20 58 0 69 3 96 28 19 17 33 40 36 63 8 50 -23 84
-106 112 -41 14 -66 28 -68 39 -5 25 31 31 78 12 43 -17 43 -17 62 5 27 34 22
47 -22 65 -43 17 -112 20 -146 6z"/>
<path d="M1 733 l-1 -733 1235 0 1235 0 0 720 0 720 -32 -35 c-28 -29 -122
-72 -595 -270 -445 -186 -572 -235 -606 -235 -44 0 -131 35 -1000 402 -174 73
-223 103 -230 141 -2 12 -5 -308 -6 -710z m647 -33 c29 -18 62 -71 62 -100 0
-5 -21 -10 -48 -10 -37 0 -50 4 -60 21 -16 25 -75 24 -80 -2 -2 -12 16 -24 73
-44 87 -32 115 -60 115 -115 0 -97 -122 -150 -226 -100 -44 22 -81 77 -70 106
10 25 75 18 102 -12 30 -31 89 -32 89 0 0 13 -16 24 -60 41 -93 35 -95 36
-110 66 -23 43 -18 83 12 119 33 40 55 49 118 49 33 1 61 -6 83 -19z m657 4
c55 -26 69 -57 73 -164 4 -106 -10 -146 -61 -184 -40 -30 -144 -30 -184 0 -47
34 -63 79 -63 174 0 100 18 143 71 172 42 22 119 23 164 2z m-267 -31 c-3 -38
-3 -38 -50 -41 l-48 -3 0 -145 0 -144 -50 0 -50 0 0 145 0 145 -50 0 -50 0 0
40 0 40 151 0 150 0 -3 -37z m655 17 c53 -42 58 -124 12 -179 l-24 -28 35 -58
c19 -32 33 -64 30 -71 -3 -9 -21 -14 -49 -14 -43 0 -44 1 -78 62 -19 35 -42
64 -51 66 -14 3 -17 -7 -20 -60 l-3 -63 -47 -3 -48 -3 0 185 0 186 109 0 c93
0 112 -3 134 -20z m367 -20 l0 -40 -75 0 -75 0 0 -30 c0 -29 1 -29 63 -32 l62
-3 3 -37 3 -38 -65 0 -66 0 0 -36 0 -35 73 2 72 2 3 -41 3 -42 -125 0 -126 0
0 185 0 185 125 0 125 0 0 -40z"/>
<path d="M1182 618 c-7 -7 -12 -44 -12 -95 0 -88 9 -103 59 -103 39 0 51 26
51 109 0 86 -8 101 -55 101 -17 0 -36 -5 -43 -12z"/>
<path d="M1550 595 c0 -34 1 -35 39 -35 31 0 41 4 46 20 9 30 -12 50 -51 50
-32 0 -34 -2 -34 -35z"/>
<path d="M786 1291 c5 -5 107 -42 226 -82 l216 -74 224 74 c123 40 227 77 233
82 5 5 -185 9 -450 9 -263 0 -455 -4 -449 -9z"/>
</g>
</svg>
