<svg xmlns="http://www.w3.org/2000/svg" xmlns:xlink="http://www.w3.org/1999/xlink" viewBox="0,0,256,256" width="50px" height="50px"><g fill="#dbde17" fill-rule="nonzero" stroke="none" stroke-width="1" stroke-linecap="butt" stroke-linejoin="miter" stroke-miterlimit="10" stroke-dasharray="" stroke-dashoffset="0" font-family="none" font-weight="none" font-size="none" text-anchor="none" style="mix-blend-mode: normal"><g transform="scale(5.12,5.12)"><path d="M25,3c-8.26953,0 -15,6.73047 -15,15c0,6.16797 2.78516,9.14063 4.8125,11.3125c1.27734,1.37109 2.1875,2.35547 2.1875,3.6875v5h7v-14.59375l-3.71875,-3.6875c-0.39062,-0.39062 -0.39062,-1.04687 0,-1.4375c0.39063,-0.39062 1.04688,-0.39062 1.4375,0l3.28125,3.3125l3.28125,-3.3125c0.39063,-0.39062 1.04688,-0.39062 1.4375,0c0.39063,0.39063 0.39063,1.04688 0,1.4375l-3.71875,3.6875v14.59375h7v-5c0,-1.91406 1.10547,-3.07422 2.5,-4.53125c2.00781,-2.09766 4.5,-4.69531 4.5,-10.46875c0,-8.26953 -6.73047,-15 -15,-15zM17,40v3c0,1.65234 1.34766,3 3,3h1.15625c0.44531,1.72266 1.98438,3 3.84375,3c1.85938,0 3.39844,-1.27734 3.84375,-3h1.15625c1.65234,0 3,-1.34766 3,-3v-3z"></path></g></g></svg>