<svg xmlns="http://www.w3.org/2000/svg" xmlns:xlink="http://www.w3.org/1999/xlink" viewBox="0,0,256,256" width="50px" height="50px"><g fill="#197500" fill-rule="nonzero" stroke="none" stroke-width="1" stroke-linecap="butt" stroke-linejoin="miter" stroke-miterlimit="10" stroke-dasharray="" stroke-dashoffset="0" font-family="none" font-weight="none" font-size="none" text-anchor="none" style="mix-blend-mode: normal"><g transform="scale(5.12,5.12)"><path d="M27.76758,3.95703c-0.83109,0.01547 -1.65297,0.17719 -2.41797,0.49219l-0.32031,0.12109l-0.01953,0.01953c-0.2,0.08 -0.39055,0.1793 -0.56055,0.2793l-1.08008,0.62109l-13.84961,7.91016c-2.17,1.25 -3.51953,3.58008 -3.51953,6.08008v10.93945l3.53906,2.2793c1.81,1.05 4.13,1.07125 6,0.03125l6.46094,-3.58984v-10.66016h0.00977l-0.00977,-1.76953v-4.71094c-0.01,-0.06 0,-0.10992 0,-0.16992c0.05,-0.65 0.16914,-1.30016 0.36914,-1.91016l0.03125,-0.08984c0.38,-1.13 1.00031,-2.1593 1.82031,-3.0293c0.5,-0.52 1.05945,-0.97156 1.68945,-1.35156l2.68945,-1.45898c-0.2775,-0.0275 -0.555,-0.03836 -0.83203,-0.0332zM31.26953,4.81055l-4.36914,2.36914c-1.8,1.08 -2.92992,3.1 -2.91992,5.25l0.0293,7.2207l9.29102,5.37891l5.21875,3.03125c2.14,1.49 3.46047,3.96984 3.48047,6.58984l-0.15039,3.99023c1.25,-1.19 2.01086,-2.81055 2.13086,-4.56055v-0.13086c0.02,-0.11 0.01953,-0.23961 0.01953,-0.34961v-17.19922c0,-2.44 -1.30039,-4.73977 -3.40039,-6.00977l-9.08008,-5.44141c-0.08,-0.05 -0.16,-0.09867 -0.25,-0.13867zM31.31055,26.14063l-14.79102,8.33008c-1.23,0.68 -2.58922,1.01953 -3.94922,1.01953c-0.96,0 -1.91031,-0.17 -2.82031,-0.5c-0.43,-0.15 -0.85,-0.35008 -1.25,-0.58008l-1.98047,-1.2793c0.48,1.21 1.30969,2.27961 2.42969,3.09961l0.08984,0.05859c0.16,0.11 0.33047,0.23055 0.48047,0.31055l14.94141,8.53125c1.07,0.61 2.26898,0.91992 3.45898,0.91992c1.25,0 2.49961,-0.34 3.59961,-1l8.28125,-4.96094l0.19922,-5.4707c-0.02,-2.1 -1.1793,-4.09969 -3.0293,-5.17969z"></path></g></g></svg>