<?xml version="1.0" encoding="UTF-8"?>
<!DOCTYPE svg PUBLIC "-//W3C//DTD SVG 1.1//EN" "http://www.w3.org/Graphics/SVG/1.1/DTD/svg11.dtd">
<svg xmlns="http://www.w3.org/2000/svg" version="1.1" width="96px" height="96px" style="shape-rendering:geometricPrecision; text-rendering:geometricPrecision; image-rendering:optimizeQuality; fill-rule:evenodd; clip-rule:evenodd" xmlns:xlink="http://www.w3.org/1999/xlink">
<g><path style="opacity:0.998" fill="#54c3f0" d="M 37.5,15.5 C 33.9567,15.872 31.79,17.872 31,21.5C 24.6418,41.4109 17.8085,61.0776 10.5,80.5C 7.08041,82.2221 3.41374,82.8887 -0.5,82.5C -0.5,80.8333 -0.5,79.1667 -0.5,77.5C 6.19573,57.5824 13.0291,37.5824 20,17.5C 21.5429,15.6217 23.3762,14.1217 25.5,13C 29.4862,12.5012 33.4862,12.3345 37.5,12.5C 37.5,13.5 37.5,14.5 37.5,15.5 Z"/></g>
<g><path style="opacity:1" fill="#54c4f1" d="M 54.5,14.5 C 53.8333,14.5 53.5,14.8333 53.5,15.5C 52.1779,15.33 51.0113,15.6634 50,16.5C 42.1972,37.4096 34.6972,58.4096 27.5,79.5C 22.5444,82.3332 17.2111,83.1666 11.5,82C 10.944,81.6174 10.6107,81.1174 10.5,80.5C 13.0794,80.1476 14.9127,78.8142 16,76.5C 22.8798,56.0251 30.0465,35.6917 37.5,15.5C 42.3846,12.5846 47.718,11.7512 53.5,13C 54.056,13.3826 54.3893,13.8826 54.5,14.5 Z"/></g>
<g><path style="opacity:1" fill="#54c4f1" d="M 27.5,79.5 C 30.595,79.3737 32.4283,77.707 33,74.5C 39.7422,54.7724 46.5755,35.1057 53.5,15.5C 54.1667,15.5 54.5,15.1667 54.5,14.5C 59.6487,12.3356 64.982,12.0023 70.5,13.5C 69.3446,14.9505 67.8446,15.9505 66,16.5C 58.8028,36.4247 51.8028,56.4247 45,76.5C 43.7494,79.3807 41.5827,81.214 38.5,82C 34.8484,82.4986 31.1817,82.6653 27.5,82.5C 27.5,81.5 27.5,80.5 27.5,79.5 Z"/></g>
<g><path style="opacity:0.752" fill="#54c4f2" d="M 62.5,32.5 C 67.9586,32.1033 73.2919,32.6033 78.5,34C 80.6871,37.5579 82.6871,41.2246 84.5,45C 83.6675,46.7844 82.6675,46.7844 81.5,45C 74.1742,44.5003 66.8409,44.3337 59.5,44.5C 60.0901,40.3967 61.0901,36.3967 62.5,32.5 Z"/></g>
<g><path style="opacity:0.924" fill="#55c5f2" d="M 57.5,47.5 C 65.84,47.3336 74.1733,47.5003 82.5,48C 87.1652,51.5009 89.4985,56.0009 89.5,61.5C 88.5,61 87.5,60.5 86.5,60C 75.8385,59.5002 65.1719,59.3335 54.5,59.5C 55.0901,55.3967 56.0901,51.3967 57.5,47.5 Z"/></g>
<g><path style="opacity:1" fill="#54c4f1" d="M 95.5,73.5 C 95.5,74.5 95.5,75.5 95.5,76.5C 94.2438,76.5386 93.2438,76.0386 92.5,75C 77.822,74.8328 63.1553,74.3328 48.5,73.5C 49.74,69.9442 51.0733,66.4442 52.5,63C 64.5,62.3333 76.5,62.3333 88.5,63C 89.4162,63.3742 90.2496,63.8742 91,64.5C 92.5459,67.5919 94.0459,70.5919 95.5,73.5 Z"/></g>
</svg>
