<?xml version="1.0" encoding="UTF-8"?>
<!DOCTYPE svg PUBLIC "-//W3C//DTD SVG 1.1//EN" "http://www.w3.org/Graphics/SVG/1.1/DTD/svg11.dtd">
<svg xmlns="http://www.w3.org/2000/svg" version="1.1" width="300px" height="300px" style="shape-rendering:geometricPrecision; text-rendering:geometricPrecision; image-rendering:optimizeQuality; fill-rule:evenodd; clip-rule:evenodd" xmlns:xlink="http://www.w3.org/1999/xlink">
<g><path style="opacity:1" fill="#6cdefe" d="M 56.5,-0.5 C 118.5,-0.5 180.5,-0.5 242.5,-0.5C 269.571,5.23488 287.571,21.2349 296.5,47.5C 295.659,48.0093 295.159,47.3427 295,45.5C 294.833,46.1667 294.667,46.8333 294.5,47.5C 296.922,55.3135 297.922,63.3135 297.5,71.5C 198.833,71.1489 100.167,70.8156 1.5,70.5C 1.66551,66.4862 1.49885,62.4862 1,58.5C 0.823821,62.6877 0.323821,66.6877 -0.5,70.5C -0.5,65.8333 -0.5,61.1667 -0.5,56.5C 6.83333,25.8333 25.8333,6.83333 56.5,-0.5 Z"/></g>
<g><path style="opacity:0.999" fill="#6ee3fe" d="M 296.5,47.5 C 297.626,50.4651 298.626,53.4651 299.5,56.5C 299.5,97.1667 299.5,137.833 299.5,178.5C 298.669,163.339 298.169,148.005 298,132.5C 297.5,147.83 297.333,163.163 297.5,178.5C 282.5,178.5 267.5,178.5 252.5,178.5C 252.844,186.566 252.511,193.232 251.5,198.5C 251.667,164.498 251.5,130.498 251,96.5C 250.439,93.71 249.106,91.3766 247,89.5C 228.167,109 209.333,128.5 190.5,148C 200.369,157.702 210.036,167.535 219.5,177.5C 218.71,178.401 217.71,179.068 216.5,179.5C 206.525,170.693 196.692,161.693 187,152.5C 178.179,159.988 170.012,168.154 162.5,177C 156.393,182.359 150.059,182.692 143.5,178C 134.934,169.434 126.434,160.934 118,152.5C 109.641,160.361 101.141,168.027 92.5,175.5C 90.1396,177.011 87.6396,178.344 85,179.5C 84.5357,178.906 84.369,178.239 84.5,177.5C 94.6049,167.896 104.605,158.063 114.5,148C 95.3207,127.988 75.9874,108.154 56.5,88.5C 54.5014,90.4935 53.0014,92.8268 52,95.5C 51.5,129.832 51.3333,164.165 51.5,198.5C 50.489,193.232 50.1556,186.566 50.5,178.5C 34.1667,178.5 17.8333,178.5 1.5,178.5C 1.66659,163.163 1.49992,147.83 1,132.5C 0.831352,148.005 0.331352,163.339 -0.5,178.5C -0.5,142.5 -0.5,106.5 -0.5,70.5C 0.323821,66.6877 0.823821,62.6877 1,58.5C 1.49885,62.4862 1.66551,66.4862 1.5,70.5C 100.167,70.8156 198.833,71.1489 297.5,71.5C 297.922,63.3135 296.922,55.3135 294.5,47.5C 294.667,46.8333 294.833,46.1667 295,45.5C 295.159,47.3427 295.659,48.0093 296.5,47.5 Z"/></g>
<g><path style="opacity:1" fill="#fdfeff" d="M 61.5,84.5 C 120.834,84.3333 180.168,84.5 239.5,85C 240.624,85.2492 241.624,85.7492 242.5,86.5C 214.512,116.288 186.179,145.788 157.5,175C 153.551,177.273 149.884,176.94 146.5,174C 119.667,146.5 92.8333,119 66,91.5C 64.2502,89.2657 62.7502,86.9324 61.5,84.5 Z"/></g>
<g><path style="opacity:1" fill="#fdfeff" d="M 84.5,177.5 C 75.035,186.464 65.7016,195.631 56.5,205C 55.5509,205.617 54.7175,205.451 54,204.5C 53.4338,202.277 52.6005,200.277 51.5,198.5C 51.3333,164.165 51.5,129.832 52,95.5C 53.0014,92.8268 54.5014,90.4935 56.5,88.5C 75.9874,108.154 95.3207,127.988 114.5,148C 104.605,158.063 94.6049,167.896 84.5,177.5 Z"/></g>
<g><path style="opacity:1" fill="#fcfeff" d="M 251.5,198.5 C 250.518,200.406 249.518,202.406 248.5,204.5C 239.348,195.848 230.348,187.014 221.5,178C 220.906,177.536 220.239,177.369 219.5,177.5C 210.036,167.535 200.369,157.702 190.5,148C 209.333,128.5 228.167,109 247,89.5C 249.106,91.3766 250.439,93.71 251,96.5C 251.5,130.498 251.667,164.498 251.5,198.5 Z"/></g>
<g><path style="opacity:0.999" fill="#6febfe" d="M 51.5,198.5 C 52.6005,200.277 53.4338,202.277 54,204.5C 54.7175,205.451 55.5509,205.617 56.5,205C 65.7016,195.631 75.035,186.464 84.5,177.5C 84.369,178.239 84.5357,178.906 85,179.5C 87.6396,178.344 90.1396,177.011 92.5,175.5C 82.1721,186.661 71.3388,197.328 60,207.5C 59.4926,208.996 59.9926,210.163 61.5,211C 120.833,211.667 180.167,211.667 239.5,211C 240.872,210.598 242.205,210.098 243.5,209.5C 244.521,208.998 244.688,208.332 244,207.5C 234.631,198.298 225.464,188.965 216.5,179.5C 217.71,179.068 218.71,178.401 219.5,177.5C 220.239,177.369 220.906,177.536 221.5,178C 230.348,187.014 239.348,195.848 248.5,204.5C 249.518,202.406 250.518,200.406 251.5,198.5C 252.511,193.232 252.844,186.566 252.5,178.5C 267.5,178.5 282.5,178.5 297.5,178.5C 297.333,163.163 297.5,147.83 298,132.5C 298.169,148.005 298.669,163.339 299.5,178.5C 299.5,199.167 299.5,219.833 299.5,240.5C 298.686,238.369 298.186,236.036 298,233.5C 297.155,248.175 292.155,261.175 283,272.5C 193.57,271.668 104.07,271.168 14.5,271C 6.51315,260.18 2.01315,248.014 1,234.5C 0.809116,236.708 0.309116,238.708 -0.5,240.5C -0.5,219.833 -0.5,199.167 -0.5,178.5C 0.331352,163.339 0.831352,148.005 1,132.5C 1.49992,147.83 1.66659,163.163 1.5,178.5C 17.8333,178.5 34.1667,178.5 50.5,178.5C 50.1556,186.566 50.489,193.232 51.5,198.5 Z"/></g>
<g><path style="opacity:1" fill="#fdfeff" d="M 216.5,179.5 C 225.464,188.965 234.631,198.298 244,207.5C 244.688,208.332 244.521,208.998 243.5,209.5C 242.205,210.098 240.872,210.598 239.5,211C 180.167,211.667 120.833,211.667 61.5,211C 59.9926,210.163 59.4926,208.996 60,207.5C 71.3388,197.328 82.1721,186.661 92.5,175.5C 101.141,168.027 109.641,160.361 118,152.5C 126.434,160.934 134.934,169.434 143.5,178C 150.059,182.692 156.393,182.359 162.5,177C 170.012,168.154 178.179,159.988 187,152.5C 196.692,161.693 206.525,170.693 216.5,179.5 Z"/></g>
<g><path style="opacity:1" fill="#70eefe" d="M 299.5,240.5 C 299.5,241.167 299.5,241.833 299.5,242.5C 292.167,273.167 273.167,292.167 242.5,299.5C 180.5,299.5 118.5,299.5 56.5,299.5C 25.8333,292.167 6.83333,273.167 -0.5,242.5C -0.5,241.833 -0.5,241.167 -0.5,240.5C 0.309116,238.708 0.809116,236.708 1,234.5C 2.01315,248.014 6.51315,260.18 14.5,271C 104.07,271.168 193.57,271.668 283,272.5C 292.155,261.175 297.155,248.175 298,233.5C 298.186,236.036 298.686,238.369 299.5,240.5 Z"/></g>
</svg>
