<?xml version="1.0" encoding="UTF-8"?>
<!DOCTYPE svg PUBLIC "-//W3C//DTD SVG 1.1//EN" "http://www.w3.org/Graphics/SVG/1.1/DTD/svg11.dtd">
<svg xmlns="http://www.w3.org/2000/svg" version="1.1" width="286px" height="133px" style="shape-rendering:geometricPrecision; text-rendering:geometricPrecision; image-rendering:optimizeQuality; fill-rule:evenodd; clip-rule:evenodd" xmlns:xlink="http://www.w3.org/1999/xlink">
<g><path style="opacity:1" fill="#7dce98" d="M 60.5,4.5 C 62.4633,11.4238 63.1299,18.7572 62.5,26.5C 56.3656,46.7043 50.699,67.0376 45.5,87.5C 43.1154,90.6535 41.7821,94.3201 41.5,98.5C 56.3428,98.1707 71.0095,98.504 85.5,99.5C 70.5,99.5 55.5,99.5 40.5,99.5C 38.6247,108.333 36.1247,116.999 33,125.5C 26.8733,127.938 22.3733,126.271 19.5,120.5C 22.5962,114.444 24.2629,108.111 24.5,101.5C 25.4972,101.53 26.1639,101.03 26.5,100C 36.1943,69.249 45.6943,38.4156 55,7.5C 56.2635,5.39297 58.0968,4.39297 60.5,4.5 Z"/></g>
<g><path style="opacity:1" fill="#8bb398" d="M 60.5,4.5 C 62.5,3.16667 64.5,3.16667 66.5,4.5C 65.5,4.5 64.5,4.5 63.5,4.5C 63.5,11.8333 63.5,19.1667 63.5,26.5C 63.1667,26.5 62.8333,26.5 62.5,26.5C 63.1299,18.7572 62.4633,11.4238 60.5,4.5 Z"/></g>
<g><path style="opacity:1" fill="#292526" d="M 66.5,4.5 C 69.2919,4.45206 71.1253,5.78539 72,8.5C 83.5775,45.9768 95.0775,83.4768 106.5,121C 103.374,126.738 98.8737,128.238 93,125.5C 90.1851,116.904 87.6851,108.238 85.5,99.5C 71.0095,98.504 56.3428,98.1707 41.5,98.5C 41.7821,94.3201 43.1154,90.6535 45.5,87.5C 57.5185,87.8323 69.5185,87.499 81.5,86.5C 75.2932,66.5475 69.2932,46.5475 63.5,26.5C 63.5,19.1667 63.5,11.8333 63.5,4.5C 64.5,4.5 65.5,4.5 66.5,4.5 Z"/></g>
<g><path style="opacity:1" fill="#2a2627" d="M 146.5,4.5 C 158.362,3.28505 169.696,5.11838 180.5,10C 186.26,15.7856 185.427,20.2856 178,23.5C 172.308,21.2381 166.474,19.4048 160.5,18C 151.523,16.4536 143.357,18.2869 136,23.5C 130.287,33.3079 131.787,41.8079 140.5,49C 149.669,53.3895 159.003,57.3895 168.5,61C 185.89,72.4963 191.39,88.3296 185,108.5C 177.725,122.228 166.225,128.894 150.5,128.5C 137.479,128.732 126.313,124.399 117,115.5C 113.444,109.496 114.777,104.829 121,101.5C 126.213,105.708 131.713,109.541 137.5,113C 149.781,117.539 160.614,115.373 170,106.5C 175.889,92.503 172.389,81.6697 159.5,74C 149.464,70.4349 139.798,66.1016 130.5,61C 116.945,48.4565 114.445,33.9565 123,17.5C 129.393,10.3904 137.226,6.0571 146.5,4.5 Z"/></g>
<g><path style="opacity:1" fill="#2a2627" d="M 212.5,4.5 C 224.838,4.33346 237.171,4.50012 249.5,5C 267.534,5.70046 276.867,15.0338 277.5,33C 277.857,44.9531 273.19,54.2865 263.5,61C 276.056,66.9278 281.722,76.9278 280.5,91C 281.166,112.657 270.833,124.657 249.5,127C 237.5,127.667 225.5,127.667 213.5,127C 211.152,126.654 209.319,125.487 208,123.5C 207.333,85.1667 207.333,46.8333 208,8.5C 208.907,6.39092 210.407,5.05759 212.5,4.5 Z M 222.5,17.5 C 232.208,17.2559 241.874,17.7559 251.5,19C 257.438,20.6046 260.938,24.4379 262,30.5C 265.011,43.5072 260.177,51.5072 247.5,54.5C 239.167,54.5 230.833,54.5 222.5,54.5C 222.5,42.1667 222.5,29.8333 222.5,17.5 Z M 222.5,66.5 C 232.55,66.1687 242.55,66.6687 252.5,68C 257.188,68.9195 260.688,71.4195 263,75.5C 266.333,85.1667 266.333,94.8333 263,104.5C 259.946,109.614 255.446,112.614 249.5,113.5C 240.5,113.5 231.5,113.5 222.5,113.5C 222.5,97.8333 222.5,82.1667 222.5,66.5 Z"/></g>
<g><path style="opacity:1" fill="#888686" d="M 222.5,17.5 C 222.5,29.8333 222.5,42.1667 222.5,54.5C 230.833,54.5 239.167,54.5 247.5,54.5C 239.016,55.493 230.349,55.8264 221.5,55.5C 221.171,42.6557 221.505,29.989 222.5,17.5 Z"/></g>
<g><path style="opacity:1" fill="#989697" d="M 222.5,66.5 C 222.5,82.1667 222.5,97.8333 222.5,113.5C 231.5,113.5 240.5,113.5 249.5,113.5C 240.348,114.494 231.015,114.827 221.5,114.5C 221.17,98.3246 221.504,82.3246 222.5,66.5 Z"/></g>
<g><path style="opacity:1" fill="#319a43" d="M 24.5,101.5 C 24.2629,108.111 22.5962,114.444 19.5,120.5C 14.3451,111.527 9.17847,102.527 4,93.5C 4.03467,86.0317 7.868,83.1984 15.5,85C 18.9058,90.3141 21.9058,95.8141 24.5,101.5 Z"/></g>
</svg>
