<?xml version="1.0" encoding="UTF-8"?>
<svg width="32px" height="32px" viewBox="0 0 32 32" version="1.1" xmlns="http://www.w3.org/2000/svg" xmlns:xlink="http://www.w3.org/1999/xlink">
    <title>1E560370-AF24-4806-846D-DBBBFBA8CAA4</title>
    <g id="BC-Upsell" stroke="none" stroke-width="1" fill="none" fill-rule="evenodd">
        <g id="980_bahn.de_BC-Upsell" transform="translate(-16.000000, -12.000000)" fill="#EC0016">
            <g id="🎨-Color" transform="translate(16.000000, 12.000000)">
                <path d="M27.17,6.00029054 C27.9134053,5.98961275 28.6303247,6.27609328 29.1616481,6.79615187 C29.6929715,7.31621046 29.9947471,8.0268271 30,8.77029054 L30,8.77029054 L30,22.7702905 C29.9945142,24.3309785 28.7306879,25.5948048 27.17,25.6002905 L27.17,25.6002905 L4.8,25.6002905 C4.05299814,25.5976511 3.33779052,25.2976828 2.81239924,24.7666623 C2.28700796,24.2356418 1.99467856,23.5172781 1.9999286,22.7702905 L1.9999286,22.7702905 L1.9999286,8.77029054 C1.99723837,8.02957732 2.29232529,7.31884117 2.81890565,6.79790275 C3.345486,6.27696433 4.0593595,5.98955035 4.8,6.00029054 L4.8,6.00029054 Z M4.8,8.00029054 C4.5882409,7.98285785 4.3792052,8.05729036 4.22611944,8.20463541 C4.07303367,8.35198046 3.99066978,8.55802005 4,8.77029054 L4,8.77029054 L4,22.7702905 C3.9880285,22.9850289 4.06882082,23.1945734 4.22185296,23.3456926 C4.37488511,23.4968118 4.58542925,23.5749621 4.8,23.5602905 L4.8,23.5602905 L27.21,23.5602905 C27.4211765,23.5658507 27.6253629,23.4844056 27.774739,23.3350295 C27.9241151,23.1856534 28.0055602,22.9814671 28,22.7702905 L28,22.7702905 L27.96,8.78029054 C27.9657038,8.5699706 27.8839646,8.36669674 27.7342467,8.218874 C27.5845288,8.07105126 27.3802302,7.99190806 27.17,8.00029054 L27.17,8.00029054 Z M22.44,9.38029054 C24.7,9.38029054 26.08,10.6102905 26.08,12.4902905 C26.0572843,13.8683259 25.1547994,15.077011 23.84,15.4902905 C25.4010284,15.6846677 26.5625514,17.0275437 26.53,18.6002905 C26.53,21.1502905 24.79,22.2102905 21.6,22.2102905 L21.6,22.2102905 L17.06,22.2102905 L17.06,9.38029054 Z M10.57,9.36029054 C13.87,9.36029054 15.72,11.4602905 15.72,15.7202905 C15.72,19.4402905 14.46,22.1802905 10.57,22.2102905 L5.84,22.2102905 L5.84,9.36029054 L10.57,9.36029054 Z M21.46,16.8402905 L20.12,16.8402905 L20.12,20.1102905 L21.4367342,20.1102067 C21.9663374,20.1080272 23.4503704,20.0491794 23.46,18.4602905 C23.46,17.7602905 23.06,16.8402905 21.46,16.8402905 L21.46,16.8402905 Z M9.61,11.4002905 L8.92,11.4002905 L8.92,20.1102905 L10,20.1102905 C11.66,20.1102905 12.61,18.8202905 12.61,16.0002905 C12.61,13.4202905 12.33,11.4002905 9.61,11.4002905 Z M21.07,11.3502905 L20.12,11.3502905 L20.12,14.4602905 L21.32,14.4602905 C21.758134,14.5036666 22.1937187,14.3561973 22.5153937,14.0555844 C22.8370687,13.7549715 23.0136524,13.3303548 23,12.8902905 C23,11.8202905 22.47,11.3502905 21.07,11.3502905 L21.07,11.3502905 Z"></path>
            </g>
        </g>
    </g>
</svg>