<?xml version="1.0" encoding="UTF-8"?>
<svg width="778px" height="243px" viewBox="0 0 778 243" version="1.1" xmlns="http://www.w3.org/2000/svg" xmlns:xlink="http://www.w3.org/1999/xlink">
    <!-- Generator: Sketch 58 (84663) - https://sketch.com -->
    <title>BI_DE_blue_background_vertical</title>
    <desc>Created with Sketch.</desc>
    <g id="Page-1" stroke="none" stroke-width="1" fill="none" fill-rule="evenodd">
        <g id="BI_DE_blue_background_vertical" fill="#000000">
            <g id="Group">
                <g>
                    <g transform="translate(64.000000, 146.000000)">
                        <rect id="Rectangle" fill-rule="nonzero" x="0.92" y="1.9" width="16.32" height="93.47"></rect>
                        <polygon id="Path" points="63.96 95.22 79.64 95.22 79.64 34.43 145.65 96.67 145.65 1.75 130.01 1.75 130.01 61.51 63.96 0.3"></polygon>
                        <path d="M187.55,72 C196.19048,78.9341661 206.921365,82.7437183 218,82.81 C229,82.81 236.64,79.01 236.64,70.62 C236.64,63.31 231.74,60.45 223.15,57.23 L209.26,52.37 C196.45,47.79 186.71,41.09 186.71,25.71 C186.71,9.25 201.46,0.3 219.09,0.3 C229.89,0.3 239.74,3.04 247.43,7.89 L247.43,24.21 C239.43,18.21 230.68,14.15 219.43,14.15 C209.75,14.15 202.51,17.79 202.51,25.38 C202.51,32.25 207.05,34.99 215.05,37.75 L230.53,43.23 C245.53,48.54 252.42,56.78 252.42,70.33 C252.42,87.39 237.53,96.8 217.99,96.8 C205.15,96.8 194.24,93.18 187.52,88.62 L187.55,72 Z" id="Path"></path>
                        <rect id="Rectangle" fill-rule="nonzero" x="294.68" y="1.9" width="16.3" height="93.48"></rect>
                        <path d="M358.62,1.9 L395.43,1.9 C423.77,1.9 442.09,20.16 442.09,48.61 C442.09,77.06 423.77,95.37 395.43,95.37 L358.62,95.37 L358.62,1.9 Z M394.82,81.23 C414.98,81.23 425.76,68.58 425.76,48.61 C425.76,28.64 415,15.89 394.82,15.89 L374.89,15.89 L374.89,81.22 L394.82,81.23 Z" id="Shape"></path>
                        <polygon id="Path" points="534.74 1.9 534.74 15.89 492.48 15.89 492.48 38.39 530.38 38.39 530.38 52.23 492.48 52.23 492.48 81.23 534.74 81.23 534.74 95.37 476.53 95.37 476.53 1.9"></polygon>
                        <path d="M599.68,57.44 L599.68,95.36 L583.44,95.36 L583.44,1.9 L618.25,1.9 C638.1,1.9 650.93,11.62 650.93,29.9 C650.93,45.55 643.81,54.53 628.62,56.84 L663.16,95.35 L644.68,95.35 L611.24,57.43 L599.68,57.44 Z M599.68,44.22 L617.93,44.22 C628.74,44.22 634.83,38.58 634.83,29.92 C634.83,21.26 628.74,15.61 617.93,15.61 L599.68,15.61 L599.68,44.22 Z" id="Shape"></path>
                    </g>
                    <path d="M712.69,89.14 C719.46,93.74 730.47,97.41 743.38,97.41 C763.05,97.41 778,87.91 778,70.76 C778,57.13 771.07,48.85 756,43.49 L740.39,38 C732.39,35.24 727.8,32.49 727.8,25.59 C727.8,17.93 735.04,14.25 744.8,14.25 C756.13,14.25 764.94,18.39 772.97,24.36 L772.97,8 C765.26,3.1 755.34,0.34 744.48,0.34 C726.7,0.34 711.9,9.34 711.9,25.92 C711.9,41.39 721.66,48.13 734.56,52.73 L748.56,57.63 C757.22,60.85 762.09,63.76 762.09,71.11 C762.09,79.53 754.38,83.37 743.36,83.37 C732.197513,83.307777 721.383191,79.4774847 712.67,72.5 L712.69,89.14 Z M613.84,89.14 C620.61,93.74 631.62,97.41 644.53,97.41 C664.2,97.41 679.15,87.91 679.15,70.76 C679.15,57.13 672.23,48.85 657.15,43.49 L641.54,38 C633.54,35.24 628.95,32.49 628.95,25.59 C628.95,17.93 636.19,14.25 645.95,14.25 C657.28,14.25 666.1,18.39 674.12,24.36 L674.12,8 C666.41,3.1 656.49,0.34 645.63,0.34 C627.85,0.34 613.05,9.34 613.05,25.92 C613.05,41.39 622.81,48.13 635.71,52.73 L649.71,57.63 C658.37,60.85 663.24,63.76 663.24,71.11 C663.24,79.53 655.53,83.37 644.51,83.37 C633.347513,83.307777 622.533191,79.4774847 613.82,72.5 L613.84,89.14 Z M575.73,1.92 L575.73,16 L533.24,16 L533.24,38.63 L571.35,38.63 L571.35,52.55 L533.24,52.55 L533.24,81.72 L575.73,81.72 L575.73,96 L517.2,96 L517.2,2 L575.73,1.92 Z M391.31,95.82 L407.08,95.82 L407.08,34.64 L473.46,97.27 L473.46,1.75 L457.73,1.75 L457.73,61.9 L391.31,0.3 L391.31,95.82 Z M344.61,1.9 L328.24,1.9 L328.24,95.9 L344.6,95.9 L344.61,1.9 Z M220.81,89.2 C227.58,93.79 238.59,97.47 251.5,97.47 C271.17,97.47 286.12,87.97 286.12,70.82 C286.12,57.19 279.2,48.92 264.12,43.56 L248.51,38 C240.51,35.24 235.92,32.48 235.92,25.59 C235.92,17.93 243.16,14.25 252.92,14.25 C264.25,14.25 273.06,18.38 281.09,24.36 L281.09,8 C273.38,3.1 263.46,0.35 252.6,0.35 C234.82,0.35 220.02,9.35 220.02,25.93 C220.02,41.4 229.78,48.14 242.68,52.73 L256.68,57.63 C265.34,60.85 270.21,63.76 270.21,71.11 C270.21,79.53 262.5,83.36 251.48,83.36 C240.317239,83.2993441 229.502418,79.4688748 220.79,72.49 L220.81,89.2 Z M143.55,97.47 C166.69,97.47 182.27,84.3 182.27,58.57 L182.27,1.9 L165.9,1.9 L165.9,56.73 C165.9,74.8 158.03,83.23 143.55,83.23 C129.07,83.23 121.2,74.81 121.2,56.73 L121.2,1.9 L104.84,1.9 L104.84,58.42 C104.84,84.3 120.58,97.47 143.55,97.47 L143.55,97.47 Z M15.9,54.59 L36.67,54.59 C47.67,54.59 53.67,59.8 53.67,68.37 C53.67,76.79 47.67,82.15 36.67,82.15 L15.9,82.15 L15.9,54.59 Z M15.9,41.42 L15.9,15.68 L33.68,15.68 C44.85,15.68 50.83,19.51 50.83,28.39 C50.83,37.27 44.83,41.39 33.68,41.39 L15.9,41.42 Z M53.99,47.42 C61.07,44.97 66.58,37.62 66.58,27.51 C66.58,10.66 53.99,1.93 33.84,1.93 L0,1.93 L0,95.93 L37,95.93 C57.15,95.93 69.74,86.59 69.74,68.93 C69.6767965,59.1104602 63.3362096,50.4334434 54,47.39 L53.99,47.42 Z" id="Shape"></path>
                </g>
            </g>
        </g>
    </g>
</svg>