<?xml version="1.0" encoding="UTF-8"?>
<!DOCTYPE svg PUBLIC "-//W3C//DTD SVG 1.1//EN" "http://www.w3.org/Graphics/SVG/1.1/DTD/svg11.dtd">
<svg xmlns="http://www.w3.org/2000/svg" version="1.1" width="527px" height="633px" style="shape-rendering:geometricPrecision; text-rendering:geometricPrecision; image-rendering:optimizeQuality; fill-rule:evenodd; clip-rule:evenodd" xmlns:xlink="http://www.w3.org/1999/xlink">
<g><path style="opacity:1" fill="#fefefe" d="M -0.5,-0.5 C 55.1667,-0.5 110.833,-0.5 166.5,-0.5C 157.921,2.72926 150.754,8.06259 145,15.5C 138.827,25.1753 133.16,35.1753 128,45.5C 119.946,55.8877 112.279,66.5543 105,77.5C 101.848,85.7718 98.8481,94.1051 96,102.5C 93.2031,106.299 90.0364,109.799 86.5,113C 81.353,116.32 76.6864,120.153 72.5,124.5C 69.7022,125.706 67.5355,127.706 66,130.5C 64.5285,134.581 62.8618,138.581 61,142.5C 50.9813,157.202 43.648,173.202 39,190.5C 36.4145,200.01 33.9145,209.51 31.5,219C 31.7414,222.207 32.2414,225.374 33,228.5C 35.6667,235.167 38.3333,241.833 41,248.5C 41.0625,275.864 41.7291,303.198 43,330.5C 45.9278,341.284 49.2611,351.95 53,362.5C 56.5926,375.019 57.2593,387.686 55,400.5C 51.551,404.652 47.3843,407.986 42.5,410.5C 43.0318,412.741 44.3651,414.241 46.5,415C 49.8168,415.498 53.1501,415.665 56.5,415.5C 58.4655,424.297 63.9655,428.963 73,429.5C 91.9058,426.355 96.9058,416.355 88,399.5C 82.7374,394.235 76.9041,389.735 70.5,386C 63.7623,378.923 60.4289,370.423 60.5,360.5C 60.4925,349.431 61.3258,338.431 63,327.5C 69.7484,339.332 76.7484,350.999 84,362.5C 88.5695,367.313 92.9029,372.313 97,377.5C 98.2554,384.059 98.9221,390.726 99,397.5C 101.36,401.597 104.86,404.097 109.5,405C 119.642,405.908 129.642,405.074 139.5,402.5C 136.175,395.179 132.341,388.179 128,381.5C 119.712,375.547 111.712,369.214 104,362.5C 101.158,358.644 99.4913,354.31 99,349.5C 98.3333,327.5 98.3333,305.5 99,283.5C 103.746,274.339 108.746,265.339 114,256.5C 118.738,249.206 125.238,246.539 133.5,248.5C 141.731,255.972 151.564,259.639 163,259.5C 171.921,258.99 180.755,257.824 189.5,256C 199.114,253.129 208.78,250.462 218.5,248C 225.863,246.507 232.696,247.674 239,251.5C 242.847,257.216 244.68,263.55 244.5,270.5C 240.533,306.716 238.699,343.049 239,379.5C 238.792,388.755 236.459,397.421 232,405.5C 228.667,410.167 225.333,414.833 222,419.5C 221.348,422.594 221.682,425.594 223,428.5C 236.759,444.087 253.593,448.92 273.5,443C 277.613,440.606 279.446,437.106 279,432.5C 273.376,429.607 267.543,427.107 261.5,425C 255.302,418.795 256.302,414.462 264.5,412C 271.5,411.667 278.5,411.333 285.5,411C 291.893,407.77 292.893,403.437 288.5,398C 282.325,394.412 275.991,391.078 269.5,388C 256.894,376.154 255.061,362.654 264,347.5C 270.667,336.833 277.333,326.167 284,315.5C 285.587,310.232 286.92,304.899 288,299.5C 288.432,284.347 290.098,269.347 293,254.5C 296.321,244.021 302.821,236.188 312.5,231C 318.928,230.25 324.928,231.583 330.5,235C 338.149,241.158 346.149,246.825 354.5,252C 361.592,254.083 368.592,253.75 375.5,251C 398.333,238.833 415.833,221.333 428,198.5C 436.1,182.968 443.1,166.968 449,150.5C 461.419,124.077 480.919,105.244 507.5,94C 511.121,90.8856 512.788,86.8856 512.5,82C 511.358,73.3822 508.025,65.7155 502.5,59C 494.811,58.3533 487.144,58.52 479.5,59.5C 479.762,54.5243 477.762,50.691 473.5,48C 465.834,44.6083 457.834,42.275 449.5,41C 443.236,37.7302 437.236,34.0635 431.5,30C 423.946,26.3572 416.613,26.6905 409.5,31C 402.593,37.2362 396.427,44.0695 391,51.5C 389.47,60.4575 388.137,69.4575 387,78.5C 384.814,82.1983 382.147,85.5317 379,88.5C 377.725,90.7173 376.725,93.0506 376,95.5C 375.667,103.5 375.333,111.5 375,119.5C 369.245,135.964 358.412,140.797 342.5,134C 338.217,131.385 334.217,128.385 330.5,125C 323.167,116.333 315.167,108.333 306.5,101C 294.993,95.4513 282.993,91.118 270.5,88C 260.261,83.4302 251.428,76.9302 244,68.5C 232.848,54.8596 222.181,40.8596 212,26.5C 204.318,16.1466 194.818,7.97998 183.5,2C 181.26,1.02304 178.927,0.523039 176.5,0.5C 176.5,0.166667 176.5,-0.166667 176.5,-0.5C 293.167,-0.5 409.833,-0.5 526.5,-0.5C 526.5,210.5 526.5,421.5 526.5,632.5C 350.833,632.5 175.167,632.5 -0.5,632.5C -0.5,421.5 -0.5,210.5 -0.5,-0.5 Z"/></g>
<g><path style="opacity:1" fill="#dd8029" d="M 166.5,-0.5 C 169.833,-0.5 173.167,-0.5 176.5,-0.5C 176.5,-0.166667 176.5,0.166667 176.5,0.5C 176.667,57.1676 176.5,113.834 176,170.5C 167.508,174.41 159.508,179.076 152,184.5C 151.833,202.842 151.333,221.176 150.5,239.5C 144.648,242.258 138.981,245.258 133.5,248.5C 125.238,246.539 118.738,249.206 114,256.5C 108.746,265.339 103.746,274.339 99,283.5C 98.3333,305.5 98.3333,327.5 99,349.5C 99.4913,354.31 101.158,358.644 104,362.5C 111.712,369.214 119.712,375.547 128,381.5C 132.341,388.179 136.175,395.179 139.5,402.5C 129.642,405.074 119.642,405.908 109.5,405C 104.86,404.097 101.36,401.597 99,397.5C 98.9221,390.726 98.2554,384.059 97,377.5C 92.9029,372.313 88.5695,367.313 84,362.5C 76.7484,350.999 69.7484,339.332 63,327.5C 61.3258,338.431 60.4925,349.431 60.5,360.5C 59.3381,343.005 59.1714,325.338 60,307.5C 63.0851,295.99 65.4185,284.324 67,272.5C 68.0647,266.973 69.7314,261.64 72,256.5C 72.5,212.501 72.6667,168.501 72.5,124.5C 76.6864,120.153 81.353,116.32 86.5,113C 90.0364,109.799 93.2031,106.299 96,102.5C 98.8481,94.1051 101.848,85.7718 105,77.5C 112.279,66.5543 119.946,55.8877 128,45.5C 133.16,35.1753 138.827,25.1753 145,15.5C 150.754,8.06259 157.921,2.72926 166.5,-0.5 Z"/></g>
<g><path style="opacity:1" fill="#d98228" d="M 176.5,0.5 C 178.927,0.523039 181.26,1.02304 183.5,2C 194.818,7.97998 204.318,16.1466 212,26.5C 222.181,40.8596 232.848,54.8596 244,68.5C 251.428,76.9302 260.261,83.4302 270.5,88C 282.993,91.118 294.993,95.4513 306.5,101C 315.167,108.333 323.167,116.333 330.5,125C 334.217,128.385 338.217,131.385 342.5,134C 358.412,140.797 369.245,135.964 375,119.5C 375.333,111.5 375.667,103.5 376,95.5C 376.725,93.0506 377.725,90.7173 379,88.5C 382.147,85.5317 384.814,82.1983 387,78.5C 388.137,69.4575 389.47,60.4575 391,51.5C 396.427,44.0695 402.593,37.2362 409.5,31C 416.613,26.6905 423.946,26.3572 431.5,30C 437.236,34.0635 443.236,37.7302 449.5,41C 457.834,42.275 465.834,44.6083 473.5,48C 477.762,50.691 479.762,54.5243 479.5,59.5C 487.144,58.52 494.811,58.3533 502.5,59C 508.025,65.7155 511.358,73.3822 512.5,82C 512.788,86.8856 511.121,90.8856 507.5,94C 480.919,105.244 461.419,124.077 449,150.5C 443.1,166.968 436.1,182.968 428,198.5C 415.833,221.333 398.333,238.833 375.5,251C 368.592,253.75 361.592,254.083 354.5,252C 346.149,246.825 338.149,241.158 330.5,235C 324.928,231.583 318.928,230.25 312.5,231C 302.821,236.188 296.321,244.021 293,254.5C 290.098,269.347 288.432,284.347 288,299.5C 286.92,304.899 285.587,310.232 284,315.5C 277.333,326.167 270.667,336.833 264,347.5C 255.061,362.654 256.894,376.154 269.5,388C 275.991,391.078 282.325,394.412 288.5,398C 292.893,403.437 291.893,407.77 285.5,411C 278.5,411.333 271.5,411.667 264.5,412C 256.302,414.462 255.302,418.795 261.5,425C 267.543,427.107 273.376,429.607 279,432.5C 279.446,437.106 277.613,440.606 273.5,443C 253.593,448.92 236.759,444.087 223,428.5C 221.682,425.594 221.348,422.594 222,419.5C 225.333,414.833 228.667,410.167 232,405.5C 236.459,397.421 238.792,388.755 239,379.5C 238.699,343.049 240.533,306.716 244.5,270.5C 244.68,263.55 242.847,257.216 239,251.5C 232.696,247.674 225.863,246.507 218.5,248C 208.78,250.462 199.114,253.129 189.5,256C 180.755,257.824 171.921,258.99 163,259.5C 151.564,259.639 141.731,255.972 133.5,248.5C 138.981,245.258 144.648,242.258 150.5,239.5C 151.333,221.176 151.833,202.842 152,184.5C 159.508,179.076 167.508,174.41 176,170.5C 176.5,113.834 176.667,57.1676 176.5,0.5 Z"/></g>
<g><path style="opacity:1" fill="#e17e29" d="M 72.5,124.5 C 72.6667,168.501 72.5,212.501 72,256.5C 69.7314,261.64 68.0647,266.973 67,272.5C 65.4185,284.324 63.0851,295.99 60,307.5C 59.1714,325.338 59.3381,343.005 60.5,360.5C 60.4289,370.423 63.7623,378.923 70.5,386C 76.9041,389.735 82.7374,394.235 88,399.5C 96.9058,416.355 91.9058,426.355 73,429.5C 63.9655,428.963 58.4655,424.297 56.5,415.5C 53.1501,415.665 49.8168,415.498 46.5,415C 44.3651,414.241 43.0318,412.741 42.5,410.5C 47.3843,407.986 51.551,404.652 55,400.5C 57.2593,387.686 56.5926,375.019 53,362.5C 49.2611,351.95 45.9278,341.284 43,330.5C 41.7291,303.198 41.0625,275.864 41,248.5C 38.3333,241.833 35.6667,235.167 33,228.5C 32.2414,225.374 31.7414,222.207 31.5,219C 33.9145,209.51 36.4145,200.01 39,190.5C 43.648,173.202 50.9813,157.202 61,142.5C 62.8618,138.581 64.5285,134.581 66,130.5C 67.5355,127.706 69.7022,125.706 72.5,124.5 Z"/></g>
<g><path style="opacity:1" fill="#d9832a" d="M 266.5,531.5 C 280.651,529.204 291.651,533.871 299.5,545.5C 310.148,531.583 323.815,527.75 340.5,534C 350.92,538.42 356.754,546.253 358,557.5C 358.5,581.498 358.667,605.498 358.5,629.5C 350.167,629.5 341.833,629.5 333.5,629.5C 333.667,607.831 333.5,586.164 333,564.5C 329,552.257 321.166,549.091 309.5,555C 306.193,557.778 304.026,561.278 303,565.5C 302.5,586.831 302.333,608.164 302.5,629.5C 294.167,629.5 285.833,629.5 277.5,629.5C 277.667,607.164 277.5,584.831 277,562.5C 274.427,555.603 269.427,552.27 262,552.5C 253.761,552.402 248.761,556.402 247,564.5C 246.5,586.164 246.333,607.831 246.5,629.5C 238.167,629.5 229.833,629.5 221.5,629.5C 221.5,597.5 221.5,565.5 221.5,533.5C 229.5,533.5 237.5,533.5 245.5,533.5C 245.334,538.179 245.501,542.845 246,547.5C 250.434,538.879 257.267,533.546 266.5,531.5 Z"/></g>
<g><path style="opacity:1" fill="#d88229" d="M 485.5,500.5 C 493.833,500.5 502.167,500.5 510.5,500.5C 510.5,543.5 510.5,586.5 510.5,629.5C 502.167,629.5 493.833,629.5 485.5,629.5C 485.5,586.5 485.5,543.5 485.5,500.5 Z"/></g>
<g><path style="opacity:1" fill="#d88229" d="M 50.5,531.5 C 62.8294,530.266 74.4961,532.433 85.5,538C 95.6645,545.159 100.998,554.992 101.5,567.5C 92.8333,567.5 84.1667,567.5 75.5,567.5C 73.498,554.98 66.1647,550.146 53.5,553C 42.7671,559.148 38.1004,568.481 39.5,581C 38.8472,590.278 41.0139,598.778 46,606.5C 56.0197,613.872 65.0197,612.872 73,603.5C 74.9076,600.794 75.741,597.794 75.5,594.5C 84.1667,594.5 92.8333,594.5 101.5,594.5C 97.1383,619.357 82.305,631.691 57,631.5C 29.9272,630.762 15.5938,616.762 14,589.5C 11.3423,569.589 17.1756,552.756 31.5,539C 37.4234,535.198 43.7567,532.698 50.5,531.5 Z"/></g>
<g><path style="opacity:1" fill="#d88229" d="M 411.5,531.5 C 451.071,529.74 469.404,548.74 466.5,588.5C 444.833,588.5 423.167,588.5 401.5,588.5C 403.106,607.984 413.44,615.151 432.5,610C 435.695,608.305 438.028,605.805 439.5,602.5C 448.167,601.167 456.833,601.167 465.5,602.5C 460.522,618.978 449.522,628.478 432.5,631C 413.571,634.801 397.738,629.634 385,615.5C 380.65,608.796 377.983,601.462 377,593.5C 374.532,577.998 376.866,563.332 384,549.5C 390.837,539.838 400.004,533.838 411.5,531.5 Z"/></g>
<g><path style="opacity:1" fill="#fefcfb" d="M 440.5,571.5 C 427.456,572.147 414.789,571.48 402.5,569.5C 404.272,558.729 410.606,552.729 421.5,551.5C 433.327,552.993 439.661,559.66 440.5,571.5 Z"/></g>
<g><path style="opacity:1" fill="#d8832a" d="M 147.5,531.5 C 162.923,529.281 177.256,532.114 190.5,540C 194.145,543.453 196.645,547.62 198,552.5C 198.333,574.833 198.667,597.167 199,619.5C 199.518,622.023 200.852,624.023 203,625.5C 203.49,626.793 203.657,628.127 203.5,629.5C 194.475,629.832 185.475,629.498 176.5,628.5C 175.605,625.192 174.771,621.859 174,618.5C 160.299,632.052 144.465,635.219 126.5,628C 114.613,618.844 111.113,607.01 116,592.5C 119.235,583.599 125.402,577.766 134.5,575C 145.112,573.071 155.778,571.405 166.5,570C 174.631,566.096 175.631,560.762 169.5,554C 161.25,550.353 153.25,550.687 145.5,555C 143.098,557.703 141.765,560.87 141.5,564.5C 133.5,564.5 125.5,564.5 117.5,564.5C 119.2,545.806 129.2,534.806 147.5,531.5 Z"/></g>
<g><path style="opacity:1" fill="#ecc4a6" d="M 402.5,569.5 C 414.789,571.48 427.456,572.147 440.5,571.5C 427.677,572.495 414.677,572.829 401.5,572.5C 401.263,571.209 401.596,570.209 402.5,569.5 Z"/></g>
<g><path style="opacity:1" fill="#fefcfb" d="M 171.5,583.5 C 176.528,604.667 167.861,614.501 145.5,613C 139.823,609.364 137.99,604.197 140,597.5C 141.122,595.376 142.622,593.543 144.5,592C 153.555,588.952 162.555,586.118 171.5,583.5 Z"/></g>
</svg>
