<?xml version="1.0" encoding="UTF-8"?>
<!DOCTYPE svg PUBLIC "-//W3C//DTD SVG 1.1//EN" "http://www.w3.org/Graphics/SVG/1.1/DTD/svg11.dtd">
<svg xmlns="http://www.w3.org/2000/svg" version="1.1" width="224px" height="224px" style="shape-rendering:geometricPrecision; text-rendering:geometricPrecision; image-rendering:optimizeQuality; fill-rule:evenodd; clip-rule:evenodd" xmlns:xlink="http://www.w3.org/1999/xlink">
<g><path style="opacity:1" fill="#24435b" d="M 177.5,5.5 C 177.5,5.83333 177.5,6.16667 177.5,6.5C 162.929,4.61228 148.595,5.61228 134.5,9.5C 138.403,7.1022 142.736,5.76887 147.5,5.5C 157.488,4.31346 167.488,4.31346 177.5,5.5 Z"/></g>
<g><path style="opacity:1" fill="#403b4a" d="M 177.5,6.5 C 179.902,7.99255 182.569,8.99255 185.5,9.5C 184.306,10.7773 182.64,11.4439 180.5,11.5C 171.667,12.0114 163,12.678 154.5,13.5C 151.171,13.2153 148.171,13.8819 145.5,15.5C 145.167,15.5 144.833,15.5 144.5,15.5C 141.848,15.4095 139.515,16.0762 137.5,17.5C 136.486,18.6737 135.153,19.3404 133.5,19.5C 132.826,17.9755 131.826,16.6422 130.5,15.5C 132.078,14.7022 133.744,14.2022 135.5,14C 133.5,13.6667 131.5,13.3333 129.5,13C 131.233,11.8111 132.9,10.6444 134.5,9.5C 148.595,5.61228 162.929,4.61228 177.5,6.5 Z"/></g>
<g><path style="opacity:1" fill="#174156" d="M 177.5,6.5 C 186.561,6.99193 194.227,10.3253 200.5,16.5C 197.222,15.1911 194.222,13.3578 191.5,11C 190.207,10.51 188.873,10.3433 187.5,10.5C 187.158,9.66175 186.492,9.32842 185.5,9.5C 182.569,8.99255 179.902,7.99255 177.5,6.5 Z"/></g>
<g><path style="opacity:1" fill="#40362f" d="M 185.5,9.5 C 186.492,9.32842 187.158,9.66175 187.5,10.5C 186.547,12.61 184.881,13.7767 182.5,14C 184.285,15.1628 186.285,15.8295 188.5,16C 189.665,17.9917 190.998,19.825 192.5,21.5C 187.573,18.5943 182.24,16.5943 176.5,15.5C 175.737,14.7321 174.737,14.2321 173.5,14C 167.175,13.5005 160.842,13.3338 154.5,13.5C 163,12.678 171.667,12.0114 180.5,11.5C 182.64,11.4439 184.306,10.7773 185.5,9.5 Z"/></g>
<g><path style="opacity:1" fill="#936e33" d="M 154.5,13.5 C 160.842,13.3338 167.175,13.5005 173.5,14C 174.737,14.2321 175.737,14.7321 176.5,15.5C 166.167,14.1667 155.833,14.1667 145.5,15.5C 148.171,13.8819 151.171,13.2153 154.5,13.5 Z"/></g>
<g><path style="opacity:1" fill="#2f2b31" d="M 187.5,10.5 C 188.873,10.3433 190.207,10.51 191.5,11C 194.222,13.3578 197.222,15.1911 200.5,16.5C 203.386,17.5964 205.386,19.5964 206.5,22.5C 207.15,24.4352 207.483,26.4352 207.5,28.5C 207.719,29.675 207.386,30.675 206.5,31.5C 205.319,29.8647 205.319,28.198 206.5,26.5C 205.675,25.6143 204.675,25.281 203.5,25.5C 203.662,27.5273 203.495,29.5273 203,31.5C 202.241,29.9371 201.074,28.9371 199.5,28.5C 197.473,25.8061 195.139,23.4728 192.5,21.5C 190.998,19.825 189.665,17.9917 188.5,16C 186.285,15.8295 184.285,15.1628 182.5,14C 184.881,13.7767 186.547,12.61 187.5,10.5 Z"/></g>
<g><path style="opacity:1" fill="#735932" d="M 144.5,15.5 C 142.485,16.9238 140.152,17.5905 137.5,17.5C 139.515,16.0762 141.848,15.4095 144.5,15.5 Z"/></g>
<g><path style="opacity:1" fill="#4a3d43" d="M 129.5,20.5 C 129.5,20.8333 129.5,21.1667 129.5,21.5C 125.019,22.9754 121.019,25.3088 117.5,28.5C 117.525,25.821 118.858,24.4877 121.5,24.5C 121.5,23.1667 121.5,21.8333 121.5,20.5C 124.167,20.5 126.833,20.5 129.5,20.5 Z"/></g>
<g><path style="opacity:1" fill="#faa824" d="M 191.5,36.5 C 189.703,35.2702 187.703,34.6036 185.5,34.5C 185.5,35.5 185.5,36.5 185.5,37.5C 184.5,37.5 183.5,37.5 182.5,37.5C 178.3,36.138 177.3,33.8046 179.5,30.5C 179.167,30.1667 178.833,29.8333 178.5,29.5C 173.062,29.4478 167.728,29.7811 162.5,30.5C 161.167,30.8333 159.833,31.1667 158.5,31.5C 156.973,31.427 155.973,32.0937 155.5,33.5C 154.833,33.5 154.167,33.5 153.5,33.5C 152.07,33.5792 150.736,33.2458 149.5,32.5C 148.205,33.0983 146.872,33.5983 145.5,34C 145.833,34.3333 146.167,34.6667 146.5,35C 145.167,35.6667 143.833,35.6667 142.5,35C 138.47,30.2685 139.804,27.6019 146.5,27C 144.04,24.0107 141.04,23.1774 137.5,24.5C 140.133,25.8844 140.133,27.2178 137.5,28.5C 134.987,22.2762 131.82,21.9429 128,27.5C 127.283,26.9558 126.783,26.2891 126.5,25.5C 127.5,24.1667 128.5,22.8333 129.5,21.5C 135.153,20.9402 140.486,19.4402 145.5,17C 154.5,16.3333 163.5,16.3333 172.5,17C 171.167,17.3333 169.833,17.6667 168.5,18C 170.962,19.2156 173.629,19.8823 176.5,20C 174.122,20.9745 174.456,21.6411 177.5,22C 178.634,23.016 178.301,23.6827 176.5,24C 178.028,25.3613 179.695,26.528 181.5,27.5C 184.555,26.1669 187.555,24.8335 190.5,23.5C 191.308,23.8076 191.975,24.3076 192.5,25C 191.231,27.1385 191.231,29.3052 192.5,31.5C 193.675,30.1451 194.675,30.3117 195.5,32C 192.894,32.4505 191.561,33.9505 191.5,36.5 Z"/></g>
<g><path style="opacity:1" fill="#1b2a37" d="M 206.5,22.5 C 208.924,25.0078 210.59,28.0078 211.5,31.5C 211.259,33.8984 211.926,35.8984 213.5,37.5C 216.129,54.983 212.462,70.983 202.5,85.5C 203.547,82.4037 204.88,79.4037 206.5,76.5C 204.518,76.5478 202.518,75.8811 200.5,74.5C 201.167,72.5 201.833,70.5 202.5,68.5C 204.279,69.6697 205.279,71.3364 205.5,73.5C 206.5,73.5 207.5,73.5 208.5,73.5C 213.167,59.6607 213.667,45.6607 210,31.5C 209.623,30.0577 208.79,29.0577 207.5,28.5C 207.483,26.4352 207.15,24.4352 206.5,22.5 Z"/></g>
<g><path style="opacity:1" fill="#15a6e5" d="M 152.5,-0.5 C 157.5,-0.5 162.5,-0.5 167.5,-0.5C 174.9,0.382889 182.234,2.04956 189.5,4.5C 185.702,5.48342 181.702,5.81675 177.5,5.5C 168.728,3.57715 159.728,3.07715 150.5,4C 149.263,4.23209 148.263,4.73209 147.5,5.5C 142.736,5.76887 138.403,7.1022 134.5,9.5C 133.127,9.34332 131.793,9.50999 130.5,10C 116.77,17.1879 103.77,25.3545 91.5,34.5C 79.0138,28.7064 66.0138,27.0397 52.5,29.5C 48.8559,30.3151 45.1893,31.1484 41.5,32C 40.4293,32.8518 39.4293,33.6851 38.5,34.5C 29.38,37.9649 22.0466,43.6316 16.5,51.5C 11.3133,57.0406 8.64666,63.7073 8.5,71.5C 7.34745,77.3188 7.18079,83.3188 8,89.5C 8.69724,91.5844 9.8639,93.2511 11.5,94.5C 12.4485,97.1402 13.4485,99.8069 14.5,102.5C 16.1478,104.872 15.4811,106.206 12.5,106.5C -4.91339,70.9115 4.41995,44.7448 40.5,28C 57.5081,21.7633 74.3414,22.2633 91,29.5C 105.007,18.1854 120.507,9.3521 137.5,3C 142.646,1.87517 147.646,0.708503 152.5,-0.5 Z"/></g>
<g><path style="opacity:1" fill="#1d4774" d="M 52.5,29.5 C 66.0138,27.0397 79.0138,28.7064 91.5,34.5C 87.7379,34.3089 84.0712,33.6422 80.5,32.5C 71.4991,29.8251 62.1658,28.8251 52.5,29.5 Z"/></g>
<g><path style="opacity:1" fill="#257ca2" d="M 177.5,5.5 C 167.488,4.31346 157.488,4.31346 147.5,5.5C 148.263,4.73209 149.263,4.23209 150.5,4C 159.728,3.07715 168.728,3.57715 177.5,5.5 Z"/></g>
<g><path style="opacity:1" fill="#e4a23b" d="M 129.5,21.5 C 128.5,22.8333 127.5,24.1667 126.5,25.5C 125.292,26.2341 123.959,26.5674 122.5,26.5C 122.67,27.8221 122.337,28.9887 121.5,30C 118.793,30.3951 116.127,30.8951 113.5,31.5C 114.436,30.0256 115.77,29.0256 117.5,28.5C 121.019,25.3088 125.019,22.9754 129.5,21.5 Z"/></g>
<g><path style="opacity:1" fill="#e49f3a" d="M 162.5,30.5 C 167.728,29.7811 173.062,29.4478 178.5,29.5C 178.833,29.8333 179.167,30.1667 179.5,30.5C 177.3,33.8046 178.3,36.138 182.5,37.5C 183.474,47.8646 180.808,57.198 174.5,65.5C 172.255,67.4171 171.922,69.7504 173.5,72.5C 173.167,72.8333 172.833,73.1667 172.5,73.5C 171.833,72.8333 171.167,72.1667 170.5,71.5C 169.482,72.1925 168.482,72.8592 167.5,73.5C 169.408,70.6884 171.075,67.6884 172.5,64.5C 174.942,62.8791 176.275,60.5458 176.5,57.5C 180.592,52.2658 182.092,46.2658 181,39.5C 179.961,38.2899 178.794,37.2899 177.5,36.5C 177.5,34.5 176.5,33.5 174.5,33.5C 171.032,30.8856 167.032,29.8856 162.5,30.5 Z"/></g>
<g><path style="opacity:1" fill="#9d7633" d="M 158.5,31.5 C 158.167,32.1667 157.833,32.8333 157.5,33.5C 156.833,33.5 156.167,33.5 155.5,33.5C 155.973,32.0937 156.973,31.427 158.5,31.5 Z"/></g>
<g><path style="opacity:1" fill="#413a55" d="M 134.5,9.5 C 132.9,10.6444 131.233,11.8111 129.5,13C 131.5,13.3333 133.5,13.6667 135.5,14C 133.744,14.2022 132.078,14.7022 130.5,15.5C 131.826,16.6422 132.826,17.9755 133.5,19.5C 132.167,19.8333 130.833,20.1667 129.5,20.5C 126.833,20.5 124.167,20.5 121.5,20.5C 121.5,21.8333 121.5,23.1667 121.5,24.5C 118.858,24.4877 117.525,25.821 117.5,28.5C 115.77,29.0256 114.436,30.0256 113.5,31.5C 110.109,32.5293 107.443,34.5293 105.5,37.5C 102.185,39.8081 98.8514,42.1414 95.5,44.5C 91.5322,43.5668 87.5322,42.5668 83.5,41.5C 79.5654,40.2463 75.5654,39.2463 71.5,38.5C 69.0221,37.8359 66.3555,37.5025 63.5,37.5C 59.5313,37.2942 55.8646,37.9608 52.5,39.5C 51.8333,39.5 51.1667,39.5 50.5,39.5C 51.0577,38.2101 52.0577,37.3768 53.5,37C 60.8333,36.6667 68.1667,36.3333 75.5,36C 74.6919,35.6924 74.0253,35.1924 73.5,34.5C 75.2844,33.394 77.1178,33.394 79,34.5C 80.0299,34.1639 80.5299,33.4972 80.5,32.5C 84.0712,33.6422 87.7379,34.3089 91.5,34.5C 103.77,25.3545 116.77,17.1879 130.5,10C 131.793,9.50999 133.127,9.34332 134.5,9.5 Z"/></g>
<g><path style="opacity:1" fill="#4c3927" d="M 162.5,30.5 C 167.032,29.8856 171.032,30.8856 174.5,33.5C 169.123,32.3728 163.457,32.3728 157.5,33.5C 157.833,32.8333 158.167,32.1667 158.5,31.5C 159.833,31.1667 161.167,30.8333 162.5,30.5 Z"/></g>
<g><path style="opacity:1" fill="#f5a72c" d="M 176.5,15.5 C 182.24,16.5943 187.573,18.5943 192.5,21.5C 195.139,23.4728 197.473,25.8061 199.5,28.5C 200.5,30.5 201.5,32.5 202.5,34.5C 203.358,42.1322 203.691,49.7989 203.5,57.5C 203.5,58.5 203.5,59.5 203.5,60.5C 203.167,60.5 202.833,60.5 202.5,60.5C 202.5,53.5 202.5,46.5 202.5,39.5C 200.723,39.7863 199.056,40.4529 197.5,41.5C 194.833,38.8333 192.167,38.8333 189.5,41.5C 188.833,41.1667 188.167,40.8333 187.5,40.5C 189.769,39.9954 191.103,38.6621 191.5,36.5C 191.561,33.9505 192.894,32.4505 195.5,32C 194.675,30.3117 193.675,30.1451 192.5,31.5C 191.231,29.3052 191.231,27.1385 192.5,25C 191.975,24.3076 191.308,23.8076 190.5,23.5C 187.555,24.8335 184.555,26.1669 181.5,27.5C 179.695,26.528 178.028,25.3613 176.5,24C 178.301,23.6827 178.634,23.016 177.5,22C 174.456,21.6411 174.122,20.9745 176.5,20C 173.629,19.8823 170.962,19.2156 168.5,18C 169.833,17.6667 171.167,17.3333 172.5,17C 163.5,16.3333 154.5,16.3333 145.5,17C 140.486,19.4402 135.153,20.9402 129.5,21.5C 129.5,21.1667 129.5,20.8333 129.5,20.5C 130.833,20.1667 132.167,19.8333 133.5,19.5C 135.153,19.3404 136.486,18.6737 137.5,17.5C 140.152,17.5905 142.485,16.9238 144.5,15.5C 144.833,15.5 145.167,15.5 145.5,15.5C 155.833,14.1667 166.167,14.1667 176.5,15.5 Z"/></g>
<g><path style="opacity:1" fill="#38315d" d="M 52.5,29.5 C 62.1658,28.8251 71.4991,29.8251 80.5,32.5C 80.5299,33.4972 80.0299,34.1639 79,34.5C 77.1178,33.394 75.2844,33.394 73.5,34.5C 74.0253,35.1924 74.6919,35.6924 75.5,36C 68.1667,36.3333 60.8333,36.6667 53.5,37C 52.0577,37.3768 51.0577,38.2101 50.5,39.5C 48.2972,39.6036 46.2972,40.2702 44.5,41.5C 42.9731,41.427 41.9731,42.0937 41.5,43.5C 41.1667,43.5 40.8333,43.5 40.5,43.5C 38.9731,43.427 37.9731,44.0937 37.5,45.5C 35.9731,45.427 34.9731,46.0937 34.5,47.5C 34.1667,47.5 33.8333,47.5 33.5,47.5C 33.3739,45.8002 32.7073,44.3002 31.5,43C 31.8333,42.5 32.1667,42 32.5,41.5C 33.8498,42.9501 35.5165,43.6168 37.5,43.5C 37.5,42.1667 37.5,40.8333 37.5,39.5C 31.7924,39.5076 31.4591,39.0076 36.5,38C 36.1667,37.6667 35.8333,37.3333 35.5,37C 36.9423,36.6232 37.9423,35.7899 38.5,34.5C 39.4293,33.6851 40.4293,32.8518 41.5,32C 45.1893,31.1484 48.8559,30.3151 52.5,29.5 Z"/></g>
<g><path style="opacity:1" fill="#0d496a" d="M 211.5,31.5 C 213.074,33.1016 213.741,35.1016 213.5,37.5C 211.926,35.8984 211.259,33.8984 211.5,31.5 Z"/></g>
<g><path style="opacity:1" fill="#a26e3e" d="M 71.5,38.5 C 65.1308,38.347 58.7974,38.6803 52.5,39.5C 55.8646,37.9608 59.5313,37.2942 63.5,37.5C 66.3555,37.5025 69.0221,37.8359 71.5,38.5 Z"/></g>
<g><path style="opacity:1" fill="#e39d45" d="M 71.5,38.5 C 75.5654,39.2463 79.5654,40.2463 83.5,41.5C 83.5,41.8333 83.5,42.1667 83.5,42.5C 70.416,38.6062 57.416,38.6062 44.5,42.5C 44.5,42.1667 44.5,41.8333 44.5,41.5C 46.2972,40.2702 48.2972,39.6036 50.5,39.5C 51.1667,39.5 51.8333,39.5 52.5,39.5C 58.7974,38.6803 65.1308,38.347 71.5,38.5 Z"/></g>
<g><path style="opacity:1" fill="#d3964d" d="M 105.5,37.5 C 103.037,41.3002 99.704,43.9668 95.5,45.5C 95.5,45.1667 95.5,44.8333 95.5,44.5C 98.8514,42.1414 102.185,39.8081 105.5,37.5 Z"/></g>
<g><path style="opacity:1" fill="#f8a227" d="M 153.5,33.5 C 152.833,34.5 152.167,35.5 151.5,36.5C 147.949,38.1108 144.949,40.4442 142.5,43.5C 141.833,43.5 141.5,43.8333 141.5,44.5C 137.833,47.8333 134.167,51.1667 130.5,54.5C 130.517,47.266 128.517,46.266 124.5,51.5C 123.5,51 122.5,50.5 121.5,50C 112.401,49.9919 103.401,49.1586 94.5,47.5C 90.856,47.7139 90.5226,48.8806 93.5,51C 91.4078,51.9525 91.0745,53.2859 92.5,55C 90.8008,55.3932 89.3008,54.8932 88,53.5C 86.902,54.3839 86.402,55.3839 86.5,56.5C 85.7696,54.6587 85.1029,52.8254 84.5,51C 85.5358,49.3831 86.7025,49.2164 88,50.5C 88.8699,49.8921 89.3699,49.0588 89.5,48C 88.2956,46.3007 86.9622,44.8007 85.5,43.5C 88.5873,45.017 91.9206,45.6837 95.5,45.5C 99.704,43.9668 103.037,41.3002 105.5,37.5C 107.443,34.5293 110.109,32.5293 113.5,31.5C 116.127,30.8951 118.793,30.3951 121.5,30C 122.337,28.9887 122.67,27.8221 122.5,26.5C 123.959,26.5674 125.292,26.2341 126.5,25.5C 126.783,26.2891 127.283,26.9558 128,27.5C 131.82,21.9429 134.987,22.2762 137.5,28.5C 140.133,27.2178 140.133,25.8844 137.5,24.5C 141.04,23.1774 144.04,24.0107 146.5,27C 139.804,27.6019 138.47,30.2685 142.5,35C 143.833,35.6667 145.167,35.6667 146.5,35C 146.167,34.6667 145.833,34.3333 145.5,34C 146.872,33.5983 148.205,33.0983 149.5,32.5C 150.736,33.2458 152.07,33.5792 153.5,33.5 Z"/></g>
<g><path style="opacity:1" fill="#61442a" d="M 151.5,36.5 C 149.051,39.5558 146.051,41.8892 142.5,43.5C 144.949,40.4442 147.949,38.1108 151.5,36.5 Z"/></g>
<g><path style="opacity:1" fill="#69493a" d="M 83.5,42.5 C 83.5,42.1667 83.5,41.8333 83.5,41.5C 87.5322,42.5668 91.5322,43.5668 95.5,44.5C 95.5,44.8333 95.5,45.1667 95.5,45.5C 91.9206,45.6837 88.5873,45.017 85.5,43.5C 85.1583,42.6618 84.4916,42.3284 83.5,42.5 Z"/></g>
<g><path style="opacity:1" fill="#433832" d="M 177.5,36.5 C 178.794,37.2899 179.961,38.2899 181,39.5C 182.092,46.2658 180.592,52.2658 176.5,57.5C 176.657,56.1266 176.49,54.7932 176,53.5C 175.667,54.1667 175.333,54.8333 175,55.5C 173.812,54.4366 173.312,53.1033 173.5,51.5C 174.93,51.4208 176.264,51.7542 177.5,52.5C 178.707,49.0577 178.373,45.7244 176.5,42.5C 177.523,40.1052 176.523,39.1052 173.5,39.5C 173.281,38.325 173.614,37.325 174.5,36.5C 175.687,37.6527 176.687,37.6527 177.5,36.5 Z"/></g>
<g><path style="opacity:1" fill="#9e6d4e" d="M 44.5,41.5 C 44.5,41.8333 44.5,42.1667 44.5,42.5C 43.609,43.1098 42.609,43.4431 41.5,43.5C 41.9731,42.0937 42.9731,41.427 44.5,41.5 Z"/></g>
<g><path style="opacity:1" fill="#996647" d="M 40.5,43.5 C 40.0269,44.9063 39.0269,45.573 37.5,45.5C 37.9731,44.0937 38.9731,43.427 40.5,43.5 Z"/></g>
<g><path style="opacity:1" fill="#2f2a5f" d="M 38.5,34.5 C 37.9423,35.7899 36.9423,36.6232 35.5,37C 35.8333,37.3333 36.1667,37.6667 36.5,38C 31.4591,39.0076 31.7924,39.5076 37.5,39.5C 37.5,40.8333 37.5,42.1667 37.5,43.5C 35.5165,43.6168 33.8498,42.9501 32.5,41.5C 32.1667,42 31.8333,42.5 31.5,43C 32.7073,44.3002 33.3739,45.8002 33.5,47.5C 31.8333,48.5 30.5,49.8333 29.5,51.5C 28.5,51.8333 27.8333,52.5 27.5,53.5C 27.1667,53.5 26.8333,53.5 26.5,53.5C 25.8163,51.8148 24.483,50.8148 22.5,50.5C 20.45,50.7437 18.45,51.077 16.5,51.5C 22.0466,43.6316 29.38,37.9649 38.5,34.5 Z"/></g>
<g><path style="opacity:1" fill="#3c2812" d="M 204.5,38.5 C 206.03,41.6952 206.696,45.1952 206.5,49C 206.333,51.5 206.167,54 206,56.5C 205.617,57.056 205.117,57.3893 204.5,57.5C 204.5,51.1667 204.5,44.8333 204.5,38.5 Z"/></g>
<g><path style="opacity:1" fill="#ae7d4c" d="M 37.5,45.5 C 37.0269,46.9063 36.0269,47.573 34.5,47.5C 34.9731,46.0937 35.9731,45.427 37.5,45.5 Z"/></g>
<g><path style="opacity:1" fill="#5a402d" d="M 141.5,44.5 C 140.246,47.0934 138.58,49.4268 136.5,51.5C 134.167,53.5 131.833,55.5 129.5,57.5C 129.557,56.391 129.89,55.391 130.5,54.5C 134.167,51.1667 137.833,47.8333 141.5,44.5 Z"/></g>
<g><path style="opacity:1" fill="#d09343" d="M 202.5,34.5 C 203.345,35.6715 204.011,37.0048 204.5,38.5C 204.5,44.8333 204.5,51.1667 204.5,57.5C 204.167,57.5 203.833,57.5 203.5,57.5C 203.691,49.7989 203.358,42.1322 202.5,34.5 Z"/></g>
<g><path style="opacity:1" fill="#ca904e" d="M 33.5,47.5 C 33.8333,47.5 34.1667,47.5 34.5,47.5C 33.4154,49.5869 31.7488,50.9202 29.5,51.5C 30.5,49.8333 31.8333,48.5 33.5,47.5 Z"/></g>
<g><path style="opacity:1" fill="#f99f25" d="M 191.5,36.5 C 191.103,38.6621 189.769,39.9954 187.5,40.5C 188.167,40.8333 188.833,41.1667 189.5,41.5C 192.167,38.8333 194.833,38.8333 197.5,41.5C 199.056,40.4529 200.723,39.7863 202.5,39.5C 202.5,46.5 202.5,53.5 202.5,60.5C 200.884,65.7326 198.717,70.7326 196,75.5C 195.583,74.244 194.75,73.5774 193.5,73.5C 192.272,71.9902 192.272,70.4902 193.5,69C 192.994,66.4682 191.827,64.3016 190,62.5C 189.308,63.0253 188.808,63.6919 188.5,64.5C 189.122,67.3704 189.789,70.2037 190.5,73C 189.975,73.6924 189.308,74.1924 188.5,74.5C 187.548,72.9547 187.215,71.288 187.5,69.5C 186.167,69.5 184.833,69.5 183.5,69.5C 186.683,58.8923 185.683,58.2256 180.5,67.5C 179.614,66.675 179.281,65.675 179.5,64.5C 177.857,64.4802 176.524,65.1468 175.5,66.5C 174.893,66.3764 174.56,66.0431 174.5,65.5C 180.808,57.198 183.474,47.8646 182.5,37.5C 183.5,37.5 184.5,37.5 185.5,37.5C 185.5,36.5 185.5,35.5 185.5,34.5C 187.703,34.6036 189.703,35.2702 191.5,36.5 Z"/></g>
<g><path style="opacity:1" fill="#f89f26" d="M 83.5,42.5 C 84.4916,42.3284 85.1583,42.6618 85.5,43.5C 86.9622,44.8007 88.2956,46.3007 89.5,48C 89.3699,49.0588 88.8699,49.8921 88,50.5C 86.7025,49.2164 85.5358,49.3831 84.5,51C 85.1029,52.8254 85.7696,54.6587 86.5,56.5C 86.402,55.3839 86.902,54.3839 88,53.5C 89.3008,54.8932 90.8008,55.3932 92.5,55C 91.0745,53.2859 91.4078,51.9525 93.5,51C 90.5226,48.8806 90.856,47.7139 94.5,47.5C 103.401,49.1586 112.401,49.9919 121.5,50C 122.5,50.5 123.5,51 124.5,51.5C 128.517,46.266 130.517,47.266 130.5,54.5C 129.89,55.391 129.557,56.391 129.5,57.5C 127.473,58.8606 125.806,60.5273 124.5,62.5C 122.883,63.5893 122.05,65.256 122,67.5C 121.5,67 121,66.5 120.5,66C 118,65.8333 115.5,65.6667 113,65.5C 104.873,66.7404 96.7068,67.5737 88.5,68C 87.6867,69.8847 86.3533,70.5513 84.5,70C 85.4939,68.6713 86.4939,67.338 87.5,66C 87.0946,65.0546 86.428,64.3879 85.5,64C 89.0932,63.3156 89.4265,61.8156 86.5,59.5C 83.1335,63.6735 80.4669,68.1735 78.5,73C 76.6921,72.1086 74.6921,71.2752 72.5,70.5C 73.925,69.078 74.925,67.4113 75.5,65.5C 76.5,63.8333 77.8333,62.5 79.5,61.5C 83.5597,59.4699 84.5597,56.8032 82.5,53.5C 80.2747,51.6375 77.608,50.6375 74.5,50.5C 67.3376,49.3547 60.3376,49.3547 53.5,50.5C 53.5,50.8333 53.5,51.1667 53.5,51.5C 49.164,51.8369 45.4974,53.5035 42.5,56.5C 40.9991,57.7515 39.3325,58.7515 37.5,59.5C 33.2049,59.7906 31.3715,61.7906 32,65.5C 31.2825,64.5494 30.4491,64.3828 29.5,65C 30.4231,67.0408 30.7564,69.2075 30.5,71.5C 28.9016,73.8567 27.9016,76.5234 27.5,79.5C 27.4395,74.678 26.2728,74.3447 24,78.5C 22.0629,74.7277 20.8963,70.7277 20.5,66.5C 20.5,65.1667 20.5,63.8333 20.5,62.5C 21.5116,61.1283 22.5116,59.795 23.5,58.5C 25.543,57.4206 26.8763,55.754 27.5,53.5C 27.8333,52.5 28.5,51.8333 29.5,51.5C 31.7488,50.9202 33.4154,49.5869 34.5,47.5C 36.0269,47.573 37.0269,46.9063 37.5,45.5C 39.0269,45.573 40.0269,44.9063 40.5,43.5C 40.8333,43.5 41.1667,43.5 41.5,43.5C 42.609,43.4431 43.609,43.1098 44.5,42.5C 57.416,38.6062 70.416,38.6062 83.5,42.5 Z"/></g>
<g><path style="opacity:1" fill="#905e31" d="M 80.5,53.5 C 81.1667,53.5 81.8333,53.5 82.5,53.5C 84.5597,56.8032 83.5597,59.4699 79.5,61.5C 80.0476,59.6064 81.0476,57.9397 82.5,56.5C 81.8075,55.4822 81.1408,54.4822 80.5,53.5 Z"/></g>
<g><path style="opacity:1" fill="#5a3738" d="M 53.5,51.5 C 53.5,51.8333 53.5,52.1667 53.5,52.5C 49.9416,54.1117 46.2749,55.445 42.5,56.5C 45.4974,53.5035 49.164,51.8369 53.5,51.5 Z"/></g>
<g><path style="opacity:1" fill="#d59545" d="M 53.5,50.5 C 60.3376,49.3547 67.3376,49.3547 74.5,50.5C 77.608,50.6375 80.2747,51.6375 82.5,53.5C 81.8333,53.5 81.1667,53.5 80.5,53.5C 71.6732,51.1306 62.6732,50.1306 53.5,50.5 Z"/></g>
<g><path style="opacity:1" fill="#cf8d4c" d="M 26.5,53.5 C 26.8333,53.5 27.1667,53.5 27.5,53.5C 26.8763,55.754 25.543,57.4206 23.5,58.5C 23.7329,56.9382 24.3995,55.6049 25.5,54.5C 25.5,53.8333 25.8333,53.5 26.5,53.5 Z"/></g>
<g><path style="opacity:1" fill="#3e2a47" d="M 25.5,54.5 C 24.3995,55.6049 23.7329,56.9382 23.5,58.5C 22.5116,59.795 21.5116,61.1283 20.5,62.5C 20.1667,62.5 19.8333,62.5 19.5,62.5C 19.7135,60.8561 19.3802,59.3561 18.5,58C 19.7932,57.51 21.1266,57.3433 22.5,57.5C 22.5,56.5 22.5,55.5 22.5,54.5C 23.5,54.5 24.5,54.5 25.5,54.5 Z"/></g>
<g><path style="opacity:1" fill="#413653" d="M 53.5,50.5 C 62.6732,50.1306 71.6732,51.1306 80.5,53.5C 81.1408,54.4822 81.8075,55.4822 82.5,56.5C 81.0476,57.9397 80.0476,59.6064 79.5,61.5C 77.8333,62.5 76.5,63.8333 75.5,65.5C 73.4131,66.5846 72.0798,68.2512 71.5,70.5C 70.0937,70.9731 69.427,71.9731 69.5,73.5C 66.7751,75.9899 64.7751,78.9899 63.5,82.5C 62.0937,82.9731 61.427,83.9731 61.5,85.5C 61.1667,85.5 60.8333,85.5 60.5,85.5C 60.3398,83.8008 60.5065,82.1341 61,80.5C 61.6543,81.6956 62.1543,81.6956 62.5,80.5C 61.0892,78.9825 61.2559,77.6492 63,76.5C 63.5556,78.5951 64.0556,78.7618 64.5,77C 63.8749,73.8494 64.5416,70.8494 66.5,68C 65.9781,67.4387 65.6448,66.772 65.5,66C 66.6835,63.2955 68.0169,60.6288 69.5,58C 69.3552,57.228 69.0219,56.5613 68.5,56C 65.9568,55.8603 63.6234,55.1937 61.5,54C 65.1667,53.6667 68.8333,53.3333 72.5,53C 66.1754,52.5005 59.8421,52.3338 53.5,52.5C 53.5,52.1667 53.5,51.8333 53.5,51.5C 53.5,51.1667 53.5,50.8333 53.5,50.5 Z"/></g>
<g><path style="opacity:1" fill="#292562" d="M 26.5,53.5 C 25.8333,53.5 25.5,53.8333 25.5,54.5C 24.5,54.5 23.5,54.5 22.5,54.5C 22.5,55.5 22.5,56.5 22.5,57.5C 21.1266,57.3433 19.7932,57.51 18.5,58C 19.3802,59.3561 19.7135,60.8561 19.5,62.5C 17.4985,71.0191 16.9985,79.6857 18,88.5C 18.3826,89.056 18.8826,89.3893 19.5,89.5C 19.8333,90.8333 20.1667,92.1667 20.5,93.5C 20.2865,95.1439 20.6198,96.6439 21.5,98C 20.5,98.3333 19.5,98.6667 18.5,99C 23.3366,98.3814 25.0033,100.215 23.5,104.5C 23.9569,105.298 24.6236,105.631 25.5,105.5C 25.6308,108.367 24.2974,110.033 21.5,110.5C 19.1667,107.833 16.8333,105.167 14.5,102.5C 13.4485,99.8069 12.4485,97.1402 11.5,94.5C 8.80529,87.1176 7.80529,79.4509 8.5,71.5C 8.64666,63.7073 11.3133,57.0406 16.5,51.5C 18.45,51.077 20.45,50.7437 22.5,50.5C 24.483,50.8148 25.8163,51.8148 26.5,53.5 Z"/></g>
<g><path style="opacity:1" fill="#ea993a" d="M 37.5,59.5 C 37.2671,61.0618 36.6005,62.3951 35.5,63.5C 34.0937,63.9731 33.427,64.9731 33.5,66.5C 33.5,66.8333 33.5,67.1667 33.5,67.5C 32.0937,67.9731 31.427,68.9731 31.5,70.5C 31.5,71.1667 31.1667,71.5 30.5,71.5C 30.7564,69.2075 30.4231,67.0408 29.5,65C 30.4491,64.3828 31.2825,64.5494 32,65.5C 31.3715,61.7906 33.2049,59.7906 37.5,59.5 Z"/></g>
<g><path style="opacity:1" fill="#4f3e43" d="M 129.5,57.5 C 129.461,58.5832 129.127,59.5832 128.5,60.5C 129.167,61.1667 129.833,61.8333 130.5,62.5C 127.745,64.8372 127.412,67.1706 129.5,69.5C 125.658,68.3763 123.991,66.043 124.5,62.5C 125.806,60.5273 127.473,58.8606 129.5,57.5 Z"/></g>
<g><path style="opacity:1" fill="#56352c" d="M 35.5,63.5 C 35.573,65.0269 34.9063,66.0269 33.5,66.5C 33.427,64.9731 34.0937,63.9731 35.5,63.5 Z"/></g>
<g><path style="opacity:1" fill="#3f291b" d="M 203.5,57.5 C 203.833,57.5 204.167,57.5 204.5,57.5C 204.887,61.4441 204.22,65.1108 202.5,68.5C 201.833,70.5 201.167,72.5 200.5,74.5C 199.5,75.1667 198.5,75.8333 197.5,76.5C 200.403,71.5898 202.403,66.2565 203.5,60.5C 203.5,59.5 203.5,58.5 203.5,57.5 Z"/></g>
<g><path style="opacity:1" fill="#403e54" d="M 149.5,49.5 C 147.498,52.3338 144.998,54.6671 142,56.5C 140.267,58.7231 138.767,61.0565 137.5,63.5C 140.895,66.8898 143.895,70.5565 146.5,74.5C 143.159,78.7785 140.326,78.4452 138,73.5C 137.324,64.8151 136.158,64.4817 134.5,72.5C 133.078,71.075 131.411,70.075 129.5,69.5C 127.412,67.1706 127.745,64.8372 130.5,62.5C 129.833,61.8333 129.167,61.1667 128.5,60.5C 129.127,59.5832 129.461,58.5832 129.5,57.5C 131.833,55.5 134.167,53.5 136.5,51.5C 140.588,49.8198 144.921,49.1532 149.5,49.5 Z"/></g>
<g><path style="opacity:1" fill="#17a6e1" d="M 171.5,47.5 C 166.13,58.8911 158.797,68.8911 149.5,77.5C 148.712,76.2299 147.712,75.2299 146.5,74.5C 143.895,70.5565 140.895,66.8898 137.5,63.5C 138.767,61.0565 140.267,58.7231 142,56.5C 144.998,54.6671 147.498,52.3338 149.5,49.5C 154.042,44.811 159.542,41.811 166,40.5C 170.575,40.582 172.408,42.9153 171.5,47.5 Z M 164.5,44.5 C 165.586,44.62 166.253,45.2867 166.5,46.5C 163.356,54.1233 159.189,61.1233 154,67.5C 152.887,69.3293 151.387,70.1626 149.5,70C 147.667,68.1667 145.833,66.3333 144,64.5C 143.333,63.5 143.333,62.5 144,61.5C 149.89,54.5024 156.723,48.8357 164.5,44.5 Z"/></g>
<g><path style="opacity:1" fill="#272426" d="M 207.5,28.5 C 208.79,29.0577 209.623,30.0577 210,31.5C 213.667,45.6607 213.167,59.6607 208.5,73.5C 207.5,73.5 206.5,73.5 205.5,73.5C 205.279,71.3364 204.279,69.6697 202.5,68.5C 204.22,65.1108 204.887,61.4441 204.5,57.5C 205.117,57.3893 205.617,57.056 206,56.5C 206.167,54 206.333,51.5 206.5,49C 206.696,45.1952 206.03,41.6952 204.5,38.5C 204.011,37.0048 203.345,35.6715 202.5,34.5C 201.5,32.5 200.5,30.5 199.5,28.5C 201.074,28.9371 202.241,29.9371 203,31.5C 203.495,29.5273 203.662,27.5273 203.5,25.5C 204.675,25.281 205.675,25.6143 206.5,26.5C 205.319,28.198 205.319,29.8647 206.5,31.5C 207.386,30.675 207.719,29.675 207.5,28.5 Z"/></g>
<g><path style="opacity:1" fill="#9b6c3f" d="M 75.5,65.5 C 74.925,67.4113 73.925,69.078 72.5,70.5C 72.1667,70.5 71.8333,70.5 71.5,70.5C 72.0798,68.2512 73.4131,66.5846 75.5,65.5 Z"/></g>
<g><path style="opacity:1" fill="#593c34" d="M 33.5,67.5 C 33.573,69.0269 32.9063,70.0269 31.5,70.5C 31.427,68.9731 32.0937,67.9731 33.5,67.5 Z"/></g>
<g><path style="opacity:1" fill="#5e3e31" d="M 129.5,69.5 C 131.411,70.075 133.078,71.075 134.5,72.5C 136.58,74.5732 138.246,76.9066 139.5,79.5C 135.833,76.5 132.5,73.1667 129.5,69.5 Z"/></g>
<g><path style="opacity:1" fill="#a8734d" d="M 71.5,70.5 C 71.573,72.0269 70.9063,73.0269 69.5,73.5C 69.427,71.9731 70.0937,70.9731 71.5,70.5 Z"/></g>
<g><path style="opacity:1" fill="#463936" d="M 172.5,64.5 C 171.075,67.6884 169.408,70.6884 167.5,73.5C 164.527,77.1396 161.194,80.4729 157.5,83.5C 157.449,81.4305 158.115,79.5971 159.5,78C 158.673,74.8465 159.506,74.6798 162,77.5C 162.492,76.451 162.326,75.451 161.5,74.5C 162.274,73.2888 163.107,73.2888 164,74.5C 164.333,73.5 164.667,72.5 165,71.5C 165.333,71.8333 165.667,72.1667 166,72.5C 166.333,70.8333 166.667,69.1667 167,67.5C 167.414,67.9574 167.914,68.2907 168.5,68.5C 169.429,67.3112 169.762,65.9778 169.5,64.5C 170.5,64.5 171.5,64.5 172.5,64.5 Z"/></g>
<g><path style="opacity:1" fill="#744937" d="M 19.5,62.5 C 19.8333,62.5 20.1667,62.5 20.5,62.5C 20.5,63.8333 20.5,65.1667 20.5,66.5C 18.9608,69.8646 18.2942,73.5313 18.5,77.5C 18.668,81.5248 19.0013,85.5248 19.5,89.5C 18.8826,89.3893 18.3826,89.056 18,88.5C 16.9985,79.6857 17.4985,71.0191 19.5,62.5 Z"/></g>
<g><path style="opacity:1" fill="#f6962d" d="M 20.5,66.5 C 20.8963,70.7277 22.0629,74.7277 24,78.5C 26.2728,74.3447 27.4395,74.678 27.5,79.5C 27.5,81.1667 27.5,82.8333 27.5,84.5C 28.552,84.3505 29.552,84.5172 30.5,85C 29.4495,86.3848 28.1161,87.3848 26.5,88C 27.3366,89.0113 27.67,90.1779 27.5,91.5C 26.1667,91.5 24.8333,91.5 23.5,91.5C 23.6495,92.552 23.4828,93.552 23,94.5C 22.6667,92.8333 22.3333,91.1667 22,89.5C 21.2303,90.5981 20.397,90.5981 19.5,89.5C 19.0013,85.5248 18.668,81.5248 18.5,77.5C 18.2942,73.5313 18.9608,69.8646 20.5,66.5 Z"/></g>
<g><path style="opacity:1" fill="#946442" d="M 63.5,82.5 C 63.573,84.0269 62.9063,85.0269 61.5,85.5C 61.427,83.9731 62.0937,82.9731 63.5,82.5 Z"/></g>
<g><path style="opacity:1" fill="#3f3c4b" d="M 174.5,33.5 C 176.5,33.5 177.5,34.5 177.5,36.5C 176.687,37.6527 175.687,37.6527 174.5,36.5C 173.614,37.325 173.281,38.325 173.5,39.5C 176.523,39.1052 177.523,40.1052 176.5,42.5C 178.373,45.7244 178.707,49.0577 177.5,52.5C 176.264,51.7542 174.93,51.4208 173.5,51.5C 173.312,53.1033 173.812,54.4366 175,55.5C 175.333,54.8333 175.667,54.1667 176,53.5C 176.49,54.7932 176.657,56.1266 176.5,57.5C 176.275,60.5458 174.942,62.8791 172.5,64.5C 171.5,64.5 170.5,64.5 169.5,64.5C 169.762,65.9778 169.429,67.3112 168.5,68.5C 167.914,68.2907 167.414,67.9574 167,67.5C 166.667,69.1667 166.333,70.8333 166,72.5C 165.667,72.1667 165.333,71.8333 165,71.5C 164.667,72.5 164.333,73.5 164,74.5C 163.107,73.2888 162.274,73.2888 161.5,74.5C 162.326,75.451 162.492,76.451 162,77.5C 159.506,74.6798 158.673,74.8465 159.5,78C 158.115,79.5971 157.449,81.4305 157.5,83.5C 157.5,84.1667 157.167,84.5 156.5,84.5C 153.05,83.7564 151.384,85.0897 151.5,88.5C 147.828,88.1826 146.162,89.8493 146.5,93.5C 142.353,97.3149 137.686,100.315 132.5,102.5C 130.393,101.532 128.059,101.198 125.5,101.5C 125.5,100.5 125.5,99.5 125.5,98.5C 127.264,97.2878 128.93,97.6212 130.5,99.5C 133.344,97.1553 136.01,94.6553 138.5,92C 137.101,91.4054 135.768,91.5721 134.5,92.5C 132.833,91.5 131.5,90.1667 130.5,88.5C 129.391,89.5896 128.391,89.5896 127.5,88.5C 128.612,87.7348 129.279,86.7348 129.5,85.5C 135.381,87.5643 138.714,85.5643 139.5,79.5C 138.246,76.9066 136.58,74.5732 134.5,72.5C 136.158,64.4817 137.324,64.8151 138,73.5C 140.326,78.4452 143.159,78.7785 146.5,74.5C 147.712,75.2299 148.712,76.2299 149.5,77.5C 158.797,68.8911 166.13,58.8911 171.5,47.5C 172.979,44.8569 172.646,42.3569 170.5,40C 165.455,39.4488 160.455,39.7821 155.5,41C 154.692,42.7058 153.359,43.5391 151.5,43.5C 151.719,44.675 151.386,45.675 150.5,46.5C 149.604,45.4937 148.938,45.4937 148.5,46.5C 149.127,47.4168 149.461,48.4168 149.5,49.5C 144.921,49.1532 140.588,49.8198 136.5,51.5C 138.58,49.4268 140.246,47.0934 141.5,44.5C 141.5,43.8333 141.833,43.5 142.5,43.5C 146.051,41.8892 149.051,39.5558 151.5,36.5C 152.167,35.5 152.833,34.5 153.5,33.5C 154.167,33.5 154.833,33.5 155.5,33.5C 156.167,33.5 156.833,33.5 157.5,33.5C 163.457,32.3728 169.123,32.3728 174.5,33.5 Z"/></g>
<g><path style="opacity:1" fill="#31445a" d="M 171.5,47.5 C 172.408,42.9153 170.575,40.582 166,40.5C 159.542,41.811 154.042,44.811 149.5,49.5C 149.461,48.4168 149.127,47.4168 148.5,46.5C 148.938,45.4937 149.604,45.4937 150.5,46.5C 151.386,45.675 151.719,44.675 151.5,43.5C 153.359,43.5391 154.692,42.7058 155.5,41C 160.455,39.7821 165.455,39.4488 170.5,40C 172.646,42.3569 172.979,44.8569 171.5,47.5 Z"/></g>
<g><path style="opacity:1" fill="#3d3f59" d="M 111.5,81.5 C 113.5,81.5 115.5,81.5 117.5,81.5C 117.5,82.8333 117.5,84.1667 117.5,85.5C 118.552,85.6495 119.552,85.4828 120.5,85C 119.269,83.8173 119.269,82.6507 120.5,81.5C 122.719,84.5737 125.719,85.907 129.5,85.5C 129.279,86.7348 128.612,87.7348 127.5,88.5C 128.391,89.5896 129.391,89.5896 130.5,88.5C 131.5,90.1667 132.833,91.5 134.5,92.5C 135.768,91.5721 137.101,91.4054 138.5,92C 136.01,94.6553 133.344,97.1553 130.5,99.5C 128.93,97.6212 127.264,97.2878 125.5,98.5C 123.188,99.3195 120.854,100.153 118.5,101C 117.91,102.509 117.244,104.009 116.5,105.5C 114.5,102.833 112.5,102.833 110.5,105.5C 109.571,104.311 109.238,102.978 109.5,101.5C 108.022,101.762 106.689,101.429 105.5,100.5C 107.167,99.1667 108.833,97.8333 110.5,96.5C 108.995,95.1585 108.328,93.4918 108.5,91.5C 110.604,91.7989 112.604,91.4656 114.5,90.5C 113.167,88.5 111.833,86.5 110.5,84.5C 111.127,83.5832 111.461,82.5832 111.5,81.5 Z"/></g>
<g><path style="opacity:1" fill="#ea9434" d="M 202.5,60.5 C 202.833,60.5 203.167,60.5 203.5,60.5C 202.403,66.2565 200.403,71.5898 197.5,76.5C 195.142,79.5459 193.142,82.8792 191.5,86.5C 187.554,91.1125 183.221,95.4458 178.5,99.5C 178.67,98.1779 178.337,97.0113 177.5,96C 180.333,95.1667 182.167,93.3333 183,90.5C 183.414,90.9574 183.914,91.2907 184.5,91.5C 185.242,89.8918 185.409,88.2251 185,86.5C 186.049,87.5171 187.216,87.6838 188.5,87C 189.103,85.1746 189.77,83.3413 190.5,81.5C 191.086,81.7093 191.586,82.0426 192,82.5C 192.595,81.1011 192.428,79.7678 191.5,78.5C 192.274,77.2888 193.107,77.2888 194,78.5C 194.64,76.735 194.473,75.0683 193.5,73.5C 194.75,73.5774 195.583,74.244 196,75.5C 198.717,70.7326 200.884,65.7326 202.5,60.5 Z"/></g>
<g><path style="opacity:1" fill="#f59327" d="M 193.5,73.5 C 194.473,75.0683 194.64,76.735 194,78.5C 193.107,77.2888 192.274,77.2888 191.5,78.5C 192.428,79.7678 192.595,81.1011 192,82.5C 191.586,82.0426 191.086,81.7093 190.5,81.5C 189.77,83.3413 189.103,85.1746 188.5,87C 187.216,87.6838 186.049,87.5171 185,86.5C 185.409,88.2251 185.242,89.8918 184.5,91.5C 183.914,91.2907 183.414,90.9574 183,90.5C 182.167,93.3333 180.333,95.1667 177.5,96C 178.337,97.0113 178.67,98.1779 178.5,99.5C 177.71,100.794 176.71,101.961 175.5,103C 172.26,105.091 168.926,106.924 165.5,108.5C 165.5,107.5 165.5,106.5 165.5,105.5C 159.262,108.118 152.929,108.118 146.5,105.5C 139.84,106.261 133.173,106.928 126.5,107.5C 126.833,106.833 127.167,106.167 127.5,105.5C 129.434,104.89 131.101,103.89 132.5,102.5C 137.686,100.315 142.353,97.3149 146.5,93.5C 150.456,91.2119 153.789,88.2119 156.5,84.5C 157.167,84.5 157.5,84.1667 157.5,83.5C 161.194,80.4729 164.527,77.1396 167.5,73.5C 168.482,72.8592 169.482,72.1925 170.5,71.5C 171.167,72.1667 171.833,72.8333 172.5,73.5C 172.833,73.1667 173.167,72.8333 173.5,72.5C 171.922,69.7504 172.255,67.4171 174.5,65.5C 174.56,66.0431 174.893,66.3764 175.5,66.5C 176.524,65.1468 177.857,64.4802 179.5,64.5C 179.281,65.675 179.614,66.675 180.5,67.5C 185.683,58.2256 186.683,58.8923 183.5,69.5C 184.833,69.5 186.167,69.5 187.5,69.5C 187.215,71.288 187.548,72.9547 188.5,74.5C 189.308,74.1924 189.975,73.6924 190.5,73C 189.789,70.2037 189.122,67.3704 188.5,64.5C 188.808,63.6919 189.308,63.0253 190,62.5C 191.827,64.3016 192.994,66.4682 193.5,69C 192.272,70.4902 192.272,71.9902 193.5,73.5 Z"/></g>
<g><path style="opacity:1" fill="#2390d5" d="M 8.5,71.5 C 7.80529,79.4509 8.80529,87.1176 11.5,94.5C 9.8639,93.2511 8.69724,91.5844 8,89.5C 7.18079,83.3188 7.34745,77.3188 8.5,71.5 Z"/></g>
<g><path style="opacity:1" fill="#9e6940" d="M 107.5,86.5 C 107.5,87.1667 107.5,87.8333 107.5,88.5C 106.833,88.8333 106.167,89.1667 105.5,89.5C 105.427,87.9731 106.094,86.9731 107.5,86.5 Z"/></g>
<g><path style="opacity:1" fill="#513c35" d="M 156.5,84.5 C 153.789,88.2119 150.456,91.2119 146.5,93.5C 146.162,89.8493 147.828,88.1826 151.5,88.5C 151.384,85.0897 153.05,83.7564 156.5,84.5 Z"/></g>
<g><path style="opacity:1" fill="#75443f" d="M 60.5,85.5 C 60.8333,85.5 61.1667,85.5 61.5,85.5C 60.3999,88.0416 59.0666,90.375 57.5,92.5C 57.7545,89.7713 58.7545,87.4379 60.5,85.5 Z"/></g>
<g><path style="opacity:1" fill="#f69527" d="M 124.5,62.5 C 123.991,66.043 125.658,68.3763 129.5,69.5C 132.5,73.1667 135.833,76.5 139.5,79.5C 138.714,85.5643 135.381,87.5643 129.5,85.5C 129.267,83.9382 128.6,82.6049 127.5,81.5C 125.761,78.7573 123.427,76.7573 120.5,75.5C 119.469,74.645 118.303,73.9783 117,73.5C 114.416,75.6732 112.583,78.3399 111.5,81.5C 109.82,82.7822 108.487,84.4489 107.5,86.5C 106.094,86.9731 105.427,87.9731 105.5,89.5C 104.525,91.7952 103.192,93.7952 101.5,95.5C 101.289,93.5759 100.623,93.2426 99.5,94.5C 99.4827,96.0281 98.816,96.5281 97.5,96C 96.2609,91.3353 95.4276,91.502 95,96.5C 93.9887,95.6634 92.8221,95.33 91.5,95.5C 91.3921,97.7834 90.5588,99.7834 89,101.5C 88.51,100.207 88.3433,98.8734 88.5,97.5C 82.1308,97.347 75.7974,97.6803 69.5,98.5C 69.719,99.675 69.3857,100.675 68.5,101.5C 66.1716,102.217 64.0049,103.217 62,104.5C 61.228,104.355 60.5613,104.022 60,103.5C 56.2808,109.065 54.4475,108.399 54.5,101.5C 54.8333,100.167 55.1667,98.8333 55.5,97.5C 55.5,97.1667 55.5,96.8333 55.5,96.5C 56.9063,96.0269 57.573,95.0269 57.5,93.5C 57.5,93.1667 57.5,92.8333 57.5,92.5C 59.0666,90.375 60.3999,88.0416 61.5,85.5C 62.9063,85.0269 63.573,84.0269 63.5,82.5C 64.7751,78.9899 66.7751,75.9899 69.5,73.5C 70.9063,73.0269 71.573,72.0269 71.5,70.5C 71.8333,70.5 72.1667,70.5 72.5,70.5C 74.6921,71.2752 76.6921,72.1086 78.5,73C 80.4669,68.1735 83.1335,63.6735 86.5,59.5C 89.4265,61.8156 89.0932,63.3156 85.5,64C 86.428,64.3879 87.0946,65.0546 87.5,66C 86.4939,67.338 85.4939,68.6713 84.5,70C 86.3533,70.5513 87.6867,69.8847 88.5,68C 96.7068,67.5737 104.873,66.7404 113,65.5C 115.5,65.6667 118,65.8333 120.5,66C 121,66.5 121.5,67 122,67.5C 122.05,65.256 122.883,63.5893 124.5,62.5 Z"/></g>
<g><path style="opacity:1" fill="#4a3d49" d="M 120.5,75.5 C 122.239,78.2427 124.573,80.2427 127.5,81.5C 128.6,82.6049 129.267,83.9382 129.5,85.5C 125.719,85.907 122.719,84.5737 120.5,81.5C 119.269,82.6507 119.269,83.8173 120.5,85C 119.552,85.4828 118.552,85.6495 117.5,85.5C 117.5,84.1667 117.5,82.8333 117.5,81.5C 115.5,81.5 113.5,81.5 111.5,81.5C 112.583,78.3399 114.416,75.6732 117,73.5C 118.303,73.9783 119.469,74.645 120.5,75.5 Z"/></g>
<g><path style="opacity:1" fill="#c88d4a" d="M 120.5,75.5 C 123.427,76.7573 125.761,78.7573 127.5,81.5C 124.573,80.2427 122.239,78.2427 120.5,75.5 Z"/></g>
<g><path style="opacity:1" fill="#d18949" d="M 33.5,89.5 C 36.1379,92.4744 38.8046,95.4744 41.5,98.5C 38.8996,97.0812 36.3996,95.4146 34,93.5C 33.51,92.2068 33.3433,90.8734 33.5,89.5 Z"/></g>
<g><path style="opacity:1" fill="#2e2e34" d="M 200.5,74.5 C 202.518,75.8811 204.518,76.5478 206.5,76.5C 204.88,79.4037 203.547,82.4037 202.5,85.5C 202.291,86.9217 201.791,88.255 201,89.5C 197.667,93.5 194.333,97.5 191,101.5C 188.412,104.2 185.579,106.533 182.5,108.5C 182.586,107.504 182.252,106.671 181.5,106C 182.126,105.25 182.626,104.416 183,103.5C 183.333,103.833 183.667,104.167 184,104.5C 185.496,102.55 185.663,100.55 184.5,98.5C 183.604,99.5063 182.938,99.5063 182.5,98.5C 184.438,94.8931 187.438,92.8931 191.5,92.5C 190.377,90.5184 190.377,88.5184 191.5,86.5C 193.142,82.8792 195.142,79.5459 197.5,76.5C 198.5,75.8333 199.5,75.1667 200.5,74.5 Z"/></g>
<g><path style="opacity:1" fill="#19a5e0" d="M 118.5,88.5 C 120.934,90.7491 123.601,92.9157 126.5,95C 121.54,98.0229 116.373,100.523 111,102.5C 111.666,96.8343 114.166,92.1677 118.5,88.5 Z"/></g>
<g><path style="opacity:1" fill="#37315e" d="M 53.5,52.5 C 59.8421,52.3338 66.1754,52.5005 72.5,53C 68.8333,53.3333 65.1667,53.6667 61.5,54C 63.6234,55.1937 65.9568,55.8603 68.5,56C 69.0219,56.5613 69.3552,57.228 69.5,58C 68.0169,60.6288 66.6835,63.2955 65.5,66C 65.6448,66.772 65.9781,67.4387 66.5,68C 64.5416,70.8494 63.8749,73.8494 64.5,77C 64.0556,78.7618 63.5556,78.5951 63,76.5C 61.2559,77.6492 61.0892,78.9825 62.5,80.5C 62.1543,81.6956 61.6543,81.6956 61,80.5C 60.5065,82.1341 60.3398,83.8008 60.5,85.5C 58.7545,87.4379 57.7545,89.7713 57.5,92.5C 57.5,92.8333 57.5,93.1667 57.5,93.5C 56.0937,93.9731 55.427,94.9731 55.5,96.5C 55.5,96.8333 55.5,97.1667 55.5,97.5C 53.8958,98.287 53.2291,99.6203 53.5,101.5C 53.5,101.833 53.5,102.167 53.5,102.5C 53.1667,102.5 52.8333,102.5 52.5,102.5C 49.9507,100.439 46.9507,99.439 43.5,99.5C 42.8333,99.1667 42.1667,98.8333 41.5,98.5C 38.8046,95.4744 36.1379,92.4744 33.5,89.5C 30.9485,83.7999 29.9485,77.7999 30.5,71.5C 31.1667,71.5 31.5,71.1667 31.5,70.5C 32.9063,70.0269 33.573,69.0269 33.5,67.5C 33.5,67.1667 33.5,66.8333 33.5,66.5C 34.9063,66.0269 35.573,65.0269 35.5,63.5C 36.6005,62.3951 37.2671,61.0618 37.5,59.5C 39.3325,58.7515 40.9991,57.7515 42.5,56.5C 46.2749,55.445 49.9416,54.1117 53.5,52.5 Z M 53.5,65.5 C 54.8734,65.3433 56.2068,65.51 57.5,66C 53.4612,71.242 49.7945,76.742 46.5,82.5C 44.6048,80.1329 44.1048,77.4663 45,74.5C 47.3622,70.9734 50.1955,67.9734 53.5,65.5 Z"/></g>
<g><path style="opacity:1" fill="#17a6e5" d="M 55.5,60.5 C 58.8333,60.5 62.1667,60.5 65.5,60.5C 65.6495,61.552 65.4828,62.552 65,63.5C 58.4832,71.0287 53.1499,79.3621 49,88.5C 48.4387,89.0219 47.772,89.3552 47,89.5C 38.2127,80.8863 38.3793,72.3863 47.5,64C 50.1579,62.522 52.8245,61.3554 55.5,60.5 Z M 53.5,65.5 C 50.1955,67.9734 47.3622,70.9734 45,74.5C 44.1048,77.4663 44.6048,80.1329 46.5,82.5C 49.7945,76.742 53.4612,71.242 57.5,66C 56.2068,65.51 54.8734,65.3433 53.5,65.5 Z"/></g>
<g><path style="opacity:1" fill="#824a37" d="M 57.5,93.5 C 57.573,95.0269 56.9063,96.0269 55.5,96.5C 55.427,94.9731 56.0937,93.9731 57.5,93.5 Z"/></g>
<g><path style="opacity:1" fill="#593f3c" d="M 107.5,88.5 C 105.895,93.3871 103.561,97.7204 100.5,101.5C 101.15,99.5648 101.483,97.5648 101.5,95.5C 103.192,93.7952 104.525,91.7952 105.5,89.5C 106.167,89.1667 106.833,88.8333 107.5,88.5 Z"/></g>
<g><path style="opacity:1" fill="#433b54" d="M 111.5,81.5 C 111.461,82.5832 111.127,83.5832 110.5,84.5C 111.833,86.5 113.167,88.5 114.5,90.5C 112.604,91.4656 110.604,91.7989 108.5,91.5C 108.328,93.4918 108.995,95.1585 110.5,96.5C 108.833,97.8333 107.167,99.1667 105.5,100.5C 106.689,101.429 108.022,101.762 109.5,101.5C 109.238,102.978 109.571,104.311 110.5,105.5C 112.5,102.833 114.5,102.833 116.5,105.5C 117.244,104.009 117.91,102.509 118.5,101C 120.854,100.153 123.188,99.3195 125.5,98.5C 125.5,99.5 125.5,100.5 125.5,101.5C 128.059,101.198 130.393,101.532 132.5,102.5C 130.226,102.715 128.059,103.382 126,104.5C 122.334,102.586 119.5,103.42 117.5,107C 116.167,107.333 114.833,107.667 113.5,108C 114.048,109.596 113.382,110.763 111.5,111.5C 111.167,111.5 110.833,111.5 110.5,111.5C 106.423,111.735 102.423,112.402 98.5,113.5C 98.1667,112.833 97.8333,112.167 97.5,111.5C 98.762,108.978 99.4287,106.311 99.5,103.5C 99.3284,102.508 99.6618,101.842 100.5,101.5C 103.561,97.7204 105.895,93.3871 107.5,88.5C 107.5,87.8333 107.5,87.1667 107.5,86.5C 108.487,84.4489 109.82,82.7822 111.5,81.5 Z"/></g>
<g><path style="opacity:1" fill="#f1912b" d="M 30.5,71.5 C 29.9485,77.7999 30.9485,83.7999 33.5,89.5C 33.3433,90.8734 33.51,92.2068 34,93.5C 36.3996,95.4146 38.8996,97.0812 41.5,98.5C 42.1667,98.8333 42.8333,99.1667 43.5,99.5C 45.4632,100.82 47.4632,102.154 49.5,103.5C 49.5,103.833 49.5,104.167 49.5,104.5C 48.2436,104.904 47.0769,105.571 46,106.5C 44.2589,104.546 42.0922,103.546 39.5,103.5C 39.3838,106.91 41.0504,108.244 44.5,107.5C 44.7035,109.39 44.0368,110.89 42.5,112C 44.1667,112.333 45.8333,112.667 47.5,113C 46.4019,113.77 46.4019,114.603 47.5,115.5C 46.8333,115.5 46.1667,115.5 45.5,115.5C 41.38,114.274 37.7133,112.274 34.5,109.5C 33.5,108.833 32.5,108.167 31.5,107.5C 27.3399,103.157 23.6732,98.4907 20.5,93.5C 20.1667,92.1667 19.8333,90.8333 19.5,89.5C 20.397,90.5981 21.2303,90.5981 22,89.5C 22.3333,91.1667 22.6667,92.8333 23,94.5C 23.4828,93.552 23.6495,92.552 23.5,91.5C 24.8333,91.5 26.1667,91.5 27.5,91.5C 27.67,90.1779 27.3366,89.0113 26.5,88C 28.1161,87.3848 29.4495,86.3848 30.5,85C 29.552,84.5172 28.552,84.3505 27.5,84.5C 27.5,82.8333 27.5,81.1667 27.5,79.5C 27.9016,76.5234 28.9016,73.8567 30.5,71.5 Z"/></g>
<g><path style="opacity:1" fill="#663e2f" d="M 55.5,97.5 C 55.1667,98.8333 54.8333,100.167 54.5,101.5C 54.1667,101.5 53.8333,101.5 53.5,101.5C 53.2291,99.6203 53.8958,98.287 55.5,97.5 Z"/></g>
<g><path style="opacity:1" fill="#44314a" d="M 43.5,99.5 C 46.9507,99.439 49.9507,100.439 52.5,102.5C 51.791,103.404 50.791,103.737 49.5,103.5C 47.4632,102.154 45.4632,100.82 43.5,99.5 Z"/></g>
<g><path style="opacity:1" fill="#885238" d="M 52.5,102.5 C 52.8333,102.5 53.1667,102.5 53.5,102.5C 52.8166,104.176 51.4832,104.843 49.5,104.5C 49.5,104.167 49.5,103.833 49.5,103.5C 50.791,103.737 51.791,103.404 52.5,102.5 Z"/></g>
<g><path style="opacity:1" fill="#403637" d="M 191.5,86.5 C 190.377,88.5184 190.377,90.5184 191.5,92.5C 187.438,92.8931 184.438,94.8931 182.5,98.5C 182.938,99.5063 183.604,99.5063 184.5,98.5C 185.663,100.55 185.496,102.55 184,104.5C 183.667,104.167 183.333,103.833 183,103.5C 182.626,104.416 182.126,105.25 181.5,106C 182.252,106.671 182.586,107.504 182.5,108.5C 178.459,107.623 174.626,107.623 171,108.5C 166.865,110.304 163.699,113.137 161.5,117C 157.794,116.476 154.127,116.642 150.5,117.5C 155.932,115.281 160.932,112.281 165.5,108.5C 168.926,106.924 172.26,105.091 175.5,103C 176.71,101.961 177.71,100.794 178.5,99.5C 183.221,95.4458 187.554,91.1125 191.5,86.5 Z"/></g>
<g><path style="opacity:1" fill="#3d274c" d="M 20.5,93.5 C 23.6732,98.4907 27.3399,103.157 31.5,107.5C 29.6854,106.37 27.6854,105.704 25.5,105.5C 24.6236,105.631 23.9569,105.298 23.5,104.5C 25.0033,100.215 23.3366,98.3814 18.5,99C 19.5,98.6667 20.5,98.3333 21.5,98C 20.6198,96.6439 20.2865,95.1439 20.5,93.5 Z"/></g>
<g><path style="opacity:1" fill="#4b3c47" d="M 132.5,102.5 C 131.101,103.89 129.434,104.89 127.5,105.5C 125.034,106.298 123.034,107.631 121.5,109.5C 120.833,109.5 120.167,109.5 119.5,109.5C 117.302,109.12 115.635,109.787 114.5,111.5C 113.5,111.5 112.5,111.5 111.5,111.5C 113.382,110.763 114.048,109.596 113.5,108C 114.833,107.667 116.167,107.333 117.5,107C 119.5,103.42 122.334,102.586 126,104.5C 128.059,103.382 130.226,102.715 132.5,102.5 Z"/></g>
<g><path style="opacity:1" fill="#ea8f35" d="M 99.5,94.5 C 100.623,93.2426 101.289,93.5759 101.5,95.5C 101.483,97.5648 101.15,99.5648 100.5,101.5C 99.6618,101.842 99.3284,102.508 99.5,103.5C 97.1257,106.686 96.1257,110.353 96.5,114.5C 98.8333,114.5 101.167,114.5 103.5,114.5C 99.7016,115.483 95.7016,115.817 91.5,115.5C 91.5,114.5 91.5,113.5 91.5,112.5C 92.5,112.5 93.5,112.5 94.5,112.5C 94.3367,110.143 94.5034,107.81 95,105.5C 96.0177,106.706 96.5177,106.373 96.5,104.5C 95.2948,102.879 95.4615,101.546 97,100.5C 97.3333,100.833 97.6667,101.167 98,101.5C 98.4243,99.4845 99.2576,97.6512 100.5,96C 100.43,95.2352 100.097,94.7352 99.5,94.5 Z"/></g>
<g><path style="opacity:1" fill="#6e4334" d="M 99.5,103.5 C 99.4287,106.311 98.762,108.978 97.5,111.5C 97.8333,112.167 98.1667,112.833 98.5,113.5C 102.423,112.402 106.423,111.735 110.5,111.5C 108.221,112.651 105.888,113.651 103.5,114.5C 101.167,114.5 98.8333,114.5 96.5,114.5C 96.1257,110.353 97.1257,106.686 99.5,103.5 Z"/></g>
<g><path style="opacity:1" fill="#3c3c4c" d="M 182.5,108.5 C 171.017,118.893 157.684,125.893 142.5,129.5C 140.194,129.993 137.861,130.326 135.5,130.5C 134.275,128.551 134.942,127.218 137.5,126.5C 136.051,125.828 134.718,125.161 133.5,124.5C 135.629,123.797 137.629,122.797 139.5,121.5C 143.058,119.888 146.725,118.555 150.5,117.5C 154.127,116.642 157.794,116.476 161.5,117C 163.699,113.137 166.865,110.304 171,108.5C 174.626,107.623 178.459,107.623 182.5,108.5 Z"/></g>
<g><path style="opacity:1" fill="#f68d25" d="M 99.5,94.5 C 100.097,94.7352 100.43,95.2352 100.5,96C 99.2576,97.6512 98.4243,99.4845 98,101.5C 97.6667,101.167 97.3333,100.833 97,100.5C 95.4615,101.546 95.2948,102.879 96.5,104.5C 96.5177,106.373 96.0177,106.706 95,105.5C 94.5034,107.81 94.3367,110.143 94.5,112.5C 93.5,112.5 92.5,112.5 91.5,112.5C 91.5,113.5 91.5,114.5 91.5,115.5C 95.7016,115.817 99.7016,115.483 103.5,114.5C 107.658,114.88 111.325,113.88 114.5,111.5C 116.403,111.204 118.07,110.537 119.5,109.5C 120.167,109.5 120.833,109.5 121.5,109.5C 123.284,109.107 124.95,108.441 126.5,107.5C 133.173,106.928 139.84,106.261 146.5,105.5C 152.929,108.118 159.262,108.118 165.5,105.5C 165.5,106.5 165.5,107.5 165.5,108.5C 163.801,108.34 162.134,108.506 160.5,109C 160.833,109.333 161.167,109.667 161.5,110C 158.813,110.341 156.813,111.674 155.5,114C 151.5,115 147.5,116 143.5,117C 143.833,117.333 144.167,117.667 144.5,118C 136.692,120.564 128.692,122.23 120.5,123C 120.833,123.333 121.167,123.667 121.5,124C 113.541,125.164 105.541,125.664 97.5,125.5C 99.2261,123.18 99.8928,120.513 99.5,117.5C 98.1667,117.5 96.8333,117.5 95.5,117.5C 95.7573,123.914 94.5906,124.58 92,119.5C 91.7811,120.938 91.2811,122.271 90.5,123.5C 84.4655,121.887 78.2989,120.887 72,120.5C 68,120.5 64,120.5 60,120.5C 58.1749,124.234 57.1749,128.234 57,132.5C 57.3367,127.639 55.5033,123.972 51.5,121.5C 51.6791,124.612 51.3458,127.945 50.5,131.5C 49.4025,128.247 48.7358,124.914 48.5,121.5C 48.6747,119.379 48.3414,117.379 47.5,115.5C 46.4019,114.603 46.4019,113.77 47.5,113C 45.8333,112.667 44.1667,112.333 42.5,112C 44.0368,110.89 44.7035,109.39 44.5,107.5C 41.0504,108.244 39.3838,106.91 39.5,103.5C 42.0922,103.546 44.2589,104.546 46,106.5C 47.0769,105.571 48.2436,104.904 49.5,104.5C 51.4832,104.843 52.8166,104.176 53.5,102.5C 53.5,102.167 53.5,101.833 53.5,101.5C 53.8333,101.5 54.1667,101.5 54.5,101.5C 54.4475,108.399 56.2808,109.065 60,103.5C 60.5613,104.022 61.228,104.355 62,104.5C 64.0049,103.217 66.1716,102.217 68.5,101.5C 69.3857,100.675 69.719,99.675 69.5,98.5C 75.7974,97.6803 82.1308,97.347 88.5,97.5C 88.3433,98.8734 88.51,100.207 89,101.5C 90.5588,99.7834 91.3921,97.7834 91.5,95.5C 92.8221,95.33 93.9887,95.6634 95,96.5C 95.4276,91.502 96.2609,91.3353 97.5,96C 98.816,96.5281 99.4827,96.0281 99.5,94.5 Z"/></g>
<g><path style="opacity:1" fill="#d88a41" d="M 110.5,111.5 C 110.833,111.5 111.167,111.5 111.5,111.5C 112.5,111.5 113.5,111.5 114.5,111.5C 111.325,113.88 107.658,114.88 103.5,114.5C 105.888,113.651 108.221,112.651 110.5,111.5 Z"/></g>
<g><path style="opacity:1" fill="#96603d" d="M 119.5,109.5 C 118.07,110.537 116.403,111.204 114.5,111.5C 115.635,109.787 117.302,109.12 119.5,109.5 Z"/></g>
<g><path style="opacity:1" fill="#b67446" d="M 127.5,105.5 C 127.167,106.167 126.833,106.833 126.5,107.5C 124.95,108.441 123.284,109.107 121.5,109.5C 123.034,107.631 125.034,106.298 127.5,105.5 Z"/></g>
<g><path style="opacity:1" fill="#8c4f34" d="M 45.5,115.5 C 46.1667,115.5 46.8333,115.5 47.5,115.5C 48.3414,117.379 48.6747,119.379 48.5,121.5C 48.1667,121.5 47.8333,121.5 47.5,121.5C 47.7475,119.142 47.0808,117.142 45.5,115.5 Z"/></g>
<g><path style="opacity:1" fill="#17a6e1" d="M 189.5,4.5 C 209.148,12.4346 218.815,27.1013 218.5,48.5C 218.061,68.3741 211.228,85.7074 198,100.5C 191.764,107.407 184.931,113.573 177.5,119C 188.902,125.669 192.736,135.502 189,148.5C 180.109,179.114 161.609,201.948 133.5,217C 126.471,220.09 119.138,221.924 111.5,222.5C 114.322,221.493 117.322,220.66 120.5,220C 117.854,219.503 115.187,219.336 112.5,219.5C 113.5,218.833 114.5,218.167 115.5,217.5C 127.555,215.135 138.222,210.135 147.5,202.5C 155.233,197.102 161.566,190.435 166.5,182.5C 168.887,180.087 171.054,177.42 173,174.5C 176.377,168.412 179.211,162.079 181.5,155.5C 185.124,148.342 186.291,140.675 185,132.5C 184.722,131.584 184.222,130.918 183.5,130.5C 182.712,127.379 180.712,125.712 177.5,125.5C 176.306,124.223 174.64,123.556 172.5,123.5C 165.562,123.345 160.229,126.012 156.5,131.5C 155.833,131.5 155.5,131.833 155.5,132.5C 150.458,144.251 142.792,153.918 132.5,161.5C 126.74,163.519 120.74,164.019 114.5,163C 111.424,161.757 108.757,159.923 106.5,157.5C 103.741,150.792 102.407,143.792 102.5,136.5C 106.371,136.815 110.038,136.482 113.5,135.5C 119.902,135.254 126.235,134.42 132.5,133C 136.163,132.428 139.497,131.262 142.5,129.5C 157.684,125.893 171.017,118.893 182.5,108.5C 185.579,106.533 188.412,104.2 191,101.5C 194.333,97.5 197.667,93.5 201,89.5C 201.791,88.255 202.291,86.9217 202.5,85.5C 212.462,70.983 216.129,54.983 213.5,37.5C 213.741,35.1016 213.074,33.1016 211.5,31.5C 210.59,28.0078 208.924,25.0078 206.5,22.5C 205.386,19.5964 203.386,17.5964 200.5,16.5C 194.227,10.3253 186.561,6.99193 177.5,6.5C 177.5,6.16667 177.5,5.83333 177.5,5.5C 181.702,5.81675 185.702,5.48342 189.5,4.5 Z M 148.5,132.5 C 149.573,133.251 149.74,134.251 149,135.5C 144.533,146.299 137.033,154.132 126.5,159C 112.538,160.873 106.205,154.706 107.5,140.5C 121.801,140.502 135.468,137.835 148.5,132.5 Z"/></g>
<g><path style="opacity:1" fill="#673f2a" d="M 139.5,121.5 C 137.629,122.797 135.629,123.797 133.5,124.5C 132.167,124.5 130.833,124.5 129.5,124.5C 132.505,122.723 135.838,121.723 139.5,121.5 Z"/></g>
<g><path style="opacity:1" fill="#f48727" d="M 97.5,125.5 C 95.5168,125.157 94.1834,125.824 93.5,127.5C 92.508,134.982 92.1746,142.648 92.5,150.5C 91.8826,150.389 91.3826,150.056 91,149.5C 90.8295,144.136 90.3295,138.802 89.5,133.5C 89.2879,136.652 89.2879,139.985 89.5,143.5C 78.1667,143.5 66.8333,143.5 55.5,143.5C 55.7989,141.396 55.4656,139.396 54.5,137.5C 53.1667,139.167 51.8333,140.833 50.5,142.5C 49.4032,140.771 48.2365,139.104 47,137.5C 46.5003,144.826 46.3337,152.159 46.5,159.5C 46.1667,159.5 45.8333,159.5 45.5,159.5C 44.536,152.254 44.2027,144.92 44.5,137.5C 44.8333,134.833 45.1667,132.167 45.5,129.5C 47.0739,127.898 47.7406,125.898 47.5,123.5C 47.5,122.833 47.5,122.167 47.5,121.5C 47.8333,121.5 48.1667,121.5 48.5,121.5C 48.7358,124.914 49.4025,128.247 50.5,131.5C 51.3458,127.945 51.6791,124.612 51.5,121.5C 55.5033,123.972 57.3367,127.639 57,132.5C 57.1749,128.234 58.1749,124.234 60,120.5C 64,120.5 68,120.5 72,120.5C 78.2989,120.887 84.4655,121.887 90.5,123.5C 91.2811,122.271 91.7811,120.938 92,119.5C 94.5906,124.58 95.7573,123.914 95.5,117.5C 96.8333,117.5 98.1667,117.5 99.5,117.5C 99.8928,120.513 99.2261,123.18 97.5,125.5 Z"/></g>
<g><path style="opacity:1" fill="#382f58" d="M 34.5,109.5 C 37.7133,112.274 41.38,114.274 45.5,115.5C 47.0808,117.142 47.7475,119.142 47.5,121.5C 47.5,122.167 47.5,122.833 47.5,123.5C 45.9261,125.102 45.2594,127.102 45.5,129.5C 45.1667,132.167 44.8333,134.833 44.5,137.5C 44.1667,137.5 43.8333,137.5 43.5,137.5C 44.1901,133.51 44.3568,129.51 44,125.5C 43.7837,127.384 43.117,129.051 42,130.5C 41.9504,128.256 41.1171,126.589 39.5,125.5C 40.6816,123.997 41.1816,122.33 41,120.5C 39.853,118.269 38.853,115.935 38,113.5C 36.9887,112.663 35.8221,112.33 34.5,112.5C 34.5,111.5 34.5,110.5 34.5,109.5 Z"/></g>
<g><path style="opacity:1" fill="#d6833a" d="M 165.5,108.5 C 160.932,112.281 155.932,115.281 150.5,117.5C 146.725,118.555 143.058,119.888 139.5,121.5C 135.838,121.723 132.505,122.723 129.5,124.5C 124.069,124.875 118.736,125.708 113.5,127C 106.842,127.5 100.175,127.666 93.5,127.5C 94.1834,125.824 95.5168,125.157 97.5,125.5C 105.541,125.664 113.541,125.164 121.5,124C 121.167,123.667 120.833,123.333 120.5,123C 128.692,122.23 136.692,120.564 144.5,118C 144.167,117.667 143.833,117.333 143.5,117C 147.5,116 151.5,115 155.5,114C 156.813,111.674 158.813,110.341 161.5,110C 161.167,109.667 160.833,109.333 160.5,109C 162.134,108.506 163.801,108.34 165.5,108.5 Z"/></g>
<g><path style="opacity:1" fill="#493a46" d="M 129.5,124.5 C 130.833,124.5 132.167,124.5 133.5,124.5C 134.718,125.161 136.051,125.828 137.5,126.5C 134.942,127.218 134.275,128.551 135.5,130.5C 132.04,130.475 128.706,129.808 125.5,128.5C 126.729,127.719 128.062,127.219 129.5,127C 126.072,126.299 122.738,126.632 119.5,128C 111.173,128.5 102.84,128.666 94.5,128.5C 94.3786,136.858 94.7119,145.191 95.5,153.5C 95.1667,153.5 94.8333,153.5 94.5,153.5C 93.6602,144.862 93.3268,136.195 93.5,127.5C 100.175,127.666 106.842,127.5 113.5,127C 118.736,125.708 124.069,124.875 129.5,124.5 Z"/></g>
<g><path style="opacity:1" fill="#3b3843" d="M 177.5,125.5 C 180.712,125.712 182.712,127.379 183.5,130.5C 183.766,133.666 184.099,136.833 184.5,140C 183.42,145.152 182.42,150.319 181.5,155.5C 179.211,162.079 176.377,168.412 173,174.5C 171.054,177.42 168.887,180.087 166.5,182.5C 164.54,183.138 162.707,183.138 161,182.5C 160.13,183.108 159.63,183.941 159.5,185C 160.187,186.162 160.353,187.328 160,188.5C 159.586,188.043 159.086,187.709 158.5,187.5C 157.96,190.263 155.96,192.263 152.5,193.5C 151.712,192.23 150.712,191.23 149.5,190.5C 151.461,188.037 153.628,185.703 156,183.5C 156.791,182.255 157.291,180.922 157.5,179.5C 158.604,177.611 159.937,175.945 161.5,174.5C 164.47,173.692 166.303,171.692 167,168.5C 167.893,169.711 168.726,169.711 169.5,168.5C 168.691,166.929 168.357,165.262 168.5,163.5C 173.768,156.796 176.768,149.129 177.5,140.5C 177.333,139.167 177.167,137.833 177,136.5C 176.617,135.944 176.117,135.611 175.5,135.5C 174.666,134.252 173.333,133.585 171.5,133.5C 170.167,133.667 168.833,133.833 167.5,134C 166.944,134.383 166.611,134.883 166.5,135.5C 165.5,135.5 164.5,135.5 163.5,135.5C 163.88,137.698 163.213,139.365 161.5,140.5C 160.069,141.78 159.402,143.447 159.5,145.5C 159.167,145.5 158.833,145.5 158.5,145.5C 158.551,139.609 157.218,138.775 154.5,143C 153.668,143.688 153.002,143.521 152.5,142.5C 154.423,139.479 155.423,136.146 155.5,132.5C 155.5,131.833 155.833,131.5 156.5,131.5C 159.371,129.464 162.371,127.63 165.5,126C 169.486,125.501 173.486,125.334 177.5,125.5 Z"/></g>
<g><path style="opacity:1" fill="#79473b" d="M 47.5,123.5 C 47.7406,125.898 47.0739,127.898 45.5,129.5C 45.2594,127.102 45.9261,125.102 47.5,123.5 Z"/></g>
<g><path style="opacity:1" fill="#26485e" d="M 177.5,125.5 C 173.486,125.334 169.486,125.501 165.5,126C 162.371,127.63 159.371,129.464 156.5,131.5C 160.229,126.012 165.562,123.345 172.5,123.5C 174.64,123.556 176.306,124.223 177.5,125.5 Z"/></g>
<g><path style="opacity:1" fill="#d48841" d="M 175.5,135.5 C 175.813,139.042 175.479,142.375 174.5,145.5C 174.5,141.833 174.5,138.167 174.5,134.5C 171.763,134.401 169.096,134.735 166.5,135.5C 166.611,134.883 166.944,134.383 167.5,134C 168.833,133.833 170.167,133.667 171.5,133.5C 173.333,133.585 174.666,134.252 175.5,135.5 Z"/></g>
<g><path style="opacity:1" fill="#1c465d" d="M 183.5,130.5 C 184.222,130.918 184.722,131.584 185,132.5C 186.291,140.675 185.124,148.342 181.5,155.5C 182.42,150.319 183.42,145.152 184.5,140C 184.099,136.833 183.766,133.666 183.5,130.5 Z"/></g>
<g><path style="opacity:1" fill="#eb832f" d="M 174.5,145.5 C 172.702,151.562 170.702,157.562 168.5,163.5C 165.779,166.894 163.446,170.561 161.5,174.5C 159.937,175.945 158.604,177.611 157.5,179.5C 156.833,179.833 156.167,180.167 155.5,180.5C 155.5,178.5 155.5,176.5 155.5,174.5C 157.042,173.699 158.708,173.366 160.5,173.5C 160.472,170.749 159.472,168.415 157.5,166.5C 157.833,166.167 158.167,165.833 158.5,165.5C 160.382,166.093 162.215,166.76 164,167.5C 166.479,161.388 169.146,155.388 172,149.5C 172.758,147.231 172.591,145.064 171.5,143C 172.43,141.806 173.097,140.473 173.5,139C 171.62,138.831 169.787,137.998 168,136.5C 164.631,138.776 163.798,141.776 165.5,145.5C 165.167,145.833 164.833,146.167 164.5,146.5C 163.749,145.624 163.249,144.624 163,143.5C 162.292,144.381 161.458,145.047 160.5,145.5C 161.038,143.883 161.371,142.216 161.5,140.5C 163.213,139.365 163.88,137.698 163.5,135.5C 164.5,135.5 165.5,135.5 166.5,135.5C 169.096,134.735 171.763,134.401 174.5,134.5C 174.5,138.167 174.5,141.833 174.5,145.5 Z"/></g>
<g><path style="opacity:1" fill="#f48023" d="M 92.5,150.5 C 92.1201,152.698 92.7868,154.365 94.5,155.5C 95.1429,157.076 96.1429,158.41 97.5,159.5C 98.4151,161.754 99.7484,163.754 101.5,165.5C 102.585,167.587 104.251,168.92 106.5,169.5C 108.167,170.167 109.833,170.833 111.5,171.5C 112.167,172.167 112.833,172.833 113.5,173.5C 110.801,173.534 108.301,172.867 106,171.5C 90.2408,172.325 74.4075,172.825 58.5,173C 57.2385,176.018 55.9052,175.852 54.5,172.5C 53.6317,174.796 52.2984,175.463 50.5,174.5C 49.3509,174.209 48.6842,173.376 48.5,172C 47.508,167.875 46.8414,163.709 46.5,159.5C 46.3337,152.159 46.5003,144.826 47,137.5C 48.2365,139.104 49.4032,140.771 50.5,142.5C 51.8333,140.833 53.1667,139.167 54.5,137.5C 55.4656,139.396 55.7989,141.396 55.5,143.5C 66.8333,143.5 78.1667,143.5 89.5,143.5C 89.2879,139.985 89.2879,136.652 89.5,133.5C 90.3295,138.802 90.8295,144.136 91,149.5C 91.3826,150.056 91.8826,150.389 92.5,150.5 Z"/></g>
<g><path style="opacity:1" fill="#66421f" d="M 161.5,140.5 C 161.371,142.216 161.038,143.883 160.5,145.5C 160.167,145.5 159.833,145.5 159.5,145.5C 159.402,143.447 160.069,141.78 161.5,140.5 Z"/></g>
<g><path style="opacity:1" fill="#52372b" d="M 175.5,135.5 C 176.117,135.611 176.617,135.944 177,136.5C 177.167,137.833 177.333,139.167 177.5,140.5C 176.768,149.129 173.768,156.796 168.5,163.5C 170.702,157.562 172.702,151.562 174.5,145.5C 175.479,142.375 175.813,139.042 175.5,135.5 Z"/></g>
<g><path style="opacity:1" fill="#413b57" d="M 135.5,130.5 C 137.861,130.326 140.194,129.993 142.5,129.5C 139.497,131.262 136.163,132.428 132.5,133C 126.235,134.42 119.902,135.254 113.5,135.5C 109.5,135.5 105.5,135.5 101.5,135.5C 101.393,141.88 101.893,148.213 103,154.5C 103.759,156.063 104.926,157.063 106.5,157.5C 106.539,158.583 106.873,159.583 107.5,160.5C 105.518,161.216 103.851,162.383 102.5,164C 103.056,164.383 103.389,164.883 103.5,165.5C 102.833,165.5 102.167,165.5 101.5,165.5C 99.7484,163.754 98.4151,161.754 97.5,159.5C 97.0293,157.421 96.3627,155.421 95.5,153.5C 94.7119,145.191 94.3786,136.858 94.5,128.5C 102.84,128.666 111.173,128.5 119.5,128C 122.738,126.632 126.072,126.299 129.5,127C 128.062,127.219 126.729,127.719 125.5,128.5C 128.706,129.808 132.04,130.475 135.5,130.5 Z"/></g>
<g><path style="opacity:1" fill="#653935" d="M 43.5,137.5 C 43.8333,137.5 44.1667,137.5 44.5,137.5C 44.2027,144.92 44.536,152.254 45.5,159.5C 45.5,160.833 45.5,162.167 45.5,163.5C 44.7784,163.082 44.2784,162.416 44,161.5C 43.5003,153.507 43.3336,145.507 43.5,137.5 Z"/></g>
<g><path style="opacity:1" fill="#633d29" d="M 158.5,145.5 C 158.833,145.5 159.167,145.5 159.5,145.5C 158.167,148.167 156.833,150.833 155.5,153.5C 155.167,153.5 154.833,153.5 154.5,153.5C 155.287,150.592 156.62,147.926 158.5,145.5 Z"/></g>
<g><path style="opacity:1" fill="#bb703f" d="M 93.5,127.5 C 93.3268,136.195 93.6602,144.862 94.5,153.5C 94.5,154.167 94.5,154.833 94.5,155.5C 92.7868,154.365 92.1201,152.698 92.5,150.5C 92.1746,142.648 92.508,134.982 93.5,127.5 Z"/></g>
<g><path style="opacity:1" fill="#2b486c" d="M 113.5,135.5 C 110.038,136.482 106.371,136.815 102.5,136.5C 102.407,143.792 103.741,150.792 106.5,157.5C 104.926,157.063 103.759,156.063 103,154.5C 101.893,148.213 101.393,141.88 101.5,135.5C 105.5,135.5 109.5,135.5 113.5,135.5 Z"/></g>
<g><path style="opacity:1" fill="#29336a" d="M 25.5,105.5 C 27.6854,105.704 29.6854,106.37 31.5,107.5C 32.5,108.167 33.5,108.833 34.5,109.5C 34.5,110.5 34.5,111.5 34.5,112.5C 35.8221,112.33 36.9887,112.663 38,113.5C 38.853,115.935 39.853,118.269 41,120.5C 41.1816,122.33 40.6816,123.997 39.5,125.5C 38.5713,128.675 37.738,132.009 37,135.5C 36.5002,145.494 36.3335,155.494 36.5,165.5C 33.6871,151.745 34.0204,137.911 37.5,124C 31.744,120.084 26.4106,115.584 21.5,110.5C 24.2974,110.033 25.6308,108.367 25.5,105.5 Z"/></g>
<g><path style="opacity:1" fill="#7e4c31" d="M 94.5,153.5 C 94.8333,153.5 95.1667,153.5 95.5,153.5C 96.3627,155.421 97.0293,157.421 97.5,159.5C 96.1429,158.41 95.1429,157.076 94.5,155.5C 94.5,154.833 94.5,154.167 94.5,153.5 Z"/></g>
<g><path style="opacity:1" fill="#f47f23" d="M 155.5,174.5 C 153.589,174.426 152.422,173.426 152,171.5C 150.333,171.833 148.667,172.167 147,172.5C 144.733,171.711 142.4,171.044 140,170.5C 138.7,171.707 137.2,172.374 135.5,172.5C 136.167,171.833 136.833,171.167 137.5,170.5C 137.5,169.833 137.833,169.5 138.5,169.5C 140.5,169.5 142.5,169.5 144.5,169.5C 144.351,168.448 144.517,167.448 145,166.5C 149.496,162.851 152.996,158.518 155.5,153.5C 156.833,150.833 158.167,148.167 159.5,145.5C 159.833,145.5 160.167,145.5 160.5,145.5C 161.458,145.047 162.292,144.381 163,143.5C 163.249,144.624 163.749,145.624 164.5,146.5C 164.833,146.167 165.167,145.833 165.5,145.5C 163.798,141.776 164.631,138.776 168,136.5C 169.787,137.998 171.62,138.831 173.5,139C 173.097,140.473 172.43,141.806 171.5,143C 172.591,145.064 172.758,147.231 172,149.5C 169.146,155.388 166.479,161.388 164,167.5C 162.215,166.76 160.382,166.093 158.5,165.5C 158.167,165.833 157.833,166.167 157.5,166.5C 159.472,168.415 160.472,170.749 160.5,173.5C 158.708,173.366 157.042,173.699 155.5,174.5 Z"/></g>
<g><path style="opacity:1" fill="#344466" d="M 106.5,157.5 C 108.757,159.923 111.424,161.757 114.5,163C 120.74,164.019 126.74,163.519 132.5,161.5C 132.804,162.15 133.137,162.817 133.5,163.5C 124.978,166.278 116.644,165.944 108.5,162.5C 108.833,165.5 107.5,166.833 104.5,166.5C 103.833,166.5 103.5,166.167 103.5,165.5C 103.389,164.883 103.056,164.383 102.5,164C 103.851,162.383 105.518,161.216 107.5,160.5C 106.873,159.583 106.539,158.583 106.5,157.5 Z"/></g>
<g><path style="opacity:1" fill="#6d4135" d="M 101.5,165.5 C 102.167,165.5 102.833,165.5 103.5,165.5C 103.5,166.167 103.833,166.5 104.5,166.5C 105.167,167.5 105.833,168.5 106.5,169.5C 104.251,168.92 102.585,167.587 101.5,165.5 Z"/></g>
<g><path style="opacity:1" fill="#423d4f" d="M 155.5,132.5 C 155.423,136.146 154.423,139.479 152.5,142.5C 153.002,143.521 153.668,143.688 154.5,143C 157.218,138.775 158.551,139.609 158.5,145.5C 156.62,147.926 155.287,150.592 154.5,153.5C 150.142,159.858 144.809,165.191 138.5,169.5C 137.833,169.5 137.5,169.833 137.5,170.5C 133.915,171.583 130.249,172.249 126.5,172.5C 121.463,172.587 116.463,172.254 111.5,171.5C 109.833,170.833 108.167,170.167 106.5,169.5C 105.833,168.5 105.167,167.5 104.5,166.5C 107.5,166.833 108.833,165.5 108.5,162.5C 116.644,165.944 124.978,166.278 133.5,163.5C 133.137,162.817 132.804,162.15 132.5,161.5C 142.792,153.918 150.458,144.251 155.5,132.5 Z"/></g>
<g><path style="opacity:1" fill="#4e3a34" d="M 168.5,163.5 C 168.357,165.262 168.691,166.929 169.5,168.5C 168.726,169.711 167.893,169.711 167,168.5C 166.303,171.692 164.47,173.692 161.5,174.5C 163.446,170.561 165.779,166.894 168.5,163.5 Z"/></g>
<g><path style="opacity:1" fill="#d87c3c" d="M 154.5,153.5 C 154.833,153.5 155.167,153.5 155.5,153.5C 152.996,158.518 149.496,162.851 145,166.5C 144.517,167.448 144.351,168.448 144.5,169.5C 142.5,169.5 140.5,169.5 138.5,169.5C 144.809,165.191 150.142,159.858 154.5,153.5 Z"/></g>
<g><path style="opacity:1" fill="#16a5e3" d="M 14.5,102.5 C 16.8333,105.167 19.1667,107.833 21.5,110.5C 26.4106,115.584 31.744,120.084 37.5,124C 34.0204,137.911 33.6871,151.745 36.5,165.5C 38.0394,181.587 45.0394,194.587 57.5,204.5C 65.3534,210.924 74.3534,214.924 84.5,216.5C 85.209,217.404 86.209,217.737 87.5,217.5C 89.2922,218.309 91.2922,218.809 93.5,219C 99.8246,219.5 106.158,219.666 112.5,219.5C 115.187,219.336 117.854,219.503 120.5,220C 117.322,220.66 114.322,221.493 111.5,222.5C 111.5,222.833 111.5,223.167 111.5,223.5C 105.5,223.5 99.5,223.5 93.5,223.5C 51.0276,217.267 30.0276,192.6 30.5,149.5C 30.5967,141.092 31.0967,132.759 32,124.5C 24.0498,120.049 17.5498,114.049 12.5,106.5C 15.4811,106.206 16.1478,104.872 14.5,102.5 Z"/></g>
<g><path style="opacity:1" fill="#f47922" d="M 155.5,174.5 C 155.5,176.5 155.5,178.5 155.5,180.5C 153.906,183.764 151.573,186.431 148.5,188.5C 147.791,187.596 146.791,187.263 145.5,187.5C 145.719,188.675 145.386,189.675 144.5,190.5C 142.929,189.691 141.262,189.357 139.5,189.5C 139.708,187.08 139.374,184.747 138.5,182.5C 135.401,181.621 132.401,180.621 129.5,179.5C 128.5,179.667 127.5,179.833 126.5,180C 125.167,180.667 125.167,181.333 126.5,182C 130.134,182.156 133.467,183.156 136.5,185C 135.471,186.698 133.971,187.532 132,187.5C 127.734,184.929 123.4,182.596 119,180.5C 115.04,184.145 110.707,184.478 106,181.5C 104.287,182.137 104.121,183.137 105.5,184.5C 89.9896,185.49 74.6563,186.49 59.5,187.5C 58.0689,187.119 57.2355,186.119 57,184.5C 56.6667,184.833 56.3333,185.167 56,185.5C 55.6667,182.833 55.3333,180.167 55,177.5C 53.8904,179.037 52.3904,179.703 50.5,179.5C 50.5,177.833 50.5,176.167 50.5,174.5C 52.2984,175.463 53.6317,174.796 54.5,172.5C 55.9052,175.852 57.2385,176.018 58.5,173C 74.4075,172.825 90.2408,172.325 106,171.5C 108.301,172.867 110.801,173.534 113.5,173.5C 114.167,173.5 114.833,173.5 115.5,173.5C 118.482,174.165 121.648,174.498 125,174.5C 128.762,174.415 132.262,173.748 135.5,172.5C 137.2,172.374 138.7,171.707 140,170.5C 142.4,171.044 144.733,171.711 147,172.5C 148.667,172.167 150.333,171.833 152,171.5C 152.422,173.426 153.589,174.426 155.5,174.5 Z"/></g>
<g><path style="opacity:1" fill="#654034" d="M 111.5,171.5 C 116.463,172.254 121.463,172.587 126.5,172.5C 123.038,173.482 119.371,173.815 115.5,173.5C 114.833,173.5 114.167,173.5 113.5,173.5C 112.833,172.833 112.167,172.167 111.5,171.5 Z"/></g>
<g><path style="opacity:1" fill="#dc7a3a" d="M 137.5,170.5 C 136.833,171.167 136.167,171.833 135.5,172.5C 132.262,173.748 128.762,174.415 125,174.5C 121.648,174.498 118.482,174.165 115.5,173.5C 119.371,173.815 123.038,173.482 126.5,172.5C 130.249,172.249 133.915,171.583 137.5,170.5 Z"/></g>
<g><path style="opacity:1" fill="#e77832" d="M 45.5,159.5 C 45.8333,159.5 46.1667,159.5 46.5,159.5C 46.8414,163.709 47.508,167.875 48.5,172C 48.6842,173.376 49.3509,174.209 50.5,174.5C 50.5,176.167 50.5,177.833 50.5,179.5C 52.3904,179.703 53.8904,179.037 55,177.5C 55.3333,180.167 55.6667,182.833 56,185.5C 56.3333,185.167 56.6667,184.833 57,184.5C 57.2355,186.119 58.0689,187.119 59.5,187.5C 59.9954,189.482 60.4954,191.482 61,193.5C 61.414,193.043 61.914,192.709 62.5,192.5C 64.2615,197.137 67.4282,198.804 72,197.5C 74.0955,198.715 73.9288,199.549 71.5,200C 73.5,200.333 75.5,200.667 77.5,201C 78.8228,201.816 79.4894,202.983 79.5,204.5C 79.1667,204.5 78.8333,204.5 78.5,204.5C 76.7839,204.371 75.1172,204.038 73.5,203.5C 71.9663,201.631 69.9663,200.298 67.5,199.5C 58.3118,193.641 51.6451,185.641 47.5,175.5C 46.9619,171.476 46.2952,167.476 45.5,163.5C 45.5,162.167 45.5,160.833 45.5,159.5 Z"/></g>
<g><path style="opacity:1" fill="#36305f" d="M 39.5,125.5 C 41.1171,126.589 41.9504,128.256 42,130.5C 43.117,129.051 43.7837,127.384 44,125.5C 44.3568,129.51 44.1901,133.51 43.5,137.5C 43.3336,145.507 43.5003,153.507 44,161.5C 44.2784,162.416 44.7784,163.082 45.5,163.5C 46.2952,167.476 46.9619,171.476 47.5,175.5C 48.3949,178.738 48.3949,181.905 47.5,185C 48.7441,185.456 49.5774,184.956 50,183.5C 50.5855,185.129 51.4188,186.629 52.5,188C 52.2645,188.873 51.9312,189.707 51.5,190.5C 53.6904,192.007 55.0238,194.007 55.5,196.5C 57.1992,196.34 58.8659,196.506 60.5,197C 57.6569,200.154 58.1569,200.987 62,199.5C 63.876,199.525 65.376,200.191 66.5,201.5C 63.4245,202.525 60.4245,203.525 57.5,204.5C 45.0394,194.587 38.0394,181.587 36.5,165.5C 36.3335,155.494 36.5002,145.494 37,135.5C 37.738,132.009 38.5713,128.675 39.5,125.5 Z"/></g>
<g><path style="opacity:1" fill="#5f382d" d="M 157.5,179.5 C 157.291,180.922 156.791,182.255 156,183.5C 153.628,185.703 151.461,188.037 149.5,190.5C 148.833,190.5 148.167,190.5 147.5,190.5C 147.833,189.833 148.167,189.167 148.5,188.5C 151.573,186.431 153.906,183.764 155.5,180.5C 156.167,180.167 156.833,179.833 157.5,179.5 Z"/></g>
<g><path style="opacity:1" fill="#f37524" d="M 148.5,188.5 C 148.167,189.167 147.833,189.833 147.5,190.5C 145.46,192.177 143.46,193.844 141.5,195.5C 139.938,195.733 138.605,196.4 137.5,197.5C 134.286,198.222 131.619,199.889 129.5,202.5C 126.437,202.863 123.437,203.53 120.5,204.5C 118.311,204.406 116.311,203.739 114.5,202.5C 105.45,204.009 105.784,205.176 115.5,206C 108.88,207.137 102.214,207.637 95.5,207.5C 90.0417,207.135 84.7083,206.135 79.5,204.5C 79.4894,202.983 78.8228,201.816 77.5,201C 75.5,200.667 73.5,200.333 71.5,200C 73.9288,199.549 74.0955,198.715 72,197.5C 67.4282,198.804 64.2615,197.137 62.5,192.5C 61.914,192.709 61.414,193.043 61,193.5C 60.4954,191.482 59.9954,189.482 59.5,187.5C 74.6563,186.49 89.9896,185.49 105.5,184.5C 104.121,183.137 104.287,182.137 106,181.5C 110.707,184.478 115.04,184.145 119,180.5C 123.4,182.596 127.734,184.929 132,187.5C 133.971,187.532 135.471,186.698 136.5,185C 133.467,183.156 130.134,182.156 126.5,182C 125.167,181.333 125.167,180.667 126.5,180C 127.5,179.833 128.5,179.667 129.5,179.5C 132.401,180.621 135.401,181.621 138.5,182.5C 139.374,184.747 139.708,187.08 139.5,189.5C 141.262,189.357 142.929,189.691 144.5,190.5C 145.386,189.675 145.719,188.675 145.5,187.5C 146.791,187.263 147.791,187.596 148.5,188.5 Z"/></g>
<g><path style="opacity:1" fill="#46314d" d="M 47.5,175.5 C 51.6451,185.641 58.3118,193.641 67.5,199.5C 67.8333,200.167 68.1667,200.833 68.5,201.5C 67.8333,201.5 67.1667,201.5 66.5,201.5C 65.376,200.191 63.876,199.525 62,199.5C 58.1569,200.987 57.6569,200.154 60.5,197C 58.8659,196.506 57.1992,196.34 55.5,196.5C 55.0238,194.007 53.6904,192.007 51.5,190.5C 51.9312,189.707 52.2645,188.873 52.5,188C 51.4188,186.629 50.5855,185.129 50,183.5C 49.5774,184.956 48.7441,185.456 47.5,185C 48.3949,181.905 48.3949,178.738 47.5,175.5 Z"/></g>
<g><path style="opacity:1" fill="#6f402d" d="M 141.5,195.5 C 140.415,197.587 138.749,198.92 136.5,199.5C 136.833,198.833 137.167,198.167 137.5,197.5C 138.605,196.4 139.938,195.733 141.5,195.5 Z"/></g>
<g><path style="opacity:1" fill="#ac6140" d="M 67.5,199.5 C 69.9663,200.298 71.9663,201.631 73.5,203.5C 71.7162,203.107 70.0495,202.441 68.5,201.5C 68.1667,200.833 67.8333,200.167 67.5,199.5 Z"/></g>
<g><path style="opacity:1" fill="#d67742" d="M 137.5,197.5 C 137.167,198.167 136.833,198.833 136.5,199.5C 134.313,200.758 131.98,201.758 129.5,202.5C 131.619,199.889 134.286,198.222 137.5,197.5 Z"/></g>
<g><path style="opacity:1" fill="#e9742d" d="M 129.5,202.5 C 129.5,202.833 129.5,203.167 129.5,203.5C 129.167,203.5 128.833,203.5 128.5,203.5C 123.192,205.605 117.859,207.272 112.5,208.5C 106.642,208.822 100.975,208.489 95.5,207.5C 102.214,207.637 108.88,207.137 115.5,206C 105.784,205.176 105.45,204.009 114.5,202.5C 116.311,203.739 118.311,204.406 120.5,204.5C 123.437,203.53 126.437,202.863 129.5,202.5 Z"/></g>
<g><path style="opacity:1" fill="#413d4d" d="M 166.5,182.5 C 161.566,190.435 155.233,197.102 147.5,202.5C 144.873,203.105 142.207,203.605 139.5,204C 140.851,206.125 140.185,207.292 137.5,207.5C 134.811,207.455 133.477,206.121 133.5,203.5C 132.167,203.5 130.833,203.5 129.5,203.5C 129.5,203.167 129.5,202.833 129.5,202.5C 131.98,201.758 134.313,200.758 136.5,199.5C 138.749,198.92 140.415,197.587 141.5,195.5C 143.46,193.844 145.46,192.177 147.5,190.5C 148.167,190.5 148.833,190.5 149.5,190.5C 150.712,191.23 151.712,192.23 152.5,193.5C 155.96,192.263 157.96,190.263 158.5,187.5C 159.086,187.709 159.586,188.043 160,188.5C 160.353,187.328 160.187,186.162 159.5,185C 159.63,183.941 160.13,183.108 161,182.5C 162.707,183.138 164.54,183.138 166.5,182.5 Z"/></g>
<g><path style="opacity:1" fill="#3b395e" d="M 66.5,201.5 C 67.1667,201.5 67.8333,201.5 68.5,201.5C 70.0495,202.441 71.7162,203.107 73.5,203.5C 75.1209,205.117 77.1209,206.284 79.5,207C 77.3359,207.914 75.3359,209.081 73.5,210.5C 80.4834,211.426 87.4834,211.426 94.5,210.5C 93.3192,212.067 91.6526,212.901 89.5,213C 96.9439,213.357 104.277,212.524 111.5,210.5C 114.028,211.169 114.028,212.002 111.5,213C 113.883,214.197 113.55,215.03 110.5,215.5C 109.259,214.963 108.092,214.296 107,213.5C 99.575,215.042 92.075,216.042 84.5,216.5C 74.3534,214.924 65.3534,210.924 57.5,204.5C 60.4245,203.525 63.4245,202.525 66.5,201.5 Z"/></g>
<g><path style="opacity:1" fill="#6e4136" d="M 128.5,203.5 C 128.53,204.497 128.03,205.164 127,205.5C 122.286,207.35 117.453,208.684 112.5,209.5C 112.5,209.167 112.5,208.833 112.5,208.5C 117.859,207.272 123.192,205.605 128.5,203.5 Z"/></g>
<g><path style="opacity:1" fill="#b7633c" d="M 78.5,204.5 C 78.8333,204.5 79.1667,204.5 79.5,204.5C 84.7083,206.135 90.0417,207.135 95.5,207.5C 100.975,208.489 106.642,208.822 112.5,208.5C 112.5,208.833 112.5,209.167 112.5,209.5C 111.167,209.5 109.833,209.5 108.5,209.5C 102.158,209.666 95.8246,209.5 89.5,209C 85.3883,208.323 81.7217,206.823 78.5,204.5 Z"/></g>
<g><path style="opacity:1" fill="#4a374e" d="M 73.5,203.5 C 75.1172,204.038 76.7839,204.371 78.5,204.5C 81.7217,206.823 85.3883,208.323 89.5,209C 95.8246,209.5 102.158,209.666 108.5,209.5C 104.03,210.486 99.3633,210.819 94.5,210.5C 87.4834,211.426 80.4834,211.426 73.5,210.5C 75.3359,209.081 77.3359,207.914 79.5,207C 77.1209,206.284 75.1209,205.117 73.5,203.5 Z"/></g>
<g><path style="opacity:1" fill="#403d54" d="M 147.5,202.5 C 138.222,210.135 127.555,215.135 115.5,217.5C 106.179,218.668 96.8461,218.668 87.5,217.5C 86.209,217.737 85.209,217.404 84.5,216.5C 92.075,216.042 99.575,215.042 107,213.5C 108.092,214.296 109.259,214.963 110.5,215.5C 113.55,215.03 113.883,214.197 111.5,213C 114.028,212.002 114.028,211.169 111.5,210.5C 104.277,212.524 96.9439,213.357 89.5,213C 91.6526,212.901 93.3192,212.067 94.5,210.5C 99.3633,210.819 104.03,210.486 108.5,209.5C 109.833,209.5 111.167,209.5 112.5,209.5C 117.453,208.684 122.286,207.35 127,205.5C 128.03,205.164 128.53,204.497 128.5,203.5C 128.833,203.5 129.167,203.5 129.5,203.5C 130.833,203.5 132.167,203.5 133.5,203.5C 133.477,206.121 134.811,207.455 137.5,207.5C 140.185,207.292 140.851,206.125 139.5,204C 142.207,203.605 144.873,203.105 147.5,202.5 Z"/></g>
<g><path style="opacity:1" fill="#276896" d="M 87.5,217.5 C 96.8461,218.668 106.179,218.668 115.5,217.5C 114.5,218.167 113.5,218.833 112.5,219.5C 106.158,219.666 99.8246,219.5 93.5,219C 91.2922,218.809 89.2922,218.309 87.5,217.5 Z"/></g>
</svg>
