<svg xmlns="http://www.w3.org/2000/svg" preserveAspectRatio="xMinYMin" focusable="false" viewBox="0 0 1000 1000" width="20" height="20" class="svg__link"><path d="M428.26,623.75a51.93,51.93,0,0,1-36.73-15.2c-95.21-95.19-95.21-249.95,0-345L583.47,71.41a244.06,244.06,0,0,1,345.12.11c95.21,95.18,95.21,250,0,345l-87.76,87.73a52,52,0,0,1-73.57-73.55L855,343c54.59-54.58,54.59-143.44,0-198a140,140,0,0,0-198,0L465,337c-54.6,54.58-54.6,143.44,0,198a52,52,0,0,1-36.74,88.76ZM244,1000A242.37,242.37,0,0,1,71.41,928.48c-95.21-95.18-95.21-249.94,0-345l87.76-87.73a52,52,0,0,1,73.57,73.55L145,657c-54.59,54.58-54.59,143.44,0,198a140,140,0,0,0,198,0L535,663c54.6-54.58,54.6-143.44,0-198a52,52,0,1,1,73.58-73.56c95.21,95.19,95.21,250,0,345L416.53,928.59A242.93,242.93,0,0,1,244,1000Z" fill="#666"/></svg>

