<?xml version="1.0" encoding="UTF-8"?>
<!DOCTYPE svg PUBLIC "-//W3C//DTD SVG 1.1//EN" "http://www.w3.org/Graphics/SVG/1.1/DTD/svg11.dtd">
<svg xmlns="http://www.w3.org/2000/svg" version="1.1" width="474px" height="474px" style="shape-rendering:geometricPrecision; text-rendering:geometricPrecision; image-rendering:optimizeQuality; fill-rule:evenodd; clip-rule:evenodd" xmlns:xlink="http://www.w3.org/1999/xlink">
<g><path style="opacity:1" fill="#fdfdfd" d="M -0.5,-0.5 C 65.5,-0.5 131.5,-0.5 197.5,-0.5C 197.5,0.5 197.5,1.5 197.5,2.5C 194.311,2.85834 191.311,3.52501 188.5,4.5C 183.688,3.96451 179.355,4.96451 175.5,7.5C 172.833,8.16667 170.167,8.83333 167.5,9.5C 163.467,10.0249 159.8,11.3582 156.5,13.5C 153.423,13.179 151.09,14.179 149.5,16.5C 149.167,16.5 148.833,16.5 148.5,16.5C 144.376,17.3992 140.709,19.0659 137.5,21.5C 132.833,23.5 128.167,25.5 123.5,27.5C 119.909,29.8794 116.076,31.8794 112,33.5C 110.69,34.1301 109.856,35.1301 109.5,36.5C 106.296,37.3833 103.629,39.0499 101.5,41.5C 98.9108,42.4194 96.9108,44.086 95.5,46.5C 92.1092,47.5293 89.4426,49.5293 87.5,52.5C 80.9375,56.3904 75.2708,61.3904 70.5,67.5C 69.1667,68.1667 68.1667,69.1667 67.5,70.5C 61.4195,75.2451 56.4195,80.9118 52.5,87.5C 50.086,88.9108 48.4194,90.9108 47.5,93.5C 45.7376,94.2623 44.7376,95.5956 44.5,97.5C 42.7376,98.2623 41.7376,99.5956 41.5,101.5C 39.5923,102.486 38.5923,104.152 38.5,106.5C 37.0937,106.973 36.427,107.973 36.5,109.5C 35.5416,109.953 34.7083,110.619 34,111.5C 31.5482,116.068 29.3815,120.735 27.5,125.5C 24.9986,128.357 23.332,131.691 22.5,135.5C 20.659,137.849 19.3257,140.515 18.5,143.5C 16.7868,144.635 16.1201,146.302 16.5,148.5C 16.4431,149.609 16.1098,150.609 15.5,151.5C 11.6479,158.964 8.98121,166.964 7.5,175.5C 4.96451,179.355 3.96451,183.688 4.5,188.5C 3.74542,192.79 2.74542,197.123 1.5,201.5C 0.833333,201.833 0.166667,202.167 -0.5,202.5C -0.5,134.833 -0.5,67.1667 -0.5,-0.5 Z"/></g>
<g><path style="opacity:1" fill="#23201f" d="M 221.5,-0.5 C 231.5,-0.5 241.5,-0.5 251.5,-0.5C 254.337,1.40229 257.671,2.06896 261.5,1.5C 265.042,1.18723 268.375,1.52056 271.5,2.5C 279.624,6.258 288.291,7.92467 297.5,7.5C 297.611,8.11742 297.944,8.61742 298.5,9C 300.473,9.49546 302.473,9.66212 304.5,9.5C 307.907,11.0743 311.573,12.0743 315.5,12.5C 315.5,12.8333 315.5,13.1667 315.5,13.5C 319.085,15.8061 323.085,17.1394 327.5,17.5C 327.973,18.9063 328.973,19.573 330.5,19.5C 332.042,20.3007 333.708,20.634 335.5,20.5C 335.953,21.4584 336.619,22.2917 337.5,23C 339.927,24.5914 342.593,25.4248 345.5,25.5C 346.29,26.4013 347.29,27.0679 348.5,27.5C 350.566,29.1991 352.9,30.5324 355.5,31.5C 355.842,32.3382 356.508,32.6716 357.5,32.5C 359.662,34.8971 362.329,36.5638 365.5,37.5C 367.484,40.1639 370.151,41.8305 373.5,42.5C 374.911,44.914 376.911,46.5806 379.5,47.5C 380.262,49.2624 381.596,50.2624 383.5,50.5C 384.262,52.2624 385.596,53.2624 387.5,53.5C 392.807,58.4721 398.14,63.4721 403.5,68.5C 404.167,71.1667 405.833,72.8333 408.5,73.5C 409.757,76.4274 411.757,78.7607 414.5,80.5C 415.167,81.8333 416.167,82.8333 417.5,83.5C 418.338,83.8417 418.672,84.5084 418.5,85.5C 419.167,86.8333 420.167,87.8333 421.5,88.5C 423.252,90.2459 424.585,92.2459 425.5,94.5C 426.08,96.7488 427.413,98.4154 429.5,99.5C 430.745,102.009 431.745,104.675 432.5,107.5C 434.185,108.953 435.851,110.286 437.5,111.5C 438.89,112.899 439.89,114.566 440.5,116.5C 440.427,118.027 441.094,119.027 442.5,119.5C 442.755,121.967 443.755,123.967 445.5,125.5C 445.427,127.027 446.094,128.027 447.5,128.5C 448.757,133.233 450.757,137.566 453.5,141.5C 454.5,144.167 455.5,146.833 456.5,149.5C 457.531,155.267 459.531,160.601 462.5,165.5C 462.875,167.698 463.542,169.698 464.5,171.5C 465.15,173.435 465.483,175.435 465.5,177.5C 465.12,181.658 466.12,185.325 468.5,188.5C 468.833,188.5 469.167,188.5 469.5,188.5C 469.335,191.85 469.502,195.183 470,198.5C 470.278,199.416 470.778,200.082 471.5,200.5C 471.5,203.833 471.5,207.167 471.5,210.5C 470.92,214.649 471.586,218.316 473.5,221.5C 473.5,231.5 473.5,241.5 473.5,251.5C 471.955,252.23 471.122,253.563 471,255.5C 470.501,260.823 470.334,266.156 470.5,271.5C 467.197,278.334 465.53,285.667 465.5,293.5C 465.326,295.861 464.993,298.194 464.5,300.5C 462.525,306.762 460.525,313.095 458.5,319.5C 458.5,319.833 458.5,320.167 458.5,320.5C 457.599,321.29 456.932,322.29 456.5,323.5C 455.883,323.611 455.383,323.944 455,324.5C 453.869,327.445 453.036,330.445 452.5,333.5C 450.62,335.755 449.62,338.422 449.5,341.5C 446.866,345.179 444.533,349.179 442.5,353.5C 441.11,354.899 440.11,356.566 439.5,358.5C 436.791,360.903 434.791,363.903 433.5,367.5C 431.75,368.659 430.75,370.326 430.5,372.5C 429.094,372.973 428.427,373.973 428.5,375.5C 426.738,376.262 425.738,377.596 425.5,379.5C 424.094,379.973 423.427,380.973 423.5,382.5C 419.123,386.268 415.456,390.601 412.5,395.5C 405.854,401.479 399.521,407.812 393.5,414.5C 389.518,417.152 385.851,420.152 382.5,423.5C 380.973,423.427 379.973,424.094 379.5,425.5C 375.202,427.812 371.202,430.479 367.5,433.5C 364.63,434.433 362.296,436.1 360.5,438.5C 359.609,439.11 358.609,439.443 357.5,439.5C 355.973,439.427 354.973,440.094 354.5,441.5C 348.235,444.449 342.235,447.782 336.5,451.5C 335.391,451.557 334.391,451.89 333.5,452.5C 332.127,452.343 330.793,452.51 329.5,453C 327.242,453.876 325.242,455.043 323.5,456.5C 322.833,456.5 322.5,456.833 322.5,457.5C 319.99,457.927 317.657,458.593 315.5,459.5C 313.62,459.229 312.287,459.896 311.5,461.5C 307.677,462.336 304.011,463.336 300.5,464.5C 294.66,465.597 288.994,466.931 283.5,468.5C 277.903,468.77 272.57,469.77 267.5,471.5C 265.5,471.5 263.5,471.5 261.5,471.5C 259.219,471.077 257.552,471.744 256.5,473.5C 244.833,473.5 233.167,473.5 221.5,473.5C 218.316,471.586 214.649,470.92 210.5,471.5C 205.797,471.563 201.13,471.229 196.5,470.5C 193.833,469.833 191.167,469.167 188.5,468.5C 185.373,467.419 182.04,466.753 178.5,466.5C 178.167,466.5 177.833,466.5 177.5,466.5C 175.898,464.926 173.898,464.259 171.5,464.5C 170.432,463.566 169.099,463.232 167.5,463.5C 167.5,462.833 167.167,462.5 166.5,462.5C 161.182,459.726 155.515,457.726 149.5,456.5C 146.833,455.5 144.167,454.5 141.5,453.5C 137.566,450.757 133.233,448.757 128.5,447.5C 127.508,447.672 126.842,447.338 126.5,446.5C 124.337,444.917 122.004,443.584 119.5,442.5C 119.027,441.094 118.027,440.427 116.5,440.5C 112.975,439.241 109.975,437.241 107.5,434.5C 105.338,432.103 102.671,430.436 99.5,429.5C 98.7377,427.738 97.4044,426.738 95.5,426.5C 94.7377,424.738 93.4044,423.738 91.5,423.5C 85.5193,418.523 79.5193,413.523 73.5,408.5C 70.5,404.833 67.1667,401.5 63.5,398.5C 60.8046,395.474 58.1379,392.474 55.5,389.5C 54.5806,386.911 52.914,384.911 50.5,383.5C 50.2624,381.596 49.2624,380.262 47.5,379.5C 46.5806,376.911 44.914,374.911 42.5,373.5C 42.1231,371.742 41.4565,370.075 40.5,368.5C 38.7188,365.909 36.7188,363.575 34.5,361.5C 34.1039,358.279 32.7705,355.612 30.5,353.5C 29.6618,353.158 29.3284,352.492 29.5,351.5C 29.4626,348.047 28.1293,345.381 25.5,343.5C 24.5638,340.329 22.8971,337.662 20.5,335.5C 20.634,333.708 20.3007,332.042 19.5,330.5C 19.2413,327.728 18.2413,325.395 16.5,323.5C 16.0198,320.557 15.0198,317.89 13.5,315.5C 13.1667,315.5 12.8333,315.5 12.5,315.5C 12.5905,312.848 11.9238,310.515 10.5,308.5C 10.3259,306.139 9.99255,303.806 9.5,301.5C 10.1098,296.296 8.94318,291.629 6,287.5C 5.32065,282.971 5.48731,278.471 6.5,274C 6.1493,270.896 5.6493,271.063 5,274.5C 4.29603,272.722 3.79603,270.888 3.5,269C 3.53939,267.106 4.20606,266.106 5.5,266C 4.98957,264.174 4.15623,264.007 3,265.5C 2.78997,263.942 2.28997,262.609 1.5,261.5C 1.5,261.167 1.5,260.833 1.5,260.5C 2.0545,256.988 1.38784,253.988 -0.5,251.5C -0.5,241.5 -0.5,231.5 -0.5,221.5C 1.41365,218.316 2.08031,214.649 1.5,210.5C 3.0992,203.338 4.43253,196.005 5.5,188.5C 5.24171,184.633 5.90837,180.966 7.5,177.5C 8.11742,177.389 8.61742,177.056 9,176.5C 10.7175,168.091 12.8841,159.757 15.5,151.5C 16.1098,150.609 16.4431,149.609 16.5,148.5C 17.5375,147.07 18.2041,145.403 18.5,143.5C 19.3257,140.515 20.659,137.849 22.5,135.5C 24.0103,134.164 25.6769,132.997 27.5,132C 27.4453,129.708 27.4453,127.541 27.5,125.5C 31.2928,120.684 34.2928,115.35 36.5,109.5C 37.9063,109.027 38.573,108.027 38.5,106.5C 40.047,105.232 41.047,103.565 41.5,101.5C 43.2624,100.738 44.2624,99.4044 44.5,97.5C 46.2624,96.7377 47.2624,95.4044 47.5,93.5C 49.914,92.0892 51.5806,90.0892 52.5,87.5C 57.16,82.8665 61.8267,78.1999 66.5,73.5C 67.3857,72.675 67.719,71.675 67.5,70.5C 68.1667,69.1667 69.1667,68.1667 70.5,67.5C 76.4692,62.8655 82.1359,57.8655 87.5,52.5C 90.5331,50.984 93.1997,48.984 95.5,46.5C 98.0892,45.5806 100.089,43.914 101.5,41.5C 104.704,40.6167 107.371,38.9501 109.5,36.5C 115.127,34.9619 119.794,31.9619 123.5,27.5C 128.167,25.5 132.833,23.5 137.5,21.5C 142.001,21.4216 145.668,19.7549 148.5,16.5C 148.833,16.5 149.167,16.5 149.5,16.5C 152.018,15.7362 154.351,14.7362 156.5,13.5C 160.673,13.3333 164.34,12 167.5,9.5C 170.167,8.83333 172.833,8.16667 175.5,7.5C 180.052,6.94341 184.385,5.94341 188.5,4.5C 192.817,4.91661 196.817,4.24994 200.5,2.5C 203.962,1.51836 207.629,1.18503 211.5,1.5C 215.329,2.06896 218.663,1.40229 221.5,-0.5 Z"/></g>
<g><path style="opacity:1" fill="#fdfdfd" d="M 271.5,-0.5 C 338.833,-0.5 406.167,-0.5 473.5,-0.5C 473.5,66.5 473.5,133.5 473.5,200.5C 472.833,200.5 472.167,200.5 471.5,200.5C 471.044,196.336 470.378,192.336 469.5,188.5C 469.167,188.5 468.833,188.5 468.5,188.5C 468.318,184.511 467.318,180.844 465.5,177.5C 465.483,175.435 465.15,173.435 464.5,171.5C 464.932,168.123 464.265,165.123 462.5,162.5C 460.739,157.982 458.739,153.649 456.5,149.5C 455.5,146.833 454.5,144.167 453.5,141.5C 452.462,137.882 451.295,134.215 450,130.5C 449.292,129.619 448.458,128.953 447.5,128.5C 447.573,126.973 446.906,125.973 445.5,125.5C 445.975,122.687 444.975,120.687 442.5,119.5C 442.573,117.973 441.906,116.973 440.5,116.5C 439.89,114.566 438.89,112.899 437.5,111.5C 437.011,110.005 436.345,108.671 435.5,107.5C 435.262,105.596 434.262,104.262 432.5,103.5C 432.262,101.596 431.262,100.262 429.5,99.5C 428.92,97.2512 427.587,95.5846 425.5,94.5C 424.585,92.2459 423.252,90.2459 421.5,88.5C 421.5,86.5 420.5,85.5 418.5,85.5C 418.672,84.5084 418.338,83.8417 417.5,83.5C 417.5,81.5 416.5,80.5 414.5,80.5C 413.243,77.5726 411.243,75.2393 408.5,73.5C 407.167,71.5 405.5,69.8333 403.5,68.5C 398.14,63.4721 392.807,58.4721 387.5,53.5C 386.738,51.7376 385.404,50.7376 383.5,50.5C 382.738,48.7376 381.404,47.7376 379.5,47.5C 378.089,45.086 376.089,43.4194 373.5,42.5C 370.151,41.8305 367.484,40.1639 365.5,37.5C 363.338,35.1029 360.671,33.4362 357.5,32.5C 356.508,32.6716 355.842,32.3382 355.5,31.5C 353.879,29.058 351.546,27.7247 348.5,27.5C 347.29,27.0679 346.29,26.4013 345.5,25.5C 342.663,23.0332 339.329,21.3666 335.5,20.5C 333.708,20.634 332.042,20.3007 330.5,19.5C 330.027,18.0937 329.027,17.427 327.5,17.5C 323.767,15.589 319.767,14.2556 315.5,13.5C 315.5,13.1667 315.5,12.8333 315.5,12.5C 312.461,9.80729 308.794,8.80729 304.5,9.5C 302.401,8.38815 300.067,7.72148 297.5,7.5C 290.27,5.32106 282.937,3.6544 275.5,2.5C 273.924,1.85706 272.59,0.857056 271.5,-0.5 Z"/></g>
<g><path style="opacity:1" fill="#cdc9c8" d="M 197.5,-0.5 C 202.167,-0.5 206.833,-0.5 211.5,-0.5C 211.5,0.166667 211.5,0.833333 211.5,1.5C 207.629,1.18503 203.962,1.51836 200.5,2.5C 199.5,2.5 198.5,2.5 197.5,2.5C 197.5,1.5 197.5,0.5 197.5,-0.5 Z"/></g>
<g><path style="opacity:1" fill="#5f5b5a" d="M 211.5,-0.5 C 214.833,-0.5 218.167,-0.5 221.5,-0.5C 218.663,1.40229 215.329,2.06896 211.5,1.5C 211.5,0.833333 211.5,0.166667 211.5,-0.5 Z"/></g>
<g><path style="opacity:1" fill="#5f5b5a" d="M 251.5,-0.5 C 254.833,-0.5 258.167,-0.5 261.5,-0.5C 261.5,0.166667 261.5,0.833333 261.5,1.5C 257.671,2.06896 254.337,1.40229 251.5,-0.5 Z"/></g>
<g><path style="opacity:1" fill="#c5c2c0" d="M 261.5,-0.5 C 264.833,-0.5 268.167,-0.5 271.5,-0.5C 272.59,0.857056 273.924,1.85706 275.5,2.5C 274.167,2.5 272.833,2.5 271.5,2.5C 268.375,1.52056 265.042,1.18723 261.5,1.5C 261.5,0.833333 261.5,0.166667 261.5,-0.5 Z"/></g>
<g><path style="opacity:1" fill="#5f5c5b" d="M 197.5,2.5 C 198.5,2.5 199.5,2.5 200.5,2.5C 196.817,4.24994 192.817,4.91661 188.5,4.5C 191.311,3.52501 194.311,2.85834 197.5,2.5 Z"/></g>
<g><path style="opacity:1" fill="#9a9997" d="M 188.5,4.5 C 184.385,5.94341 180.052,6.94341 175.5,7.5C 179.355,4.96451 183.688,3.96451 188.5,4.5 Z"/></g>
<g><path style="opacity:1" fill="#494846" d="M 271.5,2.5 C 272.833,2.5 274.167,2.5 275.5,2.5C 282.937,3.6544 290.27,5.32106 297.5,7.5C 288.291,7.92467 279.624,6.258 271.5,2.5 Z"/></g>
<g><path style="opacity:1" fill="#686665" d="M 297.5,7.5 C 300.067,7.72148 302.401,8.38815 304.5,9.5C 302.473,9.66212 300.473,9.49546 298.5,9C 297.944,8.61742 297.611,8.11742 297.5,7.5 Z"/></g>
<g><path style="opacity:1" fill="#c3bfc0" d="M 304.5,9.5 C 308.794,8.80729 312.461,9.80729 315.5,12.5C 311.573,12.0743 307.907,11.0743 304.5,9.5 Z"/></g>
<g><path style="opacity:1" fill="#757273" d="M 167.5,9.5 C 164.34,12 160.673,13.3333 156.5,13.5C 159.8,11.3582 163.467,10.0249 167.5,9.5 Z"/></g>
<g><path style="opacity:1" fill="#818080" d="M 156.5,13.5 C 154.351,14.7362 152.018,15.7362 149.5,16.5C 151.09,14.179 153.423,13.179 156.5,13.5 Z"/></g>
<g><path style="opacity:1" fill="#726e6e" d="M 315.5,13.5 C 319.767,14.2556 323.767,15.589 327.5,17.5C 323.085,17.1394 319.085,15.8061 315.5,13.5 Z"/></g>
<g><path style="opacity:1" fill="#888483" d="M 327.5,17.5 C 329.027,17.427 330.027,18.0937 330.5,19.5C 328.973,19.573 327.973,18.9063 327.5,17.5 Z"/></g>
<g><path style="opacity:1" fill="#595655" d="M 148.5,16.5 C 145.668,19.7549 142.001,21.4216 137.5,21.5C 140.709,19.0659 144.376,17.3992 148.5,16.5 Z"/></g>
<g><path style="opacity:1" fill="#b7b6b6" d="M 335.5,20.5 C 339.329,21.3666 342.663,23.0332 345.5,25.5C 342.593,25.4248 339.927,24.5914 337.5,23C 336.619,22.2917 335.953,21.4584 335.5,20.5 Z"/></g>
<g><path style="opacity:1" fill="#a8a6a7" d="M 348.5,27.5 C 351.546,27.7247 353.879,29.058 355.5,31.5C 352.9,30.5324 350.566,29.1991 348.5,27.5 Z"/></g>
<g><path style="opacity:1" fill="#999797" d="M 123.5,27.5 C 119.794,31.9619 115.127,34.9619 109.5,36.5C 109.856,35.1301 110.69,34.1301 112,33.5C 116.076,31.8794 119.909,29.8794 123.5,27.5 Z"/></g>
<g><path style="opacity:1" fill="#afabaa" d="M 357.5,32.5 C 360.671,33.4362 363.338,35.1029 365.5,37.5C 362.329,36.5638 359.662,34.8971 357.5,32.5 Z"/></g>
<g><path style="opacity:1" fill="#939293" d="M 109.5,36.5 C 107.371,38.9501 104.704,40.6167 101.5,41.5C 103.629,39.0499 106.296,37.3833 109.5,36.5 Z"/></g>
<g><path style="opacity:1" fill="#706c6d" d="M 101.5,41.5 C 100.089,43.914 98.0892,45.5806 95.5,46.5C 96.9108,44.086 98.9108,42.4194 101.5,41.5 Z"/></g>
<g><path style="opacity:1" fill="#a9a9a9" d="M 373.5,42.5 C 376.089,43.4194 378.089,45.086 379.5,47.5C 376.911,46.5806 374.911,44.914 373.5,42.5 Z"/></g>
<g><path style="opacity:1" fill="#a29e9d" d="M 379.5,47.5 C 381.404,47.7376 382.738,48.7376 383.5,50.5C 381.596,50.2624 380.262,49.2624 379.5,47.5 Z"/></g>
<g><path style="opacity:1" fill="#71706f" d="M 95.5,46.5 C 93.1997,48.984 90.5331,50.984 87.5,52.5C 89.4426,49.5293 92.1092,47.5293 95.5,46.5 Z"/></g>
<g><path style="opacity:1" fill="#a5a5a5" d="M 383.5,50.5 C 385.404,50.7376 386.738,51.7376 387.5,53.5C 385.596,53.2624 384.262,52.2624 383.5,50.5 Z"/></g>
<g><path style="opacity:1" fill="#737070" d="M 87.5,52.5 C 82.1359,57.8655 76.4692,62.8655 70.5,67.5C 75.2708,61.3904 80.9375,56.3904 87.5,52.5 Z"/></g>
<g><path style="opacity:1" fill="#686566" d="M 403.5,68.5 C 405.5,69.8333 407.167,71.5 408.5,73.5C 405.833,72.8333 404.167,71.1667 403.5,68.5 Z"/></g>
<g><path style="opacity:1" fill="#807f7f" d="M 408.5,73.5 C 411.243,75.2393 413.243,77.5726 414.5,80.5C 411.757,78.7607 409.757,76.4274 408.5,73.5 Z"/></g>
<g><path style="opacity:1" fill="#72706f" d="M 67.5,70.5 C 67.719,71.675 67.3857,72.675 66.5,73.5C 61.8267,78.1999 57.16,82.8665 52.5,87.5C 56.4195,80.9118 61.4195,75.2451 67.5,70.5 Z"/></g>
<g><path style="opacity:1" fill="#aeaaaa" d="M 414.5,80.5 C 416.5,80.5 417.5,81.5 417.5,83.5C 416.167,82.8333 415.167,81.8333 414.5,80.5 Z"/></g>
<g><path style="opacity:1" fill="#9a9697" d="M 418.5,85.5 C 420.5,85.5 421.5,86.5 421.5,88.5C 420.167,87.8333 419.167,86.8333 418.5,85.5 Z"/></g>
<g><path style="opacity:1" fill="#888483" d="M 52.5,87.5 C 51.5806,90.0892 49.914,92.0892 47.5,93.5C 48.4194,90.9108 50.086,88.9108 52.5,87.5 Z"/></g>
<g><path style="opacity:1" fill="#918f8f" d="M 47.5,93.5 C 47.2624,95.4044 46.2624,96.7377 44.5,97.5C 44.7376,95.5956 45.7376,94.2623 47.5,93.5 Z"/></g>
<g><path style="opacity:1" fill="#656160" d="M 425.5,94.5 C 427.587,95.5846 428.92,97.2512 429.5,99.5C 427.413,98.4154 426.08,96.7488 425.5,94.5 Z"/></g>
<g><path style="opacity:1" fill="#918d8e" d="M 44.5,97.5 C 44.2624,99.4044 43.2624,100.738 41.5,101.5C 41.7376,99.5956 42.7376,98.2623 44.5,97.5 Z"/></g>
<g><path style="opacity:1" fill="#aaa8a9" d="M 41.5,101.5 C 41.047,103.565 40.047,105.232 38.5,106.5C 38.5923,104.152 39.5923,102.486 41.5,101.5 Z"/></g>
<g><path style="opacity:1" fill="#8b8b8b" d="M 432.5,103.5 C 434.262,104.262 435.262,105.596 435.5,107.5C 433.738,106.738 432.738,105.404 432.5,103.5 Z"/></g>
<g><path style="opacity:1" fill="#444443" d="M 429.5,99.5 C 431.262,100.262 432.262,101.596 432.5,103.5C 432.738,105.404 433.738,106.738 435.5,107.5C 436.345,108.671 437.011,110.005 437.5,111.5C 435.851,110.286 434.185,108.953 432.5,107.5C 431.745,104.675 430.745,102.009 429.5,99.5 Z"/></g>
<g><path style="opacity:1" fill="#7d7d7d" d="M 38.5,106.5 C 38.573,108.027 37.9063,109.027 36.5,109.5C 36.427,107.973 37.0937,106.973 38.5,106.5 Z"/></g>
<g><path style="opacity:1" fill="#807f7d" d="M 440.5,116.5 C 441.906,116.973 442.573,117.973 442.5,119.5C 441.094,119.027 440.427,118.027 440.5,116.5 Z"/></g>
<g><path style="opacity:1" fill="#181514" d="M 171.5,124.5 C 168.193,123.949 164.86,123.616 161.5,123.5C 151.681,122.506 141.681,122.173 131.5,122.5C 130.448,122.649 129.448,122.483 128.5,122C 128.833,121.667 129.167,121.333 129.5,121C 142.502,119.055 155.502,119.055 168.5,121C 170.717,122.275 173.051,123.275 175.5,124C 174.207,124.49 172.873,124.657 171.5,124.5 Z"/></g>
<g><path style="opacity:1" fill="#767574" d="M 36.5,109.5 C 34.2928,115.35 31.2928,120.684 27.5,125.5C 29.3815,120.735 31.5482,116.068 34,111.5C 34.7083,110.619 35.5416,109.953 36.5,109.5 Z"/></g>
<g><path style="opacity:1" fill="#141210" d="M 338.5,122.5 C 330.167,122.5 321.833,122.5 313.5,122.5C 311.143,122.663 308.81,122.497 306.5,122C 319.709,118.839 332.709,118.839 345.5,122C 343.19,122.497 340.857,122.663 338.5,122.5 Z"/></g>
<g><path style="opacity:1" fill="#7a7877" d="M 131.5,122.5 C 141.681,122.173 151.681,122.506 161.5,123.5C 152.161,123.334 142.827,123.5 133.5,124C 132.263,124.232 131.263,124.732 130.5,125.5C 129.5,125.5 128.5,125.5 127.5,125.5C 125.379,125.325 123.379,125.659 121.5,126.5C 124.67,124.998 128.003,123.664 131.5,122.5 Z"/></g>
<g><path style="opacity:1" fill="#dbd9d7" d="M 161.5,123.5 C 162.167,124.167 162.833,124.833 163.5,125.5C 152.495,124.23 141.495,124.23 130.5,125.5C 131.263,124.732 132.263,124.232 133.5,124C 142.827,123.5 152.161,123.334 161.5,123.5 Z"/></g>
<g><path style="opacity:1" fill="#fdfdfd" d="M 163.5,125.5 C 168.743,126.81 174.077,127.476 179.5,127.5C 179.611,128.117 179.944,128.617 180.5,129C 185.911,130.647 191.244,132.48 196.5,134.5C 199.022,135.011 201.355,136.011 203.5,137.5C 205.076,138.143 206.41,139.143 207.5,140.5C 211.072,143.633 215.072,146.3 219.5,148.5C 221.839,150.173 223.839,152.173 225.5,154.5C 225.248,156.073 224.582,157.406 223.5,158.5C 221.018,159.663 219.684,161.663 219.5,164.5C 218.833,164.5 218.5,164.833 218.5,165.5C 216.178,166.802 214.845,168.802 214.5,171.5C 212.935,173.509 211.935,175.843 211.5,178.5C 209.805,180.897 208.472,183.563 207.5,186.5C 205.706,188.428 204.706,190.762 204.5,193.5C 203.5,193.5 202.5,193.5 201.5,193.5C 200.5,193.167 199.833,192.5 199.5,191.5C 198.935,188.192 196.935,186.192 193.5,185.5C 193.5,185.167 193.5,184.833 193.5,184.5C 193.306,182.088 191.973,181.088 189.5,181.5C 189.027,180.094 188.027,179.427 186.5,179.5C 183.489,178.331 180.822,176.664 178.5,174.5C 172.56,171.745 166.227,169.745 159.5,168.5C 151.344,167.343 143.01,167.177 134.5,168C 133.944,168.383 133.611,168.883 133.5,169.5C 133.167,169.5 132.833,169.5 132.5,169.5C 128.491,169.858 124.491,170.358 120.5,171C 120.957,171.414 121.291,171.914 121.5,172.5C 118.573,173.111 116.24,174.444 114.5,176.5C 114.5,176.833 114.5,177.167 114.5,177.5C 114.167,177.5 113.833,177.5 113.5,177.5C 110.573,178.757 108.239,180.757 106.5,183.5C 103.5,183.833 101.833,185.5 101.5,188.5C 100.5,188.833 99.8333,189.5 99.5,190.5C 97.1667,190.833 95.8333,192.167 95.5,194.5C 95.5,194.833 95.5,195.167 95.5,195.5C 93.0178,196.663 91.6845,198.663 91.5,201.5C 90.6554,202.671 89.9887,204.005 89.5,205.5C 87.2149,208.335 85.8816,211.668 85.5,215.5C 85.5,215.833 85.5,216.167 85.5,216.5C 84.8423,217.398 84.1757,218.398 83.5,219.5C 82.1801,227.323 82.1801,234.99 83.5,242.5C 83.1588,246.16 83.8255,249.493 85.5,252.5C 86.2186,254.764 86.552,257.097 86.5,259.5C 87.3403,261.853 88.6736,263.853 90.5,265.5C 90.427,267.027 91.0937,268.027 92.5,268.5C 93.4206,272.711 95.7539,276.044 99.5,278.5C 100.45,281.115 102.117,283.115 104.5,284.5C 105.663,286.982 107.663,288.316 110.5,288.5C 112.001,289.752 113.668,290.752 115.5,291.5C 117.008,294.093 119.341,295.426 122.5,295.5C 123.167,295.5 123.833,295.5 124.5,295.5C 127.383,298.656 131.049,299.99 135.5,299.5C 136.167,299.5 136.833,299.5 137.5,299.5C 148.629,302.235 159.963,301.901 171.5,298.5C 173.175,298.132 174.175,297.132 174.5,295.5C 176.027,295.573 177.027,294.906 177.5,293.5C 177.833,293.5 178.167,293.5 178.5,293.5C 180.027,293.573 181.027,292.906 181.5,291.5C 181.833,291.5 182.167,291.5 182.5,291.5C 187.577,289.959 191.577,286.959 194.5,282.5C 194.5,281.833 194.833,281.5 195.5,281.5C 197.914,280.089 199.581,278.089 200.5,275.5C 203.652,273.684 205.652,271.017 206.5,267.5C 206.5,267.167 206.5,266.833 206.5,266.5C 207.906,266.027 208.573,265.027 208.5,263.5C 208.5,263.167 208.5,262.833 208.5,262.5C 209.167,262.167 209.833,261.833 210.5,261.5C 211.937,257.892 213.437,254.225 215,250.5C 216.304,240.211 216.804,229.878 216.5,219.5C 216.517,217.435 216.85,215.435 217.5,213.5C 219.779,209.609 221.112,205.276 221.5,200.5C 221.5,199.5 221.5,198.5 221.5,197.5C 221.5,197.167 221.5,196.833 221.5,196.5C 224.425,193.525 226.092,189.858 226.5,185.5C 228.942,183.879 230.275,181.546 230.5,178.5C 230.5,178.167 230.5,177.833 230.5,177.5C 231.906,177.027 232.573,176.027 232.5,174.5C 233.906,174.027 234.573,173.027 234.5,171.5C 237.575,169.09 239.908,166.09 241.5,162.5C 242.512,161.128 243.512,159.795 244.5,158.5C 246.5,158.5 247.5,157.5 247.5,155.5C 249.404,155.262 250.738,154.262 251.5,152.5C 254.582,150.628 257.249,148.295 259.5,145.5C 262.198,145.155 264.198,143.822 265.5,141.5C 268.701,140.621 271.368,138.955 273.5,136.5C 275.38,136.771 276.713,136.104 277.5,134.5C 281.672,134.295 285.339,132.962 288.5,130.5C 288.833,129.833 289.167,129.167 289.5,128.5C 290.167,128.5 290.833,128.5 291.5,128.5C 293.764,127.781 296.097,127.448 298.5,127.5C 306.498,125.48 314.664,124.48 323,124.5C 333.034,125.828 343.201,126.828 353.5,127.5C 354.833,127.5 356.167,127.5 357.5,127.5C 359.792,129.267 362.458,130.267 365.5,130.5C 365.833,130.5 366.167,130.5 366.5,130.5C 369.376,134.568 373.376,136.568 378.5,136.5C 379.959,136.433 381.292,136.766 382.5,137.5C 383.401,139.727 385.067,140.727 387.5,140.5C 387.5,141.167 387.833,141.5 388.5,141.5C 388.973,142.906 389.973,143.573 391.5,143.5C 394.876,146.878 398.543,149.878 402.5,152.5C 403.5,153.833 404.5,155.167 405.5,156.5C 407.918,159.584 409.918,162.918 411.5,166.5C 412.5,166.5 413.5,166.5 414.5,166.5C 414.343,167.873 414.51,169.207 415,170.5C 416.512,171.257 417.846,172.257 419,173.5C 420.46,177.453 422.626,180.786 425.5,183.5C 425.586,188.319 427.253,192.319 430.5,195.5C 430.415,198.649 431.415,201.316 433.5,203.5C 433.5,203.833 433.5,204.167 433.5,204.5C 435.747,222.43 436.081,240.43 434.5,258.5C 434.007,260.806 433.674,263.139 433.5,265.5C 433.5,266.167 433.167,266.5 432.5,266.5C 429.005,273.509 426.005,280.842 423.5,288.5C 422.4,289.605 421.733,290.938 421.5,292.5C 419.071,293.265 417.738,294.931 417.5,297.5C 416.11,298.899 415.11,300.566 414.5,302.5C 413.449,303.222 412.782,304.222 412.5,305.5C 410.167,305.833 408.833,307.167 408.5,309.5C 405.737,311.494 403.071,313.66 400.5,316C 399.748,316.671 399.414,317.504 399.5,318.5C 396.397,320.09 393.397,321.923 390.5,324C 389.177,324.816 388.511,325.983 388.5,327.5C 388.167,327.5 387.833,327.5 387.5,327.5C 385.278,328.688 382.945,329.688 380.5,330.5C 377.763,331.217 375.43,332.55 373.5,334.5C 372.22,335.931 370.553,336.598 368.5,336.5C 364.57,336.635 361.236,337.968 358.5,340.5C 357.833,340.5 357.167,340.5 356.5,340.5C 352.028,340.942 347.695,341.775 343.5,343C 338.167,343.167 332.833,343.333 327.5,343.5C 317.393,343.54 307.393,342.874 297.5,341.5C 295.901,341.768 294.568,341.434 293.5,340.5C 290.453,337.81 286.787,336.476 282.5,336.5C 281.833,336.5 281.5,336.167 281.5,335.5C 279.215,333.541 276.549,332.208 273.5,331.5C 273.167,331.5 272.833,331.5 272.5,331.5C 272.027,330.094 271.027,329.427 269.5,329.5C 268.198,327.178 266.198,325.845 263.5,325.5C 261.878,324.878 260.545,323.878 259.5,322.5C 258.415,320.413 256.749,319.08 254.5,318.5C 253.833,316.5 252.5,315.167 250.5,314.5C 250.167,314.5 249.833,314.5 249.5,314.5C 250.65,312.603 251.65,310.603 252.5,308.5C 255.766,305.595 258.433,302.261 260.5,298.5C 260.392,296.486 261.058,294.82 262.5,293.5C 265.447,290.512 267.114,286.845 267.5,282.5C 267.5,282.167 267.5,281.833 267.5,281.5C 269.098,279.605 270.432,277.438 271.5,275C 272.577,274.53 273.577,274.697 274.5,275.5C 275.167,278.167 276.833,279.833 279.5,280.5C 279.525,283.179 280.858,284.512 283.5,284.5C 284.833,285.5 286.167,286.5 287.5,287.5C 288.29,288.401 289.29,289.068 290.5,289.5C 291.5,290.167 292.5,290.833 293.5,291.5C 295.121,293.942 297.454,295.275 300.5,295.5C 301.167,295.5 301.833,295.5 302.5,295.5C 302.611,296.117 302.944,296.617 303.5,297C 305.473,297.495 307.473,297.662 309.5,297.5C 309.5,297.833 309.5,298.167 309.5,298.5C 311.5,299.167 313.5,299.833 315.5,300.5C 322.655,301.655 329.988,301.822 337.5,301C 338.416,300.722 339.082,300.222 339.5,299.5C 339.833,299.5 340.167,299.5 340.5,299.5C 343.01,299.946 345.01,299.28 346.5,297.5C 351.808,297.781 356.141,296.114 359.5,292.5C 361.144,292.19 362.144,291.19 362.5,289.5C 362.833,289.5 363.167,289.5 363.5,289.5C 365.754,288.876 367.421,287.543 368.5,285.5C 372.833,283.167 376.167,279.833 378.5,275.5C 379.906,275.027 380.573,274.027 380.5,272.5C 381.906,272.027 382.573,271.027 382.5,269.5C 384.01,267.678 385.343,265.678 386.5,263.5C 388.132,263.175 389.132,262.175 389.5,260.5C 390.398,255.438 391.398,250.438 392.5,245.5C 392.943,241.351 393.277,237.184 393.5,233C 393.475,230.071 392.809,227.571 391.5,225.5C 391.5,223.833 391.5,222.167 391.5,220.5C 391.453,217.432 390.953,214.432 390,211.5C 389.623,210.058 388.79,209.058 387.5,208.5C 385.738,204.638 383.738,200.972 381.5,197.5C 381.262,195.596 380.262,194.262 378.5,193.5C 377.5,192.167 376.5,190.833 375.5,189.5C 374.833,186.833 373.167,185.167 370.5,184.5C 369.073,181.236 366.739,178.736 363.5,177C 361.655,175.872 359.655,175.372 357.5,175.5C 355.38,172.531 352.38,171.198 348.5,171.5C 348.167,171.5 347.833,171.5 347.5,171.5C 347.38,170.414 346.713,169.747 345.5,169.5C 335.757,167.336 326.09,167.003 316.5,168.5C 314.097,168.448 311.764,168.781 309.5,169.5C 305.446,170.353 301.446,171.519 297.5,173C 296.244,173.417 295.577,174.25 295.5,175.5C 295.167,175.5 294.833,175.5 294.5,175.5C 292.688,175.771 291.022,176.438 289.5,177.5C 287.391,179.522 285.391,181.522 283.5,183.5C 281.833,184.5 280.5,185.833 279.5,187.5C 279.5,187.833 279.5,188.167 279.5,188.5C 276.5,189.5 274.5,191.5 273.5,194.5C 271.568,197.366 269.901,200.366 268.5,203.5C 267.094,203.973 266.427,204.973 266.5,206.5C 266.5,206.833 266.5,207.167 266.5,207.5C 265.043,209.242 263.876,211.242 263,213.5C 262.506,215.134 262.34,216.801 262.5,218.5C 260.895,220.48 259.728,222.813 259,225.5C 258.5,233.493 258.334,241.493 258.5,249.5C 258.5,249.833 258.5,250.167 258.5,250.5C 257.883,250.611 257.383,250.944 257,251.5C 255.83,258.178 254.663,264.845 253.5,271.5C 253.5,271.833 253.5,272.167 253.5,272.5C 252.094,272.973 251.427,273.973 251.5,275.5C 251.5,276.167 251.5,276.833 251.5,277.5C 250.094,277.973 249.427,278.973 249.5,280.5C 249.5,280.833 249.5,281.167 249.5,281.5C 245.028,287.758 241.028,294.425 237.5,301.5C 236.504,301.414 235.671,301.748 235,302.5C 232.92,305.065 231.087,307.732 229.5,310.5C 228.833,310.5 228.5,310.833 228.5,311.5C 226.856,311.81 225.856,312.81 225.5,314.5C 223.736,315.326 222.402,316.659 221.5,318.5C 218.151,319.169 215.484,320.836 213.5,323.5C 212.211,324.637 211.211,325.97 210.5,327.5C 210.167,327.5 209.833,327.5 209.5,327.5C 205.063,329.375 201.063,331.708 197.5,334.5C 194.807,334.572 192.14,334.905 189.5,335.5C 181.044,339.714 172.044,342.214 162.5,343C 152.172,343.5 141.839,343.666 131.5,343.5C 128.763,343.599 126.096,343.265 123.5,342.5C 122.833,342.5 122.167,342.5 121.5,342.5C 121.5,341.833 121.167,341.5 120.5,341.5C 120.389,340.883 120.056,340.383 119.5,340C 115.249,339.556 111.249,338.389 107.5,336.5C 105.784,336.371 104.117,336.038 102.5,335.5C 100.973,335.573 99.9731,334.906 99.5,333.5C 97.3877,331.229 94.721,329.896 91.5,329.5C 89.8949,326.846 87.8949,324.513 85.5,322.5C 83.9547,321.548 82.288,321.215 80.5,321.5C 79.1667,320.5 77.8333,319.5 76.5,318.5C 75.7377,316.738 74.4044,315.738 72.5,315.5C 72.5,314.833 72.1667,314.5 71.5,314.5C 70.9202,312.251 69.5869,310.585 67.5,309.5C 66.485,305.818 64.1517,303.485 60.5,302.5C 60.573,300.973 59.9063,299.973 58.5,299.5C 57.8333,298.5 57.1667,297.5 56.5,296.5C 56.573,294.973 55.9063,293.973 54.5,293.5C 54.573,291.973 53.9063,290.973 52.5,290.5C 51.5282,287.563 50.1948,284.897 48.5,282.5C 48.5,281.833 48.1667,281.5 47.5,281.5C 47.6567,280.127 47.49,278.793 47,277.5C 46.2612,275.111 45.0946,273.111 43.5,271.5C 43.5,270.5 43.5,269.5 43.5,268.5C 42.1556,262.143 40.8223,255.809 39.5,249.5C 39.526,236.157 39.8594,222.824 40.5,209.5C 41.1174,209.389 41.6174,209.056 42,208.5C 43.5119,202.125 45.3453,195.791 47.5,189.5C 47.5,189.167 47.5,188.833 47.5,188.5C 49.4002,185.706 51.0668,182.706 52.5,179.5C 55.0606,177.85 56.7273,175.516 57.5,172.5C 59.1667,169.833 60.8333,167.167 62.5,164.5C 65.2711,161.712 68.2711,159.378 71.5,157.5C 71.5,156.5 71.5,155.5 71.5,154.5C 74.4732,153.19 76.8065,151.19 78.5,148.5C 78.5,148.167 78.5,147.833 78.5,147.5C 81.2921,147.378 83.2921,146.044 84.5,143.5C 86.0269,143.573 87.0269,142.906 87.5,141.5C 89.2459,139.748 91.2459,138.415 93.5,137.5C 94.7095,137.068 95.7095,136.401 96.5,135.5C 97.8333,135.167 99.1667,134.833 100.5,134.5C 105.48,134.107 109.813,132.44 113.5,129.5C 113.5,129.167 113.5,128.833 113.5,128.5C 114.167,128.5 114.833,128.5 115.5,128.5C 119.8,128.245 123.8,127.245 127.5,125.5C 128.5,125.5 129.5,125.5 130.5,125.5C 141.495,124.23 152.495,124.23 163.5,125.5 Z"/></g>
<g><path style="opacity:1" fill="#767271" d="M 340.5,123.5 C 347.612,123.607 354.279,124.94 360.5,127.5C 359.5,127.5 358.5,127.5 357.5,127.5C 356.167,127.5 354.833,127.5 353.5,127.5C 349.378,125.872 345.044,124.539 340.5,123.5 Z"/></g>
<g><path style="opacity:1" fill="#706f6d" d="M 442.5,119.5 C 444.975,120.687 445.975,122.687 445.5,125.5C 443.755,123.967 442.755,121.967 442.5,119.5 Z"/></g>
<g><path style="opacity:1" fill="#cdcac8" d="M 313.5,122.5 C 321.833,122.5 330.167,122.5 338.5,122.5C 338.842,123.338 339.508,123.672 340.5,123.5C 345.044,124.539 349.378,125.872 353.5,127.5C 343.201,126.828 333.034,125.828 323,124.5C 314.664,124.48 306.498,125.48 298.5,127.5C 298.5,127.167 298.5,126.833 298.5,126.5C 303.606,125.152 308.606,123.819 313.5,122.5 Z"/></g>
<g><path style="opacity:1" fill="#bbb8b7" d="M 127.5,125.5 C 123.8,127.245 119.8,128.245 115.5,128.5C 116.5,127.833 117.5,127.167 118.5,126.5C 119.5,126.5 120.5,126.5 121.5,126.5C 123.379,125.659 125.379,125.325 127.5,125.5 Z"/></g>
<g><path style="opacity:1" fill="#bdb9b8" d="M 161.5,123.5 C 164.86,123.616 168.193,123.949 171.5,124.5C 174.167,125.5 176.833,126.5 179.5,127.5C 174.077,127.476 168.743,126.81 163.5,125.5C 162.833,124.833 162.167,124.167 161.5,123.5 Z"/></g>
<g><path style="opacity:1" fill="#696767" d="M 118.5,126.5 C 117.5,127.167 116.5,127.833 115.5,128.5C 114.833,128.5 114.167,128.5 113.5,128.5C 114.635,126.787 116.302,126.12 118.5,126.5 Z"/></g>
<g><path style="opacity:1" fill="#7c7a7a" d="M 298.5,126.5 C 298.5,126.833 298.5,127.167 298.5,127.5C 296.097,127.448 293.764,127.781 291.5,128.5C 291.611,127.883 291.944,127.383 292.5,127C 294.473,126.505 296.473,126.338 298.5,126.5 Z"/></g>
<g><path style="opacity:1" fill="#848281" d="M 445.5,125.5 C 446.906,125.973 447.573,126.973 447.5,128.5C 446.094,128.027 445.427,127.027 445.5,125.5 Z"/></g>
<g><path style="opacity:1" fill="#777474" d="M 113.5,128.5 C 113.5,128.833 113.5,129.167 113.5,129.5C 111.883,130.038 110.216,130.371 108.5,130.5C 109.635,128.787 111.302,128.12 113.5,128.5 Z"/></g>
<g><path style="opacity:1" fill="#b2b1b1" d="M 179.5,127.5 C 183.567,128.301 187.567,129.301 191.5,130.5C 193.167,131.833 194.833,133.167 196.5,134.5C 191.244,132.48 185.911,130.647 180.5,129C 179.944,128.617 179.611,128.117 179.5,127.5 Z"/></g>
<g><path style="opacity:1" fill="#797879" d="M 289.5,128.5 C 289.167,129.167 288.833,129.833 288.5,130.5C 287.833,130.5 287.167,130.5 286.5,130.5C 286.973,129.094 287.973,128.427 289.5,128.5 Z"/></g>
<g><path style="opacity:1" fill="#ababab" d="M 357.5,127.5 C 358.5,127.5 359.5,127.5 360.5,127.5C 362.42,128.065 364.087,129.065 365.5,130.5C 362.458,130.267 359.792,129.267 357.5,127.5 Z"/></g>
<g><path style="opacity:1" fill="#4a4746" d="M 27.5,125.5 C 27.4453,127.541 27.4453,129.708 27.5,132C 25.6769,132.997 24.0103,134.164 22.5,135.5C 23.332,131.691 24.9986,128.357 27.5,125.5 Z"/></g>
<g><path style="opacity:1" fill="#888485" d="M 107.5,130.5 C 107.027,131.906 106.027,132.573 104.5,132.5C 104.973,131.094 105.973,130.427 107.5,130.5 Z"/></g>
<g><path style="opacity:1" fill="#cfcccd" d="M 113.5,129.5 C 109.813,132.44 105.48,134.107 100.5,134.5C 101.287,132.896 102.62,132.229 104.5,132.5C 106.027,132.573 107.027,131.906 107.5,130.5C 107.833,130.5 108.167,130.5 108.5,130.5C 110.216,130.371 111.883,130.038 113.5,129.5 Z"/></g>
<g><path style="opacity:1" fill="#4a4748" d="M 191.5,130.5 C 194.707,131.179 197.707,132.346 200.5,134C 202.063,134.759 203.063,135.926 203.5,137.5C 201.355,136.011 199.022,135.011 196.5,134.5C 194.833,133.167 193.167,131.833 191.5,130.5 Z"/></g>
<g><path style="opacity:1" fill="#837f80" d="M 284.5,130.5 C 284.027,131.906 283.027,132.573 281.5,132.5C 281.973,131.094 282.973,130.427 284.5,130.5 Z"/></g>
<g><path style="opacity:1" fill="#787475" d="M 368.5,130.5 C 370.027,130.427 371.027,131.094 371.5,132.5C 369.973,132.573 368.973,131.906 368.5,130.5 Z"/></g>
<g><path style="opacity:1" fill="#cac7c8" d="M 284.5,130.5 C 285.167,130.5 285.833,130.5 286.5,130.5C 287.167,130.5 287.833,130.5 288.5,130.5C 285.339,132.962 281.672,134.295 277.5,134.5C 278.514,133.326 279.847,132.66 281.5,132.5C 283.027,132.573 284.027,131.906 284.5,130.5 Z"/></g>
<g><path style="opacity:1" fill="#d5d2d3" d="M 366.5,130.5 C 367.167,130.5 367.833,130.5 368.5,130.5C 368.973,131.906 369.973,132.573 371.5,132.5C 374.042,133.6 376.375,134.933 378.5,136.5C 373.376,136.568 369.376,134.568 366.5,130.5 Z"/></g>
<g><path style="opacity:1" fill="#555251" d="M 96.5,135.5 C 95.7095,136.401 94.7095,137.068 93.5,137.5C 93.8212,135.952 94.8212,135.285 96.5,135.5 Z"/></g>
<g><path style="opacity:1" fill="#979596" d="M 277.5,134.5 C 276.713,136.104 275.38,136.771 273.5,136.5C 274.514,135.326 275.847,134.66 277.5,134.5 Z"/></g>
<g><path style="opacity:1" fill="#9a9796" d="M 273.5,136.5 C 271.368,138.955 268.701,140.621 265.5,141.5C 267.404,138.789 270.07,137.123 273.5,136.5 Z"/></g>
<g><path style="opacity:1" fill="#6a6766" d="M 382.5,137.5 C 384.434,138.11 386.101,139.11 387.5,140.5C 385.067,140.727 383.401,139.727 382.5,137.5 Z"/></g>
<g><path style="opacity:1" fill="#959595" d="M 447.5,128.5 C 448.458,128.953 449.292,129.619 450,130.5C 451.295,134.215 452.462,137.882 453.5,141.5C 450.757,137.566 448.757,133.233 447.5,128.5 Z"/></g>
<g><path style="opacity:1" fill="#706c6b" d="M 388.5,141.5 C 390.027,141.427 391.027,142.094 391.5,143.5C 389.973,143.573 388.973,142.906 388.5,141.5 Z"/></g>
<g><path style="opacity:1" fill="#989493" d="M 87.5,141.5 C 87.0269,142.906 86.0269,143.573 84.5,143.5C 84.9731,142.094 85.9731,141.427 87.5,141.5 Z"/></g>
<g><path style="opacity:1" fill="#939292" d="M 84.5,143.5 C 83.2921,146.044 81.2921,147.378 78.5,147.5C 80.2228,145.782 82.2228,144.449 84.5,143.5 Z"/></g>
<g><path style="opacity:1" fill="#a3a2a2" d="M 265.5,141.5 C 264.198,143.822 262.198,145.155 259.5,145.5C 261.147,143.674 263.147,142.34 265.5,141.5 Z"/></g>
<g><path style="opacity:1" fill="#a09c9b" d="M 18.5,143.5 C 18.2041,145.403 17.5375,147.07 16.5,148.5C 16.1201,146.302 16.7868,144.635 18.5,143.5 Z"/></g>
<g><path style="opacity:1" fill="#bebdbd" d="M 207.5,140.5 C 212.197,142.178 216.197,144.844 219.5,148.5C 215.072,146.3 211.072,143.633 207.5,140.5 Z"/></g>
<g><path style="opacity:1" fill="#82807f" d="M 259.5,145.5 C 257.249,148.295 254.582,150.628 251.5,152.5C 251.511,150.983 252.177,149.816 253.5,149C 255.405,147.579 257.405,146.412 259.5,145.5 Z"/></g>
<g><path style="opacity:1" fill="#abaaa8" d="M 78.5,148.5 C 76.8065,151.19 74.4732,153.19 71.5,154.5C 73.1935,151.81 75.5268,149.81 78.5,148.5 Z"/></g>
<g><path style="opacity:1" fill="#5b5756" d="M 402.5,152.5 C 405.167,153.167 406.833,154.833 407.5,157.5C 406.833,157.167 406.167,156.833 405.5,156.5C 404.5,155.167 403.5,153.833 402.5,152.5 Z"/></g>
<g><path style="opacity:1" fill="#989493" d="M 251.5,152.5 C 250.738,154.262 249.404,155.262 247.5,155.5C 248.262,153.738 249.596,152.738 251.5,152.5 Z"/></g>
<g><path style="opacity:1" fill="#938f8e" d="M 247.5,155.5 C 247.5,157.5 246.5,158.5 244.5,158.5C 245.167,157.167 246.167,156.167 247.5,155.5 Z"/></g>
<g><path style="opacity:1" fill="#656263" d="M 15.5,151.5 C 12.8841,159.757 10.7175,168.091 9,176.5C 8.61742,177.056 8.11742,177.389 7.5,177.5C 7.5,176.833 7.5,176.167 7.5,175.5C 8.98121,166.964 11.6479,158.964 15.5,151.5 Z"/></g>
<g><path style="opacity:1" fill="#aaa9a8" d="M 71.5,154.5 C 71.5,155.5 71.5,156.5 71.5,157.5C 68.2711,159.378 65.2711,161.712 62.5,164.5C 62.5,164.167 62.5,163.833 62.5,163.5C 65.2148,160.118 68.2148,157.118 71.5,154.5 Z"/></g>
<g><path style="opacity:1" fill="#646261" d="M 456.5,149.5 C 458.739,153.649 460.739,157.982 462.5,162.5C 462.5,163.5 462.5,164.5 462.5,165.5C 459.531,160.601 457.531,155.267 456.5,149.5 Z"/></g>
<g><path style="opacity:1" fill="#858283" d="M 223.5,158.5 C 222.525,160.795 221.192,162.795 219.5,164.5C 219.684,161.663 221.018,159.663 223.5,158.5 Z"/></g>
<g><path style="opacity:1" fill="#797574" d="M 62.5,163.5 C 62.5,163.833 62.5,164.167 62.5,164.5C 60.8333,167.167 59.1667,169.833 57.5,172.5C 56.5,173.167 55.5,173.833 54.5,174.5C 56.4354,170.293 59.1021,166.627 62.5,163.5 Z"/></g>
<g><path style="opacity:1" fill="#cbcaca" d="M 405.5,156.5 C 406.167,156.833 406.833,157.167 407.5,157.5C 410.239,160.233 412.573,163.233 414.5,166.5C 413.5,166.5 412.5,166.5 411.5,166.5C 409.918,162.918 407.918,159.584 405.5,156.5 Z"/></g>
<g><path style="opacity:1" fill="#bebdbc" d="M 462.5,162.5 C 464.265,165.123 464.932,168.123 464.5,171.5C 463.542,169.698 462.875,167.698 462.5,165.5C 462.5,164.5 462.5,163.5 462.5,162.5 Z"/></g>
<g><path style="opacity:1" fill="#b0aeaf" d="M 159.5,168.5 C 152.5,168.5 145.5,168.5 138.5,168.5C 136.784,168.629 135.117,168.962 133.5,169.5C 133.611,168.883 133.944,168.383 134.5,168C 143.01,167.177 151.344,167.343 159.5,168.5 Z"/></g>
<g><path style="opacity:1" fill="#969495" d="M 218.5,165.5 C 217.66,167.853 216.326,169.853 214.5,171.5C 214.845,168.802 216.178,166.802 218.5,165.5 Z"/></g>
<g><path style="opacity:1" fill="#a9a7a8" d="M 316.5,168.5 C 326.09,167.003 335.757,167.336 345.5,169.5C 346.713,169.747 347.38,170.414 347.5,171.5C 337.35,168.929 327.016,167.929 316.5,168.5 Z"/></g>
<g><path style="opacity:1" fill="#726f70" d="M 138.5,168.5 C 137.082,170.308 135.082,170.975 132.5,170.5C 132.5,170.167 132.5,169.833 132.5,169.5C 132.833,169.5 133.167,169.5 133.5,169.5C 135.117,168.962 136.784,168.629 138.5,168.5 Z"/></g>
<g><path style="opacity:1" fill="#888586" d="M 159.5,168.5 C 166.227,169.745 172.56,171.745 178.5,174.5C 173.233,173.172 167.9,171.839 162.5,170.5C 160.97,170.36 159.97,169.693 159.5,168.5 Z"/></g>
<g><path style="opacity:1" fill="#959291" d="M 241.5,162.5 C 239.908,166.09 237.575,169.09 234.5,171.5C 236.131,167.879 238.465,164.879 241.5,162.5 Z"/></g>
<g><path style="opacity:1" fill="#7c7879" d="M 316.5,168.5 C 314.721,170.344 312.388,171.01 309.5,170.5C 309.5,170.167 309.5,169.833 309.5,169.5C 311.764,168.781 314.097,168.448 316.5,168.5 Z"/></g>
<g><path style="opacity:1" fill="#cccbcb" d="M 132.5,169.5 C 132.5,169.833 132.5,170.167 132.5,170.5C 128.358,171.532 124.358,172.866 120.5,174.5C 118.421,174.971 116.421,175.637 114.5,176.5C 116.24,174.444 118.573,173.111 121.5,172.5C 121.291,171.914 120.957,171.414 120.5,171C 124.491,170.358 128.491,169.858 132.5,169.5 Z"/></g>
<g><path style="opacity:1" fill="#b8b5b5" d="M 414.5,166.5 C 419.224,171.42 422.891,177.087 425.5,183.5C 422.626,180.786 420.46,177.453 419,173.5C 417.846,172.257 416.512,171.257 415,170.5C 414.51,169.207 414.343,167.873 414.5,166.5 Z"/></g>
<g><path style="opacity:1" fill="#5f5b5c" d="M 307.5,170.5 C 307.5,171.833 306.833,172.5 305.5,172.5C 305.5,171.167 306.167,170.5 307.5,170.5 Z"/></g>
<g><path style="opacity:1" fill="#bfbebf" d="M 309.5,169.5 C 309.5,169.833 309.5,170.167 309.5,170.5C 308.833,170.5 308.167,170.5 307.5,170.5C 306.167,170.5 305.5,171.167 305.5,172.5C 301.882,172.707 298.548,173.707 295.5,175.5C 295.577,174.25 296.244,173.417 297.5,173C 301.446,171.519 305.446,170.353 309.5,169.5 Z"/></g>
<g><path style="opacity:1" fill="#c7c7c7" d="M 348.5,171.5 C 352.38,171.198 355.38,172.531 357.5,175.5C 354.088,174.925 351.088,173.592 348.5,171.5 Z"/></g>
<g><path style="opacity:1" fill="#7d7978" d="M 234.5,171.5 C 234.573,173.027 233.906,174.027 232.5,174.5C 232.427,172.973 233.094,171.973 234.5,171.5 Z"/></g>
<g><path style="opacity:1" fill="#7a7878" d="M 214.5,171.5 C 214.448,174.346 213.448,176.68 211.5,178.5C 211.935,175.843 212.935,173.509 214.5,171.5 Z"/></g>
<g><path style="opacity:1" fill="#868382" d="M 120.5,174.5 C 118.967,176.245 116.967,177.245 114.5,177.5C 114.5,177.167 114.5,176.833 114.5,176.5C 116.421,175.637 118.421,174.971 120.5,174.5 Z"/></g>
<g><path style="opacity:1" fill="#727071" d="M 232.5,174.5 C 232.573,176.027 231.906,177.027 230.5,177.5C 230.427,175.973 231.094,174.973 232.5,174.5 Z"/></g>
<g><path style="opacity:1" fill="#c9c6c5" d="M 357.5,175.5 C 359.655,175.372 361.655,175.872 363.5,177C 366.739,178.736 369.073,181.236 370.5,184.5C 368.224,182.649 365.891,180.982 363.5,179.5C 363.027,178.094 362.027,177.427 360.5,177.5C 359.29,177.068 358.29,176.401 357.5,175.5 Z"/></g>
<g><path style="opacity:1" fill="#c6c5c4" d="M 57.5,172.5 C 56.7273,175.516 55.0606,177.85 52.5,179.5C 52.3653,177.446 53.032,175.779 54.5,174.5C 55.5,173.833 56.5,173.167 57.5,172.5 Z"/></g>
<g><path style="opacity:1" fill="#84807f" d="M 360.5,177.5 C 362.027,177.427 363.027,178.094 363.5,179.5C 361.973,179.573 360.973,178.906 360.5,177.5 Z"/></g>
<g><path style="opacity:1" fill="#a39f9e" d="M 186.5,179.5 C 188.027,179.427 189.027,180.094 189.5,181.5C 187.973,181.573 186.973,180.906 186.5,179.5 Z"/></g>
<g><path style="opacity:1" fill="#9e9e9c" d="M 7.5,175.5 C 7.5,176.167 7.5,176.833 7.5,177.5C 5.90837,180.966 5.24171,184.633 5.5,188.5C 5.16667,188.5 4.83333,188.5 4.5,188.5C 3.96451,183.688 4.96451,179.355 7.5,175.5 Z"/></g>
<g><path style="opacity:1" fill="#818080" d="M 113.5,177.5 C 112.101,180.564 109.768,182.564 106.5,183.5C 108.239,180.757 110.573,178.757 113.5,177.5 Z"/></g>
<g><path style="opacity:1" fill="#b2afaf" d="M 294.5,175.5 C 291.417,178.908 287.751,181.575 283.5,183.5C 285.391,181.522 287.391,179.522 289.5,177.5C 291.022,176.438 292.688,175.771 294.5,175.5 Z"/></g>
<g><path style="opacity:1" fill="#bcbbba" d="M 189.5,181.5 C 191.973,181.088 193.306,182.088 193.5,184.5C 191.368,184.446 190.035,183.446 189.5,181.5 Z"/></g>
<g><path style="opacity:1" fill="#a4a0a1" d="M 230.5,178.5 C 230.275,181.546 228.942,183.879 226.5,185.5C 227.217,182.763 228.55,180.43 230.5,178.5 Z"/></g>
<g><path style="opacity:1" fill="#888888" d="M 52.5,179.5 C 51.0668,182.706 49.4002,185.706 47.5,188.5C 47.9093,184.67 49.576,181.67 52.5,179.5 Z"/></g>
<g><path style="opacity:1" fill="#b4b4b4" d="M 370.5,184.5 C 373.167,185.167 374.833,186.833 375.5,189.5C 373.5,188.167 371.833,186.5 370.5,184.5 Z"/></g>
<g><path style="opacity:1" fill="#575354" d="M 465.5,177.5 C 467.318,180.844 468.318,184.511 468.5,188.5C 466.12,185.325 465.12,181.658 465.5,177.5 Z"/></g>
<g><path style="opacity:1" fill="#a5a2a3" d="M 106.5,183.5 C 104.833,185.167 103.167,186.833 101.5,188.5C 101.833,185.5 103.5,183.833 106.5,183.5 Z"/></g>
<g><path style="opacity:1" fill="#6b6766" d="M 211.5,178.5 C 211.391,181.899 210.058,184.566 207.5,186.5C 208.472,183.563 209.805,180.897 211.5,178.5 Z"/></g>
<g><path style="opacity:1" fill="#787677" d="M 283.5,183.5 C 283.167,185.833 281.833,187.167 279.5,187.5C 280.5,185.833 281.833,184.5 283.5,183.5 Z"/></g>
<g><path style="opacity:1" fill="#b8b8b8" d="M 193.5,185.5 C 196.935,186.192 198.935,188.192 199.5,191.5C 197.5,189.5 195.5,187.5 193.5,185.5 Z"/></g>
<g><path style="opacity:1" fill="#a09e9c" d="M 47.5,189.5 C 45.3453,195.791 43.5119,202.125 42,208.5C 41.6174,209.056 41.1174,209.389 40.5,209.5C 41.3047,203.116 42.9714,196.949 45.5,191C 45.8361,189.97 46.5028,189.47 47.5,189.5 Z"/></g>
<g><path style="opacity:1" fill="#94908f" d="M 99.5,190.5 C 98.5,192.167 97.1667,193.5 95.5,194.5C 95.8333,192.167 97.1667,190.833 99.5,190.5 Z"/></g>
<g><path style="opacity:1" fill="#7e7a7a" d="M 279.5,188.5 C 277.833,190.833 275.833,192.833 273.5,194.5C 274.5,191.5 276.5,189.5 279.5,188.5 Z"/></g>
<g><path style="opacity:1" fill="#bcb9ba" d="M 425.5,183.5 C 428.641,186.788 430.308,190.788 430.5,195.5C 427.253,192.319 425.586,188.319 425.5,183.5 Z"/></g>
<g><path style="opacity:1" fill="#a9a6a5" d="M 207.5,186.5 C 206.357,189.684 205.691,193.017 205.5,196.5C 203.027,196.912 201.694,195.912 201.5,193.5C 202.5,193.5 203.5,193.5 204.5,193.5C 204.706,190.762 205.706,188.428 207.5,186.5 Z"/></g>
<g><path style="opacity:1" fill="#706c6b" d="M 378.5,193.5 C 380.262,194.262 381.262,195.596 381.5,197.5C 379.738,196.738 378.738,195.404 378.5,193.5 Z"/></g>
<g><path style="opacity:1" fill="#908c8c" d="M 226.5,185.5 C 226.092,189.858 224.425,193.525 221.5,196.5C 221.955,192.186 223.621,188.519 226.5,185.5 Z"/></g>
<g><path style="opacity:1" fill="#54514f" d="M 4.5,188.5 C 4.83333,188.5 5.16667,188.5 5.5,188.5C 4.43253,196.005 3.0992,203.338 1.5,210.5C 1.5,207.5 1.5,204.5 1.5,201.5C 2.74542,197.123 3.74542,192.79 4.5,188.5 Z"/></g>
<g><path style="opacity:1" fill="#a5a3a4" d="M 469.5,188.5 C 470.378,192.336 471.044,196.336 471.5,200.5C 470.778,200.082 470.278,199.416 470,198.5C 469.502,195.183 469.335,191.85 469.5,188.5 Z"/></g>
<g><path style="opacity:1" fill="#929292" d="M 95.5,195.5 C 94.5254,197.795 93.1921,199.795 91.5,201.5C 91.6845,198.663 93.0178,196.663 95.5,195.5 Z"/></g>
<g><path style="opacity:1" fill="#b5b2b2" d="M 430.5,195.5 C 432.293,197.426 433.293,199.759 433.5,202.5C 433.5,202.833 433.5,203.167 433.5,203.5C 431.415,201.316 430.415,198.649 430.5,195.5 Z"/></g>
<g><path style="opacity:1" fill="#787473" d="M 221.5,197.5 C 221.5,198.5 221.5,199.5 221.5,200.5C 220.833,200.833 220.167,201.167 219.5,201.5C 219.66,199.847 220.326,198.514 221.5,197.5 Z"/></g>
<g><path style="opacity:1" fill="#636363" d="M 268.5,203.5 C 268.573,205.027 267.906,206.027 266.5,206.5C 266.427,204.973 267.094,203.973 268.5,203.5 Z"/></g>
<g><path style="opacity:1" fill="#5f5b5a" d="M 433.5,202.5 C 434.117,202.611 434.617,202.944 435,203.5C 435.495,205.473 435.662,207.473 435.5,209.5C 434.833,207.833 434.167,206.167 433.5,204.5C 433.5,204.167 433.5,203.833 433.5,203.5C 433.5,203.167 433.5,202.833 433.5,202.5 Z"/></g>
<g><path style="opacity:1" fill="#bbb9b8" d="M 471.5,200.5 C 472.167,200.5 472.833,200.5 473.5,200.5C 473.5,203.833 473.5,207.167 473.5,210.5C 472.833,210.5 472.167,210.5 471.5,210.5C 471.5,207.167 471.5,203.833 471.5,200.5 Z"/></g>
<g><path style="opacity:1" fill="#b8b4b3" d="M 1.5,201.5 C 1.5,204.5 1.5,207.5 1.5,210.5C 0.833333,210.5 0.166667,210.5 -0.5,210.5C -0.5,207.833 -0.5,205.167 -0.5,202.5C 0.166667,202.167 0.833333,201.833 1.5,201.5 Z"/></g>
<g><path style="opacity:1" fill="#656463" d="M 89.5,205.5 C 89.6567,206.873 89.49,208.207 89,209.5C 87.9179,211.618 86.7512,213.618 85.5,215.5C 85.8816,211.668 87.2149,208.335 89.5,205.5 Z"/></g>
<g><path style="opacity:1" fill="#b5b4b2" d="M 221.5,200.5 C 221.112,205.276 219.779,209.609 217.5,213.5C 217.5,212.833 217.5,212.167 217.5,211.5C 217.757,208.068 218.424,204.734 219.5,201.5C 220.167,201.167 220.833,200.833 221.5,200.5 Z"/></g>
<g><path style="opacity:1" fill="#727270" d="M 217.5,211.5 C 217.5,212.167 217.5,212.833 217.5,213.5C 216.85,215.435 216.517,217.435 216.5,219.5C 216.167,219.5 215.833,219.5 215.5,219.5C 215.294,216.505 215.96,213.838 217.5,211.5 Z"/></g>
<g><path style="opacity:1" fill="#484647" d="M 266.5,207.5 C 265.242,213.408 263.575,219.075 261.5,224.5C 261.517,222.435 261.85,220.435 262.5,218.5C 262.34,216.801 262.506,215.134 263,213.5C 263.876,211.242 265.043,209.242 266.5,207.5 Z"/></g>
<g><path style="opacity:1" fill="#625e5d" d="M -0.5,210.5 C 0.166667,210.5 0.833333,210.5 1.5,210.5C 2.08031,214.649 1.41365,218.316 -0.5,221.5C -0.5,217.833 -0.5,214.167 -0.5,210.5 Z"/></g>
<g><path style="opacity:1" fill="#8a8889" d="M 387.5,208.5 C 388.79,209.058 389.623,210.058 390,211.5C 390.953,214.432 391.453,217.432 391.5,220.5C 390.833,220.5 390.167,220.5 389.5,220.5C 389.81,216.3 389.143,212.3 387.5,208.5 Z"/></g>
<g><path style="opacity:1" fill="#605c5b" d="M 471.5,210.5 C 472.167,210.5 472.833,210.5 473.5,210.5C 473.5,214.167 473.5,217.833 473.5,221.5C 471.586,218.316 470.92,214.649 471.5,210.5 Z"/></g>
<g><path style="opacity:1" fill="#737270" d="M 436.5,211.5 C 436.833,211.5 437.167,211.5 437.5,211.5C 437.5,214.5 437.5,217.5 437.5,220.5C 438.815,229.598 438.815,238.598 437.5,247.5C 437.539,235.487 437.206,223.487 436.5,211.5 Z"/></g>
<g><path style="opacity:1" fill="#797876" d="M 85.5,216.5 C 83.7516,225.028 83.0849,233.695 83.5,242.5C 82.1801,234.99 82.1801,227.323 83.5,219.5C 84.1757,218.398 84.8423,217.398 85.5,216.5 Z"/></g>
<g><path style="opacity:1" fill="#d9d8d6" d="M 433.5,204.5 C 434.167,206.167 434.833,207.833 435.5,209.5C 435.833,210.167 436.167,210.833 436.5,211.5C 437.206,223.487 437.539,235.487 437.5,247.5C 436.083,250.998 435.417,254.665 435.5,258.5C 435.167,258.5 434.833,258.5 434.5,258.5C 436.081,240.43 435.747,222.43 433.5,204.5 Z"/></g>
<g><path style="opacity:1" fill="#383634" d="M 437.5,220.5 C 438.827,224.783 439.493,229.449 439.5,234.5C 439.333,239.167 439.167,243.833 439,248.5C 438.241,252.138 437.075,255.471 435.5,258.5C 435.417,254.665 436.083,250.998 437.5,247.5C 438.815,238.598 438.815,229.598 437.5,220.5 Z"/></g>
<g><path style="opacity:1" fill="#8b8a8a" d="M 39.5,214.5 C 38.2432,226.314 38.2432,237.981 39.5,249.5C 40.8223,255.809 42.1556,262.143 43.5,268.5C 42.8826,268.389 42.3826,268.056 42,267.5C 37.653,251.129 36.3197,234.462 38,217.5C 38.2321,216.263 38.7321,215.263 39.5,214.5 Z"/></g>
<g><path style="opacity:1" fill="#615f60" d="M 215.5,223.5 C 215.645,232.203 215.145,240.87 214,249.5C 213.066,250.858 212.232,252.192 211.5,253.5C 212.832,243.459 214.165,233.459 215.5,223.5 Z"/></g>
<g><path style="opacity:1" fill="#151314" d="M 389.5,220.5 C 390.167,220.5 390.833,220.5 391.5,220.5C 391.5,222.167 391.5,223.833 391.5,225.5C 391.5,232.167 391.5,238.833 391.5,245.5C 390.08,248.261 389.413,251.261 389.5,254.5C 387.787,255.635 387.12,257.302 387.5,259.5C 385.033,262.337 383.367,265.671 382.5,269.5C 381.094,269.973 380.427,270.973 380.5,272.5C 380.167,272.5 379.833,272.5 379.5,272.5C 378.427,271.749 378.26,270.749 379,269.5C 380.333,267.5 381.667,265.5 383,263.5C 384.702,258.001 386.702,252.668 389,247.5C 389.5,238.506 389.666,229.506 389.5,220.5 Z"/></g>
<g><path style="opacity:1" fill="#757474" d="M 391.5,225.5 C 392.809,227.571 393.475,230.071 393.5,233C 393.277,237.184 392.943,241.351 392.5,245.5C 392.167,245.5 391.833,245.5 391.5,245.5C 391.5,238.833 391.5,232.167 391.5,225.5 Z"/></g>
<g><path style="opacity:1" fill="#d0cecd" d="M 262.5,218.5 C 261.85,220.435 261.517,222.435 261.5,224.5C 260.072,231.62 259.406,238.953 259.5,246.5C 259.5,247.5 259.5,248.5 259.5,249.5C 259.167,249.5 258.833,249.5 258.5,249.5C 258.334,241.493 258.5,233.493 259,225.5C 259.728,222.813 260.895,220.48 262.5,218.5 Z"/></g>
<g><path style="opacity:1" fill="#dfddde" d="M 40.5,209.5 C 39.8594,222.824 39.526,236.157 39.5,249.5C 38.2432,237.981 38.2432,226.314 39.5,214.5C 39.2155,212.585 39.5489,210.919 40.5,209.5 Z"/></g>
<g><path style="opacity:1" fill="#13100f" d="M 261.5,225.5 C 262.821,228.598 263.488,232.098 263.5,236C 263.665,243.336 262.665,250.502 260.5,257.5C 259.702,257.043 259.369,256.376 259.5,255.5C 259.5,253.5 259.5,251.5 259.5,249.5C 259.5,248.5 259.5,247.5 259.5,246.5C 260.117,246.389 260.617,246.056 261,245.5C 261.5,238.842 261.666,232.175 261.5,225.5 Z"/></g>
<g><path style="opacity:1" fill="#161412" d="M 435.5,265.5 C 435.5,263.167 435.5,260.833 435.5,258.5C 437.075,255.471 438.241,252.138 439,248.5C 439.167,243.833 439.333,239.167 439.5,234.5C 439.493,229.449 438.827,224.783 437.5,220.5C 437.5,217.5 437.5,214.5 437.5,211.5C 437.393,209.621 437.893,209.288 439,210.5C 441.532,224.421 442.032,238.421 440.5,252.5C 438.958,257.107 437.291,261.441 435.5,265.5 Z"/></g>
<g><path style="opacity:1" fill="#5e5c5a" d="M 261.5,224.5 C 261.5,224.833 261.5,225.167 261.5,225.5C 261.666,232.175 261.5,238.842 261,245.5C 260.617,246.056 260.117,246.389 259.5,246.5C 259.406,238.953 260.072,231.62 261.5,224.5 Z"/></g>
<g><path style="opacity:1" fill="#5a5957" d="M 83.5,242.5 C 84.1174,242.611 84.6174,242.944 85,243.5C 85.498,246.482 85.6646,249.482 85.5,252.5C 83.8255,249.493 83.1588,246.16 83.5,242.5 Z"/></g>
<g><path style="opacity:1" fill="#cecdcd" d="M 215.5,219.5 C 215.833,219.5 216.167,219.5 216.5,219.5C 216.804,229.878 216.304,240.211 215,250.5C 213.437,254.225 211.937,257.892 210.5,261.5C 210.517,259.435 210.85,257.435 211.5,255.5C 211.5,254.833 211.5,254.167 211.5,253.5C 212.232,252.192 213.066,250.858 214,249.5C 215.145,240.87 215.645,232.203 215.5,223.5C 215.5,222.167 215.5,220.833 215.5,219.5 Z"/></g>
<g><path style="opacity:1" fill="#c3c0c0" d="M 258.5,250.5 C 257.781,252.764 257.448,255.097 257.5,257.5C 257.5,258.833 257.5,260.167 257.5,261.5C 255.824,262.183 255.157,263.517 255.5,265.5C 255.741,267.898 255.074,269.898 253.5,271.5C 254.663,264.845 255.83,258.178 257,251.5C 257.383,250.944 257.883,250.611 258.5,250.5 Z"/></g>
<g><path style="opacity:1" fill="#868281" d="M 258.5,249.5 C 258.833,249.5 259.167,249.5 259.5,249.5C 259.5,251.5 259.5,253.5 259.5,255.5C 258.833,256.167 258.167,256.833 257.5,257.5C 257.448,255.097 257.781,252.764 258.5,250.5C 258.5,250.167 258.5,249.833 258.5,249.5 Z"/></g>
<g><path style="opacity:1" fill="#524e4d" d="M 473.5,251.5 C 473.5,254.833 473.5,258.167 473.5,261.5C 471.598,264.337 470.931,267.671 471.5,271.5C 471.167,271.5 470.833,271.5 470.5,271.5C 470.334,266.156 470.501,260.823 471,255.5C 471.122,253.563 471.955,252.23 473.5,251.5 Z"/></g>
<g><path style="opacity:1" fill="#676767" d="M 389.5,254.5 C 389.204,256.403 388.537,258.07 387.5,259.5C 387.12,257.302 387.787,255.635 389.5,254.5 Z"/></g>
<g><path style="opacity:1" fill="#686463" d="M -0.5,251.5 C 1.38784,253.988 2.0545,256.988 1.5,260.5C 0.833333,260.5 0.166667,260.5 -0.5,260.5C -0.5,257.5 -0.5,254.5 -0.5,251.5 Z"/></g>
<g><path style="opacity:1" fill="#737171" d="M 85.5,252.5 C 86.1174,252.611 86.6174,252.944 87,253.5C 87.4396,255.866 87.9396,258.199 88.5,260.5C 87.8333,260.167 87.1667,259.833 86.5,259.5C 86.552,257.097 86.2186,254.764 85.5,252.5 Z"/></g>
<g><path style="opacity:1" fill="#808080" d="M 211.5,255.5 C 210.85,257.435 210.517,259.435 210.5,261.5C 209.833,261.833 209.167,262.167 208.5,262.5C 208.759,259.728 209.759,257.395 211.5,255.5 Z"/></g>
<g><path style="opacity:1" fill="#cccbcc" d="M 391.5,245.5 C 391.833,245.5 392.167,245.5 392.5,245.5C 391.398,250.438 390.398,255.438 389.5,260.5C 389.132,262.175 388.132,263.175 386.5,263.5C 386.833,262.167 387.167,260.833 387.5,259.5C 388.537,258.07 389.204,256.403 389.5,254.5C 389.413,251.261 390.08,248.261 391.5,245.5 Z"/></g>
<g><path style="opacity:1" fill="#a9a7a8" d="M 86.5,259.5 C 87.1667,259.833 87.8333,260.167 88.5,260.5C 89.5375,261.93 90.2041,263.597 90.5,265.5C 88.6736,263.853 87.3403,261.853 86.5,259.5 Z"/></g>
<g><path style="opacity:1" fill="#7e7a79" d="M 257.5,261.5 C 257.34,263.153 256.674,264.486 255.5,265.5C 255.157,263.517 255.824,262.183 257.5,261.5 Z"/></g>
<g><path style="opacity:1" fill="#747474" d="M 387.5,259.5 C 387.167,260.833 386.833,262.167 386.5,263.5C 385.343,265.678 384.01,267.678 382.5,269.5C 383.367,265.671 385.033,262.337 387.5,259.5 Z"/></g>
<g><path style="opacity:1" fill="#635f5e" d="M 434.5,258.5 C 434.833,258.5 435.167,258.5 435.5,258.5C 435.5,260.833 435.5,263.167 435.5,265.5C 434.833,265.5 434.167,265.5 433.5,265.5C 433.674,263.139 434.007,260.806 434.5,258.5 Z"/></g>
<g><path style="opacity:1" fill="#817e7e" d="M 208.5,263.5 C 208.573,265.027 207.906,266.027 206.5,266.5C 206.427,264.973 207.094,263.973 208.5,263.5 Z"/></g>
<g><path style="opacity:1" fill="#878384" d="M 90.5,265.5 C 91.9063,265.973 92.573,266.973 92.5,268.5C 91.0937,268.027 90.427,267.027 90.5,265.5 Z"/></g>
<g><path style="opacity:1" fill="#c8c4c3" d="M 473.5,261.5 C 473.5,264.833 473.5,268.167 473.5,271.5C 472.833,271.5 472.167,271.5 471.5,271.5C 470.931,267.671 471.598,264.337 473.5,261.5 Z"/></g>
<g><path style="opacity:1" fill="#c4c1c0" d="M -0.5,260.5 C 0.166667,260.5 0.833333,260.5 1.5,260.5C 1.5,260.833 1.5,261.167 1.5,261.5C 1.43718,266.203 1.77052,270.87 2.5,275.5C 1.85706,273.924 0.857056,272.59 -0.5,271.5C -0.5,267.833 -0.5,264.167 -0.5,260.5 Z"/></g>
<g><path style="opacity:1" fill="#3b3937" d="M 1.5,261.5 C 2.28997,262.609 2.78997,263.942 3,265.5C 4.15623,264.007 4.98957,264.174 5.5,266C 4.20606,266.106 3.53939,267.106 3.5,269C 3.79603,270.888 4.29603,272.722 5,274.5C 5.6493,271.063 6.1493,270.896 6.5,274C 5.48731,278.471 5.32065,282.971 6,287.5C 8.94318,291.629 10.1098,296.296 9.5,301.5C 8.16667,297.5 6.83333,293.5 5.5,289.5C 4.33382,284.769 3.33382,280.103 2.5,275.5C 1.77052,270.87 1.43718,266.203 1.5,261.5 Z"/></g>
<g><path style="opacity:1" fill="#8d8b8b" d="M 382.5,269.5 C 382.573,271.027 381.906,272.027 380.5,272.5C 380.427,270.973 381.094,269.973 382.5,269.5 Z"/></g>
<g><path style="opacity:1" fill="#a3a2a1" d="M 92.5,268.5 C 95.2069,271.545 97.5402,274.879 99.5,278.5C 95.7539,276.044 93.4206,272.711 92.5,268.5 Z"/></g>
<g><path style="opacity:1" fill="#8d8c8c" d="M 206.5,267.5 C 205.652,271.017 203.652,273.684 200.5,275.5C 202.186,272.496 204.186,269.83 206.5,267.5 Z"/></g>
<g><path style="opacity:1" fill="#a6a2a3" d="M 253.5,272.5 C 253.715,274.179 253.048,275.179 251.5,275.5C 251.427,273.973 252.094,272.973 253.5,272.5 Z"/></g>
<g><path style="opacity:1" fill="#919191" d="M 379.5,272.5 C 379.833,272.5 380.167,272.5 380.5,272.5C 380.573,274.027 379.906,275.027 378.5,275.5C 378.557,274.391 378.89,273.391 379.5,272.5 Z"/></g>
<g><path style="opacity:1" fill="#fefefe" d="M 470.5,271.5 C 470.833,271.5 471.167,271.5 471.5,271.5C 472.167,271.5 472.833,271.5 473.5,271.5C 473.5,338.833 473.5,406.167 473.5,473.5C 406.167,473.5 338.833,473.5 271.5,473.5C 271.5,472.833 271.5,472.167 271.5,471.5C 275.761,471.102 279.761,470.102 283.5,468.5C 288.894,468.122 294.227,467.288 299.5,466C 300.056,465.617 300.389,465.117 300.5,464.5C 304.647,464.874 308.314,463.874 311.5,461.5C 312.167,461.5 312.833,461.5 313.5,461.5C 317.165,461.498 320.165,460.165 322.5,457.5C 322.5,456.833 322.833,456.5 323.5,456.5C 327.313,456.062 330.646,454.729 333.5,452.5C 334.391,451.89 335.391,451.557 336.5,451.5C 337.873,451.657 339.207,451.49 340.5,451C 343.845,448.479 347.512,446.646 351.5,445.5C 352.91,444.431 353.91,443.097 354.5,441.5C 356.027,441.573 357.027,440.906 357.5,439.5C 358.609,439.443 359.609,439.11 360.5,438.5C 363.37,437.567 365.704,435.9 367.5,433.5C 368.873,433.657 370.207,433.49 371.5,433C 374.432,430.715 377.098,428.215 379.5,425.5C 381.027,425.573 382.027,424.906 382.5,423.5C 387.113,421.544 390.78,418.544 393.5,414.5C 394.922,414.291 396.255,413.791 397.5,413C 402.71,407.294 407.71,401.461 412.5,395.5C 416.877,391.732 420.544,387.399 423.5,382.5C 424.906,382.027 425.573,381.027 425.5,379.5C 427.262,378.738 428.262,377.404 428.5,375.5C 429.906,375.027 430.573,374.027 430.5,372.5C 432.25,371.341 433.25,369.674 433.5,367.5C 435.633,365.909 437.299,363.909 438.5,361.5C 440.396,359.163 441.73,356.496 442.5,353.5C 444.533,349.179 446.866,345.179 449.5,341.5C 451.195,339.103 452.528,336.437 453.5,333.5C 453.704,331.315 454.37,329.315 455.5,327.5C 457.834,325.824 458.834,323.491 458.5,320.5C 458.5,320.167 458.5,319.833 458.5,319.5C 459.75,319.423 460.583,318.756 461,317.5C 462.616,311.919 463.783,306.252 464.5,300.5C 466.344,298.721 467.01,296.388 466.5,293.5C 468.68,290.619 469.68,287.286 469.5,283.5C 469.505,279.466 469.838,275.466 470.5,271.5 Z"/></g>
<g><path style="opacity:1" fill="#fdfdfd" d="M -0.5,271.5 C 0.857056,272.59 1.85706,273.924 2.5,275.5C 3.33382,280.103 4.33382,284.769 5.5,289.5C 5.17575,293.555 5.50909,297.555 6.5,301.5C 8.20996,303.643 9.5433,305.977 10.5,308.5C 10.1706,311.228 10.8372,313.562 12.5,315.5C 12.8333,315.5 13.1667,315.5 13.5,315.5C 13.4152,318.649 14.4152,321.316 16.5,323.5C 16.7587,326.272 17.7587,328.605 19.5,330.5C 20.3007,332.042 20.634,333.708 20.5,335.5C 21.3666,339.329 23.0332,342.663 25.5,345.5C 26.6528,347.636 27.9862,349.636 29.5,351.5C 29.3284,352.492 29.6618,353.158 30.5,353.5C 30.8697,356.71 32.203,359.377 34.5,361.5C 36.7188,363.575 38.7188,365.909 40.5,368.5C 41.4565,370.075 42.1231,371.742 42.5,373.5C 43.4194,376.089 45.086,378.089 47.5,379.5C 47.7376,381.404 48.7376,382.738 50.5,383.5C 51.4194,386.089 53.086,388.089 55.5,389.5C 58.1379,392.474 60.8046,395.474 63.5,398.5C 65.8333,402.833 69.1667,406.167 73.5,408.5C 79.5193,413.523 85.5193,418.523 91.5,423.5C 92.2623,425.262 93.5956,426.262 95.5,426.5C 96.2623,428.262 97.5956,429.262 99.5,429.5C 101.203,432.632 103.87,434.299 107.5,434.5C 109.975,437.241 112.975,439.241 116.5,440.5C 116.973,441.906 117.973,442.573 119.5,442.5C 120.777,445.552 123.11,446.885 126.5,446.5C 126.842,447.338 127.508,447.672 128.5,447.5C 128.953,448.458 129.619,449.292 130.5,450C 134.215,451.295 137.882,452.462 141.5,453.5C 143.281,456.355 145.948,457.688 149.5,457.5C 153.279,458.558 156.946,459.891 160.5,461.5C 160.611,462.117 160.944,462.617 161.5,463C 163.473,463.495 165.473,463.662 167.5,463.5C 169.099,463.232 170.432,463.566 171.5,464.5C 173.102,466.074 175.102,466.741 177.5,466.5C 177.833,466.5 178.167,466.5 178.5,466.5C 181.507,468.175 184.84,468.841 188.5,468.5C 191.167,469.167 193.833,469.833 196.5,470.5C 197.551,471.222 198.218,472.222 198.5,473.5C 132.167,473.5 65.8333,473.5 -0.5,473.5C -0.5,406.167 -0.5,338.833 -0.5,271.5 Z"/></g>
<g><path style="opacity:1" fill="#5c5857" d="M 43.5,271.5 C 45.0946,273.111 46.2612,275.111 47,277.5C 47.49,278.793 47.6567,280.127 47.5,281.5C 45.2712,278.646 43.9379,275.313 43.5,271.5 Z"/></g>
<g><path style="opacity:1" fill="#aca8a7" d="M 274.5,275.5 C 273.577,274.697 272.577,274.53 271.5,275C 270.432,277.438 269.098,279.605 267.5,281.5C 268.643,278.316 269.309,274.983 269.5,271.5C 272.367,271.369 274.033,272.703 274.5,275.5 Z"/></g>
<g><path style="opacity:1" fill="#9a9899" d="M 274.5,275.5 C 276.549,276.882 278.215,278.548 279.5,280.5C 276.833,279.833 275.167,278.167 274.5,275.5 Z"/></g>
<g><path style="opacity:1" fill="#838081" d="M 200.5,275.5 C 199.581,278.089 197.914,280.089 195.5,281.5C 196.419,278.911 198.086,276.911 200.5,275.5 Z"/></g>
<g><path style="opacity:1" fill="#a39fa0" d="M 251.5,277.5 C 251.573,279.027 250.906,280.027 249.5,280.5C 249.427,278.973 250.094,277.973 251.5,277.5 Z"/></g>
<g><path style="opacity:1" fill="#413e3f" d="M 470.5,271.5 C 469.838,275.466 469.505,279.466 469.5,283.5C 467.975,286.583 466.975,289.916 466.5,293.5C 466.167,293.5 465.833,293.5 465.5,293.5C 465.53,285.667 467.197,278.334 470.5,271.5 Z"/></g>
<g><path style="opacity:1" fill="#7f7e7c" d="M 99.5,278.5 C 102.432,279.8 104.766,281.8 106.5,284.5C 105.833,284.5 105.167,284.5 104.5,284.5C 102.117,283.115 100.45,281.115 99.5,278.5 Z"/></g>
<g><path style="opacity:1" fill="#959293" d="M 378.5,275.5 C 376.167,279.833 372.833,283.167 368.5,285.5C 371.5,281.833 374.833,278.5 378.5,275.5 Z"/></g>
<g><path style="opacity:1" fill="#bab8b9" d="M 432.5,266.5 C 431.223,274.643 428.223,281.976 423.5,288.5C 426.005,280.842 429.005,273.509 432.5,266.5 Z"/></g>
<g><path style="opacity:1" fill="#b6b4b5" d="M 279.5,280.5 C 281.167,281.5 282.5,282.833 283.5,284.5C 280.858,284.512 279.525,283.179 279.5,280.5 Z"/></g>
<g><path style="opacity:1" fill="#bbbbb9" d="M 104.5,284.5 C 105.167,284.5 105.833,284.5 106.5,284.5C 108.167,285.5 109.5,286.833 110.5,288.5C 107.663,288.316 105.663,286.982 104.5,284.5 Z"/></g>
<g><path style="opacity:1" fill="#585453" d="M 265.5,285.5 C 265.573,287.027 264.906,288.027 263.5,288.5C 263.427,286.973 264.094,285.973 265.5,285.5 Z"/></g>
<g><path style="opacity:1" fill="#636160" d="M 48.5,282.5 C 50.1948,284.897 51.5282,287.563 52.5,290.5C 49.8633,288.518 48.53,285.852 48.5,282.5 Z"/></g>
<g><path style="opacity:1" fill="#656162" d="M 287.5,287.5 C 289.179,287.285 290.179,287.952 290.5,289.5C 289.29,289.068 288.29,288.401 287.5,287.5 Z"/></g>
<g><path style="opacity:1" fill="#8a8787" d="M 368.5,285.5 C 367.421,287.543 365.754,288.876 363.5,289.5C 364.539,287.469 366.205,286.136 368.5,285.5 Z"/></g>
<g><path style="opacity:1" fill="#969494" d="M 194.5,282.5 C 191.577,286.959 187.577,289.959 182.5,291.5C 186.413,288.526 190.413,285.526 194.5,282.5 Z"/></g>
<g><path style="opacity:1" fill="#b2b0b0" d="M 267.5,282.5 C 267.114,286.845 265.447,290.512 262.5,293.5C 262.557,292.391 262.89,291.391 263.5,290.5C 263.5,289.833 263.5,289.167 263.5,288.5C 264.906,288.027 265.573,287.027 265.5,285.5C 265.285,283.821 265.952,282.821 267.5,282.5 Z"/></g>
<g><path style="opacity:1" fill="#a29e9e" d="M 249.5,281.5 C 246.756,288.947 242.756,295.614 237.5,301.5C 241.028,294.425 245.028,287.758 249.5,281.5 Z"/></g>
<g><path style="opacity:1" fill="#bbbabb" d="M 469.5,283.5 C 469.68,287.286 468.68,290.619 466.5,293.5C 466.975,289.916 467.975,286.583 469.5,283.5 Z"/></g>
<g><path style="opacity:1" fill="#6a6765" d="M 52.5,290.5 C 53.9063,290.973 54.573,291.973 54.5,293.5C 53.0937,293.027 52.427,292.027 52.5,290.5 Z"/></g>
<g><path style="opacity:1" fill="#757273" d="M 263.5,290.5 C 262.89,291.391 262.557,292.391 262.5,293.5C 261.058,294.82 260.392,296.486 260.5,298.5C 259.833,298.833 259.167,299.167 258.5,299.5C 259.015,295.701 260.681,292.701 263.5,290.5 Z"/></g>
<g><path style="opacity:1" fill="#7e7e7e" d="M 181.5,291.5 C 181.027,292.906 180.027,293.573 178.5,293.5C 178.973,292.094 179.973,291.427 181.5,291.5 Z"/></g>
<g><path style="opacity:1" fill="#949293" d="M 362.5,289.5 C 362.144,291.19 361.144,292.19 359.5,292.5C 358.609,293.11 357.609,293.443 356.5,293.5C 358.264,291.879 360.264,290.546 362.5,289.5 Z"/></g>
<g><path style="opacity:1" fill="#a2a0a1" d="M 293.5,291.5 C 296.1,292.468 298.434,293.801 300.5,295.5C 297.454,295.275 295.121,293.942 293.5,291.5 Z"/></g>
<g><path style="opacity:1" fill="#7d7c7a" d="M 54.5,293.5 C 55.9063,293.973 56.573,294.973 56.5,296.5C 55.0937,296.027 54.427,295.027 54.5,293.5 Z"/></g>
<g><path style="opacity:1" fill="#9f9d9e" d="M 115.5,291.5 C 118.042,292.6 120.375,293.933 122.5,295.5C 119.341,295.426 117.008,294.093 115.5,291.5 Z"/></g>
<g><path style="opacity:1" fill="#7d7d7d" d="M 177.5,293.5 C 177.027,294.906 176.027,295.573 174.5,295.5C 174.973,294.094 175.973,293.427 177.5,293.5 Z"/></g>
<g><path style="opacity:1" fill="#888687" d="M 355.5,293.5 C 355.027,294.906 354.027,295.573 352.5,295.5C 352.973,294.094 353.973,293.427 355.5,293.5 Z"/></g>
<g><path style="opacity:1" fill="#cecdcd" d="M 359.5,292.5 C 356.141,296.114 351.808,297.781 346.5,297.5C 348.214,296.262 350.214,295.595 352.5,295.5C 354.027,295.573 355.027,294.906 355.5,293.5C 355.833,293.5 356.167,293.5 356.5,293.5C 357.609,293.443 358.609,293.11 359.5,292.5 Z"/></g>
<g><path style="opacity:1" fill="#bdb9b8" d="M 421.5,292.5 C 420.473,294.184 419.473,295.851 418.5,297.5C 418.167,297.5 417.833,297.5 417.5,297.5C 417.738,294.931 419.071,293.265 421.5,292.5 Z"/></g>
<g><path style="opacity:1" fill="#646261" d="M 302.5,295.5 C 305.01,295.927 307.343,296.593 309.5,297.5C 307.473,297.662 305.473,297.495 303.5,297C 302.944,296.617 302.611,296.117 302.5,295.5 Z"/></g>
<g><path style="opacity:1" fill="#060303" d="M 340.5,298.5 C 332.5,298.5 324.5,298.5 316.5,298.5C 315.5,298.5 314.5,298.5 313.5,298.5C 321.858,297.793 330.358,297.126 339,296.5C 340.03,296.836 340.53,297.503 340.5,298.5 Z"/></g>
<g><path style="opacity:1" fill="#cbcac8" d="M 5.5,289.5 C 6.83333,293.5 8.16667,297.5 9.5,301.5C 9.99255,303.806 10.3259,306.139 10.5,308.5C 9.5433,305.977 8.20996,303.643 6.5,301.5C 5.50909,297.555 5.17575,293.555 5.5,289.5 Z"/></g>
<g><path style="opacity:1" fill="#a5a4a2" d="M 124.5,295.5 C 128.086,296.793 131.752,297.793 135.5,298.5C 135.5,298.833 135.5,299.167 135.5,299.5C 131.049,299.99 127.383,298.656 124.5,295.5 Z"/></g>
<g><path style="opacity:1" fill="#4a4746" d="M 316.5,298.5 C 324.5,298.5 332.5,298.5 340.5,298.5C 340.5,298.833 340.5,299.167 340.5,299.5C 340.167,299.5 339.833,299.5 339.5,299.5C 334.203,300.275 328.87,300.608 323.5,300.5C 321.167,299.833 318.833,299.167 316.5,298.5 Z"/></g>
<g><path style="opacity:1" fill="#adacaa" d="M 346.5,297.5 C 345.01,299.28 343.01,299.946 340.5,299.5C 340.5,299.167 340.5,298.833 340.5,298.5C 342.435,297.85 344.435,297.517 346.5,297.5 Z"/></g>
<g><path style="opacity:1" fill="#ababab" d="M 465.5,293.5 C 465.833,293.5 466.167,293.5 466.5,293.5C 467.01,296.388 466.344,298.721 464.5,300.5C 464.993,298.194 465.326,295.861 465.5,293.5 Z"/></g>
<g><path style="opacity:1" fill="#595554" d="M 135.5,299.5 C 135.5,299.167 135.5,298.833 135.5,298.5C 144.5,298.5 153.5,298.5 162.5,298.5C 154.386,300.775 146.052,301.108 137.5,299.5C 136.833,299.5 136.167,299.5 135.5,299.5 Z"/></g>
<g><path style="opacity:1" fill="#c5c4c2" d="M 174.5,295.5 C 174.175,297.132 173.175,298.132 171.5,298.5C 159.963,301.901 148.629,302.235 137.5,299.5C 146.052,301.108 154.386,300.775 162.5,298.5C 166.664,297.884 170.664,296.884 174.5,295.5 Z"/></g>
<g><path style="opacity:1" fill="#8a8987" d="M 309.5,298.5 C 310.833,298.5 312.167,298.5 313.5,298.5C 314.5,298.5 315.5,298.5 316.5,298.5C 318.833,299.167 321.167,299.833 323.5,300.5C 320.833,300.5 318.167,300.5 315.5,300.5C 313.5,299.833 311.5,299.167 309.5,298.5 Z"/></g>
<g><path style="opacity:1" fill="#5d5d5b" d="M 58.5,299.5 C 59.9063,299.973 60.573,300.973 60.5,302.5C 59.0937,302.027 58.427,301.027 58.5,299.5 Z"/></g>
<g><path style="opacity:1" fill="#c2bfbd" d="M 339.5,299.5 C 339.082,300.222 338.416,300.722 337.5,301C 329.988,301.822 322.655,301.655 315.5,300.5C 318.167,300.5 320.833,300.5 323.5,300.5C 328.87,300.608 334.203,300.275 339.5,299.5 Z"/></g>
<g><path style="opacity:1" fill="#6f6c6b" d="M 417.5,297.5 C 417.833,297.5 418.167,297.5 418.5,297.5C 417.876,299.754 416.543,301.421 414.5,302.5C 415.11,300.566 416.11,298.899 417.5,297.5 Z"/></g>
<g><path style="opacity:1" fill="#afaeae" d="M 60.5,302.5 C 64.1517,303.485 66.485,305.818 67.5,309.5C 64.5214,307.855 62.1881,305.521 60.5,302.5 Z"/></g>
<g><path style="opacity:1" fill="#bab7b7" d="M 260.5,298.5 C 258.433,302.261 255.766,305.595 252.5,308.5C 253.759,304.975 255.759,301.975 258.5,299.5C 259.167,299.167 259.833,298.833 260.5,298.5 Z"/></g>
<g><path style="opacity:1" fill="#a5a2a1" d="M 237.5,301.5 C 235.547,305.12 232.881,308.12 229.5,310.5C 231.087,307.732 232.92,305.065 235,302.5C 235.671,301.748 236.504,301.414 237.5,301.5 Z"/></g>
<g><path style="opacity:1" fill="#827f7e" d="M 412.5,305.5 C 411.5,307.167 410.167,308.5 408.5,309.5C 408.833,307.167 410.167,305.833 412.5,305.5 Z"/></g>
<g><path style="opacity:1" fill="#afacab" d="M 464.5,300.5 C 463.783,306.252 462.616,311.919 461,317.5C 460.583,318.756 459.75,319.423 458.5,319.5C 460.525,313.095 462.525,306.762 464.5,300.5 Z"/></g>
<g><path style="opacity:1" fill="#817f80" d="M 67.5,309.5 C 69.5869,310.585 70.9202,312.251 71.5,314.5C 69.4131,313.415 68.0798,311.749 67.5,309.5 Z"/></g>
<g><path style="opacity:1" fill="#bbb7b8" d="M 10.5,308.5 C 11.9238,310.515 12.5905,312.848 12.5,315.5C 10.8372,313.562 10.1706,311.228 10.5,308.5 Z"/></g>
<g><path style="opacity:1" fill="#888483" d="M 252.5,308.5 C 251.65,310.603 250.65,312.603 249.5,314.5C 248.427,313.749 248.26,312.749 249,311.5C 249.759,309.937 250.926,308.937 252.5,308.5 Z"/></g>
<g><path style="opacity:1" fill="#9a9997" d="M 228.5,311.5 C 228.144,313.19 227.144,314.19 225.5,314.5C 225.856,312.81 226.856,311.81 228.5,311.5 Z"/></g>
<g><path style="opacity:1" fill="#8a8687" d="M 72.5,315.5 C 74.4044,315.738 75.7377,316.738 76.5,318.5C 74.5956,318.262 73.2623,317.262 72.5,315.5 Z"/></g>
<g><path style="opacity:1" fill="#71716f" d="M 408.5,309.5 C 406.5,313.5 403.5,316.5 399.5,318.5C 399.414,317.504 399.748,316.671 400.5,316C 403.071,313.66 405.737,311.494 408.5,309.5 Z"/></g>
<g><path style="opacity:1" fill="#a29e9d" d="M 250.5,314.5 C 252.5,315.167 253.833,316.5 254.5,318.5C 252.167,318.167 250.833,316.833 250.5,314.5 Z"/></g>
<g><path style="opacity:1" fill="#858584" d="M 225.5,314.5 C 225.043,316.773 223.71,318.106 221.5,318.5C 222.402,316.659 223.736,315.326 225.5,314.5 Z"/></g>
<g><path style="opacity:1" fill="#b5b5b4" d="M 254.5,318.5 C 256.749,319.08 258.415,320.413 259.5,322.5C 257.251,321.92 255.585,320.587 254.5,318.5 Z"/></g>
<g><path style="opacity:1" fill="#b9b5b4" d="M 221.5,318.5 C 219.54,320.156 217.54,321.823 215.5,323.5C 214.833,323.5 214.167,323.5 213.5,323.5C 215.484,320.836 218.151,319.169 221.5,318.5 Z"/></g>
<g><path style="opacity:1" fill="#6e6b6a" d="M 13.5,315.5 C 15.0198,317.89 16.0198,320.557 16.5,323.5C 14.4152,321.316 13.4152,318.649 13.5,315.5 Z"/></g>
<g><path style="opacity:1" fill="#494544" d="M 76.5,318.5 C 77.8333,319.5 79.1667,320.5 80.5,321.5C 80.5,321.833 80.5,322.167 80.5,322.5C 77.858,322.512 76.5246,321.179 76.5,318.5 Z"/></g>
<g><path style="opacity:1" fill="#c7c6c4" d="M 80.5,322.5 C 80.5,322.167 80.5,321.833 80.5,321.5C 82.288,321.215 83.9547,321.548 85.5,322.5C 87.8949,324.513 89.8949,326.846 91.5,329.5C 87.5833,327.588 83.9166,325.255 80.5,322.5 Z"/></g>
<g><path style="opacity:1" fill="#6e6a69" d="M 399.5,318.5 C 396.442,322.208 392.775,325.208 388.5,327.5C 388.511,325.983 389.177,324.816 390.5,324C 393.397,321.923 396.397,320.09 399.5,318.5 Z"/></g>
<g><path style="opacity:1" fill="#bbbbbb" d="M 458.5,320.5 C 458.834,323.491 457.834,325.824 455.5,327.5C 455.833,326.167 456.167,324.833 456.5,323.5C 456.932,322.29 457.599,321.29 458.5,320.5 Z"/></g>
<g><path style="opacity:1" fill="#686463" d="M 213.5,323.5 C 214.167,323.5 214.833,323.5 215.5,323.5C 214.421,325.543 212.754,326.876 210.5,327.5C 211.211,325.97 212.211,324.637 213.5,323.5 Z"/></g>
<g><path style="opacity:1" fill="#aeadab" d="M 263.5,325.5 C 266.198,325.845 268.198,327.178 269.5,329.5C 267.147,328.66 265.147,327.326 263.5,325.5 Z"/></g>
<g><path style="opacity:1" fill="#757170" d="M 16.5,323.5 C 18.2413,325.395 19.2413,327.728 19.5,330.5C 17.7587,328.605 16.7587,326.272 16.5,323.5 Z"/></g>
<g><path style="opacity:1" fill="#898685" d="M 269.5,329.5 C 271.027,329.427 272.027,330.094 272.5,331.5C 270.973,331.573 269.973,330.906 269.5,329.5 Z"/></g>
<g><path style="opacity:1" fill="#737071" d="M 456.5,323.5 C 456.167,324.833 455.833,326.167 455.5,327.5C 454.37,329.315 453.704,331.315 453.5,333.5C 453.167,333.5 452.833,333.5 452.5,333.5C 453.036,330.445 453.869,327.445 455,324.5C 455.383,323.944 455.883,323.611 456.5,323.5 Z"/></g>
<g><path style="opacity:1" fill="#7a7979" d="M 209.5,327.5 C 206.117,330.859 202.117,333.193 197.5,334.5C 201.063,331.708 205.063,329.375 209.5,327.5 Z"/></g>
<g><path style="opacity:1" fill="#666464" d="M 387.5,327.5 C 384.782,329.86 381.782,331.86 378.5,333.5C 379.167,332.5 379.833,331.5 380.5,330.5C 382.945,329.688 385.278,328.688 387.5,327.5 Z"/></g>
<g><path style="opacity:1" fill="#9d9b9b" d="M 91.5,329.5 C 94.721,329.896 97.3877,331.229 99.5,333.5C 96.2901,333.13 93.6235,331.797 91.5,329.5 Z"/></g>
<g><path style="opacity:1" fill="#b6b6b6" d="M 380.5,330.5 C 379.833,331.5 379.167,332.5 378.5,333.5C 376.784,333.629 375.117,333.962 373.5,334.5C 375.43,332.55 377.763,331.217 380.5,330.5 Z"/></g>
<g><path style="opacity:1" fill="#8c8c8c" d="M 273.5,331.5 C 276.549,332.208 279.215,333.541 281.5,335.5C 278.148,335.47 275.482,334.137 273.5,331.5 Z"/></g>
<g><path style="opacity:1" fill="#a8a6a7" d="M 452.5,333.5 C 452.833,333.5 453.167,333.5 453.5,333.5C 452.528,336.437 451.195,339.103 449.5,341.5C 449.62,338.422 450.62,335.755 452.5,333.5 Z"/></g>
<g><path style="opacity:1" fill="#c7c6c6" d="M 197.5,334.5 C 192.64,336.761 187.64,338.761 182.5,340.5C 180.102,340.259 178.102,340.926 176.5,342.5C 173.933,342.721 171.599,343.388 169.5,344.5C 166.098,344.342 162.764,344.676 159.5,345.5C 150.8,345.711 142.133,345.377 133.5,344.5C 132.833,344.5 132.167,344.5 131.5,344.5C 131.5,344.167 131.5,343.833 131.5,343.5C 141.839,343.666 152.172,343.5 162.5,343C 172.044,342.214 181.044,339.714 189.5,335.5C 192.14,334.905 194.807,334.572 197.5,334.5 Z"/></g>
<g><path style="opacity:1" fill="#736f6e" d="M 102.5,335.5 C 104.117,336.038 105.784,336.371 107.5,336.5C 107.833,337.167 108.167,337.833 108.5,338.5C 106.033,338.245 104.033,337.245 102.5,335.5 Z"/></g>
<g><path style="opacity:1" fill="#bab9b7" d="M 107.5,336.5 C 111.249,338.389 115.249,339.556 119.5,340C 120.056,340.383 120.389,340.883 120.5,341.5C 119.167,341.167 117.833,340.833 116.5,340.5C 113.692,340.307 111.025,339.64 108.5,338.5C 108.167,337.833 107.833,337.167 107.5,336.5 Z"/></g>
<g><path style="opacity:1" fill="#b2b0af" d="M 282.5,336.5 C 286.787,336.476 290.453,337.81 293.5,340.5C 289.591,339.6 285.924,338.267 282.5,336.5 Z"/></g>
<g><path style="opacity:1" fill="#c9c8c6" d="M 368.5,336.5 C 365.639,338.575 362.306,339.908 358.5,340.5C 361.236,337.968 364.57,336.635 368.5,336.5 Z"/></g>
<g><path style="opacity:1" fill="#b7b5b6" d="M 20.5,335.5 C 22.8971,337.662 24.5638,340.329 25.5,343.5C 25.5,344.167 25.5,344.833 25.5,345.5C 23.0332,342.663 21.3666,339.329 20.5,335.5 Z"/></g>
<g><path style="opacity:1" fill="#6b6b69" d="M 116.5,340.5 C 117.833,340.833 119.167,341.167 120.5,341.5C 121.167,341.5 121.5,341.833 121.5,342.5C 119.302,342.88 117.635,342.213 116.5,340.5 Z"/></g>
<g><path style="opacity:1" fill="#5c5b59" d="M 182.5,340.5 C 180.898,342.074 178.898,342.741 176.5,342.5C 178.102,340.926 180.102,340.259 182.5,340.5 Z"/></g>
<g><path style="opacity:1" fill="#6c6b69" d="M 356.5,340.5 C 357.167,340.5 357.833,340.5 358.5,340.5C 358.027,341.906 357.027,342.573 355.5,342.5C 355.833,341.833 356.167,341.167 356.5,340.5 Z"/></g>
<g><path style="opacity:1" fill="#868484" d="M 123.5,343.5 C 123.5,343.167 123.5,342.833 123.5,342.5C 126.096,343.265 128.763,343.599 131.5,343.5C 131.5,343.833 131.5,344.167 131.5,344.5C 128.721,344.721 126.054,344.388 123.5,343.5 Z"/></g>
<g><path style="opacity:1" fill="#cbc9ca" d="M 356.5,340.5 C 356.167,341.167 355.833,341.833 355.5,342.5C 354.5,342.5 353.5,342.5 352.5,342.5C 349.848,342.41 347.515,343.076 345.5,344.5C 342.615,344.194 339.948,344.527 337.5,345.5C 328.815,345.536 320.149,345.203 311.5,344.5C 306.553,344.283 301.886,343.283 297.5,341.5C 307.393,342.874 317.393,343.54 327.5,343.5C 332.833,343.333 338.167,343.167 343.5,343C 347.695,341.775 352.028,340.942 356.5,340.5 Z"/></g>
<g><path style="opacity:1" fill="#797677" d="M 352.5,342.5 C 350.485,343.924 348.152,344.59 345.5,344.5C 347.515,343.076 349.848,342.41 352.5,342.5 Z"/></g>
<g><path style="opacity:1" fill="#5d595a" d="M 25.5,343.5 C 28.1293,345.381 29.4626,348.047 29.5,351.5C 27.9862,349.636 26.6528,347.636 25.5,345.5C 25.5,344.833 25.5,344.167 25.5,343.5 Z"/></g>
<g><path style="opacity:1" fill="#666364" d="M 311.5,344.5 C 320.149,345.203 328.815,345.536 337.5,345.5C 337.5,345.833 337.5,346.167 337.5,346.5C 329.5,346.5 321.5,346.5 313.5,346.5C 312.833,345.833 312.167,345.167 311.5,344.5 Z"/></g>
<g><path style="opacity:1" fill="#110e0e" d="M 123.5,343.5 C 126.054,344.388 128.721,344.721 131.5,344.5C 132.167,344.5 132.833,344.5 133.5,344.5C 133.918,345.222 134.584,345.722 135.5,346C 143.677,346.823 151.677,346.656 159.5,345.5C 162.764,344.676 166.098,344.342 169.5,344.5C 170.978,344.238 172.311,344.571 173.5,345.5C 155.27,349.981 137.27,349.481 119.5,344C 120.793,343.51 122.127,343.343 123.5,343.5 Z"/></g>
<g><path style="opacity:1" fill="#696566" d="M 133.5,344.5 C 142.133,345.377 150.8,345.711 159.5,345.5C 151.677,346.656 143.677,346.823 135.5,346C 134.584,345.722 133.918,345.222 133.5,344.5 Z"/></g>
<g><path style="opacity:1" fill="#0d090a" d="M 313.5,346.5 C 321.5,346.5 329.5,346.5 337.5,346.5C 338.675,346.281 339.675,346.614 340.5,347.5C 331.518,348.665 322.518,348.832 313.5,348C 310.903,347.221 310.903,346.721 313.5,346.5 Z"/></g>
<g><path style="opacity:1" fill="#bdbbba" d="M 30.5,353.5 C 32.7705,355.612 34.1039,358.279 34.5,361.5C 32.203,359.377 30.8697,356.71 30.5,353.5 Z"/></g>
<g><path style="opacity:1" fill="#bebdbe" d="M 442.5,353.5 C 441.73,356.496 440.396,359.163 438.5,361.5C 438.557,360.391 438.89,359.391 439.5,358.5C 440.11,356.566 441.11,354.899 442.5,353.5 Z"/></g>
<g><path style="opacity:1" fill="#737071" d="M 439.5,358.5 C 438.89,359.391 438.557,360.391 438.5,361.5C 437.299,363.909 435.633,365.909 433.5,367.5C 434.791,363.903 436.791,360.903 439.5,358.5 Z"/></g>
<g><path style="opacity:1" fill="#7a7979" d="M 433.5,367.5 C 433.25,369.674 432.25,371.341 430.5,372.5C 430.75,370.326 431.75,368.659 433.5,367.5 Z"/></g>
<g><path style="opacity:1" fill="#979392" d="M 430.5,372.5 C 430.573,374.027 429.906,375.027 428.5,375.5C 428.427,373.973 429.094,372.973 430.5,372.5 Z"/></g>
<g><path style="opacity:1" fill="#a8a4a3" d="M 428.5,375.5 C 428.262,377.404 427.262,378.738 425.5,379.5C 425.738,377.596 426.738,376.262 428.5,375.5 Z"/></g>
<g><path style="opacity:1" fill="#aaa7a8" d="M 42.5,373.5 C 44.914,374.911 46.5806,376.911 47.5,379.5C 45.086,378.089 43.4194,376.089 42.5,373.5 Z"/></g>
<g><path style="opacity:1" fill="#a19d9c" d="M 47.5,379.5 C 49.2624,380.262 50.2624,381.596 50.5,383.5C 48.7376,382.738 47.7376,381.404 47.5,379.5 Z"/></g>
<g><path style="opacity:1" fill="#a7a3a2" d="M 425.5,379.5 C 425.573,381.027 424.906,382.027 423.5,382.5C 423.427,380.973 424.094,379.973 425.5,379.5 Z"/></g>
<g><path style="opacity:1" fill="#9d9c9d" d="M 50.5,383.5 C 52.914,384.911 54.5806,386.911 55.5,389.5C 53.086,388.089 51.4194,386.089 50.5,383.5 Z"/></g>
<g><path style="opacity:1" fill="#a5a4a4" d="M 423.5,382.5 C 420.544,387.399 416.877,391.732 412.5,395.5C 415.456,390.601 419.123,386.268 423.5,382.5 Z"/></g>
<g><path style="opacity:1" fill="#aca8a9" d="M 63.5,398.5 C 67.1667,401.5 70.5,404.833 73.5,408.5C 69.1667,406.167 65.8333,402.833 63.5,398.5 Z"/></g>
<g><path style="opacity:1" fill="#c8c5c4" d="M 412.5,395.5 C 407.71,401.461 402.71,407.294 397.5,413C 396.255,413.791 394.922,414.291 393.5,414.5C 399.521,407.812 405.854,401.479 412.5,395.5 Z"/></g>
<g><path style="opacity:1" fill="#bcbbbb" d="M 393.5,414.5 C 390.78,418.544 387.113,421.544 382.5,423.5C 385.851,420.152 389.518,417.152 393.5,414.5 Z"/></g>
<g><path style="opacity:1" fill="#6b6b6b" d="M 91.5,423.5 C 93.4044,423.738 94.7377,424.738 95.5,426.5C 93.5956,426.262 92.2623,425.262 91.5,423.5 Z"/></g>
<g><path style="opacity:1" fill="#b0acab" d="M 382.5,423.5 C 382.027,424.906 381.027,425.573 379.5,425.5C 379.973,424.094 380.973,423.427 382.5,423.5 Z"/></g>
<g><path style="opacity:1" fill="#6a6665" d="M 95.5,426.5 C 97.4044,426.738 98.7377,427.738 99.5,429.5C 97.5956,429.262 96.2623,428.262 95.5,426.5 Z"/></g>
<g><path style="opacity:1" fill="#a5a2a1" d="M 379.5,425.5 C 377.098,428.215 374.432,430.715 371.5,433C 370.207,433.49 368.873,433.657 367.5,433.5C 371.202,430.479 375.202,427.812 379.5,425.5 Z"/></g>
<g><path style="opacity:1" fill="#6d6c6b" d="M 99.5,429.5 C 102.671,430.436 105.338,432.103 107.5,434.5C 103.87,434.299 101.203,432.632 99.5,429.5 Z"/></g>
<g><path style="opacity:1" fill="#8c8889" d="M 367.5,433.5 C 365.704,435.9 363.37,437.567 360.5,438.5C 362.296,436.1 364.63,434.433 367.5,433.5 Z"/></g>
<g><path style="opacity:1" fill="#706f6f" d="M 357.5,439.5 C 357.027,440.906 356.027,441.573 354.5,441.5C 354.973,440.094 355.973,439.427 357.5,439.5 Z"/></g>
<g><path style="opacity:1" fill="#838280" d="M 116.5,440.5 C 118.027,440.427 119.027,441.094 119.5,442.5C 117.973,442.573 116.973,441.906 116.5,440.5 Z"/></g>
<g><path style="opacity:1" fill="#b2b2b0" d="M 119.5,442.5 C 122.004,443.584 124.337,444.917 126.5,446.5C 123.11,446.885 120.777,445.552 119.5,442.5 Z"/></g>
<g><path style="opacity:1" fill="#b0afae" d="M 354.5,441.5 C 353.91,443.097 352.91,444.431 351.5,445.5C 347.512,446.646 343.845,448.479 340.5,451C 339.207,451.49 337.873,451.657 336.5,451.5C 342.235,447.782 348.235,444.449 354.5,441.5 Z"/></g>
<g><path style="opacity:1" fill="#969696" d="M 128.5,447.5 C 133.233,448.757 137.566,450.757 141.5,453.5C 137.882,452.462 134.215,451.295 130.5,450C 129.619,449.292 128.953,448.458 128.5,447.5 Z"/></g>
<g><path style="opacity:1" fill="#73716f" d="M 333.5,452.5 C 330.646,454.729 327.313,456.062 323.5,456.5C 325.242,455.043 327.242,453.876 329.5,453C 330.793,452.51 332.127,452.343 333.5,452.5 Z"/></g>
<g><path style="opacity:1" fill="#c5c3c2" d="M 141.5,453.5 C 144.167,454.5 146.833,455.5 149.5,456.5C 149.5,456.833 149.5,457.167 149.5,457.5C 145.948,457.688 143.281,456.355 141.5,453.5 Z"/></g>
<g><path style="opacity:1" fill="#615e5d" d="M 149.5,457.5 C 149.5,457.167 149.5,456.833 149.5,456.5C 155.515,457.726 161.182,459.726 166.5,462.5C 164.435,462.483 162.435,462.15 160.5,461.5C 156.946,459.891 153.279,458.558 149.5,457.5 Z"/></g>
<g><path style="opacity:1" fill="#837f7e" d="M 315.5,459.5 C 314.833,460.167 314.167,460.833 313.5,461.5C 312.833,461.5 312.167,461.5 311.5,461.5C 312.287,459.896 313.62,459.229 315.5,459.5 Z"/></g>
<g><path style="opacity:1" fill="#cdc9c8" d="M 322.5,457.5 C 320.165,460.165 317.165,461.498 313.5,461.5C 314.167,460.833 314.833,460.167 315.5,459.5C 317.657,458.593 319.99,457.927 322.5,457.5 Z"/></g>
<g><path style="opacity:1" fill="#c6c2c1" d="M 160.5,461.5 C 162.435,462.15 164.435,462.483 166.5,462.5C 167.167,462.5 167.5,462.833 167.5,463.5C 165.473,463.662 163.473,463.495 161.5,463C 160.944,462.617 160.611,462.117 160.5,461.5 Z"/></g>
<g><path style="opacity:1" fill="#acaaa9" d="M 311.5,461.5 C 308.314,463.874 304.647,464.874 300.5,464.5C 304.011,463.336 307.677,462.336 311.5,461.5 Z"/></g>
<g><path style="opacity:1" fill="#9e9d9d" d="M 171.5,464.5 C 173.898,464.259 175.898,464.926 177.5,466.5C 175.102,466.741 173.102,466.074 171.5,464.5 Z"/></g>
<g><path style="opacity:1" fill="#8f8b8c" d="M 178.5,466.5 C 182.04,466.753 185.373,467.419 188.5,468.5C 184.84,468.841 181.507,468.175 178.5,466.5 Z"/></g>
<g><path style="opacity:1" fill="#8d8b8c" d="M 300.5,464.5 C 300.389,465.117 300.056,465.617 299.5,466C 294.227,467.288 288.894,468.122 283.5,468.5C 288.994,466.931 294.66,465.597 300.5,464.5 Z"/></g>
<g><path style="opacity:1" fill="#989595" d="M 283.5,468.5 C 279.761,470.102 275.761,471.102 271.5,471.5C 270.167,471.5 268.833,471.5 267.5,471.5C 272.57,469.77 277.903,468.77 283.5,468.5 Z"/></g>
<g><path style="opacity:1" fill="#d0cece" d="M 196.5,470.5 C 201.13,471.229 205.797,471.563 210.5,471.5C 210.5,472.167 210.5,472.833 210.5,473.5C 206.5,473.5 202.5,473.5 198.5,473.5C 198.218,472.222 197.551,471.222 196.5,470.5 Z"/></g>
<g><path style="opacity:1" fill="#605c5b" d="M 210.5,471.5 C 214.649,470.92 218.316,471.586 221.5,473.5C 217.833,473.5 214.167,473.5 210.5,473.5C 210.5,472.833 210.5,472.167 210.5,471.5 Z"/></g>
<g><path style="opacity:1" fill="#777372" d="M 261.5,471.5 C 261.5,472.167 261.5,472.833 261.5,473.5C 259.833,473.5 258.167,473.5 256.5,473.5C 257.552,471.744 259.219,471.077 261.5,471.5 Z"/></g>
<g><path style="opacity:1" fill="#cac6c5" d="M 261.5,471.5 C 263.5,471.5 265.5,471.5 267.5,471.5C 268.833,471.5 270.167,471.5 271.5,471.5C 271.5,472.167 271.5,472.833 271.5,473.5C 268.167,473.5 264.833,473.5 261.5,473.5C 261.5,472.833 261.5,472.167 261.5,471.5 Z"/></g>
</svg>
