<?xml version="1.0" encoding="UTF-8"?>
<!DOCTYPE svg PUBLIC "-//W3C//DTD SVG 1.1//EN" "http://www.w3.org/Graphics/SVG/1.1/DTD/svg11.dtd">
<svg xmlns="http://www.w3.org/2000/svg" version="1.1" width="180px" height="180px" style="shape-rendering:geometricPrecision; text-rendering:geometricPrecision; image-rendering:optimizeQuality; fill-rule:evenodd; clip-rule:evenodd" xmlns:xlink="http://www.w3.org/1999/xlink">
<g><path style="opacity:0.663" fill="#063058" d="M 35.5,17.5 C 30.0247,18.4889 24.358,18.8222 18.5,18.5C 18.5,24.1667 18.5,29.8333 18.5,35.5C 14.5,35.5 10.5,35.5 6.5,35.5C 9.96192,34.5184 13.6286,34.185 17.5,34.5C 17.5,28.8333 17.5,23.1667 17.5,17.5C 23.5,17.5 29.5,17.5 35.5,17.5 Z"/></g>
<g><path style="opacity:0.6" fill="#063058" d="M 144.5,17.5 C 150.167,17.5 155.833,17.5 161.5,17.5C 161.5,23.1667 161.5,28.8333 161.5,34.5C 165.371,34.185 169.038,34.5184 172.5,35.5C 168.5,35.5 164.5,35.5 160.5,35.5C 160.5,29.8333 160.5,24.1667 160.5,18.5C 154.974,18.8214 149.64,18.4881 144.5,17.5 Z"/></g>
<g><path style="opacity:1" fill="#fdfdfd" d="M 21.5,21.5 C 66.8333,21.5 112.167,21.5 157.5,21.5C 157.5,66.8333 157.5,112.167 157.5,157.5C 112.167,157.5 66.8333,157.5 21.5,157.5C 21.5,112.167 21.5,66.8333 21.5,21.5 Z"/></g>
<g><path style="opacity:1" fill="#2f6fa8" d="M 96.5,30.5 C 74.3396,29.5026 52.0062,29.1692 29.5,29.5C 29.5,40.5 29.5,51.5 29.5,62.5C 38.6822,62.1734 47.6822,62.5067 56.5,63.5C 47.1667,63.5 37.8333,63.5 28.5,63.5C 28.5,51.8333 28.5,40.1667 28.5,28.5C 51.8357,28.3334 75.169,28.5 98.5,29C 97.9558,29.7172 97.2891,30.2172 96.5,30.5 Z"/></g>
<g><path style="opacity:1" fill="#015195" d="M 96.5,30.5 C 90.6676,34.1438 87.3343,39.4771 86.5,46.5C 85.5017,80.6626 85.1683,114.996 85.5,149.5C 83.1667,149.5 80.8333,149.5 78.5,149.5C 78.8307,127.327 78.4974,105.327 77.5,83.5C 76.3598,70.7516 69.3598,64.0849 56.5,63.5C 47.6822,62.5067 38.6822,62.1734 29.5,62.5C 29.5,51.5 29.5,40.5 29.5,29.5C 52.0062,29.1692 74.3396,29.5026 96.5,30.5 Z"/></g>
<g><path style="opacity:1" fill="#3972aa" d="M 138.5,29.5 C 142.298,28.5166 146.298,28.1832 150.5,28.5C 150.5,50.5 150.5,72.5 150.5,94.5C 143.5,94.5 136.5,94.5 129.5,94.5C 135.979,93.5093 142.646,93.176 149.5,93.5C 149.5,72.1667 149.5,50.8333 149.5,29.5C 145.833,29.5 142.167,29.5 138.5,29.5 Z"/></g>
<g><path style="opacity:0.997" fill="#0a4c8a" d="M 37.5,-0.5 C 38.8333,-0.5 40.1667,-0.5 41.5,-0.5C 42.639,5.4358 43.3057,11.4358 43.5,17.5C 46.5,17.5 49.5,17.5 52.5,17.5C 52.6943,11.4358 53.361,5.4358 54.5,-0.5C 55.8333,-0.5 57.1667,-0.5 58.5,-0.5C 59.639,5.4358 60.3057,11.4358 60.5,17.5C 63.1667,17.5 65.8333,17.5 68.5,17.5C 68.185,13.6286 68.5184,9.96192 69.5,6.5C 69.5,10.5 69.5,14.5 69.5,18.5C 53.4333,20.0468 37.4333,21.0468 21.5,21.5C 21.5,66.8333 21.5,112.167 21.5,157.5C 35.3273,158.331 49.3273,158.831 63.5,159C 62.5,159.333 61.5,159.667 60.5,160C 63.4816,160.498 66.4816,160.665 69.5,160.5C 69.5,164.5 69.5,168.5 69.5,172.5C 68.5184,169.038 68.185,165.371 68.5,161.5C 65.8333,161.5 63.1667,161.5 60.5,161.5C 60.3057,167.564 59.639,173.564 58.5,179.5C 57.1667,179.5 55.8333,179.5 54.5,179.5C 53.361,173.564 52.6943,167.564 52.5,161.5C 49.5,161.5 46.5,161.5 43.5,161.5C 43.3057,167.564 42.639,173.564 41.5,179.5C 40.1667,179.5 38.8333,179.5 37.5,179.5C 36.361,173.564 35.6943,167.564 35.5,161.5C 29.5,161.5 23.5,161.5 17.5,161.5C 17.5,155.833 17.5,150.167 17.5,144.5C 11.4358,144.306 5.4358,143.639 -0.5,142.5C -0.5,141.167 -0.5,139.833 -0.5,138.5C 5.4358,137.361 11.4358,136.694 17.5,136.5C 17.5,133.5 17.5,130.5 17.5,127.5C 11.4358,127.306 5.4358,126.639 -0.5,125.5C -0.5,124.167 -0.5,122.833 -0.5,121.5C 5.4358,120.361 11.4358,119.694 17.5,119.5C 17.5,116.5 17.5,113.5 17.5,110.5C 11.4358,110.306 5.4358,109.639 -0.5,108.5C -0.5,107.167 -0.5,105.833 -0.5,104.5C 5.4358,103.361 11.4358,102.694 17.5,102.5C 17.5,99.5 17.5,96.5 17.5,93.5C 11.4358,93.3057 5.4358,92.639 -0.5,91.5C -0.5,90.1667 -0.5,88.8333 -0.5,87.5C 5.4358,86.361 11.4358,85.6943 17.5,85.5C 17.5,82.5 17.5,79.5 17.5,76.5C 11.4358,76.3057 5.4358,75.639 -0.5,74.5C -0.5,73.1667 -0.5,71.8333 -0.5,70.5C 5.4358,69.361 11.4358,68.6943 17.5,68.5C 17.5,65.5 17.5,62.5 17.5,59.5C 11.4358,59.3057 5.4358,58.639 -0.5,57.5C -0.5,56.1667 -0.5,54.8333 -0.5,53.5C 5.4358,52.361 11.4358,51.6943 17.5,51.5C 17.5,48.5 17.5,45.5 17.5,42.5C 11.4358,42.3057 5.4358,41.639 -0.5,40.5C -0.5,39.1667 -0.5,37.8333 -0.5,36.5C 2.0593,36.8016 4.39263,36.4682 6.5,35.5C 10.5,35.5 14.5,35.5 18.5,35.5C 18.5,29.8333 18.5,24.1667 18.5,18.5C 24.358,18.8222 30.0247,18.4889 35.5,17.5C 35.6943,11.4358 36.361,5.4358 37.5,-0.5 Z"/></g>
<g><path style="opacity:0.953" fill="#0f4f8e" d="M 71.5,-0.5 C 72.8333,-0.5 74.1667,-0.5 75.5,-0.5C 75.1984,2.0593 75.5318,4.39263 76.5,6.5C 76.5,10.5 76.5,14.5 76.5,18.5C 79.8333,18.5 83.1667,18.5 86.5,18.5C 86.5,14.5 86.5,10.5 86.5,6.5C 87.4682,4.39263 87.8016,2.0593 87.5,-0.5C 89.1667,-0.5 90.8333,-0.5 92.5,-0.5C 92.1984,2.0593 92.5318,4.39263 93.5,6.5C 93.5,10.5 93.5,14.5 93.5,18.5C 96.8333,18.5 100.167,18.5 103.5,18.5C 103.5,14.5 103.5,10.5 103.5,6.5C 104.468,4.39263 104.802,2.0593 104.5,-0.5C 105.833,-0.5 107.167,-0.5 108.5,-0.5C 107.99,2.38779 108.656,4.72113 110.5,6.5C 110.5,10.5 110.5,14.5 110.5,18.5C 113.833,18.5 117.167,18.5 120.5,18.5C 120.5,14.5 120.5,10.5 120.5,6.5C 121.468,4.39263 121.802,2.0593 121.5,-0.5C 122.833,-0.5 124.167,-0.5 125.5,-0.5C 126.639,5.4358 127.306,11.4358 127.5,17.5C 130.5,17.5 133.5,17.5 136.5,17.5C 136.694,11.4358 137.361,5.4358 138.5,-0.5C 139.833,-0.5 141.167,-0.5 142.5,-0.5C 143.639,5.4358 144.306,11.4358 144.5,17.5C 149.64,18.4881 154.974,18.8214 160.5,18.5C 160.5,24.1667 160.5,29.8333 160.5,35.5C 164.5,35.5 168.5,35.5 172.5,35.5C 174.607,36.4682 176.941,36.8016 179.5,36.5C 179.5,38.1667 179.5,39.8333 179.5,41.5C 173.564,42.639 167.564,43.3057 161.5,43.5C 161.5,46.1667 161.5,48.8333 161.5,51.5C 167.564,51.6943 173.564,52.361 179.5,53.5C 179.5,54.8333 179.5,56.1667 179.5,57.5C 173.564,58.639 167.564,59.3057 161.5,59.5C 161.5,62.5 161.5,65.5 161.5,68.5C 167.564,68.6943 173.564,69.361 179.5,70.5C 179.5,71.8333 179.5,73.1667 179.5,74.5C 173.564,75.639 167.564,76.3057 161.5,76.5C 161.5,79.5 161.5,82.5 161.5,85.5C 167.564,85.6943 173.564,86.361 179.5,87.5C 179.5,88.8333 179.5,90.1667 179.5,91.5C 173.564,92.639 167.564,93.3057 161.5,93.5C 161.5,96.5 161.5,99.5 161.5,102.5C 167.564,102.694 173.564,103.361 179.5,104.5C 179.5,105.833 179.5,107.167 179.5,108.5C 173.564,109.639 167.564,110.306 161.5,110.5C 161.5,113.5 161.5,116.5 161.5,119.5C 164.305,120.319 167.305,120.819 170.5,121C 169.185,122.395 169.519,123.395 171.5,124C 170.167,124.667 170.167,125.333 171.5,126C 167.975,126.179 164.641,126.679 161.5,127.5C 161.5,130.5 161.5,133.5 161.5,136.5C 167.564,136.694 173.564,137.361 179.5,138.5C 179.5,139.833 179.5,141.167 179.5,142.5C 176.941,142.198 174.607,142.532 172.5,143.5C 168.5,143.5 164.5,143.5 160.5,143.5C 160.5,149.167 160.5,154.833 160.5,160.5C 154.974,160.179 149.64,160.512 144.5,161.5C 143.679,164.641 143.179,167.975 143,171.5C 142.333,170.833 141.667,170.167 141,169.5C 140,170.833 139,170.833 138,169.5C 137.817,166.635 137.317,163.969 136.5,161.5C 132.148,160.754 127.648,160.087 123,159.5C 118.889,160.404 114.722,160.737 110.5,160.5C 110.5,164.5 110.5,168.5 110.5,172.5C 108.656,174.279 107.99,176.612 108.5,179.5C 107.167,179.5 105.833,179.5 104.5,179.5C 103.361,173.564 102.694,167.564 102.5,161.5C 99.8333,161.5 97.1667,161.5 94.5,161.5C 94.3057,167.564 93.639,173.564 92.5,179.5C 90.8333,179.5 89.1667,179.5 87.5,179.5C 86.361,173.564 85.6943,167.564 85.5,161.5C 82.8333,161.5 80.1667,161.5 77.5,161.5C 77.3057,167.564 76.639,173.564 75.5,179.5C 74.1667,179.5 72.8333,179.5 71.5,179.5C 72.0102,176.612 71.3435,174.279 69.5,172.5C 69.5,168.5 69.5,164.5 69.5,160.5C 66.4816,160.665 63.4816,160.498 60.5,160C 61.5,159.667 62.5,159.333 63.5,159C 49.3273,158.831 35.3273,158.331 21.5,157.5C 66.8333,157.5 112.167,157.5 157.5,157.5C 157.5,112.167 157.5,66.8333 157.5,21.5C 112.167,21.5 66.8333,21.5 21.5,21.5C 37.4333,21.0468 53.4333,20.0468 69.5,18.5C 69.5,14.5 69.5,10.5 69.5,6.5C 71.3435,4.72113 72.0102,2.38779 71.5,-0.5 Z"/></g>
<g><path style="opacity:0.538" fill="#082747" d="M 110.5,6.5 C 111.482,9.96192 111.815,13.6286 111.5,17.5C 114.167,17.5 116.833,17.5 119.5,17.5C 119.185,13.6286 119.518,9.96192 120.5,6.5C 120.5,10.5 120.5,14.5 120.5,18.5C 117.167,18.5 113.833,18.5 110.5,18.5C 110.5,14.5 110.5,10.5 110.5,6.5 Z"/></g>
<g><path style="opacity:0.537" fill="#022646" d="M 93.5,6.5 C 94.4816,9.96192 94.815,13.6286 94.5,17.5C 97.1667,17.5 99.8333,17.5 102.5,17.5C 102.185,13.6286 102.518,9.96192 103.5,6.5C 103.5,10.5 103.5,14.5 103.5,18.5C 100.167,18.5 96.8333,18.5 93.5,18.5C 93.5,14.5 93.5,10.5 93.5,6.5 Z"/></g>
<g><path style="opacity:0.537" fill="#052646" d="M 76.5,6.5 C 77.4816,9.96192 77.815,13.6286 77.5,17.5C 80.1667,17.5 82.8333,17.5 85.5,17.5C 85.185,13.6286 85.5184,9.96192 86.5,6.5C 86.5,10.5 86.5,14.5 86.5,18.5C 83.1667,18.5 79.8333,18.5 76.5,18.5C 76.5,14.5 76.5,10.5 76.5,6.5 Z"/></g>
<g><path style="opacity:1" fill="#035296" d="M 138.5,29.5 C 142.167,29.5 145.833,29.5 149.5,29.5C 149.5,50.8333 149.5,72.1667 149.5,93.5C 142.646,93.176 135.979,93.5093 129.5,94.5C 120.243,96.0514 114.41,101.385 112,110.5C 111.5,123.829 111.333,137.163 111.5,150.5C 108.5,150.5 105.5,150.5 102.5,150.5C 102.032,128.101 102.532,105.767 104,83.5C 106.114,79.052 109.281,75.552 113.5,73C 121.749,71.5943 130.083,71.0943 138.5,71.5C 138.5,57.5 138.5,43.5 138.5,29.5 Z"/></g>
<g><path style="opacity:1" fill="#165f9e" d="M 86.5,46.5 C 86.5,81.1667 86.5,115.833 86.5,150.5C 83.5,150.5 80.5,150.5 77.5,150.5C 77.5,128.167 77.5,105.833 77.5,83.5C 78.4974,105.327 78.8307,127.327 78.5,149.5C 80.8333,149.5 83.1667,149.5 85.5,149.5C 85.1683,114.996 85.5017,80.6626 86.5,46.5 Z"/></g>
<g><path style="opacity:1" fill="#005195" d="M 29.5,105.5 C 36.5631,105.212 43.5631,105.712 50.5,107C 56.2676,109.263 59.6009,113.43 60.5,119.5C 60.5,129.5 60.5,139.5 60.5,149.5C 50.1667,149.5 39.8333,149.5 29.5,149.5C 29.5,134.833 29.5,120.167 29.5,105.5 Z"/></g>
<g><path style="opacity:0.985" fill="#00427b" d="M 161.5,119.5 C 167.564,119.694 173.564,120.361 179.5,121.5C 179.5,122.833 179.5,124.167 179.5,125.5C 173.564,126.639 167.564,127.306 161.5,127.5C 164.641,126.679 167.975,126.179 171.5,126C 170.167,125.333 170.167,124.667 171.5,124C 169.519,123.395 169.185,122.395 170.5,121C 167.305,120.819 164.305,120.319 161.5,119.5 Z"/></g>
<g><path style="opacity:1" fill="#055296" d="M 149.5,134.5 C 149.5,139.5 149.5,144.5 149.5,149.5C 142.5,149.5 135.5,149.5 128.5,149.5C 128.5,148.5 128.5,147.5 128.5,146.5C 129.908,140.591 133.574,136.757 139.5,135C 142.817,134.502 146.15,134.335 149.5,134.5 Z"/></g>
<g><path style="opacity:0.6" fill="#003664" d="M 172.5,143.5 C 169.038,144.482 165.371,144.815 161.5,144.5C 161.5,150.167 161.5,155.833 161.5,161.5C 155.833,161.5 150.167,161.5 144.5,161.5C 149.64,160.512 154.974,160.179 160.5,160.5C 160.5,154.833 160.5,149.167 160.5,143.5C 164.5,143.5 168.5,143.5 172.5,143.5 Z"/></g>
<g><path style="opacity:1" fill="#2166a3" d="M 29.5,105.5 C 29.5,120.167 29.5,134.833 29.5,149.5C 39.8333,149.5 50.1667,149.5 60.5,149.5C 60.5,139.5 60.5,129.5 60.5,119.5C 61.4942,129.653 61.8276,139.986 61.5,150.5C 50.5,150.5 39.5,150.5 28.5,150.5C 28.1706,135.324 28.5039,120.324 29.5,105.5 Z"/></g>
<g><path style="opacity:1" fill="#2d6da7" d="M 149.5,134.5 C 150.488,139.64 150.821,144.974 150.5,150.5C 142.833,150.5 135.167,150.5 127.5,150.5C 127.232,148.901 127.566,147.568 128.5,146.5C 128.5,147.5 128.5,148.5 128.5,149.5C 135.5,149.5 142.5,149.5 149.5,149.5C 149.5,144.5 149.5,139.5 149.5,134.5 Z"/></g>
<g><path style="opacity:0.968" fill="#044178" d="M 136.5,161.5 C 133.5,161.5 130.5,161.5 127.5,161.5C 127.306,167.564 126.639,173.564 125.5,179.5C 124.167,179.5 122.833,179.5 121.5,179.5C 120.361,173.564 119.694,167.564 119.5,161.5C 116.833,161.5 114.167,161.5 111.5,161.5C 111.815,165.371 111.482,169.038 110.5,172.5C 110.5,168.5 110.5,164.5 110.5,160.5C 114.722,160.737 118.889,160.404 123,159.5C 127.648,160.087 132.148,160.754 136.5,161.5 Z"/></g>
<g><path style="opacity:0.963" fill="#004078" d="M 136.5,161.5 C 137.317,163.969 137.817,166.635 138,169.5C 139,170.833 140,170.833 141,169.5C 141.667,170.167 142.333,170.833 143,171.5C 143.179,167.975 143.679,164.641 144.5,161.5C 144.306,167.564 143.639,173.564 142.5,179.5C 141.167,179.5 139.833,179.5 138.5,179.5C 137.361,173.564 136.694,167.564 136.5,161.5 Z"/></g>
</svg>
