<?xml version="1.0" encoding="UTF-8"?>
<!DOCTYPE svg PUBLIC "-//W3C//DTD SVG 1.1//EN" "http://www.w3.org/Graphics/SVG/1.1/DTD/svg11.dtd">
<svg xmlns="http://www.w3.org/2000/svg" version="1.1" width="196px" height="196px" style="shape-rendering:geometricPrecision; text-rendering:geometricPrecision; image-rendering:optimizeQuality; fill-rule:evenodd; clip-rule:evenodd" xmlns:xlink="http://www.w3.org/1999/xlink">
<g><path style="opacity:0.985" fill="#ee4056" d="M 195.5,30.5 C 195.5,55.5 195.5,80.5 195.5,105.5C 189.252,135.161 173.252,157.995 147.5,174C 117.445,189.086 86.7784,190.419 55.5,178C 24.9201,162.994 6.25344,138.828 -0.5,105.5C -0.5,80.1667 -0.5,54.8333 -0.5,29.5C 2.21379,24.1251 6.54712,20.6251 12.5,19C 69.1667,18.3333 125.833,18.3333 182.5,19C 188.294,21.2999 192.627,25.1332 195.5,30.5 Z"/></g>
<g><path style="opacity:1" fill="#fefcfc" d="M 47.5,66.5 C 52.6551,65.8895 57.3218,67.0562 61.5,70C 73.3495,81.3502 85.3495,92.5169 97.5,103.5C 110.017,91.8153 122.684,80.3153 135.5,69C 142.608,65.2009 149.108,66.0342 155,71.5C 156.534,75.7109 156.867,80.0442 156,84.5C 151.867,89.6344 147.367,94.4677 142.5,99C 130.534,109.298 118.867,119.965 107.5,131C 102.977,134.173 97.9768,135.173 92.5,134C 74.9656,118.497 57.7989,102.664 41,86.5C 37.294,77.6777 39.4607,71.0111 47.5,66.5 Z"/></g>
</svg>
