<?xml version="1.0" encoding="UTF-8"?>
<!DOCTYPE svg PUBLIC "-//W3C//DTD SVG 1.1//EN" "http://www.w3.org/Graphics/SVG/1.1/DTD/svg11.dtd">
<svg xmlns="http://www.w3.org/2000/svg" version="1.1" width="300px" height="225px" style="shape-rendering:geometricPrecision; text-rendering:geometricPrecision; image-rendering:optimizeQuality; fill-rule:evenodd; clip-rule:evenodd" xmlns:xlink="http://www.w3.org/1999/xlink">
<g><path style="opacity:0.999" fill="#c5221f" d="M 22.5,-0.5 C 27.8333,-0.5 33.1667,-0.5 38.5,-0.5C 49.5153,5.0112 59.5153,12.0112 68.5,20.5C 67.502,49.3285 67.1686,78.3285 67.5,107.5C 44.5706,91.244 21.9039,74.5774 -0.5,57.5C -0.5,45.5 -0.5,33.5 -0.5,21.5C 3.93077,10.7349 11.5974,3.40159 22.5,-0.5 Z"/></g>
<g><path style="opacity:0.999" fill="#fabc04" d="M 260.5,-0.5 C 265.833,-0.5 271.167,-0.5 276.5,-0.5C 287.403,3.40159 295.069,10.7349 299.5,21.5C 299.5,33.5 299.5,45.5 299.5,57.5C 277.096,74.5774 254.429,91.244 231.5,107.5C 231.5,78.1667 231.5,48.8333 231.5,19.5C 240.33,11.5877 249.997,4.92101 260.5,-0.5 Z"/></g>
<g><path style="opacity:1" fill="#ea4335" d="M 231.5,19.5 C 231.5,48.8333 231.5,78.1667 231.5,107.5C 231.443,108.609 231.11,109.609 230.5,110.5C 203.381,130.238 176.381,150.238 149.5,170.5C 122.619,150.238 95.619,130.238 68.5,110.5C 68.4431,109.391 68.1098,108.391 67.5,107.5C 67.1686,78.3285 67.502,49.3285 68.5,20.5C 95.619,40.2378 122.619,60.2378 149.5,80.5C 176.852,60.1422 204.185,39.8089 231.5,19.5 Z"/></g>
<g><path style="opacity:1" fill="#34a853" d="M 299.5,57.5 C 299.5,108.5 299.5,159.5 299.5,210.5C 296.525,216.808 291.859,221.475 285.5,224.5C 267.167,224.5 248.833,224.5 230.5,224.5C 230.5,186.5 230.5,148.5 230.5,110.5C 231.11,109.609 231.443,108.609 231.5,107.5C 254.429,91.244 277.096,74.5774 299.5,57.5 Z"/></g>
<g><path style="opacity:1" fill="#4285f3" d="M -0.5,57.5 C 21.9039,74.5774 44.5706,91.244 67.5,107.5C 68.1098,108.391 68.4431,109.391 68.5,110.5C 68.5,148.5 68.5,186.5 68.5,224.5C 50.1667,224.5 31.8333,224.5 13.5,224.5C 7.1413,221.475 2.47463,216.808 -0.5,210.5C -0.5,159.5 -0.5,108.5 -0.5,57.5 Z"/></g>
</svg>
