<?xml version="1.0" encoding="UTF-8"?>
<!DOCTYPE svg PUBLIC "-//W3C//DTD SVG 1.1//EN" "http://www.w3.org/Graphics/SVG/1.1/DTD/svg11.dtd">
<svg xmlns="http://www.w3.org/2000/svg" version="1.1" width="300px" height="228px" style="shape-rendering:geometricPrecision; text-rendering:geometricPrecision; image-rendering:optimizeQuality; fill-rule:evenodd; clip-rule:evenodd" xmlns:xlink="http://www.w3.org/1999/xlink">
<g><path style="opacity:1" fill="#b52320" d="M 299.5,23.5 C 299.5,86.8333 299.5,150.167 299.5,213.5C 298.687,215.261 297.687,216.928 296.5,218.5C 297.815,154.893 297.815,91.2264 296.5,27.5C 297.026,25.7697 298.026,24.4363 299.5,23.5 Z"/></g>
<g><path style="opacity:1" fill="#ac2421" d="M 296.5,27.5 C 297.815,91.2264 297.815,154.893 296.5,218.5C 292.828,221.975 288.494,224.475 283.5,226C 276.5,226.667 269.5,226.667 262.5,226C 263.165,197.738 263.498,169.404 263.5,141C 263.5,112.492 262.833,84.3253 261.5,56.5C 261.167,56.5 260.833,56.5 260.5,56.5C 261.795,55.5116 263.128,54.5116 264.5,53.5C 264.5,110.5 264.5,167.5 264.5,224.5C 272.253,224.896 279.92,224.396 287.5,223C 292.149,220.545 294.983,216.712 296,211.5C 296.832,150.665 296.665,89.9986 295.5,29.5C 295.833,28.8333 296.167,28.1667 296.5,27.5 Z"/></g>
<g><path style="opacity:1" fill="#ab3c31" d="M 295.5,29.5 C 296.665,89.9986 296.832,150.665 296,211.5C 294.983,216.712 292.149,220.545 287.5,223C 279.92,224.396 272.253,224.896 264.5,224.5C 264.5,167.5 264.5,110.5 264.5,53.5C 275.414,46.2143 285.748,38.2143 295.5,29.5 Z"/></g>
<g><path style="opacity:1" fill="#b69493" d="M 259.5,57.5 C 259.5,56.8333 259.833,56.5 260.5,56.5C 260.833,56.5 261.167,56.5 261.5,56.5C 261.5,113.5 261.5,170.5 261.5,227.5C 261.167,227.5 260.833,227.5 260.5,227.5C 260.832,170.664 260.499,113.998 259.5,57.5 Z"/></g>
<g><path style="opacity:1" fill="#b11f1c" d="M 261.5,56.5 C 262.833,84.3253 263.5,112.492 263.5,141C 263.498,169.404 263.165,197.738 262.5,226C 269.5,226.667 276.5,226.667 283.5,226C 288.494,224.475 292.828,221.975 296.5,218.5C 294.38,222.886 291.047,225.886 286.5,227.5C 278.167,227.5 269.833,227.5 261.5,227.5C 261.5,170.5 261.5,113.5 261.5,56.5 Z"/></g>
<g><path style="opacity:1" fill="#d72e28" d="M 274.5,-0.5 C 278.167,-0.5 281.833,-0.5 285.5,-0.5C 292.5,1.83333 297.167,6.5 299.5,13.5C 299.5,16.8333 299.5,20.1667 299.5,23.5C 298.026,24.4363 297.026,25.7697 296.5,27.5C 296.167,28.1667 295.833,28.8333 295.5,29.5C 285.748,38.2143 275.414,46.2143 264.5,53.5C 263.128,54.5116 261.795,55.5116 260.5,56.5C 259.833,56.5 259.5,56.8333 259.5,57.5C 258.833,57.5 258.5,57.8333 258.5,58.5C 245.626,66.7692 233.293,75.7692 221.5,85.5C 197.784,101.703 174.451,118.536 151.5,136C 150.255,136.791 148.922,137.291 147.5,137.5C 111.738,110.112 75.4043,83.4458 38.5,57.5C 38.44,56.9569 38.1067,56.6236 37.5,56.5C 36.5,113.496 36.1667,170.496 36.5,227.5C 28.5,227.5 20.5,227.5 12.5,227.5C 6.91132,224.913 2.57799,220.913 -0.5,215.5C -0.5,147.833 -0.5,80.1667 -0.5,12.5C 4.17099,2.99598 11.8377,-1.00402 22.5,0.5C 23.5137,1.67373 24.847,2.3404 26.5,2.5C 26.8333,2.5 27.1667,2.5 27.5,2.5C 67.6846,32.1846 108.185,61.5179 149,90.5C 188.601,61.9518 228.101,33.2852 267.5,4.5C 268.833,3.83333 269.833,2.83333 270.5,1.5C 271.492,1.67158 272.158,1.33825 272.5,0.5C 273.492,0.67158 274.158,0.338246 274.5,-0.5 Z"/></g>
<g><path style="opacity:1" fill="#d44a3c" d="M 2.5,30.5 C 12.8393,38.6676 23.3393,46.6676 34,54.5C 34.5,111.166 34.6667,167.832 34.5,224.5C 26.747,224.896 19.0804,224.396 11.5,223C 7.6119,220.778 4.77857,217.612 3,213.5C 2.5,152.501 2.33334,91.5009 2.5,30.5 Z"/></g>
<g><path style="opacity:1" fill="#d54a3c" d="M 276.5,2.5 C 293.855,3.53203 299.355,12.1987 293,28.5C 245.27,63.9011 197.27,98.9011 149,133.5C 102.429,100.128 55.9289,66.628 9.5,33C 2.62858,27.1395 0.795244,19.9729 4,11.5C 9.49553,3.67278 16.6622,1.50611 25.5,5C 66.6667,34.8333 107.833,64.6667 149,94.5C 186.833,66.6667 224.667,38.8333 262.5,11C 266.859,7.43485 271.526,4.60152 276.5,2.5 Z"/></g>
<g><path style="opacity:1" fill="#e3e2e2" d="M 27.5,2.5 C 107.84,1.83616 187.84,2.50283 267.5,4.5C 228.101,33.2852 188.601,61.9518 149,90.5C 108.185,61.5179 67.6846,32.1846 27.5,2.5 Z"/></g>
<g><path style="opacity:1" fill="#f0f0f0" d="M 26.5,2.5 C 107.665,1.50069 188.998,1.16736 270.5,1.5C 269.833,2.83333 268.833,3.83333 267.5,4.5C 187.84,2.50283 107.84,1.83616 27.5,2.5C 27.1667,2.5 26.8333,2.5 26.5,2.5 Z"/></g>
<g><path style="opacity:0.725" fill="#e3e2e2" d="M 22.5,0.5 C 105.833,0.5 189.167,0.5 272.5,0.5C 272.158,1.33825 271.492,1.67158 270.5,1.5C 188.998,1.16736 107.665,1.50069 26.5,2.5C 24.847,2.3404 23.5137,1.67373 22.5,0.5 Z"/></g>
<g><path style="opacity:1" fill="#b9b9b9" d="M 258.5,58.5 C 259.496,114.095 259.829,169.762 259.5,225.5C 247.5,225.5 235.5,225.5 223.5,225.5C 223.667,179.165 223.5,132.832 223,86.5C 222.617,85.944 222.117,85.6107 221.5,85.5C 233.293,75.7692 245.626,66.7692 258.5,58.5 Z"/></g>
<g><path style="opacity:1" fill="#d27875" d="M 38.5,57.5 C 37.5318,59.6074 37.1984,61.9407 37.5,64.5C 37.5,118.167 37.5,171.833 37.5,225.5C 37.5,226.167 37.5,226.833 37.5,227.5C 37.1667,227.5 36.8333,227.5 36.5,227.5C 36.1667,170.496 36.5,113.496 37.5,56.5C 38.1067,56.6236 38.44,56.9569 38.5,57.5 Z"/></g>
<g><path style="opacity:1" fill="#cecfcf" d="M 37.5,64.5 C 67.5,93.8333 97.1667,123.5 126.5,153.5C 126.5,153.833 126.5,154.167 126.5,154.5C 97.7038,179.3 68.0372,202.967 37.5,225.5C 37.5,171.833 37.5,118.167 37.5,64.5 Z"/></g>
<g><path style="opacity:1" fill="#b3b3b2" d="M 38.5,57.5 C 75.4043,83.4458 111.738,110.112 147.5,137.5C 143.028,141.801 138.361,145.968 133.5,150C 131.473,151.879 129.14,153.046 126.5,153.5C 97.1667,123.5 67.5,93.8333 37.5,64.5C 37.1984,61.9407 37.5318,59.6074 38.5,57.5 Z"/></g>
<g><path style="opacity:1" fill="#bebebe" d="M 259.5,57.5 C 260.499,113.998 260.832,170.664 260.5,227.5C 240.167,227.5 219.833,227.5 199.5,227.5C 175.695,203.527 152.028,179.361 128.5,155C 127.906,154.536 127.239,154.369 126.5,154.5C 126.5,154.167 126.5,153.833 126.5,153.5C 129.14,153.046 131.473,151.879 133.5,150C 138.361,145.968 143.028,141.801 147.5,137.5C 148.922,137.291 150.255,136.791 151.5,136C 174.451,118.536 197.784,101.703 221.5,85.5C 222.117,85.6107 222.617,85.944 223,86.5C 223.5,132.832 223.667,179.165 223.5,225.5C 235.5,225.5 247.5,225.5 259.5,225.5C 259.829,169.762 259.496,114.095 258.5,58.5C 258.5,57.8333 258.833,57.5 259.5,57.5 Z"/></g>
<g><path style="opacity:1" fill="#e3e3e3" d="M 126.5,154.5 C 127.239,154.369 127.906,154.536 128.5,155C 152.028,179.361 175.695,203.527 199.5,227.5C 145.5,227.5 91.5,227.5 37.5,227.5C 37.5,226.833 37.5,226.167 37.5,225.5C 68.0372,202.967 97.7038,179.3 126.5,154.5 Z"/></g>
</svg>
