<?xml version="1.0" encoding="UTF-8"?>
<!DOCTYPE svg PUBLIC "-//W3C//DTD SVG 1.1//EN" "http://www.w3.org/Graphics/SVG/1.1/DTD/svg11.dtd">
<svg xmlns="http://www.w3.org/2000/svg" version="1.1" width="300px" height="269px" style="shape-rendering:geometricPrecision; text-rendering:geometricPrecision; image-rendering:optimizeQuality; fill-rule:evenodd; clip-rule:evenodd" xmlns:xlink="http://www.w3.org/1999/xlink">
<g><path style="opacity:0.997" fill="#108038" d="M 110.5,-0.5 C 134.833,-0.5 159.167,-0.5 183.5,-0.5C 188.355,0.342604 193.021,2.00927 197.5,4.5C 181.737,31.7006 165.737,58.7006 149.5,85.5C 132.93,58.702 116.596,31.702 100.5,4.5C 103.658,2.44949 106.992,0.78282 110.5,-0.5 Z"/></g>
<g><path style="opacity:1" fill="#30a753" d="M 100.5,4.5 C 116.596,31.702 132.93,58.702 149.5,85.5C 149.5,86.1667 149.5,86.8333 149.5,87.5C 131.9,119.091 113.9,150.425 95.5,181.5C 63.5,181.5 31.5,181.5 -0.5,181.5C -0.5,178.833 -0.5,176.167 -0.5,173.5C 28.9585,121.261 58.4585,68.9277 88,16.5C 91.3761,11.6228 95.5428,7.62283 100.5,4.5 Z"/></g>
<g><path style="opacity:1" fill="#f9bc00" d="M 197.5,4.5 C 201.91,7.46442 206.077,10.7978 210,14.5C 239.608,67.3915 269.441,120.058 299.5,172.5C 299.5,175.5 299.5,178.5 299.5,181.5C 267.833,181.5 236.167,181.5 204.5,181.5C 204.167,181.5 203.833,181.5 203.5,181.5C 185.485,150.131 167.485,118.798 149.5,87.5C 149.5,86.8333 149.5,86.1667 149.5,85.5C 165.737,58.7006 181.737,31.7006 197.5,4.5 Z"/></g>
<g><path style="opacity:1" fill="#1767d1" d="M -0.5,182.5 C 31.1684,182.333 62.8351,182.5 94.5,183C 78.9479,209.943 63.2812,236.776 47.5,263.5C 41.3029,261.473 36.8029,257.473 34,251.5C 21.6973,231.223 10.1973,210.556 -0.5,189.5C -0.5,187.167 -0.5,184.833 -0.5,182.5 Z"/></g>
<g><path style="opacity:1" fill="#4185f2" d="M -0.5,182.5 C -0.5,182.167 -0.5,181.833 -0.5,181.5C 31.5,181.5 63.5,181.5 95.5,181.5C 131.5,181.5 167.5,181.5 203.5,181.5C 203.833,181.5 204.167,181.5 204.5,181.5C 220.432,209.032 236.098,236.698 251.5,264.5C 248.921,266.025 246.254,267.359 243.5,268.5C 181.5,268.5 119.5,268.5 57.5,268.5C 53.8981,267.366 50.5648,265.699 47.5,263.5C 63.2812,236.776 78.9479,209.943 94.5,183C 62.8351,182.5 31.1684,182.333 -0.5,182.5 Z"/></g>
<g><path style="opacity:0.999" fill="#e94234" d="M 204.5,181.5 C 236.167,181.5 267.833,181.5 299.5,181.5C 299.5,184.167 299.5,186.833 299.5,189.5C 287.819,211.85 275.319,233.85 262,255.5C 258.922,259.085 255.422,262.085 251.5,264.5C 236.098,236.698 220.432,209.032 204.5,181.5 Z"/></g>
</svg>
