<?xml version="1.0" encoding="UTF-8"?>
<!DOCTYPE svg PUBLIC "-//W3C//DTD SVG 1.1//EN" "http://www.w3.org/Graphics/SVG/1.1/DTD/svg11.dtd">
<svg xmlns="http://www.w3.org/2000/svg" version="1.1" width="294px" height="300px" style="shape-rendering:geometricPrecision; text-rendering:geometricPrecision; image-rendering:optimizeQuality; fill-rule:evenodd; clip-rule:evenodd" xmlns:xlink="http://www.w3.org/1999/xlink">
<g><path style="opacity:1" fill="#dc4b3e" d="M 208.5,-0.5 C 216.5,-0.5 224.5,-0.5 232.5,-0.5C 264.544,6.54495 284.878,25.8783 293.5,57.5C 293.5,65.8333 293.5,74.1667 293.5,82.5C 291.253,91.0578 288.087,99.3912 284,107.5C 277.321,118.87 270.154,129.87 262.5,140.5C 247.256,158.298 236.09,178.632 229,201.5C 227.202,209.083 225.869,216.75 225,224.5C 224.434,227.229 222.934,229.229 220.5,230.5C 218.227,230.043 216.894,228.71 216.5,226.5C 212.451,195.754 200.784,168.421 181.5,144.5C 174.55,133.553 167.216,122.887 159.5,112.5C 149.72,95.4363 145.887,77.1029 148,57.5C 149.667,49.8431 152.167,42.5098 155.5,35.5C 167.853,15.8131 185.52,3.81314 208.5,-0.5 Z"/></g>
<g><path style="opacity:1" fill="#22a462" d="M 155.5,35.5 C 152.167,42.5098 149.667,49.8431 148,57.5C 145.887,77.1029 149.72,95.4363 159.5,112.5C 106.167,165.5 52.8333,218.5 -0.5,271.5C -0.5,198.5 -0.5,125.5 -0.5,52.5C 3.06455,42.7822 10.0645,37.2822 20.5,36C 65.4988,35.5 110.499,35.3333 155.5,35.5 Z"/></g>
<g><path style="opacity:1" fill="#802c27" d="M 214.5,45.5 C 228.743,44.0344 238.909,49.701 245,62.5C 246.997,86.103 236.164,96.603 212.5,94C 196.086,86.4245 191.253,74.2578 198,57.5C 202.286,51.6977 207.786,47.6977 214.5,45.5 Z"/></g>
<g><path style="opacity:1" fill="#edeeed" d="M 53.5,62.5 C 62.9306,61.6464 71.9306,63.1464 80.5,67C 82.8122,68.314 84.8122,69.9806 86.5,72C 83.7161,75.787 80.5494,79.287 77,82.5C 64.5262,73.5141 53.1929,74.8474 43,86.5C 35.3606,102.58 39.5273,114.747 55.5,123C 68.6157,125.277 77.949,120.443 83.5,108.5C 76.1968,107.503 68.8635,107.169 61.5,107.5C 61.5,103.167 61.5,98.8333 61.5,94.5C 73.5,94.5 85.5,94.5 97.5,94.5C 98.5936,125.571 83.5936,139.737 52.5,137C 28.6866,127.539 20.1866,110.373 27,85.5C 32.7598,74.2162 41.5931,66.5495 53.5,62.5 Z"/></g>
<g><path style="opacity:0.999" fill="#fadb43" d="M 159.5,112.5 C 167.216,122.887 174.55,133.553 181.5,144.5C 173.5,152.167 165.5,159.833 157.5,167.5C 156.883,167.389 156.383,167.056 156,166.5C 147.333,175.167 138.667,183.833 130,192.5C 129.53,193.577 129.697,194.577 130.5,195.5C 95.5,229.833 60.8333,264.5 26.5,299.5C 23.1667,299.5 19.8333,299.5 16.5,299.5C 8.26741,296.935 2.60074,291.602 -0.5,283.5C -0.5,279.5 -0.5,275.5 -0.5,271.5C 52.8333,218.5 106.167,165.5 159.5,112.5 Z"/></g>
<g><path style="opacity:0.968" fill="#c2c1c1" d="M 262.5,140.5 C 262.5,184.5 262.5,228.5 262.5,272.5C 248.167,258.833 234.167,244.833 220.5,230.5C 222.934,229.229 224.434,227.229 225,224.5C 225.869,216.75 227.202,209.083 229,201.5C 236.09,178.632 247.256,158.298 262.5,140.5 Z"/></g>
<g><path style="opacity:1" fill="#c2c1c1" d="M 181.5,144.5 C 200.784,168.421 212.451,195.754 216.5,226.5C 196.5,207.167 176.833,187.5 157.5,167.5C 165.5,159.833 173.5,152.167 181.5,144.5 Z"/></g>
<g><path style="opacity:0.995" fill="#fdfefe" d="M 157.5,167.5 C 176.833,187.5 196.5,207.167 216.5,226.5C 216.894,228.71 218.227,230.043 220.5,230.5C 234.167,244.833 248.167,258.833 262.5,272.5C 263.132,285.588 257.465,294.588 245.5,299.5C 241.833,299.5 238.167,299.5 234.5,299.5C 200.167,264.5 165.5,229.833 130.5,195.5C 129.697,194.577 129.53,193.577 130,192.5C 138.667,183.833 147.333,175.167 156,166.5C 156.383,167.056 156.883,167.389 157.5,167.5 Z"/></g>
<g><path style="opacity:1" fill="#5184c4" d="M 130.5,195.5 C 165.5,229.833 200.167,264.5 234.5,299.5C 165.167,299.5 95.8333,299.5 26.5,299.5C 60.8333,264.5 95.5,229.833 130.5,195.5 Z"/></g>
</svg>
