<?xml version="1.0" encoding="UTF-8"?>
<!DOCTYPE svg PUBLIC "-//W3C//DTD SVG 1.1//EN" "http://www.w3.org/Graphics/SVG/1.1/DTD/svg11.dtd">
<svg xmlns="http://www.w3.org/2000/svg" version="1.1" width="210px" height="300px" style="shape-rendering:geometricPrecision; text-rendering:geometricPrecision; image-rendering:optimizeQuality; fill-rule:evenodd; clip-rule:evenodd" xmlns:xlink="http://www.w3.org/1999/xlink">
<g><path style="opacity:0.996" fill="#1c73e7" d="M 92.5,-0.5 C 100.5,-0.5 108.5,-0.5 116.5,-0.5C 123.235,0.850372 129.901,2.51704 136.5,4.5C 119.211,25.6268 101.711,46.6268 84,67.5C 80.7713,71.7403 76.938,75.0736 72.5,77.5C 56.1831,64.5137 40.1831,51.1803 24.5,37.5C 35.7979,23.0604 50.1312,12.5604 67.5,6C 75.8425,3.33232 84.1758,1.16565 92.5,-0.5 Z"/></g>
<g><path style="opacity:0.998" fill="#4285f3" d="M 136.5,4.5 C 164.2,13.5405 184.867,30.8738 198.5,56.5C 178.156,79.3482 158.323,102.682 139,126.5C 137.871,128.141 136.371,129.141 134.5,129.5C 148.205,108.729 145.872,89.8957 127.5,73C 108.173,61.9576 90.5065,64.1242 74.5,79.5C 73.5,79.1667 72.8333,78.5 72.5,77.5C 76.938,75.0736 80.7713,71.7403 84,67.5C 101.711,46.6268 119.211,25.6268 136.5,4.5 Z"/></g>
<g><path style="opacity:0.995" fill="#ea4335" d="M 24.5,37.5 C 40.1831,51.1803 56.1831,64.5137 72.5,77.5C 72.8333,78.5 73.5,79.1667 74.5,79.5C 73.396,81.3885 72.0627,83.0552 70.5,84.5C 50.1667,107.833 29.8333,131.167 9.5,154.5C 4.63629,142.483 1.30296,130.15 -0.5,117.5C -0.5,109.5 -0.5,101.5 -0.5,93.5C 1.69415,77.0914 7.19415,61.7581 16,47.5C 18.6142,43.9095 21.4475,40.5762 24.5,37.5 Z"/></g>
<g><path style="opacity:1" fill="#34a853" d="M 198.5,56.5 C 203.722,67.4091 207.389,78.7425 209.5,90.5C 209.5,100.833 209.5,111.167 209.5,121.5C 207.299,136.599 202.466,150.933 195,164.5C 181.551,185.06 166.884,204.726 151,223.5C 140.749,236.991 131.749,251.324 124,266.5C 120.803,275.092 117.803,283.758 115,292.5C 113.618,295.305 111.784,297.639 109.5,299.5C 106.167,299.5 102.833,299.5 99.5,299.5C 96.9493,297.422 95.116,294.756 94,291.5C 90.4302,279.035 85.7635,267.035 80,255.5C 72.9845,244.124 65.4845,233.124 57.5,222.5C 83.1897,191.814 108.856,161.147 134.5,130.5C 134.5,130.167 134.5,129.833 134.5,129.5C 136.371,129.141 137.871,128.141 139,126.5C 158.323,102.682 178.156,79.3482 198.5,56.5 Z"/></g>
<g><path style="opacity:0.996" fill="#fabb04" d="M 70.5,84.5 C 61.3676,105.131 65.3676,122.631 82.5,137C 101.486,147.254 118.82,145.088 134.5,130.5C 108.856,161.147 83.1897,191.814 57.5,222.5C 45.7784,208.084 34.2784,193.417 23,178.5C 17.7281,170.958 13.2281,162.958 9.5,154.5C 29.8333,131.167 50.1667,107.833 70.5,84.5 Z"/></g>
</svg>
