<?xml version="1.0" encoding="UTF-8"?>
<!DOCTYPE svg PUBLIC "-//W3C//DTD SVG 1.1//EN" "http://www.w3.org/Graphics/SVG/1.1/DTD/svg11.dtd">
<svg xmlns="http://www.w3.org/2000/svg" version="1.1" width="300px" height="260px" style="shape-rendering:geometricPrecision; text-rendering:geometricPrecision; image-rendering:optimizeQuality; fill-rule:evenodd; clip-rule:evenodd" xmlns:xlink="http://www.w3.org/1999/xlink">
<g><path style="opacity:1" fill="#fecf63" d="M 100.5,-0.5 C 133.833,-0.5 167.167,-0.5 200.5,-0.5C 233.515,56.8687 266.515,114.202 299.5,171.5C 299.5,171.833 299.5,172.167 299.5,172.5C 265.833,172.5 232.167,172.5 198.5,172.5C 182.152,144.465 165.818,116.465 149.5,88.5C 149.657,87.1266 149.49,85.7932 149,84.5C 132.304,56.4374 116.137,28.1041 100.5,-0.5 Z"/></g>
<g><path style="opacity:1" fill="#11a861" d="M 98.5,-0.5 C 99.1667,-0.5 99.8333,-0.5 100.5,-0.5C 116.137,28.1041 132.304,56.4374 149,84.5C 149.49,85.7932 149.657,87.1266 149.5,88.5C 133.182,116.465 116.848,144.465 100.5,172.5C 83.2627,201.3 66.2627,230.3 49.5,259.5C 49.1667,259.5 48.8333,259.5 48.5,259.5C 32.5582,230.903 16.2249,202.57 -0.5,174.5C -0.5,173.5 -0.5,172.5 -0.5,171.5C 32.4848,114.202 65.4848,56.8687 98.5,-0.5 Z"/></g>
<g><path style="opacity:1" fill="#3777e2" d="M 100.5,172.5 C 133.167,172.5 165.833,172.5 198.5,172.5C 232.167,172.5 265.833,172.5 299.5,172.5C 299.5,173.167 299.5,173.833 299.5,174.5C 282.775,202.57 266.442,230.903 250.5,259.5C 183.5,259.5 116.5,259.5 49.5,259.5C 66.2627,230.3 83.2627,201.3 100.5,172.5 Z"/></g>
</svg>
