<?xml version="1.0" encoding="UTF-8"?>
<!DOCTYPE svg PUBLIC "-//W3C//DTD SVG 1.1//EN" "http://www.w3.org/Graphics/SVG/1.1/DTD/svg11.dtd">
<svg xmlns="http://www.w3.org/2000/svg" version="1.1" width="300px" height="300px" style="shape-rendering:geometricPrecision; text-rendering:geometricPrecision; image-rendering:optimizeQuality; fill-rule:evenodd; clip-rule:evenodd" xmlns:xlink="http://www.w3.org/1999/xlink">
<g><path style="opacity:1" fill="#4285f4" d="M 15.5,-0.5 C 86.5,-0.5 157.5,-0.5 228.5,-0.5C 228.5,23.1667 228.5,46.8333 228.5,70.5C 175.833,70.5 123.167,70.5 70.5,70.5C 70.5,123.167 70.5,175.833 70.5,228.5C 46.8333,228.5 23.1667,228.5 -0.5,228.5C -0.5,157.5 -0.5,86.5 -0.5,15.5C 2.5,7.83333 7.83333,2.5 15.5,-0.5 Z"/></g>
<g><path style="opacity:1" fill="#1967d1" d="M 228.5,-0.5 C 246.833,-0.5 265.167,-0.5 283.5,-0.5C 291.167,2.5 296.5,7.83333 299.5,15.5C 299.5,33.8333 299.5,52.1667 299.5,70.5C 275.833,70.5 252.167,70.5 228.5,70.5C 228.5,46.8333 228.5,23.1667 228.5,-0.5 Z"/></g>
<g><path style="opacity:1" fill="#fefefe" d="M 227.5,71.5 C 227.5,123.5 227.5,175.5 227.5,227.5C 175.5,227.5 123.5,227.5 71.5,227.5C 71.5,175.5 71.5,123.5 71.5,71.5C 123.5,71.5 175.5,71.5 227.5,71.5 Z"/></g>
<g><path style="opacity:1" fill="#fabb04" d="M 228.5,70.5 C 252.167,70.5 275.833,70.5 299.5,70.5C 299.5,123.167 299.5,175.833 299.5,228.5C 275.833,228.5 252.167,228.5 228.5,228.5C 228.5,176.167 228.5,123.833 228.5,71.5C 228.5,71.1667 228.5,70.8333 228.5,70.5 Z"/></g>
<g><path style="opacity:1" fill="#dbe7fc" d="M 228.5,70.5 C 228.5,70.8333 228.5,71.1667 228.5,71.5C 228.167,71.5 227.833,71.5 227.5,71.5C 175.5,71.5 123.5,71.5 71.5,71.5C 71.5,123.5 71.5,175.5 71.5,227.5C 71.5,227.833 71.5,228.167 71.5,228.5C 71.1667,228.5 70.8333,228.5 70.5,228.5C 70.5,175.833 70.5,123.167 70.5,70.5C 123.167,70.5 175.833,70.5 228.5,70.5 Z"/></g>
<g><path style="opacity:1" fill="#4586f4" d="M 115.5,102.5 C 129.003,101.27 139.837,105.936 148,116.5C 153.357,129.608 150.191,140.108 138.5,148C 154.361,157.361 157.861,170.194 149,186.5C 135.199,200.86 119.699,203.027 102.5,193C 96.7592,188.76 92.7592,183.26 90.5,176.5C 94.2566,173.847 98.4233,171.847 103,170.5C 105.34,174.857 108.507,178.69 112.5,182C 120.545,185.905 128.045,185.072 135,179.5C 141.375,167.482 137.875,159.649 124.5,156C 120.514,155.501 116.514,155.334 112.5,155.5C 112.5,150.833 112.5,146.167 112.5,141.5C 118.732,142.061 124.732,141.228 130.5,139C 138.334,129.507 136.668,122.173 125.5,117C 120.889,115.993 116.555,116.66 112.5,119C 109.875,121.772 107.375,124.606 105,127.5C 101.316,125.829 97.6494,124.163 94,122.5C 93.7434,119.983 94.4101,117.65 96,115.5C 98.8333,112.667 101.667,109.833 104.5,107C 108.053,104.879 111.72,103.379 115.5,102.5 Z"/></g>
<g><path style="opacity:1" fill="#4184f4" d="M 201.5,105.5 C 201.5,135.833 201.5,166.167 201.5,196.5C 196.833,196.5 192.167,196.5 187.5,196.5C 187.833,172.824 187.5,149.157 186.5,125.5C 185.893,125.624 185.56,125.957 185.5,126.5C 181.021,129.243 176.688,132.243 172.5,135.5C 169.601,132.048 166.934,128.382 164.5,124.5C 172.64,118.86 180.64,113.027 188.5,107C 192.7,105.633 197.033,105.133 201.5,105.5 Z"/></g>
<g><path style="opacity:1" fill="#aac7fa" d="M 201.5,105.5 C 202.498,135.995 202.831,166.662 202.5,197.5C 197.167,197.5 191.833,197.5 186.5,197.5C 186.831,173.661 186.498,149.994 185.5,126.5C 185.56,125.957 185.893,125.624 186.5,125.5C 187.5,149.157 187.833,172.824 187.5,196.5C 192.167,196.5 196.833,196.5 201.5,196.5C 201.5,166.167 201.5,135.833 201.5,105.5 Z"/></g>
<g><path style="opacity:1" fill="#e5f0da" d="M 227.5,71.5 C 227.833,71.5 228.167,71.5 228.5,71.5C 228.5,123.833 228.5,176.167 228.5,228.5C 176.167,228.5 123.833,228.5 71.5,228.5C 71.5,228.167 71.5,227.833 71.5,227.5C 123.5,227.5 175.5,227.5 227.5,227.5C 227.5,175.5 227.5,123.5 227.5,71.5 Z"/></g>
<g><path style="opacity:1" fill="#188038" d="M -0.5,228.5 C 23.1667,228.5 46.8333,228.5 70.5,228.5C 70.5,252.167 70.5,275.833 70.5,299.5C 52.1667,299.5 33.8333,299.5 15.5,299.5C 7.83333,296.5 2.5,291.167 -0.5,283.5C -0.5,265.167 -0.5,246.833 -0.5,228.5 Z"/></g>
<g><path style="opacity:1" fill="#34a853" d="M 70.5,228.5 C 70.8333,228.5 71.1667,228.5 71.5,228.5C 123.833,228.5 176.167,228.5 228.5,228.5C 228.5,252.167 228.5,275.833 228.5,299.5C 175.833,299.5 123.167,299.5 70.5,299.5C 70.5,275.833 70.5,252.167 70.5,228.5 Z"/></g>
<g><path style="opacity:1" fill="#ea4335" d="M 228.5,228.5 C 252.167,228.5 275.833,228.5 299.5,228.5C 299.5,228.833 299.5,229.167 299.5,229.5C 276.5,253.167 253.167,276.5 229.5,299.5C 229.167,299.5 228.833,299.5 228.5,299.5C 228.5,275.833 228.5,252.167 228.5,228.5 Z"/></g>
</svg>
