<?xml version="1.0" encoding="UTF-8"?>
<!DOCTYPE svg PUBLIC "-//W3C//DTD SVG 1.1//EN" "http://www.w3.org/Graphics/SVG/1.1/DTD/svg11.dtd">
<svg xmlns="http://www.w3.org/2000/svg" version="1.1" width="353px" height="353px" style="shape-rendering:geometricPrecision; text-rendering:geometricPrecision; image-rendering:optimizeQuality; fill-rule:evenodd; clip-rule:evenodd" xmlns:xlink="http://www.w3.org/1999/xlink">
<g><path style="opacity:1" fill="#0b0b0b" d="M 42.5,-0.5 C 111.167,-0.5 179.833,-0.5 248.5,-0.5C 255.688,1.01864 260.355,5.35197 262.5,12.5C 262.5,16.1667 262.5,19.8333 262.5,23.5C 263.833,23.5 265.167,23.5 266.5,23.5C 284.451,26.3037 298.784,34.9704 309.5,49.5C 309.427,51.0269 310.094,52.0269 311.5,52.5C 311.427,54.0269 312.094,55.0269 313.5,55.5C 330.378,88.6015 325.044,117.768 297.5,143C 288.535,149.649 278.535,153.816 267.5,155.5C 265.833,155.5 264.167,155.5 262.5,155.5C 262.5,216.833 262.5,278.167 262.5,339.5C 260.355,346.648 255.688,350.981 248.5,352.5C 179.833,352.5 111.167,352.5 42.5,352.5C 36.1512,351.337 31.6512,347.67 29,341.5C 28.3333,231.167 28.3333,120.833 29,10.5C 31.6157,4.37235 36.1157,0.705683 42.5,-0.5 Z"/></g>
<g><path style="opacity:1" fill="#fdfdfd" d="M 86.5,15.5 C 124.167,15.5 161.833,15.5 199.5,15.5C 215.325,16.4964 231.325,16.8297 247.5,16.5C 247.815,19.2108 247.148,21.5441 245.5,23.5C 219.852,27.9692 202.019,42.3026 192,66.5C 182.607,101.153 192.774,128.32 222.5,148C 229.961,152.363 237.961,154.863 246.5,155.5C 247.49,180.092 247.823,204.759 247.5,229.5C 247.5,265.167 247.5,300.833 247.5,336.5C 179.5,336.5 111.5,336.5 43.5,336.5C 43.5,283.833 43.5,231.167 43.5,178.5C 44.499,124.336 44.8323,70.0026 44.5,15.5C 58.5,15.5 72.5,15.5 86.5,15.5 Z"/></g>
<g><path style="opacity:1" fill="#9c9c9c" d="M 199.5,15.5 C 215.833,15.5 232.167,15.5 248.5,15.5C 248.5,18.1667 248.5,20.8333 248.5,23.5C 247.5,23.5 246.5,23.5 245.5,23.5C 247.148,21.5441 247.815,19.2108 247.5,16.5C 231.325,16.8297 215.325,16.4964 199.5,15.5 Z"/></g>
<g><path style="opacity:1" fill="#9b9b9b" d="M 262.5,12.5 C 263.479,15.6248 263.813,18.9581 263.5,22.5C 264.791,22.2627 265.791,22.596 266.5,23.5C 265.167,23.5 263.833,23.5 262.5,23.5C 262.5,19.8333 262.5,16.1667 262.5,12.5 Z"/></g>
<g><path style="opacity:1" fill="#000000" d="M 60.5,33.5 C 89.8352,33.3334 119.169,33.5 148.5,34C 152.828,36.8897 153.661,40.7231 151,45.5C 150.25,46.1258 149.416,46.6258 148.5,47C 119.167,47.6667 89.8333,47.6667 60.5,47C 56.7885,44.487 55.6218,40.987 57,36.5C 58.1451,35.3636 59.3117,34.3636 60.5,33.5 Z"/></g>
<g><path style="opacity:1" fill="#fbfbfb" d="M 243.5,37.5 C 277.625,33.9601 299.125,48.6268 308,81.5C 309.458,114.767 293.958,134.934 261.5,142C 231.706,142.87 212.539,129.037 204,100.5C 200.712,68.9934 213.878,47.9934 243.5,37.5 Z"/></g>
<g><path style="opacity:1" fill="#717171" d="M 86.5,15.5 C 72.5,15.5 58.5,15.5 44.5,15.5C 44.8323,70.0026 44.499,124.336 43.5,178.5C 43.5,123.833 43.5,69.1667 43.5,14.5C 58.0097,14.1707 72.3431,14.5041 86.5,15.5 Z"/></g>
<g><path style="opacity:1" fill="#777777" d="M 309.5,49.5 C 310.906,49.9731 311.573,50.9731 311.5,52.5C 310.094,52.0269 309.427,51.0269 309.5,49.5 Z"/></g>
<g><path style="opacity:1" fill="#848484" d="M 311.5,52.5 C 312.906,52.9731 313.573,53.9731 313.5,55.5C 312.094,55.0269 311.427,54.0269 311.5,52.5 Z"/></g>
<g><path style="opacity:1" fill="#060606" d="M 281.5,56.5 C 282.93,56.4208 284.264,56.7542 285.5,57.5C 286.474,59.7427 286.808,62.076 286.5,64.5C 288.857,64.3367 291.19,64.5034 293.5,65C 294.833,67 294.833,69 293.5,71C 291.19,71.4966 288.857,71.6633 286.5,71.5C 286.663,73.8568 286.497,76.1902 286,78.5C 284,79.8333 282,79.8333 280,78.5C 279.503,76.1902 279.337,73.8568 279.5,71.5C 277.143,71.6633 274.81,71.4966 272.5,71C 271.195,65.4756 273.528,63.3089 279.5,64.5C 279.107,61.4867 279.774,58.8201 281.5,56.5 Z"/></g>
<g><path style="opacity:1" fill="#070707" d="M 253.5,62.5 C 258.238,62.3968 261.072,64.7302 262,69.5C 266.47,82.5761 271.136,95.5761 276,108.5C 277.359,114.343 275.192,116.843 269.5,116C 266.625,111.545 264.625,106.712 263.5,101.5C 258.489,101.334 253.489,101.501 248.5,102C 246.423,106.822 244.089,111.488 241.5,116C 238.975,116.896 236.808,116.396 235,114.5C 234.599,110.684 235.266,107.017 237,103.5C 241.667,90.8333 246.333,78.1667 251,65.5C 252.045,64.6266 252.878,63.6266 253.5,62.5 Z"/></g>
<g><path style="opacity:1" fill="#e7e7e7" d="M 258.5,90.5 C 256.5,91.8333 254.5,91.8333 252.5,90.5C 254.5,79.8333 256.5,79.8333 258.5,90.5 Z"/></g>
<g><path style="opacity:1" fill="#808080" d="M 252.5,90.5 C 254.5,91.8333 256.5,91.8333 258.5,90.5C 259.043,90.56 259.376,90.8933 259.5,91.5C 256.833,92.8333 254.167,92.8333 251.5,91.5C 251.624,90.8933 251.957,90.56 252.5,90.5 Z"/></g>
<g><path style="opacity:1" fill="#000000" d="M 59.5,96.5 C 89.1685,96.3334 118.835,96.5 148.5,97C 152.828,99.8897 153.661,103.723 151,108.5C 149.933,109.191 148.766,109.691 147.5,110C 118.5,110.667 89.5,110.667 60.5,110C 56.7885,107.487 55.6218,103.987 57,99.5C 58.045,98.6266 58.8783,97.6266 59.5,96.5 Z"/></g>
<g><path style="opacity:1" fill="#000000" d="M 60.5,142.5 C 105.501,142.333 150.501,142.5 195.5,143C 199.696,145.981 200.529,149.814 198,154.5C 197.25,155.126 196.416,155.626 195.5,156C 150.167,156.667 104.833,156.667 59.5,156C 56.6061,153.091 55.7728,149.591 57,145.5C 58.1451,144.364 59.3117,143.364 60.5,142.5 Z"/></g>
<g><path style="opacity:1" fill="#828282" d="M 267.5,155.5 C 266.432,156.434 265.099,156.768 263.5,156.5C 263.832,217.669 263.499,278.669 262.5,339.5C 262.5,278.167 262.5,216.833 262.5,155.5C 264.167,155.5 265.833,155.5 267.5,155.5 Z"/></g>
<g><path style="opacity:1" fill="#0a0a0a" d="M 60.5,188.5 C 105.168,188.333 149.835,188.5 194.5,189C 199.623,191.506 200.789,195.339 198,200.5C 196.581,201.46 195.081,202.293 193.5,203C 149.5,203.667 105.5,203.667 61.5,203C 56.3106,200.087 55.1439,195.92 58,190.5C 58.9947,189.934 59.828,189.267 60.5,188.5 Z"/></g>
<g><path style="opacity:1" fill="#8a8a8a" d="M 246.5,155.5 C 247.832,167.481 248.499,179.815 248.5,192.5C 248.5,205.005 248.167,217.338 247.5,229.5C 247.823,204.759 247.49,180.092 246.5,155.5 Z"/></g>
<g><path style="opacity:1" fill="#080808" d="M 60.5,234.5 C 104.835,234.333 149.168,234.5 193.5,235C 199.532,236.953 201.032,240.787 198,246.5C 196.829,247.893 195.329,248.727 193.5,249C 149.5,249.667 105.5,249.667 61.5,249C 53.9004,244.692 53.5671,239.859 60.5,234.5 Z"/></g>
<g><path style="opacity:1" fill="#080808" d="M 61.5,280.5 C 105.501,280.333 149.501,280.5 193.5,281C 199.292,283.09 200.792,286.924 198,292.5C 196.829,293.893 195.329,294.727 193.5,295C 149.167,295.667 104.833,295.667 60.5,295C 53.7783,289.669 54.1116,284.836 61.5,280.5 Z"/></g>
</svg>
