<?xml version="1.0" encoding="UTF-8"?>
<!DOCTYPE svg PUBLIC "-//W3C//DTD SVG 1.1//EN" "http://www.w3.org/Graphics/SVG/1.1/DTD/svg11.dtd">
<svg xmlns="http://www.w3.org/2000/svg" version="1.1" width="151px" height="150px" style="shape-rendering:geometricPrecision; text-rendering:geometricPrecision; image-rendering:optimizeQuality; fill-rule:evenodd; clip-rule:evenodd" xmlns:xlink="http://www.w3.org/1999/xlink">
<g><path style="opacity:0.718" fill="#0c0c0c" d="M 105.5,-0.5 C 106.833,-0.5 108.167,-0.5 109.5,-0.5C 101.511,12.1385 93.5108,24.8052 85.5,37.5C 96.1366,34.2144 106.803,30.2144 117.5,25.5C 118.583,26.365 118.749,27.365 118,28.5C 109.708,41.5828 101.541,54.7495 93.5,68C 102.62,64.7822 111.62,60.9489 120.5,56.5C 120.833,56.8333 121.167,57.1667 121.5,57.5C 106.543,82.5845 91.2094,107.418 75.5,132C 64.3949,137.636 53.2282,143.136 42,148.5C 40.4574,147.423 40.4574,146.089 42,144.5C 49.5,132.167 57,119.833 64.5,107.5C 64.1667,107.167 63.8333,106.833 63.5,106.5C 52.1667,111.833 40.8333,117.167 29.5,122.5C 29.1667,122.167 28.8333,121.833 28.5,121.5C 37.8333,106.167 47.1667,90.8333 56.5,75.5C 49.1588,75.8986 41.8255,77.232 34.5,79.5C 33.4173,78.635 33.2506,77.635 34,76.5C 47.0838,56.0011 59.9172,35.3345 72.5,14.5C 83.6515,9.67877 94.6515,4.67877 105.5,-0.5 Z"/></g>
<g><path style="opacity:1" fill="#f8f1f1" d="M 100.5,4.5 C 102.028,4.51731 102.528,5.18398 102,6.5C 93.756,19.0191 86.0893,31.6857 79,44.5C 90.3162,39.2482 101.816,34.7482 113.5,31C 104.167,45.6667 94.8333,60.3333 85.5,75C 95.5,71 105.5,67 115.5,63C 102.208,84.4165 89.0412,105.917 76,127.5C 66.6548,133.341 56.9882,138.674 47,143.5C 54.5402,128.608 63.0402,114.108 72.5,100C 59.6766,104.824 47.1766,110.658 35,117.5C 43.3888,101.889 52.5554,86.5557 62.5,71.5C 62,71.1667 61.5,70.8333 61,70.5C 53.7827,72.0076 46.616,73.6743 39.5,75.5C 39.1667,75.1667 38.8333,74.8333 38.5,74.5C 50.5,55.1667 62.5,35.8333 74.5,16.5C 83.2265,12.4677 91.8932,8.46769 100.5,4.5 Z"/></g>
<g><path style="opacity:1" fill="#f91a1e" d="M 86.5,15.5 C 87.3764,15.3691 88.0431,15.7025 88.5,16.5C 81.0838,29.0012 73.4171,41.3345 65.5,53.5C 67.5549,55.5547 69.8883,57.2213 72.5,58.5C 76.8322,53.0276 82.1655,49.6943 88.5,48.5C 77.0828,66.3323 65.9161,84.3323 55,102.5C 50.8585,105.656 46.3585,107.823 41.5,109C 51.3406,94.3194 60.674,79.3194 69.5,64C 68.1712,61.4911 66.1712,59.6578 63.5,58.5C 59.9723,64.7631 54.639,68.2631 47.5,69C 57.6981,52.9658 67.6981,36.7991 77.5,20.5C 80.433,18.5376 83.433,16.8709 86.5,15.5 Z"/></g>
<g><path style="opacity:1" fill="#f91c1f" d="M 100.5,41.5 C 101.552,41.3505 102.552,41.5172 103.5,42C 94.9691,55.0331 86.6358,68.1998 78.5,81.5C 80.5313,83.5224 82.8646,85.1891 85.5,86.5C 87.6596,84.1687 89.6596,81.6687 91.5,79C 94.9738,77.5814 98.3071,76.248 101.5,75C 90.7904,91.5827 80.457,108.416 70.5,125.5C 66.5834,127.708 62.75,130.041 59,132.5C 66.1918,118.59 74.3585,105.09 83.5,92C 80.9708,89.9715 78.3041,88.1381 75.5,86.5C 73.0038,89.8411 70.6705,93.3411 68.5,97C 65.6714,98.2467 63.0048,99.7467 60.5,101.5C 60.1667,101.167 59.8333,100.833 59.5,100.5C 70.6667,82.1667 81.8333,63.8333 93,45.5C 95.7685,44.5343 98.2685,43.201 100.5,41.5 Z"/></g>
</svg>
