<?xml version="1.0" encoding="UTF-8"?>
<!DOCTYPE svg PUBLIC "-//W3C//DTD SVG 1.1//EN" "http://www.w3.org/Graphics/SVG/1.1/DTD/svg11.dtd">
<svg xmlns="http://www.w3.org/2000/svg" version="1.1" width="48px" height="48px" style="shape-rendering:geometricPrecision; text-rendering:geometricPrecision; image-rendering:optimizeQuality; fill-rule:evenodd; clip-rule:evenodd" xmlns:xlink="http://www.w3.org/1999/xlink">
<g><path style="opacity:1" fill="#fefffe" d="M -0.5,-0.5 C 15.5,-0.5 31.5,-0.5 47.5,-0.5C 47.5,15.5 47.5,31.5 47.5,47.5C 31.5,47.5 15.5,47.5 -0.5,47.5C -0.5,31.5 -0.5,15.5 -0.5,-0.5 Z"/></g>
<g><path style="opacity:1" fill="#1c377a" d="M 1.5,12.5 C 4.5,12.5 7.5,12.5 10.5,12.5C 10.5,15.1667 10.5,17.8333 10.5,20.5C 11.5,20.5 12.5,20.5 13.5,20.5C 13.5,17.8333 13.5,15.1667 13.5,12.5C 16.1667,12.5 18.8333,12.5 21.5,12.5C 21.5,19.8333 21.5,27.1667 21.5,34.5C 18.8333,34.5 16.1667,34.5 13.5,34.5C 13.5,31.8333 13.5,29.1667 13.5,26.5C 12.5,26.5 11.5,26.5 10.5,26.5C 10.5,29.1667 10.5,31.8333 10.5,34.5C 7.5,34.5 4.5,34.5 1.5,34.5C 1.5,27.1667 1.5,19.8333 1.5,12.5 Z"/></g>
<g><path style="opacity:1" fill="#1c377a" d="M 24.5,12.5 C 31.5,12.5 38.5,12.5 45.5,12.5C 45.5,14.5 45.5,16.5 45.5,18.5C 41.8333,18.5 38.1667,18.5 34.5,18.5C 34.5,21.8333 34.5,25.1667 34.5,28.5C 38.1667,28.5 41.8333,28.5 45.5,28.5C 45.5,30.5 45.5,32.5 45.5,34.5C 38.5,34.5 31.5,34.5 24.5,34.5C 24.5,27.1667 24.5,19.8333 24.5,12.5 Z"/></g>
<g><path style="opacity:1" fill="#82a6ff" d="M 2.5,13.5 C 4.83333,13.5 7.16667,13.5 9.5,13.5C 9.5,16.1667 9.5,18.8333 9.5,21.5C 11.1667,21.5 12.8333,21.5 14.5,21.5C 14.5,18.8333 14.5,16.1667 14.5,13.5C 16.5,13.5 18.5,13.5 20.5,13.5C 20.5,20.1667 20.5,26.8333 20.5,33.5C 18.5,33.5 16.5,33.5 14.5,33.5C 14.5,30.8333 14.5,28.1667 14.5,25.5C 12.8333,25.5 11.1667,25.5 9.5,25.5C 9.5,28.1667 9.5,30.8333 9.5,33.5C 7.16667,33.5 4.83333,33.5 2.5,33.5C 2.5,26.8333 2.5,20.1667 2.5,13.5 Z"/></g>
<g><path style="opacity:1" fill="#82a6ff" d="M 25.5,13.5 C 31.8333,13.5 38.1667,13.5 44.5,13.5C 44.5,14.8333 44.5,16.1667 44.5,17.5C 40.8333,17.5 37.1667,17.5 33.5,17.5C 33.5,21.5 33.5,25.5 33.5,29.5C 37.1667,29.5 40.8333,29.5 44.5,29.5C 44.5,30.8333 44.5,32.1667 44.5,33.5C 38.1667,33.5 31.8333,33.5 25.5,33.5C 25.5,26.8333 25.5,20.1667 25.5,13.5 Z"/></g>
</svg>
