<?xml version="1.0" encoding="UTF-8"?>
<!DOCTYPE svg PUBLIC "-//W3C//DTD SVG 1.1//EN" "http://www.w3.org/Graphics/SVG/1.1/DTD/svg11.dtd">
<svg xmlns="http://www.w3.org/2000/svg" version="1.1" width="180px" height="180px" style="shape-rendering:geometricPrecision; text-rendering:geometricPrecision; image-rendering:optimizeQuality; fill-rule:evenodd; clip-rule:evenodd" xmlns:xlink="http://www.w3.org/1999/xlink">
<g><path style="opacity:1" fill="#000000" d="M -0.5,-0.5 C 59.5,-0.5 119.5,-0.5 179.5,-0.5C 179.5,59.5 179.5,119.5 179.5,179.5C 119.5,179.5 59.5,179.5 -0.5,179.5C -0.5,119.5 -0.5,59.5 -0.5,-0.5 Z"/></g>
<g><path style="opacity:1" fill="#eeeeee" d="M 36.5,58.5 C 39.8333,58.5 43.1667,58.5 46.5,58.5C 46.5,66.8333 46.5,75.1667 46.5,83.5C 50.5,83.5 54.5,83.5 58.5,83.5C 58.5,75.1667 58.5,66.8333 58.5,58.5C 61.8333,58.5 65.1667,58.5 68.5,58.5C 68.5,79.1667 68.5,99.8333 68.5,120.5C 65.1667,120.5 61.8333,120.5 58.5,120.5C 58.5,111.167 58.5,101.833 58.5,92.5C 54.5,92.5 50.5,92.5 46.5,92.5C 46.5,101.833 46.5,111.167 46.5,120.5C 43.1667,120.5 39.8333,120.5 36.5,120.5C 36.5,99.8333 36.5,79.1667 36.5,58.5 Z"/></g>
<g><path style="opacity:1" fill="#f6f6f6" d="M 104.5,66.5 C 100.833,66.5 97.1667,66.5 93.5,66.5C 93.5,84.5 93.5,102.5 93.5,120.5C 90.5,120.5 87.5,120.5 84.5,120.5C 84.5,102.5 84.5,84.5 84.5,66.5C 81.1667,66.5 77.8333,66.5 74.5,66.5C 74.5,63.8333 74.5,61.1667 74.5,58.5C 84.5,58.5 94.5,58.5 104.5,58.5C 104.5,61.1667 104.5,63.8333 104.5,66.5 Z"/></g>
<g><path style="opacity:1" fill="#fbfbfb" d="M 113.5,58.5 C 122.173,58.3336 130.84,58.5002 139.5,59C 140,59.5 140.5,60 141,60.5C 141.499,66.1569 141.666,71.8236 141.5,77.5C 138.5,77.5 135.5,77.5 132.5,77.5C 132.5,73.8333 132.5,70.1667 132.5,66.5C 128.5,66.5 124.5,66.5 120.5,66.5C 120.5,81.8333 120.5,97.1667 120.5,112.5C 124.5,112.5 128.5,112.5 132.5,112.5C 132.5,106.833 132.5,101.167 132.5,95.5C 130.167,95.5 127.833,95.5 125.5,95.5C 125.5,92.8333 125.5,90.1667 125.5,87.5C 130.833,87.5 136.167,87.5 141.5,87.5C 141.666,97.8387 141.5,108.172 141,118.5C 140.5,119 140,119.5 139.5,120C 130.833,120.667 122.167,120.667 113.5,120C 113,119.5 112.5,119 112,118.5C 111.333,99.1667 111.333,79.8333 112,60.5C 112.717,59.9558 113.217,59.2891 113.5,58.5 Z"/></g>
<g><path style="opacity:1" fill="#818181" d="M 104.5,66.5 C 101.375,67.4794 98.0419,67.8128 94.5,67.5C 94.8301,85.3412 94.4967,103.008 93.5,120.5C 93.5,102.5 93.5,84.5 93.5,66.5C 97.1667,66.5 100.833,66.5 104.5,66.5 Z"/></g>
</svg>
