<?xml version="1.0" encoding="UTF-8"?>
<!DOCTYPE svg PUBLIC "-//W3C//DTD SVG 1.1//EN" "http://www.w3.org/Graphics/SVG/1.1/DTD/svg11.dtd">
<svg xmlns="http://www.w3.org/2000/svg" version="1.1" width="800px" height="800px" style="shape-rendering:geometricPrecision; text-rendering:geometricPrecision; image-rendering:optimizeQuality; fill-rule:evenodd; clip-rule:evenodd" xmlns:xlink="http://www.w3.org/1999/xlink">
<g><path style="opacity:1" fill="#0a3761" d="M -0.5,-0.5 C 266.167,-0.5 532.833,-0.5 799.5,-0.5C 799.5,266.167 799.5,532.833 799.5,799.5C 532.833,799.5 266.167,799.5 -0.5,799.5C -0.5,532.833 -0.5,266.167 -0.5,-0.5 Z"/></g>
<g><path style="opacity:1" fill="#fbfcfc" d="M 87.5,304.5 C 98.5,304.5 109.5,304.5 120.5,304.5C 120.5,313.167 120.5,321.833 120.5,330.5C 109.5,330.5 98.5,330.5 87.5,330.5C 87.5,321.833 87.5,313.167 87.5,304.5 Z"/></g>
<g><path style="opacity:1" fill="#fdfdfd" d="M 259.5,305.5 C 259.5,347.167 259.5,388.833 259.5,430.5C 249.5,430.5 239.5,430.5 229.5,430.5C 229.666,425.821 229.499,421.155 229,416.5C 223.559,425.97 215.392,430.97 204.5,431.5C 191.815,431.655 179.149,431.322 166.5,430.5C 152.976,428.674 144.143,421.341 140,408.5C 139.333,392.5 139.333,376.5 140,360.5C 142.633,350.531 148.8,343.697 158.5,340C 175.696,336.198 193.03,335.531 210.5,338C 214.538,338.899 218.205,340.566 221.5,343C 223.464,344.451 224.797,346.284 225.5,348.5C 225.116,350.665 225.783,352.332 227.5,353.5C 228.499,337.514 228.833,321.514 228.5,305.5C 238.833,305.5 249.167,305.5 259.5,305.5 Z"/></g>
<g><path style="opacity:1" fill="#fefffe" d="M 539.5,305.5 C 549.833,305.5 560.167,305.5 570.5,305.5C 570.5,347.5 570.5,389.5 570.5,431.5C 560.167,431.5 549.833,431.5 539.5,431.5C 539.5,389.5 539.5,347.5 539.5,305.5 Z"/></g>
<g><path style="opacity:1" fill="#cdd7df" d="M 259.5,304.5 C 259.5,304.833 259.5,305.167 259.5,305.5C 249.167,305.5 238.833,305.5 228.5,305.5C 228.833,321.514 228.499,337.514 227.5,353.5C 225.783,352.332 225.116,350.665 225.5,348.5C 226.222,348.918 226.722,349.584 227,350.5C 227.5,335.17 227.667,319.837 227.5,304.5C 238.167,304.5 248.833,304.5 259.5,304.5 Z"/></g>
<g><path style="opacity:1" fill="#c7d1db" d="M 539.5,305.5 C 549.987,304.506 560.654,304.172 571.5,304.5C 571.5,347.167 571.5,389.833 571.5,432.5C 560.654,432.828 549.987,432.494 539.5,431.5C 549.833,431.5 560.167,431.5 570.5,431.5C 570.5,389.5 570.5,347.5 570.5,305.5C 560.167,305.5 549.833,305.5 539.5,305.5 Z"/></g>
<g><path style="opacity:1" fill="#fcfdfd" d="M 391.5,362.5 C 392.267,372.815 392.601,383.148 392.5,393.5C 365.167,393.5 337.833,393.5 310.5,393.5C 310.187,397.042 310.521,400.375 311.5,403.5C 312.855,406.855 315.189,409.189 318.5,410.5C 319.263,411.268 320.263,411.768 321.5,412C 333.008,412.826 344.341,412.659 355.5,411.5C 358.833,411.5 360.5,409.833 360.5,406.5C 371.5,406.5 382.5,406.5 393.5,406.5C 393.351,423.649 384.684,431.982 367.5,431.5C 346.484,431.736 325.484,431.403 304.5,430.5C 293.536,428.376 286.036,422.043 282,411.5C 280.528,407.277 279.528,402.943 279,398.5C 278.139,386.79 278.473,375.123 280,363.5C 283.733,348.433 293.233,339.599 308.5,337C 327.193,336.146 345.86,336.479 364.5,338C 376.153,340.008 384.653,346.175 390,356.5C 390.813,358.436 391.313,360.436 391.5,362.5 Z"/></g>
<g><path style="opacity:1" fill="#fcfcfd" d="M 517.5,354.5 C 517.523,356.927 518.023,359.26 519,361.5C 519.5,384.498 519.667,407.498 519.5,430.5C 509.167,430.5 498.833,430.5 488.5,430.5C 488.82,427.102 488.487,423.768 487.5,420.5C 486.702,420.957 486.369,421.624 486.5,422.5C 483.528,427.473 479.195,430.473 473.5,431.5C 457.497,431.667 441.497,431.5 425.5,431C 423.26,430.023 420.927,429.523 418.5,429.5C 411.199,426.691 407.033,421.357 406,413.5C 400.77,391.424 409.27,378.924 431.5,376C 446.167,375.333 460.833,375.333 475.5,376C 479.292,376.876 482.959,378.042 486.5,379.5C 486.56,380.043 486.893,380.376 487.5,380.5C 488.814,375.348 488.814,370.348 487.5,365.5C 486.191,360.362 482.858,357.529 477.5,357C 466.167,356.333 454.833,356.333 443.5,357C 439.874,357.278 437.874,359.112 437.5,362.5C 427.833,362.5 418.167,362.5 408.5,362.5C 408.045,351.793 412.712,344.293 422.5,340C 426.45,338.794 430.45,337.794 434.5,337C 455.876,336.057 477.209,336.391 498.5,338C 507.814,340.152 514.147,345.652 517.5,354.5 Z"/></g>
<g><path style="opacity:1" fill="#fcfcfd" d="M 589.5,403.5 C 589.238,389.471 589.571,375.471 590.5,361.5C 593.166,349.333 600.499,341.5 612.5,338C 635.45,336.375 658.45,336.042 681.5,337C 697.401,339.07 707.068,347.903 710.5,363.5C 711.833,377.167 711.833,390.833 710.5,404.5C 707.478,420.689 697.811,429.856 681.5,432C 658.45,432.958 635.45,432.625 612.5,431C 599.088,426.694 591.421,417.527 589.5,403.5 Z"/></g>
<g><path style="opacity:1" fill="#fcfcfd" d="M 87.5,344.5 C 98.5,344.5 109.5,344.5 120.5,344.5C 120.5,373.833 120.5,403.167 120.5,432.5C 109.5,432.5 98.5,432.5 87.5,432.5C 87.5,403.167 87.5,373.833 87.5,344.5 Z"/></g>
<g><path style="opacity:1" fill="#0e3862" d="M 361.5,365.5 C 361.5,368.5 361.5,371.5 361.5,374.5C 344.833,374.5 328.167,374.5 311.5,374.5C 311.5,371.5 311.5,368.5 311.5,365.5C 312.183,361.98 314.183,359.48 317.5,358C 323.756,356.897 330.089,356.397 336.5,356.5C 342.911,356.397 349.244,356.897 355.5,358C 358.817,359.48 360.817,361.98 361.5,365.5 Z"/></g>
<g><path style="opacity:1" fill="#94a8b9" d="M 214.5,362.5 C 202.469,362.251 190.469,362.584 178.5,363.5C 179.263,362.732 180.263,362.232 181.5,362C 192.674,361.174 203.674,361.341 214.5,362.5 Z"/></g>
<g><path style="opacity:1" fill="#95a9ba" d="M 665.5,362.5 C 653.136,362.248 640.803,362.582 628.5,363.5C 629.263,362.732 630.263,362.232 631.5,362C 643.008,361.174 654.341,361.341 665.5,362.5 Z"/></g>
<g><path style="opacity:1" fill="#0e3862" d="M 214.5,362.5 C 226.014,364.997 230.681,372.164 228.5,384C 229.538,391.109 227.872,397.442 223.5,403C 221.913,403.862 220.246,404.529 218.5,405C 205.557,406.589 192.557,406.922 179.5,406C 175.333,404.5 172.5,401.667 171,397.5C 170.333,388.5 170.333,379.5 171,370.5C 172.736,367.261 175.236,364.927 178.5,363.5C 190.469,362.584 202.469,362.251 214.5,362.5 Z"/></g>
<g><path style="opacity:1" fill="#0e3862" d="M 665.5,362.5 C 676.675,365.211 681.341,372.378 679.5,384C 681.31,393.618 677.977,400.618 669.5,405C 656.214,406.57 642.881,406.903 629.5,406C 626.063,404.895 623.563,402.728 622,399.5C 620.413,389.908 620.08,380.242 621,370.5C 622.736,367.261 625.236,364.927 628.5,363.5C 640.803,362.582 653.136,362.248 665.5,362.5 Z"/></g>
<g><path style="opacity:1" fill="#acbbca" d="M 517.5,354.5 C 518.6,356.277 519.434,358.277 520,360.5C 520.5,384.164 520.667,407.831 520.5,431.5C 509.5,431.5 498.5,431.5 487.5,431.5C 487.81,428.287 487.477,425.287 486.5,422.5C 486.369,421.624 486.702,420.957 487.5,420.5C 488.487,423.768 488.82,427.102 488.5,430.5C 498.833,430.5 509.167,430.5 519.5,430.5C 519.667,407.498 519.5,384.498 519,361.5C 518.023,359.26 517.523,356.927 517.5,354.5 Z"/></g>
<g><path style="opacity:1" fill="#416384" d="M 590.5,361.5 C 589.571,375.471 589.238,389.471 589.5,403.5C 588.34,390.673 588.173,377.673 589,364.5C 589.232,363.263 589.732,362.263 590.5,361.5 Z"/></g>
<g><path style="opacity:1" fill="#7d94ab" d="M 487.5,365.5 C 488.814,370.348 488.814,375.348 487.5,380.5C 486.893,380.376 486.56,380.043 486.5,379.5C 487.486,375.03 487.819,370.363 487.5,365.5 Z"/></g>
<g><path style="opacity:1" fill="#52718f" d="M 311.5,365.5 C 311.5,368.5 311.5,371.5 311.5,374.5C 328.167,374.5 344.833,374.5 361.5,374.5C 361.5,371.5 361.5,368.5 361.5,365.5C 362.479,368.625 362.813,371.958 362.5,375.5C 345.167,375.5 327.833,375.5 310.5,375.5C 310.187,371.958 310.521,368.625 311.5,365.5 Z"/></g>
<g><path style="opacity:1" fill="#123b64" d="M 443.5,390.5 C 456.561,390.078 469.561,390.578 482.5,392C 483.966,392.635 485.3,393.469 486.5,394.5C 487.662,399.131 487.828,403.798 487,408.5C 485.457,410.378 483.624,411.878 481.5,413C 469.167,413.667 456.833,413.667 444.5,413C 438.636,411.305 436.303,407.472 437.5,401.5C 437.667,399.167 437.833,396.833 438,394.5C 439.812,393.023 441.645,391.69 443.5,390.5 Z"/></g>
<g><path style="opacity:1" fill="#b9c5d1" d="M 391.5,362.5 C 392.309,364.292 392.809,366.292 393,368.5C 393.5,377.16 393.666,385.827 393.5,394.5C 366.167,394.5 338.833,394.5 311.5,394.5C 311.5,397.5 311.5,400.5 311.5,403.5C 310.521,400.375 310.187,397.042 310.5,393.5C 337.833,393.5 365.167,393.5 392.5,393.5C 392.601,383.148 392.267,372.815 391.5,362.5 Z"/></g>
<g><path style="opacity:1" fill="#5b7995" d="M 318.5,410.5 C 330.803,411.418 343.136,411.752 355.5,411.5C 344.341,412.659 333.008,412.826 321.5,412C 320.263,411.768 319.263,411.268 318.5,410.5 Z"/></g>
<g><path style="opacity:1" fill="#869bb0" d="M 259.5,304.5 C 260.499,346.663 260.832,388.997 260.5,431.5C 249.986,431.828 239.653,431.494 229.5,430.5C 239.5,430.5 249.5,430.5 259.5,430.5C 259.5,388.833 259.5,347.167 259.5,305.5C 259.5,305.167 259.5,304.833 259.5,304.5 Z"/></g>
<g><path style="opacity:1" fill="#92a6b9" d="M 166.5,430.5 C 179.149,431.322 191.815,431.655 204.5,431.5C 199.344,432.166 194.011,432.499 188.5,432.5C 180.932,432.71 173.599,432.044 166.5,430.5 Z"/></g>
<g><path style="opacity:1" fill="#9eafc0" d="M 304.5,430.5 C 325.484,431.403 346.484,431.736 367.5,431.5C 348.338,432.662 329.004,432.829 309.5,432C 307.618,431.802 305.952,431.302 304.5,430.5 Z"/></g>
<g><path style="opacity:1" fill="#98aabc" d="M 418.5,429.5 C 420.927,429.523 423.26,430.023 425.5,431C 441.497,431.5 457.497,431.667 473.5,431.5C 457.339,432.662 441.005,432.828 424.5,432C 422.277,431.434 420.277,430.6 418.5,429.5 Z"/></g>
<g><path style="opacity:1" fill="#bb591f" d="M 87.5,468.5 C 295.5,468.5 503.5,468.5 711.5,468.5C 711.5,477.5 711.5,486.5 711.5,495.5C 503.5,495.5 295.5,495.5 87.5,495.5C 87.5,486.5 87.5,477.5 87.5,468.5 Z"/></g>
<g><path style="opacity:1" fill="#fe6500" d="M 88.5,469.5 C 295.833,469.5 503.167,469.5 710.5,469.5C 710.5,477.833 710.5,486.167 710.5,494.5C 503.167,494.5 295.833,494.5 88.5,494.5C 88.5,486.167 88.5,477.833 88.5,469.5 Z"/></g>
</svg>
