<?xml version="1.0" encoding="UTF-8"?>
<!DOCTYPE svg PUBLIC "-//W3C//DTD SVG 1.1//EN" "http://www.w3.org/Graphics/SVG/1.1/DTD/svg11.dtd">
<svg xmlns="http://www.w3.org/2000/svg" version="1.1" width="300px" height="300px" style="shape-rendering:geometricPrecision; text-rendering:geometricPrecision; image-rendering:optimizeQuality; fill-rule:evenodd; clip-rule:evenodd" xmlns:xlink="http://www.w3.org/1999/xlink">
<g><path style="opacity:1" fill="#983cab" d="M 157.5,-0.5 C 166.5,-0.5 175.5,-0.5 184.5,-0.5C 184.5,0.5 184.5,1.5 184.5,2.5C 180.786,2.57135 177.453,3.73802 174.5,6C 172.19,6.49665 169.857,6.66331 167.5,6.5C 167.5,7.5 167.5,8.5 167.5,9.5C 161.824,9.33391 156.157,9.50058 150.5,10C 144.232,13.1156 137.565,14.2823 130.5,13.5C 130.5,14.5 130.5,15.5 130.5,16.5C 126.833,16.5 123.167,16.5 119.5,16.5C 118.5,16.5 117.5,16.5 116.5,16.5C 116.5,15.5 116.5,14.5 116.5,13.5C 115.5,13.5 114.5,13.5 113.5,13.5C 113.5,14.5 113.5,15.5 113.5,16.5C 110.833,16.5 108.167,16.5 105.5,16.5C 105.5,15.5 105.5,14.5 105.5,13.5C 112.588,12.4455 119.588,11.1122 126.5,9.5C 126.5,8.5 126.5,7.5 126.5,6.5C 131.179,6.66582 135.845,6.49915 140.5,6C 145.977,3.9649 151.643,2.79823 157.5,2.5C 157.5,1.5 157.5,0.5 157.5,-0.5 Z"/></g>
<g><path style="opacity:1" fill="#a338ad" d="M 184.5,-0.5 C 195.167,-0.5 205.833,-0.5 216.5,-0.5C 228.639,0.595351 240.305,3.59535 251.5,8.5C 245.9,8.98468 240.566,10.318 235.5,12.5C 235.5,11.5 235.5,10.5 235.5,9.5C 234.5,9.5 233.5,9.5 232.5,9.5C 232.5,10.5 232.5,11.5 232.5,12.5C 229.119,12.4595 225.786,12.7929 222.5,13.5C 208.743,10.5271 194.743,9.52713 180.5,10.5C 176.215,9.70509 171.881,9.37176 167.5,9.5C 167.5,8.5 167.5,7.5 167.5,6.5C 169.857,6.66331 172.19,6.49665 174.5,6C 177.453,3.73802 180.786,2.57135 184.5,2.5C 184.5,1.5 184.5,0.5 184.5,-0.5 Z"/></g>
<g><path style="opacity:1" fill="#9f3aa6" d="M 167.5,9.5 C 171.881,9.37176 176.215,9.70509 180.5,10.5C 179.051,12.1644 177.051,12.9977 174.5,13C 169.845,13.4992 165.179,13.6658 160.5,13.5C 160.5,14.5 160.5,15.5 160.5,16.5C 156.167,16.5 151.833,16.5 147.5,16.5C 147.5,17.5 147.5,18.5 147.5,19.5C 141.848,20.0318 136.181,20.3651 130.5,20.5C 130.5,21.5 130.5,22.5 130.5,23.5C 122.5,23.5 114.5,23.5 106.5,23.5C 109.12,23.009 111.454,21.8423 113.5,20C 115.473,19.5045 117.473,19.3379 119.5,19.5C 119.5,18.5 119.5,17.5 119.5,16.5C 123.167,16.5 126.833,16.5 130.5,16.5C 130.5,15.5 130.5,14.5 130.5,13.5C 137.565,14.2823 144.232,13.1156 150.5,10C 156.157,9.50058 161.824,9.33391 167.5,9.5 Z"/></g>
<g><path style="opacity:1" fill="#923dab" d="M 129.5,-0.5 C 138.833,-0.5 148.167,-0.5 157.5,-0.5C 157.5,0.5 157.5,1.5 157.5,2.5C 151.643,2.79823 145.977,3.9649 140.5,6C 135.845,6.49915 131.179,6.66582 126.5,6.5C 126.5,7.5 126.5,8.5 126.5,9.5C 119.588,11.1122 112.588,12.4455 105.5,13.5C 105.5,14.5 105.5,15.5 105.5,16.5C 103.5,16.5 101.5,16.5 99.5,16.5C 99.5,17.5 99.5,18.5 99.5,19.5C 92.5036,19.8936 85.5036,20.2269 78.5,20.5C 78.5,21.5 78.5,22.5 78.5,23.5C 77.5,23.5 76.5,23.5 75.5,23.5C 75.5,24.5 75.5,25.5 75.5,26.5C 74.5,26.5 73.5,26.5 72.5,26.5C 72.5,25.5 72.5,24.5 72.5,23.5C 71.5,23.5 70.5,23.5 69.5,23.5C 66.8333,23.5 64.1667,23.5 61.5,23.5C 62.5676,22.5655 63.901,22.2322 65.5,22.5C 65.5,21.5 65.5,20.5 65.5,19.5C 67.8333,19.5 70.1667,19.5 72.5,19.5C 72.5,18.5 72.5,17.5 72.5,16.5C 76.8333,16.5 81.1667,16.5 85.5,16.5C 85.5,15.5 85.5,14.5 85.5,13.5C 92.5881,12.4455 99.5881,11.1122 106.5,9.5C 106.5,8.5 106.5,7.5 106.5,6.5C 109.833,6.5 113.167,6.5 116.5,6.5C 116.5,5.5 116.5,4.5 116.5,3.5C 120.842,3.26052 125.176,2.92719 129.5,2.5C 129.5,1.5 129.5,0.5 129.5,-0.5 Z"/></g>
<g><path style="opacity:1" fill="#8c3dab" d="M 90.5,-0.5 C 103.5,-0.5 116.5,-0.5 129.5,-0.5C 129.5,0.5 129.5,1.5 129.5,2.5C 125.176,2.92719 120.842,3.26052 116.5,3.5C 116.5,4.5 116.5,5.5 116.5,6.5C 113.167,6.5 109.833,6.5 106.5,6.5C 106.5,7.5 106.5,8.5 106.5,9.5C 99.5881,11.1122 92.5881,12.4455 85.5,13.5C 85.5,14.5 85.5,15.5 85.5,16.5C 81.1667,16.5 76.8333,16.5 72.5,16.5C 72.5,17.5 72.5,18.5 72.5,19.5C 70.1667,19.5 67.8333,19.5 65.5,19.5C 65.5,20.5 65.5,21.5 65.5,22.5C 63.901,22.2322 62.5676,22.5655 61.5,23.5C 58.5,23.5 55.5,23.5 52.5,23.5C 52.5,24.5 52.5,25.5 52.5,26.5C 50.1432,26.3367 47.8098,26.5034 45.5,27C 44.6921,28.7058 43.3588,29.5391 41.5,29.5C 41.5,30.8333 41.5,32.1667 41.5,33.5C 39.1667,33.5 36.8333,33.5 34.5,33.5C 34.5,34.5 34.5,35.5 34.5,36.5C 32.4727,36.3379 30.4727,36.5045 28.5,37C 27.6634,38.0113 27.33,39.1779 27.5,40.5C 24.5,40.5 21.5,40.5 18.5,40.5C 18.6495,41.552 18.4828,42.552 18,43.5C 13.6576,45.198 10.1576,47.8647 7.5,51.5C 9.21032,45.0759 12.2103,39.4093 16.5,34.5C 20.0991,33.6561 23.7657,33.3227 27.5,33.5C 27.5,32.5 27.5,31.5 27.5,30.5C 30.5,30.8333 31.8333,29.5 31.5,26.5C 33.5,26.5 35.5,26.5 37.5,26.5C 37.5,25.5 37.5,24.5 37.5,23.5C 38.8333,23.5 40.1667,23.5 41.5,23.5C 41.5,22.5 41.5,21.5 41.5,20.5C 43.5695,20.4486 45.4029,21.1153 47,22.5C 51.5868,20.4384 56.4202,19.4384 61.5,19.5C 61.8333,17.5 62.1667,15.5 62.5,13.5C 65.8094,12.3733 69.1427,12.3733 72.5,13.5C 72.5,12.5 72.5,11.5 72.5,10.5C 78.1209,9.64631 83.7876,9.31298 89.5,9.5C 89.5,8.5 89.5,7.5 89.5,6.5C 91.5273,6.66212 93.5273,6.49546 95.5,6C 95.9574,5.58605 96.2907,5.08605 96.5,4.5C 100.871,3.49054 105.204,2.32388 109.5,1C 102.987,0.827935 96.6534,0.327935 90.5,-0.5 Z"/></g>
<g><path style="opacity:0.992" fill="#993ba6" d="M 119.5,16.5 C 119.5,17.5 119.5,18.5 119.5,19.5C 117.473,19.3379 115.473,19.5045 113.5,20C 111.454,21.8423 109.12,23.009 106.5,23.5C 101.786,23.1734 97.1196,23.5067 92.5,24.5C 91.1335,25.84 89.8001,27.1733 88.5,28.5C 69.8578,28.0345 54.1911,34.3679 41.5,47.5C 41.5,46.8333 41.5,46.1667 41.5,45.5C 41.1788,43.9519 40.1788,43.2852 38.5,43.5C 38.5,42.5 38.5,41.5 38.5,40.5C 39.5,40.5 40.5,40.5 41.5,40.5C 41.5,39.5 41.5,38.5 41.5,37.5C 44.8067,36.9492 48.1401,36.6159 51.5,36.5C 51.5,35.5 51.5,34.5 51.5,33.5C 55.9634,32.7305 60.2968,31.3971 64.5,29.5C 65.8066,28.1845 67.3066,27.1845 69,26.5C 69.4828,25.552 69.6495,24.552 69.5,23.5C 70.5,23.5 71.5,23.5 72.5,23.5C 72.5,24.5 72.5,25.5 72.5,26.5C 73.5,26.5 74.5,26.5 75.5,26.5C 75.5,25.5 75.5,24.5 75.5,23.5C 76.5,23.5 77.5,23.5 78.5,23.5C 78.5,22.5 78.5,21.5 78.5,20.5C 85.5036,20.2269 92.5036,19.8936 99.5,19.5C 99.5,18.5 99.5,17.5 99.5,16.5C 101.5,16.5 103.5,16.5 105.5,16.5C 108.167,16.5 110.833,16.5 113.5,16.5C 113.5,15.5 113.5,14.5 113.5,13.5C 114.5,13.5 115.5,13.5 116.5,13.5C 116.5,14.5 116.5,15.5 116.5,16.5C 117.5,16.5 118.5,16.5 119.5,16.5 Z"/></g>
<g><path style="opacity:1" fill="#a538a5" d="M 222.5,13.5 C 215.5,13.5 208.5,13.5 201.5,13.5C 201.5,14.5 201.5,15.5 201.5,16.5C 194.833,16.5 188.167,16.5 181.5,16.5C 181.5,17.5 181.5,18.5 181.5,19.5C 178.15,19.335 174.817,19.5017 171.5,20C 171.002,21.1581 170.169,21.9915 169,22.5C 167.403,21.1153 165.57,20.4486 163.5,20.5C 163.5,21.5 163.5,22.5 163.5,23.5C 155.804,23.515 148.138,24.015 140.5,25C 143.833,25.3333 147.167,25.6667 150.5,26C 143.654,26.1717 136.987,26.6717 130.5,27.5C 116.464,27.2189 102.464,27.5522 88.5,28.5C 89.8001,27.1733 91.1335,25.84 92.5,24.5C 97.1196,23.5067 101.786,23.1734 106.5,23.5C 114.5,23.5 122.5,23.5 130.5,23.5C 130.5,22.5 130.5,21.5 130.5,20.5C 136.181,20.3651 141.848,20.0318 147.5,19.5C 147.5,18.5 147.5,17.5 147.5,16.5C 151.833,16.5 156.167,16.5 160.5,16.5C 160.5,15.5 160.5,14.5 160.5,13.5C 165.179,13.6658 169.845,13.4992 174.5,13C 177.051,12.9977 179.051,12.1644 180.5,10.5C 194.743,9.52713 208.743,10.5271 222.5,13.5 Z"/></g>
<g><path style="opacity:1" fill="#ab35a5" d="M 251.5,8.5 C 259.198,11.3428 265.865,15.6761 271.5,21.5C 267.108,19.6031 262.608,18.9364 258,19.5C 256.469,20.2173 255.136,21.2173 254,22.5C 252.629,21.4188 251.129,20.5855 249.5,20C 240.964,20.0531 232.464,19.8864 224,19.5C 220.769,20.201 217.936,21.5343 215.5,23.5C 207.5,23.5 199.5,23.5 191.5,23.5C 191.5,22.5 191.5,21.5 191.5,20.5C 188.121,22.5918 184.455,24.4252 180.5,26C 184.688,26.1762 188.688,26.6762 192.5,27.5C 171.833,27.5 151.167,27.5 130.5,27.5C 136.987,26.6717 143.654,26.1717 150.5,26C 147.167,25.6667 143.833,25.3333 140.5,25C 148.138,24.015 155.804,23.515 163.5,23.5C 163.5,22.5 163.5,21.5 163.5,20.5C 165.57,20.4486 167.403,21.1153 169,22.5C 170.169,21.9915 171.002,21.1581 171.5,20C 174.817,19.5017 178.15,19.335 181.5,19.5C 181.5,18.5 181.5,17.5 181.5,16.5C 188.167,16.5 194.833,16.5 201.5,16.5C 201.5,15.5 201.5,14.5 201.5,13.5C 208.5,13.5 215.5,13.5 222.5,13.5C 225.786,12.7929 229.119,12.4595 232.5,12.5C 232.5,11.5 232.5,10.5 232.5,9.5C 233.5,9.5 234.5,9.5 235.5,9.5C 235.5,10.5 235.5,11.5 235.5,12.5C 240.566,10.318 245.9,8.98468 251.5,8.5 Z"/></g>
<g><path style="opacity:1" fill="#b233a5" d="M 271.5,21.5 C 276.617,25.2781 280.617,29.9448 283.5,35.5C 276.74,33.6195 269.74,32.9529 262.5,33.5C 262.5,32.5 262.5,31.5 262.5,30.5C 260.5,30.5 258.5,30.5 256.5,30.5C 256.5,29.5 256.5,28.5 256.5,27.5C 254.167,27.5 251.833,27.5 249.5,27.5C 249.5,28.5 249.5,29.5 249.5,30.5C 248.167,30.5 246.833,30.5 245.5,30.5C 245.5,29.5 245.5,28.5 245.5,27.5C 239.855,26.8658 234.189,26.5324 228.5,26.5C 228.5,25.5 228.5,24.5 228.5,23.5C 225.167,23.5 221.833,23.5 218.5,23.5C 218.5,24.5 218.5,25.5 218.5,26.5C 217.5,26.5 216.5,26.5 215.5,26.5C 215.5,25.5 215.5,24.5 215.5,23.5C 217.936,21.5343 220.769,20.201 224,19.5C 232.464,19.8864 240.964,20.0531 249.5,20C 251.129,20.5855 252.629,21.4188 254,22.5C 255.136,21.2173 256.469,20.2173 258,19.5C 262.608,18.9364 267.108,19.6031 271.5,21.5 Z"/></g>
<g><path style="opacity:1" fill="#8540af" d="M 82.5,-0.5 C 85.1667,-0.5 87.8333,-0.5 90.5,-0.5C 96.6534,0.327935 102.987,0.827935 109.5,1C 105.204,2.32388 100.871,3.49054 96.5,4.5C 96.2907,5.08605 95.9574,5.58605 95.5,6C 93.5273,6.49546 91.5273,6.66212 89.5,6.5C 89.5,7.5 89.5,8.5 89.5,9.5C 83.7876,9.31298 78.1209,9.64631 72.5,10.5C 72.5,11.5 72.5,12.5 72.5,13.5C 69.1427,12.3733 65.8094,12.3733 62.5,13.5C 62.1667,15.5 61.8333,17.5 61.5,19.5C 56.4202,19.4384 51.5868,20.4384 47,22.5C 45.4029,21.1153 43.5695,20.4486 41.5,20.5C 41.5,21.5 41.5,22.5 41.5,23.5C 40.1667,23.5 38.8333,23.5 37.5,23.5C 37.5,24.5 37.5,25.5 37.5,26.5C 35.5,26.5 33.5,26.5 31.5,26.5C 31.8333,29.5 30.5,30.8333 27.5,30.5C 27.5,31.5 27.5,32.5 27.5,33.5C 23.7657,33.3227 20.0991,33.6561 16.5,34.5C 26.0866,20.3504 39.0866,10.5171 55.5,5C 64.5103,2.5034 73.5103,0.670069 82.5,-0.5 Z"/></g>
<g><path style="opacity:1" fill="#923aa6" d="M 61.5,23.5 C 64.1667,23.5 66.8333,23.5 69.5,23.5C 69.6495,24.552 69.4828,25.552 69,26.5C 67.3066,27.1845 65.8066,28.1845 64.5,29.5C 60.2968,31.3971 55.9634,32.7305 51.5,33.5C 51.5,34.5 51.5,35.5 51.5,36.5C 48.1401,36.6159 44.8067,36.9492 41.5,37.5C 41.5,38.5 41.5,39.5 41.5,40.5C 40.5,40.5 39.5,40.5 38.5,40.5C 38.5,41.5 38.5,42.5 38.5,43.5C 36.1667,43.5 33.8333,43.5 31.5,43.5C 31.5,44.5 31.5,45.5 31.5,46.5C 28.5,46.1667 27.1667,47.5 27.5,50.5C 24.1667,50.5 20.8333,50.5 17.5,50.5C 17.5,51.5 17.5,52.5 17.5,53.5C 15.4727,53.3379 13.4727,53.5045 11.5,54C 10.6634,55.0113 10.33,56.1779 10.5,57.5C 8.08854,57.1367 6.58854,58.1367 6,60.5C 5.72158,59.5842 5.22158,58.9175 4.5,58.5C 4.93482,55.8427 5.93482,53.5093 7.5,51.5C 10.1576,47.8647 13.6576,45.198 18,43.5C 18.4828,42.552 18.6495,41.552 18.5,40.5C 21.5,40.5 24.5,40.5 27.5,40.5C 27.33,39.1779 27.6634,38.0113 28.5,37C 30.4727,36.5045 32.4727,36.3379 34.5,36.5C 34.5,35.5 34.5,34.5 34.5,33.5C 36.8333,33.5 39.1667,33.5 41.5,33.5C 41.5,32.1667 41.5,30.8333 41.5,29.5C 43.3588,29.5391 44.6921,28.7058 45.5,27C 47.8098,26.5034 50.1432,26.3367 52.5,26.5C 52.5,25.5 52.5,24.5 52.5,23.5C 55.5,23.5 58.5,23.5 61.5,23.5 Z"/></g>
<g><path style="opacity:1" fill="#b732a2" d="M 215.5,23.5 C 215.5,24.5 215.5,25.5 215.5,26.5C 216.5,26.5 217.5,26.5 218.5,26.5C 218.5,25.5 218.5,24.5 218.5,23.5C 221.833,23.5 225.167,23.5 228.5,23.5C 228.5,24.5 228.5,25.5 228.5,26.5C 234.189,26.5324 239.855,26.8658 245.5,27.5C 245.5,28.5 245.5,29.5 245.5,30.5C 246.833,30.5 248.167,30.5 249.5,30.5C 249.5,29.5 249.5,28.5 249.5,27.5C 251.833,27.5 254.167,27.5 256.5,27.5C 256.5,28.5 256.5,29.5 256.5,30.5C 258.5,30.5 260.5,30.5 262.5,30.5C 262.5,31.5 262.5,32.5 262.5,33.5C 269.74,32.9529 276.74,33.6195 283.5,35.5C 288.401,41.3015 291.734,47.9682 293.5,55.5C 293.657,56.8734 293.49,58.2068 293,59.5C 292.22,56.4883 291.053,53.6549 289.5,51C 286.183,50.5017 282.85,50.335 279.5,50.5C 279.5,49.1667 279.5,47.8333 279.5,46.5C 278.5,46.5 277.5,46.5 276.5,46.5C 276.5,47.8333 276.5,49.1667 276.5,50.5C 275.5,50.5 274.5,50.5 273.5,50.5C 273.357,46.6105 271.524,45.6105 268,47.5C 264.745,46.7053 261.745,45.3719 259,43.5C 258.667,43.8333 258.333,44.1667 258,44.5C 255.981,41.2882 253.147,39.6216 249.5,39.5C 242.555,34.6976 234.888,31.5309 226.5,30C 215.227,28.3764 203.893,27.5431 192.5,27.5C 188.688,26.6762 184.688,26.1762 180.5,26C 184.455,24.4252 188.121,22.5918 191.5,20.5C 191.5,21.5 191.5,22.5 191.5,23.5C 199.5,23.5 207.5,23.5 215.5,23.5 Z"/></g>
<g><path style="opacity:1" fill="#bf319c" d="M 249.5,39.5 C 253.147,39.6216 255.981,41.2882 258,44.5C 258.333,44.1667 258.667,43.8333 259,43.5C 261.745,45.3719 264.745,46.7053 268,47.5C 271.524,45.6105 273.357,46.6105 273.5,50.5C 274.5,50.5 275.5,50.5 276.5,50.5C 276.5,49.1667 276.5,47.8333 276.5,46.5C 277.5,46.5 278.5,46.5 279.5,46.5C 279.5,47.8333 279.5,49.1667 279.5,50.5C 282.85,50.335 286.183,50.5017 289.5,51C 291.053,53.6549 292.22,56.4883 293,59.5C 293.49,58.2068 293.657,56.8734 293.5,55.5C 295.416,59.1629 296.416,63.1629 296.5,67.5C 296.663,69.8568 296.497,72.1902 296,74.5C 295.693,70.9532 294.86,67.6199 293.5,64.5C 290.167,64.5 286.833,64.5 283.5,64.5C 283.5,63.5 283.5,62.5 283.5,61.5C 281.167,61.5 278.833,61.5 276.5,61.5C 276.5,62.5 276.5,63.5 276.5,64.5C 273.258,64.4288 270.425,63.4288 268,61.5C 267.722,62.4158 267.222,63.0825 266.5,63.5C 263.275,53.6969 257.608,45.6969 249.5,39.5 Z"/></g>
<g><path style="opacity:1" fill="#99399f" d="M 38.5,43.5 C 40.1788,43.2852 41.1788,43.9519 41.5,45.5C 39.3894,47.631 37.0561,49.2977 34.5,50.5C 34.5,51.5 34.5,52.5 34.5,53.5C 33.5,53.5 32.5,53.5 31.5,53.5C 31.5,54.8333 31.5,56.1667 31.5,57.5C 29.1667,57.5 26.8333,57.5 24.5,57.5C 24.5,58.5 24.5,59.5 24.5,60.5C 22.1944,60.9926 19.861,61.3259 17.5,61.5C 17.5,62.5 17.5,63.5 17.5,64.5C 16.5,64.5 15.5,64.5 14.5,64.5C 14.5,65.5 14.5,66.5 14.5,67.5C 12.1667,67.5 9.83333,67.5 7.5,67.5C 7.5,68.5 7.5,69.5 7.5,70.5C 4.91104,70.461 2.91104,71.461 1.5,73.5C 2.11684,68.4158 3.11684,63.4158 4.5,58.5C 5.22158,58.9175 5.72158,59.5842 6,60.5C 6.58854,58.1367 8.08854,57.1367 10.5,57.5C 10.33,56.1779 10.6634,55.0113 11.5,54C 13.4727,53.5045 15.4727,53.3379 17.5,53.5C 17.5,52.5 17.5,51.5 17.5,50.5C 20.8333,50.5 24.1667,50.5 27.5,50.5C 27.1667,47.5 28.5,46.1667 31.5,46.5C 31.5,45.5 31.5,44.5 31.5,43.5C 33.8333,43.5 36.1667,43.5 38.5,43.5 Z"/></g>
<g><path style="opacity:1" fill="#c43093" d="M 248.5,71.5 C 247.732,70.7375 247.232,69.7375 247,68.5C 245.872,70.3453 245.372,72.3453 245.5,74.5C 238.833,74.5 232.167,74.5 225.5,74.5C 225.5,73.5 225.5,72.5 225.5,71.5C 224.5,71.5 223.5,71.5 222.5,71.5C 222.5,72.5 222.5,73.5 222.5,74.5C 219.167,74.5 215.833,74.5 212.5,74.5C 212.946,71.9899 212.28,69.9899 210.5,68.5C 214.878,52.1448 224.878,47.3114 240.5,54C 246.014,58.5287 248.681,64.362 248.5,71.5 Z"/></g>
<g><path style="opacity:0.98" fill="#c42f98" d="M 296.5,67.5 C 297.718,72.4632 298.718,77.4632 299.5,82.5C 299.5,83.5 299.5,84.5 299.5,85.5C 297.75,82.6446 296.917,79.3113 297,75.5C 296.502,78.4816 296.335,81.4816 296.5,84.5C 293.167,84.5 289.833,84.5 286.5,84.5C 286.5,83.5 286.5,82.5 286.5,81.5C 281.833,81.5 277.167,81.5 272.5,81.5C 272.649,82.552 272.483,83.552 272,84.5C 271.768,83.2625 271.268,82.2625 270.5,81.5C 269.792,75.3363 268.458,69.3363 266.5,63.5C 267.222,63.0825 267.722,62.4158 268,61.5C 270.425,63.4288 273.258,64.4288 276.5,64.5C 276.5,63.5 276.5,62.5 276.5,61.5C 278.833,61.5 281.167,61.5 283.5,61.5C 283.5,62.5 283.5,63.5 283.5,64.5C 286.833,64.5 290.167,64.5 293.5,64.5C 294.86,67.6199 295.693,70.9532 296,74.5C 296.497,72.1902 296.663,69.8568 296.5,67.5 Z"/></g>
<g><path style="opacity:0.992" fill="#a43698" d="M 41.5,45.5 C 41.5,46.1667 41.5,46.8333 41.5,47.5C 34.4702,56.5755 30.4702,66.9088 29.5,78.5C 25.5591,77.4357 21.5591,77.4357 17.5,78.5C 17.5,79.5 17.5,80.5 17.5,81.5C 15.1667,81.5 12.8333,81.5 10.5,81.5C 10.5,82.5 10.5,83.5 10.5,84.5C 9.5,84.5 8.5,84.5 7.5,84.5C 7.5,85.8333 7.5,87.1667 7.5,88.5C 5.5328,88.7394 3.69946,88.4061 2,87.5C 1.90054,89.6526 1.0672,91.3192 -0.5,92.5C -0.5,91.1667 -0.5,89.8333 -0.5,88.5C 0.265578,83.6366 0.932245,78.6366 1.5,73.5C 2.91104,71.461 4.91104,70.461 7.5,70.5C 7.5,69.5 7.5,68.5 7.5,67.5C 9.83333,67.5 12.1667,67.5 14.5,67.5C 14.5,66.5 14.5,65.5 14.5,64.5C 15.5,64.5 16.5,64.5 17.5,64.5C 17.5,63.5 17.5,62.5 17.5,61.5C 19.861,61.3259 22.1944,60.9926 24.5,60.5C 24.5,59.5 24.5,58.5 24.5,57.5C 26.8333,57.5 29.1667,57.5 31.5,57.5C 31.5,56.1667 31.5,54.8333 31.5,53.5C 32.5,53.5 33.5,53.5 34.5,53.5C 34.5,52.5 34.5,51.5 34.5,50.5C 37.0561,49.2977 39.3894,47.631 41.5,45.5 Z"/></g>
<g><path style="opacity:0.925" fill="#c6318b" d="M 185.5,80.5 C 185.631,81.3764 185.298,82.0431 184.5,82.5C 176.556,81.5315 168.556,81.1981 160.5,81.5C 160.5,82.5 160.5,83.5 160.5,84.5C 159.5,84.5 158.5,84.5 157.5,84.5C 157.5,83.1667 157.5,81.8333 157.5,80.5C 155.139,80.6741 152.806,81.0074 150.5,81.5C 150.5,80.1667 150.5,78.8333 150.5,77.5C 145.833,77.5 141.167,77.5 136.5,77.5C 136.5,78.8333 136.5,80.1667 136.5,81.5C 135.5,81.5 134.5,81.5 133.5,81.5C 133.5,80.1667 133.5,78.8333 133.5,77.5C 132.5,77.5 131.5,77.5 130.5,77.5C 130.5,78.8333 130.5,80.1667 130.5,81.5C 129.167,81.5 127.833,81.5 126.5,81.5C 126.657,80.1266 126.49,78.7932 126,77.5C 122.06,78.8708 118.227,80.5374 114.5,82.5C 113.537,82.0302 113.537,81.3635 114.5,80.5C 138.075,68.541 161.741,68.541 185.5,80.5 Z"/></g>
<g><path style="opacity:1" fill="#ca2f8e" d="M 210.5,68.5 C 212.28,69.9899 212.946,71.9899 212.5,74.5C 215.833,74.5 219.167,74.5 222.5,74.5C 222.5,73.5 222.5,72.5 222.5,71.5C 223.5,71.5 224.5,71.5 225.5,71.5C 225.5,72.5 225.5,73.5 225.5,74.5C 232.167,74.5 238.833,74.5 245.5,74.5C 245.372,72.3453 245.872,70.3453 247,68.5C 247.232,69.7375 247.732,70.7375 248.5,71.5C 244.256,86.122 234.923,90.9553 220.5,86C 214.468,81.7764 211.135,75.943 210.5,68.5 Z"/></g>
<g><path style="opacity:0.999" fill="#ac3692" d="M 29.5,78.5 C 28.8413,81.4552 28.5079,84.4552 28.5,87.5C 27.71,88.6085 27.21,89.9419 27,91.5C 26.7811,90.062 26.2811,88.7287 25.5,87.5C 22.9159,88.3928 20.2492,88.7261 17.5,88.5C 17.5,89.5 17.5,90.5 17.5,91.5C 15.5,91.5 13.5,91.5 11.5,91.5C 11.67,92.8221 11.3366,93.9887 10.5,95C 6.77888,95.6781 3.11222,95.5114 -0.5,94.5C -0.5,93.8333 -0.5,93.1667 -0.5,92.5C 1.0672,91.3192 1.90054,89.6526 2,87.5C 3.69946,88.4061 5.5328,88.7394 7.5,88.5C 7.5,87.1667 7.5,85.8333 7.5,84.5C 8.5,84.5 9.5,84.5 10.5,84.5C 10.5,83.5 10.5,82.5 10.5,81.5C 12.8333,81.5 15.1667,81.5 17.5,81.5C 17.5,80.5 17.5,79.5 17.5,78.5C 21.5591,77.4357 25.5591,77.4357 29.5,78.5 Z"/></g>
<g><path style="opacity:1" fill="#c63286" d="M 150.5,81.5 C 149.167,81.5 147.833,81.5 146.5,81.5C 146.5,82.5 146.5,83.5 146.5,84.5C 141.541,84.151 137.207,85.4843 133.5,88.5C 132.5,88.5 131.5,88.5 130.5,88.5C 130.5,89.5 130.5,90.5 130.5,91.5C 128.167,91.5 125.833,91.5 123.5,91.5C 123.5,90.5 123.5,89.5 123.5,88.5C 118.833,88.5 114.167,88.5 109.5,88.5C 109.5,89.5 109.5,90.5 109.5,91.5C 107.167,91.5 104.833,91.5 102.5,91.5C 102.5,90.5 102.5,89.5 102.5,88.5C 105.803,84.8442 109.803,82.1775 114.5,80.5C 113.537,81.3635 113.537,82.0302 114.5,82.5C 118.227,80.5374 122.06,78.8708 126,77.5C 126.49,78.7932 126.657,80.1266 126.5,81.5C 127.833,81.5 129.167,81.5 130.5,81.5C 130.5,80.1667 130.5,78.8333 130.5,77.5C 131.5,77.5 132.5,77.5 133.5,77.5C 133.5,78.8333 133.5,80.1667 133.5,81.5C 134.5,81.5 135.5,81.5 136.5,81.5C 136.5,80.1667 136.5,78.8333 136.5,77.5C 141.167,77.5 145.833,77.5 150.5,77.5C 150.5,78.8333 150.5,80.1667 150.5,81.5 Z"/></g>
<g><path style="opacity:1" fill="#cb3086" d="M 185.5,80.5 C 194.36,84.6995 201.694,90.6995 207.5,98.5C 205.284,97.7974 203.451,96.4641 202,94.5C 199.959,95.4231 197.792,95.7564 195.5,95.5C 195.5,96.5 195.5,97.5 195.5,98.5C 191.833,98.5 188.167,98.5 184.5,98.5C 184.5,97.1667 184.5,95.8333 184.5,94.5C 179.709,94.7916 175.042,94.7916 170.5,94.5C 170.5,93.5 170.5,92.5 170.5,91.5C 162.5,91.5 154.5,91.5 146.5,91.5C 146.5,90.5 146.5,89.5 146.5,88.5C 144.5,88.5 142.5,88.5 140.5,88.5C 140.5,89.5 140.5,90.5 140.5,91.5C 139.167,91.5 137.833,91.5 136.5,91.5C 136.5,90.5 136.5,89.5 136.5,88.5C 135.5,88.5 134.5,88.5 133.5,88.5C 137.207,85.4843 141.541,84.151 146.5,84.5C 146.5,83.5 146.5,82.5 146.5,81.5C 147.833,81.5 149.167,81.5 150.5,81.5C 152.806,81.0074 155.139,80.6741 157.5,80.5C 157.5,81.8333 157.5,83.1667 157.5,84.5C 158.5,84.5 159.5,84.5 160.5,84.5C 160.5,83.5 160.5,82.5 160.5,81.5C 168.556,81.1981 176.556,81.5315 184.5,82.5C 185.298,82.0431 185.631,81.3764 185.5,80.5 Z"/></g>
<g><path style="opacity:0.998" fill="#ca2f93" d="M 299.5,85.5 C 299.5,93.1667 299.5,100.833 299.5,108.5C 296.71,108.751 293.71,108.751 290.5,108.5C 290.167,106.5 289.833,104.5 289.5,102.5C 287.5,102.167 285.5,101.833 283.5,101.5C 283.5,100.5 283.5,99.5 283.5,98.5C 281.167,98.5 278.833,98.5 276.5,98.5C 276.5,96.1667 276.5,93.8333 276.5,91.5C 275.5,91.5 274.5,91.5 273.5,91.5C 273.657,90.1266 273.49,88.7932 273,87.5C 272.329,88.2524 271.496,88.5858 270.5,88.5C 270.5,86.1667 270.5,83.8333 270.5,81.5C 271.268,82.2625 271.768,83.2625 272,84.5C 272.483,83.552 272.649,82.552 272.5,81.5C 277.167,81.5 281.833,81.5 286.5,81.5C 286.5,82.5 286.5,83.5 286.5,84.5C 289.833,84.5 293.167,84.5 296.5,84.5C 296.335,81.4816 296.502,78.4816 297,75.5C 296.917,79.3113 297.75,82.6446 299.5,85.5 Z"/></g>
<g><path style="opacity:1" fill="#b1378c" d="M 28.5,87.5 C 28.8182,92.0323 28.4849,96.3656 27.5,100.5C 27.631,99.7611 27.4643,99.0944 27,98.5C 26.7679,99.7375 26.2679,100.737 25.5,101.5C 25.5,100.5 25.5,99.5 25.5,98.5C 22.8333,98.5 20.1667,98.5 17.5,98.5C 17.5,99.5 17.5,100.5 17.5,101.5C 12.8333,101.833 8.16667,102.167 3.5,102.5C 3.05233,105.172 1.719,107.172 -0.5,108.5C -0.5,103.833 -0.5,99.1667 -0.5,94.5C 3.11222,95.5114 6.77888,95.6781 10.5,95C 11.3366,93.9887 11.67,92.8221 11.5,91.5C 13.5,91.5 15.5,91.5 17.5,91.5C 17.5,90.5 17.5,89.5 17.5,88.5C 20.2492,88.7261 22.9159,88.3928 25.5,87.5C 26.2811,88.7287 26.7811,90.062 27,91.5C 27.21,89.9419 27.71,88.6085 28.5,87.5 Z"/></g>
<g><path style="opacity:1" fill="#ca3280" d="M 102.5,88.5 C 102.5,89.5 102.5,90.5 102.5,91.5C 104.833,91.5 107.167,91.5 109.5,91.5C 109.5,90.5 109.5,89.5 109.5,88.5C 114.167,88.5 118.833,88.5 123.5,88.5C 123.5,89.5 123.5,90.5 123.5,91.5C 125.833,91.5 128.167,91.5 130.5,91.5C 130.5,90.5 130.5,89.5 130.5,88.5C 131.5,88.5 132.5,88.5 133.5,88.5C 134.5,88.5 135.5,88.5 136.5,88.5C 136.5,89.5 136.5,90.5 136.5,91.5C 137.833,91.5 139.167,91.5 140.5,91.5C 140.5,90.5 140.5,89.5 140.5,88.5C 142.5,88.5 144.5,88.5 146.5,88.5C 146.5,89.5 146.5,90.5 146.5,91.5C 154.5,91.5 162.5,91.5 170.5,91.5C 170.5,92.5 170.5,93.5 170.5,94.5C 169.5,94.5 168.5,94.5 167.5,94.5C 167.5,95.8333 167.5,97.1667 167.5,98.5C 166.5,98.5 165.5,98.5 164.5,98.5C 164.5,97.5 164.5,96.5 164.5,95.5C 162.167,95.5 159.833,95.5 157.5,95.5C 157.719,96.675 157.386,97.675 156.5,98.5C 150.705,97.4325 144.871,97.4325 139,98.5C 135.702,98.5935 132.869,99.5935 130.5,101.5C 122.024,103.754 113.357,105.087 104.5,105.5C 98.2709,104.385 91.9375,104.385 85.5,105.5C 90.1878,98.8122 95.8545,93.1455 102.5,88.5 Z"/></g>
<g><path style="opacity:0.995" fill="#d22f80" d="M 170.5,94.5 C 175.042,94.7916 179.709,94.7916 184.5,94.5C 184.5,95.8333 184.5,97.1667 184.5,98.5C 188.167,98.5 191.833,98.5 195.5,98.5C 195.5,97.5 195.5,96.5 195.5,95.5C 197.792,95.7564 199.959,95.4231 202,94.5C 203.451,96.4641 205.284,97.7974 207.5,98.5C 216.341,107.84 222.341,118.84 225.5,131.5C 223.584,129.331 222.25,126.665 221.5,123.5C 219.257,122.526 216.924,122.192 214.5,122.5C 214.5,121.5 214.5,120.5 214.5,119.5C 210.176,119.073 205.842,118.739 201.5,118.5C 201.5,117.5 201.5,116.5 201.5,115.5C 200.5,115.5 199.5,115.5 198.5,115.5C 198.5,116.5 198.5,117.5 198.5,118.5C 197.167,118.5 195.833,118.5 194.5,118.5C 194.5,117.5 194.5,116.5 194.5,115.5C 191.5,115.5 188.5,115.5 185.5,115.5C 170.703,101.467 153.37,97.134 133.5,102.5C 132.209,102.737 131.209,102.404 130.5,101.5C 132.869,99.5935 135.702,98.5935 139,98.5C 144.871,97.4325 150.705,97.4325 156.5,98.5C 157.386,97.675 157.719,96.675 157.5,95.5C 159.833,95.5 162.167,95.5 164.5,95.5C 164.5,96.5 164.5,97.5 164.5,98.5C 165.5,98.5 166.5,98.5 167.5,98.5C 167.5,97.1667 167.5,95.8333 167.5,94.5C 168.5,94.5 169.5,94.5 170.5,94.5 Z"/></g>
<g><path style="opacity:1" fill="#b83886" d="M 25.5,101.5 C 25.5,103.833 25.5,106.167 25.5,108.5C 22.8333,108.5 20.1667,108.5 17.5,108.5C 17.5,109.833 17.5,111.167 17.5,112.5C 16.5,112.5 15.5,112.5 14.5,112.5C 14.5,113.5 14.5,114.5 14.5,115.5C 12.1667,115.5 9.83333,115.5 7.5,115.5C 7.5,116.5 7.5,117.5 7.5,118.5C 4.84861,119.711 2.18194,121.045 -0.5,122.5C -0.5,117.833 -0.5,113.167 -0.5,108.5C 1.719,107.172 3.05233,105.172 3.5,102.5C 8.16667,102.167 12.8333,101.833 17.5,101.5C 17.5,100.5 17.5,99.5 17.5,98.5C 20.1667,98.5 22.8333,98.5 25.5,98.5C 25.5,99.5 25.5,100.5 25.5,101.5 Z"/></g>
<g><path style="opacity:1" fill="#d02e8d" d="M 299.5,108.5 C 299.5,117.5 299.5,126.5 299.5,135.5C 298.5,135.5 297.5,135.5 296.5,135.5C 296.5,134.5 296.5,133.5 296.5,132.5C 295.5,132.5 294.5,132.5 293.5,132.5C 293.5,131.5 293.5,130.5 293.5,129.5C 292.5,129.5 291.5,129.5 290.5,129.5C 290.5,128.167 290.5,126.833 290.5,125.5C 288.167,125.5 285.833,125.5 283.5,125.5C 283.5,124.5 283.5,123.5 283.5,122.5C 282.167,122.5 280.833,122.5 279.5,122.5C 279.5,121.167 279.5,119.833 279.5,118.5C 278.5,118.5 277.5,118.5 276.5,118.5C 275.996,114.665 274.996,114.665 273.5,118.5C 272.824,117.398 272.158,116.398 271.5,115.5C 271.748,106.46 271.415,97.4596 270.5,88.5C 271.496,88.5858 272.329,88.2524 273,87.5C 273.49,88.7932 273.657,90.1266 273.5,91.5C 274.5,91.5 275.5,91.5 276.5,91.5C 276.5,93.8333 276.5,96.1667 276.5,98.5C 278.833,98.5 281.167,98.5 283.5,98.5C 283.5,99.5 283.5,100.5 283.5,101.5C 285.5,101.833 287.5,102.167 289.5,102.5C 289.833,104.5 290.167,106.5 290.5,108.5C 293.71,108.751 296.71,108.751 299.5,108.5 Z"/></g>
<g><path style="opacity:1" fill="#d03578" d="M 130.5,101.5 C 131.209,102.404 132.209,102.737 133.5,102.5C 124.788,105.87 117.455,111.203 111.5,118.5C 110.883,118.389 110.383,118.056 110,117.5C 108.471,118.729 107.304,120.229 106.5,122C 100.843,122.499 95.1764,122.666 89.5,122.5C 89.5,121.167 89.5,119.833 89.5,118.5C 87.1667,118.5 84.8333,118.5 82.5,118.5C 82.5,119.5 82.5,120.5 82.5,121.5C 81.1779,121.67 80.0113,121.337 79,120.5C 78.7216,121.416 78.2216,122.082 77.5,122.5C 79.2413,116.417 81.908,110.75 85.5,105.5C 91.9375,104.385 98.2709,104.385 104.5,105.5C 113.357,105.087 122.024,103.754 130.5,101.5 Z"/></g>
<g><path style="opacity:1" fill="#c03a7f" d="M 27.5,100.5 C 27.5,106.833 27.5,113.167 27.5,119.5C 26.8333,119.167 26.1667,118.833 25.5,118.5C 20.4011,119.555 15.4011,120.888 10.5,122.5C 10.5,123.5 10.5,124.5 10.5,125.5C 9.5,125.5 8.5,125.5 7.5,125.5C 7.5,126.5 7.5,127.5 7.5,128.5C 5.5,128.833 3.5,129.167 1.5,129.5C 1.5,130.5 1.5,131.5 1.5,132.5C 0.833333,133.5 0.166667,134.5 -0.5,135.5C -0.5,131.167 -0.5,126.833 -0.5,122.5C 2.18194,121.045 4.84861,119.711 7.5,118.5C 7.5,117.5 7.5,116.5 7.5,115.5C 9.83333,115.5 12.1667,115.5 14.5,115.5C 14.5,114.5 14.5,113.5 14.5,112.5C 15.5,112.5 16.5,112.5 17.5,112.5C 17.5,111.167 17.5,109.833 17.5,108.5C 20.1667,108.5 22.8333,108.5 25.5,108.5C 25.5,106.167 25.5,103.833 25.5,101.5C 26.2679,100.737 26.7679,99.7375 27,98.5C 27.4643,99.0944 27.631,99.7611 27.5,100.5 Z"/></g>
<g><path style="opacity:1" fill="#d82f7a" d="M 185.5,115.5 C 188.5,115.5 191.5,115.5 194.5,115.5C 194.5,116.5 194.5,117.5 194.5,118.5C 195.833,118.5 197.167,118.5 198.5,118.5C 198.5,117.5 198.5,116.5 198.5,115.5C 199.5,115.5 200.5,115.5 201.5,115.5C 201.5,116.5 201.5,117.5 201.5,118.5C 205.842,118.739 210.176,119.073 214.5,119.5C 214.5,120.5 214.5,121.5 214.5,122.5C 216.924,122.192 219.257,122.526 221.5,123.5C 222.25,126.665 223.584,129.331 225.5,131.5C 225.5,132.833 225.5,134.167 225.5,135.5C 224.583,135.506 224.083,134.506 224,132.5C 224.077,136.229 223.91,139.896 223.5,143.5C 221.929,142.691 220.262,142.357 218.5,142.5C 218.5,141.5 218.5,140.5 218.5,139.5C 216.5,139.5 214.5,139.5 212.5,139.5C 212.5,138.167 212.5,136.833 212.5,135.5C 210.167,135.5 207.833,135.5 205.5,135.5C 205.5,134.5 205.5,133.5 205.5,132.5C 202.5,132.5 199.5,132.5 196.5,132.5C 193.594,126.359 189.928,120.692 185.5,115.5 Z"/></g>
<g><path style="opacity:1" fill="#c43c79" d="M 25.5,118.5 C 25.5,121.833 25.5,125.167 25.5,128.5C 21.8648,129.114 18.1981,129.448 14.5,129.5C 14.5,130.5 14.5,131.5 14.5,132.5C 10.1667,132.5 5.83333,132.5 1.5,132.5C 1.5,131.5 1.5,130.5 1.5,129.5C 3.5,129.167 5.5,128.833 7.5,128.5C 7.5,127.5 7.5,126.5 7.5,125.5C 8.5,125.5 9.5,125.5 10.5,125.5C 10.5,124.5 10.5,123.5 10.5,122.5C 15.4011,120.888 20.4011,119.555 25.5,118.5 Z"/></g>
<g><path style="opacity:1" fill="#d53a6f" d="M 111.5,118.5 C 107.717,123.071 104.717,128.071 102.5,133.5C 102.649,132.448 102.483,131.448 102,130.5C 92.7634,132.457 83.2634,133.124 73.5,132.5C 74.2623,128.867 75.5957,125.534 77.5,122.5C 78.2216,122.082 78.7216,121.416 79,120.5C 80.0113,121.337 81.1779,121.67 82.5,121.5C 82.5,120.5 82.5,119.5 82.5,118.5C 84.8333,118.5 87.1667,118.5 89.5,118.5C 89.5,119.833 89.5,121.167 89.5,122.5C 95.1764,122.666 100.843,122.499 106.5,122C 107.304,120.229 108.471,118.729 110,117.5C 110.383,118.056 110.883,118.389 111.5,118.5 Z"/></g>
<g><path style="opacity:0.999" fill="#d42e86" d="M 271.5,115.5 C 272.158,116.398 272.824,117.398 273.5,118.5C 274.996,114.665 275.996,114.665 276.5,118.5C 277.5,118.5 278.5,118.5 279.5,118.5C 279.5,119.833 279.5,121.167 279.5,122.5C 280.833,122.5 282.167,122.5 283.5,122.5C 283.5,123.5 283.5,124.5 283.5,125.5C 285.833,125.5 288.167,125.5 290.5,125.5C 290.5,126.833 290.5,128.167 290.5,129.5C 291.5,129.5 292.5,129.5 293.5,129.5C 293.5,130.5 293.5,131.5 293.5,132.5C 294.5,132.5 295.5,132.5 296.5,132.5C 296.5,133.5 296.5,134.5 296.5,135.5C 297.5,135.5 298.5,135.5 299.5,135.5C 299.5,142.5 299.5,149.5 299.5,156.5C 298.5,156.5 297.5,156.5 296.5,156.5C 296.5,155.5 296.5,154.5 296.5,153.5C 294.5,153.5 292.5,153.5 290.5,153.5C 290.326,151.139 289.993,148.806 289.5,146.5C 287.5,146.5 285.5,146.5 283.5,146.5C 283.5,145.5 283.5,144.5 283.5,143.5C 281.167,143.5 278.833,143.5 276.5,143.5C 277.106,140.084 276.106,137.418 273.5,135.5C 272.832,133.031 272.165,130.698 271.5,128.5C 271.5,124.167 271.5,119.833 271.5,115.5 Z"/></g>
<g><path style="opacity:1" fill="#c93f74" d="M 25.5,118.5 C 26.1667,118.833 26.8333,119.167 27.5,119.5C 27.5,124.833 27.5,130.167 27.5,135.5C 26.536,127.723 25.536,127.723 24.5,135.5C 21.1194,135.46 17.7861,135.793 14.5,136.5C 14.5,137.5 14.5,138.5 14.5,139.5C 13.1667,139.5 11.8333,139.5 10.5,139.5C 10.5,140.5 10.5,141.5 10.5,142.5C 6.38759,142.123 2.72093,143.123 -0.5,145.5C -0.5,142.167 -0.5,138.833 -0.5,135.5C 0.166667,134.5 0.833333,133.5 1.5,132.5C 5.83333,132.5 10.1667,132.5 14.5,132.5C 14.5,131.5 14.5,130.5 14.5,129.5C 18.1981,129.448 21.8648,129.114 25.5,128.5C 25.5,125.167 25.5,121.833 25.5,118.5 Z"/></g>
<g><path style="opacity:1" fill="#dc3074" d="M 196.5,132.5 C 199.5,132.5 202.5,132.5 205.5,132.5C 205.5,133.5 205.5,134.5 205.5,135.5C 207.833,135.5 210.167,135.5 212.5,135.5C 212.5,136.833 212.5,138.167 212.5,139.5C 214.5,139.5 216.5,139.5 218.5,139.5C 218.5,140.5 218.5,141.5 218.5,142.5C 220.262,142.357 221.929,142.691 223.5,143.5C 223.91,139.896 224.077,136.229 224,132.5C 224.083,134.506 224.583,135.506 225.5,135.5C 227.012,140.929 227.679,146.596 227.5,152.5C 226.5,152.5 225.5,152.5 224.5,152.5C 224.808,154.924 224.474,157.257 223.5,159.5C 222.614,158.675 222.281,157.675 222.5,156.5C 221.167,156.5 219.833,156.5 218.5,156.5C 218.5,155.167 218.5,153.833 218.5,152.5C 217.167,152.5 215.833,152.5 214.5,152.5C 214.5,151.5 214.5,150.5 214.5,149.5C 212.5,149.5 210.5,149.5 208.5,149.5C 208.5,148.5 208.5,147.5 208.5,146.5C 205.167,146.5 201.833,146.5 198.5,146.5C 198.221,141.773 197.554,137.107 196.5,132.5 Z"/></g>
<g><path style="opacity:1" fill="#d82e80" d="M 271.5,128.5 C 272.165,130.698 272.832,133.031 273.5,135.5C 276.106,137.418 277.106,140.084 276.5,143.5C 278.833,143.5 281.167,143.5 283.5,143.5C 283.5,144.5 283.5,145.5 283.5,146.5C 285.5,146.5 287.5,146.5 289.5,146.5C 289.993,148.806 290.326,151.139 290.5,153.5C 292.5,153.5 294.5,153.5 296.5,153.5C 296.5,154.5 296.5,155.5 296.5,156.5C 297.5,156.5 298.5,156.5 299.5,156.5C 299.5,166.5 299.5,176.5 299.5,186.5C 298.5,186.5 297.5,186.5 296.5,186.5C 296.833,184.5 297.167,182.5 297.5,180.5C 290.636,182.257 288.303,179.924 290.5,173.5C 288.167,173.5 285.833,173.5 283.5,173.5C 283.5,172.5 283.5,171.5 283.5,170.5C 280.5,170.833 279.167,169.5 279.5,166.5C 278.5,166.5 277.5,166.5 276.5,166.5C 274.975,160.992 274.142,155.326 274,149.5C 273.667,152.833 273.333,156.167 273,159.5C 272.814,156.964 272.314,154.631 271.5,152.5C 271.5,144.5 271.5,136.5 271.5,128.5 Z"/></g>
<g><path style="opacity:1" fill="#da3f67" d="M 102.5,133.5 C 101.962,137.524 101.295,141.524 100.5,145.5C 99.7321,144.737 99.2321,143.737 99,142.5C 96.2083,143.098 93.5416,144.098 91,145.5C 85.6896,143.659 80.1896,142.992 74.5,143.5C 74.6567,142.127 74.49,140.793 74,139.5C 73.8138,142.036 73.3138,144.369 72.5,146.5C 72.5401,141.807 72.8734,137.141 73.5,132.5C 83.2634,133.124 92.7634,132.457 102,130.5C 102.483,131.448 102.649,132.448 102.5,133.5 Z"/></g>
<g><path style="opacity:1" fill="#cf436c" d="M 27.5,135.5 C 27.5,140.167 27.5,144.833 27.5,149.5C 26.8333,149.5 26.1667,149.5 25.5,149.5C 25.1667,145.5 24.8333,145.5 24.5,149.5C 23.5,149.5 22.5,149.5 21.5,149.5C 21.5,148.5 21.5,147.5 21.5,146.5C 20.1667,146.5 18.8333,146.5 17.5,146.5C 17.5,147.5 17.5,148.5 17.5,149.5C 11.8333,149.5 6.16667,149.5 0.5,149.5C 0.767809,151.099 0.434475,152.432 -0.5,153.5C -0.5,150.833 -0.5,148.167 -0.5,145.5C 2.72093,143.123 6.38759,142.123 10.5,142.5C 10.5,141.5 10.5,140.5 10.5,139.5C 11.8333,139.5 13.1667,139.5 14.5,139.5C 14.5,138.5 14.5,137.5 14.5,136.5C 17.7861,135.793 21.1194,135.46 24.5,135.5C 25.536,127.723 26.536,127.723 27.5,135.5 Z"/></g>
<g><path style="opacity:1" fill="#d24767" d="M 25.5,149.5 C 25.5,150.833 25.5,152.167 25.5,153.5C 21.8333,153.5 18.1667,153.5 14.5,153.5C 14.5,154.5 14.5,155.5 14.5,156.5C 12.1667,156.5 9.83333,156.5 7.5,156.5C 7.5,157.5 7.5,158.5 7.5,159.5C 5.5,159.5 3.5,159.5 1.5,159.5C 1.64945,158.448 1.48278,157.448 1,156.5C 0.76791,157.737 0.26791,158.737 -0.5,159.5C -0.5,157.5 -0.5,155.5 -0.5,153.5C 0.434475,152.432 0.767809,151.099 0.5,149.5C 6.16667,149.5 11.8333,149.5 17.5,149.5C 17.5,148.5 17.5,147.5 17.5,146.5C 18.8333,146.5 20.1667,146.5 21.5,146.5C 21.5,147.5 21.5,148.5 21.5,149.5C 22.5,149.5 23.5,149.5 24.5,149.5C 24.8333,145.5 25.1667,145.5 25.5,149.5 Z"/></g>
<g><path style="opacity:1" fill="#e0465e" d="M 100.5,145.5 C 100.353,150.214 100.686,154.881 101.5,159.5C 91.7998,160.03 82.1332,160.363 72.5,160.5C 72.1055,155.725 72.1055,151.058 72.5,146.5C 73.3138,144.369 73.8138,142.036 74,139.5C 74.49,140.793 74.6567,142.127 74.5,143.5C 80.1896,142.992 85.6896,143.659 91,145.5C 93.5416,144.098 96.2083,143.098 99,142.5C 99.2321,143.737 99.7321,144.737 100.5,145.5 Z"/></g>
<g><path style="opacity:1" fill="#df326e" d="M 198.5,146.5 C 201.833,146.5 205.167,146.5 208.5,146.5C 208.5,147.5 208.5,148.5 208.5,149.5C 210.5,149.5 212.5,149.5 214.5,149.5C 214.5,150.5 214.5,151.5 214.5,152.5C 215.833,152.5 217.167,152.5 218.5,152.5C 218.5,153.833 218.5,155.167 218.5,156.5C 219.833,156.5 221.167,156.5 222.5,156.5C 222.281,157.675 222.614,158.675 223.5,159.5C 224.474,157.257 224.808,154.924 224.5,152.5C 225.5,152.5 226.5,152.5 227.5,152.5C 226.808,159.96 225.475,167.293 223.5,174.5C 221.824,173.817 221.157,172.483 221.5,170.5C 220.5,170.5 219.5,170.5 218.5,170.5C 218.5,169.167 218.5,167.833 218.5,166.5C 215.167,166.5 211.833,166.5 208.5,166.5C 208.5,164.5 208.5,162.5 208.5,160.5C 204.881,159.756 201.215,159.423 197.5,159.5C 198.436,155.265 198.769,150.931 198.5,146.5 Z"/></g>
<g><path style="opacity:1" fill="#d84b60" d="M 25.5,149.5 C 26.1667,149.5 26.8333,149.5 27.5,149.5C 27.5,152.833 27.5,156.167 27.5,159.5C 26.7321,158.737 26.2321,157.737 26,156.5C 25.51,157.793 25.3433,159.127 25.5,160.5C 20.7624,162.599 15.7624,163.599 10.5,163.5C 10.5,164.5 10.5,165.5 10.5,166.5C 7.16667,166.5 3.83333,166.5 0.5,166.5C 0.767809,168.099 0.434475,169.432 -0.5,170.5C -0.5,166.833 -0.5,163.167 -0.5,159.5C 0.26791,158.737 0.76791,157.737 1,156.5C 1.48278,157.448 1.64945,158.448 1.5,159.5C 3.5,159.5 5.5,159.5 7.5,159.5C 7.5,158.5 7.5,157.5 7.5,156.5C 9.83333,156.5 12.1667,156.5 14.5,156.5C 14.5,155.5 14.5,154.5 14.5,153.5C 18.1667,153.5 21.8333,153.5 25.5,153.5C 25.5,152.167 25.5,150.833 25.5,149.5 Z"/></g>
<g><path style="opacity:1" fill="#e54b54" d="M 101.5,159.5 C 102.167,162.167 102.833,164.833 103.5,167.5C 103.144,168.87 102.31,169.87 101,170.5C 94.8808,169.562 88.7141,169.228 82.5,169.5C 82.5,168.5 82.5,167.5 82.5,166.5C 80.1667,166.5 77.8333,166.5 75.5,166.5C 75.6567,165.127 75.49,163.793 75,162.5C 74.7679,163.737 74.2679,164.737 73.5,165.5C 73.634,163.708 73.3007,162.042 72.5,160.5C 82.1332,160.363 91.7998,160.03 101.5,159.5 Z"/></g>
<g><path style="opacity:0.988" fill="#e23567" d="M 197.5,159.5 C 201.215,159.423 204.881,159.756 208.5,160.5C 208.5,162.5 208.5,164.5 208.5,166.5C 211.833,166.5 215.167,166.5 218.5,166.5C 218.5,167.833 218.5,169.167 218.5,170.5C 219.5,170.5 220.5,170.5 221.5,170.5C 221.157,172.483 221.824,173.817 223.5,174.5C 222.203,178.083 220.537,181.416 218.5,184.5C 217.752,182.265 216.919,182.598 216,185.5C 214.991,183.975 214.491,182.308 214.5,180.5C 212.5,180.167 210.5,179.833 208.5,179.5C 208.5,178.5 208.5,177.5 208.5,176.5C 207.167,176.5 205.833,176.5 204.5,176.5C 204.5,175.5 204.5,174.5 204.5,173.5C 202.5,173.5 200.5,173.5 198.5,173.5C 198.512,170.858 197.179,169.525 194.5,169.5C 196.302,166.426 197.302,163.092 197.5,159.5 Z"/></g>
<g><path style="opacity:1" fill="#dc505a" d="M 27.5,159.5 C 27.5,163.167 27.5,166.833 27.5,170.5C 26.71,169.391 26.21,168.058 26,166.5C 25.023,168.74 24.523,171.073 24.5,173.5C 18.8333,173.5 13.1667,173.5 7.5,173.5C 7.5,174.5 7.5,175.5 7.5,176.5C 5.4727,176.338 3.4727,176.505 1.5,177C 0.882779,179.277 0.216112,181.444 -0.5,183.5C -0.5,179.167 -0.5,174.833 -0.5,170.5C 0.434475,169.432 0.767809,168.099 0.5,166.5C 3.83333,166.5 7.16667,166.5 10.5,166.5C 10.5,165.5 10.5,164.5 10.5,163.5C 15.7624,163.599 20.7624,162.599 25.5,160.5C 25.3433,159.127 25.51,157.793 26,156.5C 26.2321,157.737 26.7321,158.737 27.5,159.5 Z"/></g>
<g><path style="opacity:0.997" fill="#db2e79" d="M 299.5,186.5 C 299.5,196.5 299.5,206.5 299.5,216.5C 299.167,216.5 298.833,216.5 298.5,216.5C 297.931,213.665 296.264,211.999 293.5,211.5C 293.5,210.167 293.5,208.833 293.5,207.5C 292.5,207.5 291.5,207.5 290.5,207.5C 290.5,205.167 290.5,202.833 290.5,200.5C 289.167,200.5 287.833,200.5 286.5,200.5C 286.5,199.5 286.5,198.5 286.5,197.5C 285.5,197.5 284.5,197.5 283.5,197.5C 283.5,196.167 283.5,194.833 283.5,193.5C 281.167,193.5 278.833,193.5 276.5,193.5C 276.808,191.076 276.474,188.743 275.5,186.5C 274.828,187.949 274.161,189.282 273.5,190.5C 273.665,187.15 273.498,183.817 273,180.5C 272.821,184.025 272.321,187.359 271.5,190.5C 271.5,177.833 271.5,165.167 271.5,152.5C 272.314,154.631 272.814,156.964 273,159.5C 273.333,156.167 273.667,152.833 274,149.5C 274.142,155.326 274.975,160.992 276.5,166.5C 277.5,166.5 278.5,166.5 279.5,166.5C 279.167,169.5 280.5,170.833 283.5,170.5C 283.5,171.5 283.5,172.5 283.5,173.5C 285.833,173.5 288.167,173.5 290.5,173.5C 288.303,179.924 290.636,182.257 297.5,180.5C 297.167,182.5 296.833,184.5 296.5,186.5C 297.5,186.5 298.5,186.5 299.5,186.5 Z"/></g>
<g><path style="opacity:1" fill="#e9514e" d="M 103.5,167.5 C 105.387,172.266 108.054,176.599 111.5,180.5C 102.792,180.006 94.1251,180.006 85.5,180.5C 85.5,179.5 85.5,178.5 85.5,177.5C 83.2075,177.756 81.0408,177.423 79,176.5C 78.5172,177.448 78.3505,178.448 78.5,179.5C 76.0651,175.201 74.3984,170.535 73.5,165.5C 74.2679,164.737 74.7679,163.737 75,162.5C 75.49,163.793 75.6567,165.127 75.5,166.5C 77.8333,166.5 80.1667,166.5 82.5,166.5C 82.5,167.5 82.5,168.5 82.5,169.5C 88.7141,169.228 94.8808,169.562 101,170.5C 102.31,169.87 103.144,168.87 103.5,167.5 Z"/></g>
<g><path style="opacity:1" fill="#e53961" d="M 194.5,169.5 C 197.179,169.525 198.512,170.858 198.5,173.5C 200.5,173.5 202.5,173.5 204.5,173.5C 204.5,174.5 204.5,175.5 204.5,176.5C 205.833,176.5 207.167,176.5 208.5,176.5C 208.5,177.5 208.5,178.5 208.5,179.5C 210.5,179.833 212.5,180.167 214.5,180.5C 214.491,182.308 214.991,183.975 216,185.5C 216.919,182.598 217.752,182.265 218.5,184.5C 218.25,186.674 217.25,188.341 215.5,189.5C 215.141,187.169 214.474,187.335 213.5,190C 211.866,190.494 210.199,190.66 208.5,190.5C 208.5,189.5 208.5,188.5 208.5,187.5C 206.139,187.326 203.806,186.993 201.5,186.5C 201.5,185.5 201.5,184.5 201.5,183.5C 200.5,183.5 199.5,183.5 198.5,183.5C 198.5,182.5 198.5,181.5 198.5,180.5C 196.073,180.477 193.74,179.977 191.5,179C 194.14,176.797 194.14,175.963 191.5,176.5C 192.227,174.046 193.227,171.713 194.5,169.5 Z"/></g>
<g><path style="opacity:1" fill="#e25850" d="M 27.5,170.5 C 27.5,173.5 27.5,176.5 27.5,179.5C 26.7321,178.737 26.2321,177.737 26,176.5C 25.5014,180.152 25.3347,183.818 25.5,187.5C 22.8333,187.5 20.1667,187.5 17.5,187.5C 17.5,188.5 17.5,189.5 17.5,190.5C 12.8333,190.5 8.16667,190.5 3.5,190.5C 3.71901,191.675 3.38568,192.675 2.5,193.5C 1.68584,191.234 1.18584,188.9 1,186.5C 0.50137,190.152 0.334703,193.818 0.5,197.5C 0.166667,197.5 -0.166667,197.5 -0.5,197.5C -0.5,192.833 -0.5,188.167 -0.5,183.5C 0.216112,181.444 0.882779,179.277 1.5,177C 3.4727,176.505 5.4727,176.338 7.5,176.5C 7.5,175.5 7.5,174.5 7.5,173.5C 13.1667,173.5 18.8333,173.5 24.5,173.5C 24.523,171.073 25.023,168.74 26,166.5C 26.21,168.058 26.71,169.391 27.5,170.5 Z"/></g>
<g><path style="opacity:1" fill="#ec5747" d="M 111.5,180.5 C 113.167,182.5 114.833,184.5 116.5,186.5C 115.761,186.369 115.094,186.536 114.5,187C 117.734,189.748 121.068,192.248 124.5,194.5C 119.527,193.836 114.527,193.503 109.5,193.5C 109.5,192.5 109.5,191.5 109.5,190.5C 105.167,190.5 100.833,190.5 96.5,190.5C 96.5,189.5 96.5,188.5 96.5,187.5C 92.6494,186.971 89.1494,187.638 86,189.5C 84.5518,186.545 82.3851,184.545 79.5,183.5C 79.1667,182.167 78.8333,180.833 78.5,179.5C 78.3505,178.448 78.5172,177.448 79,176.5C 81.0408,177.423 83.2075,177.756 85.5,177.5C 85.5,178.5 85.5,179.5 85.5,180.5C 94.1251,180.006 102.792,180.006 111.5,180.5 Z"/></g>
<g><path style="opacity:1" fill="#e83f5a" d="M 215.5,189.5 C 213.471,194.224 210.471,198.224 206.5,201.5C 205.081,200.549 203.415,200.216 201.5,200.5C 201.5,199.167 201.5,197.833 201.5,196.5C 199.328,195.199 196.995,194.199 194.5,193.5C 194.5,192.5 194.5,191.5 194.5,190.5C 192.167,190.5 189.833,190.5 187.5,190.5C 187.5,189.5 187.5,188.5 187.5,187.5C 183.901,187.738 183.567,186.738 186.5,184.5C 186.376,183.893 186.043,183.56 185.5,183.5C 187.529,181.142 189.529,178.808 191.5,176.5C 194.14,175.963 194.14,176.797 191.5,179C 193.74,179.977 196.073,180.477 198.5,180.5C 198.5,181.5 198.5,182.5 198.5,183.5C 199.5,183.5 200.5,183.5 201.5,183.5C 201.5,184.5 201.5,185.5 201.5,186.5C 203.806,186.993 206.139,187.326 208.5,187.5C 208.5,188.5 208.5,189.5 208.5,190.5C 210.199,190.66 211.866,190.494 213.5,190C 214.474,187.335 215.141,187.169 215.5,189.5 Z"/></g>
<g><path style="opacity:1" fill="#de2f73" d="M 298.5,216.5 C 298.605,220.548 298.272,224.548 297.5,228.5C 296.732,227.737 296.232,226.737 296,225.5C 295.206,228.471 294.539,231.471 294,234.5C 293.517,233.552 293.351,232.552 293.5,231.5C 292.5,231.5 291.5,231.5 290.5,231.5C 290.5,229.167 290.5,226.833 290.5,224.5C 289.167,224.5 287.833,224.5 286.5,224.5C 286.5,223.167 286.5,221.833 286.5,220.5C 285.5,220.5 284.5,220.5 283.5,220.5C 283.5,219.5 283.5,218.5 283.5,217.5C 282.5,217.5 281.5,217.5 280.5,217.5C 280.167,215.5 279.833,213.5 279.5,211.5C 278.5,211.5 277.5,211.5 276.5,211.5C 276.5,209.167 276.5,206.833 276.5,204.5C 275.5,204.5 274.5,204.5 273.5,204.5C 273.5,199.833 273.5,195.167 273.5,190.5C 274.161,189.282 274.828,187.949 275.5,186.5C 276.474,188.743 276.808,191.076 276.5,193.5C 278.833,193.5 281.167,193.5 283.5,193.5C 283.5,194.833 283.5,196.167 283.5,197.5C 284.5,197.5 285.5,197.5 286.5,197.5C 286.5,198.5 286.5,199.5 286.5,200.5C 287.833,200.5 289.167,200.5 290.5,200.5C 290.5,202.833 290.5,205.167 290.5,207.5C 291.5,207.5 292.5,207.5 293.5,207.5C 293.5,208.833 293.5,210.167 293.5,211.5C 296.264,211.999 297.931,213.665 298.5,216.5 Z"/></g>
<g><path style="opacity:1" fill="#f05b42" d="M 79.5,183.5 C 82.3851,184.545 84.5518,186.545 86,189.5C 89.1494,187.638 92.6494,186.971 96.5,187.5C 96.5,188.5 96.5,189.5 96.5,190.5C 100.833,190.5 105.167,190.5 109.5,190.5C 109.5,191.5 109.5,192.5 109.5,193.5C 114.527,193.503 119.527,193.836 124.5,194.5C 125.712,195.23 126.712,196.23 127.5,197.5C 130.632,197.144 133.632,197.978 136.5,200C 138.81,200.497 141.143,200.663 143.5,200.5C 143.5,201.5 143.5,202.5 143.5,203.5C 145.861,203.674 148.194,204.007 150.5,204.5C 150.5,205.5 150.5,206.5 150.5,207.5C 152.833,207.5 155.167,207.5 157.5,207.5C 157.5,208.5 157.5,209.5 157.5,210.5C 161.394,211.576 165.061,212.91 168.5,214.5C 168.5,215.5 168.5,216.5 168.5,217.5C 170.5,217.5 172.5,217.5 174.5,217.5C 174.468,219.619 175.468,220.952 177.5,221.5C 174.37,223.127 171.037,224.46 167.5,225.5C 167.881,224.069 168.881,223.236 170.5,223C 166.225,221.842 161.891,221.008 157.5,220.5C 157.167,218.5 156.833,216.5 156.5,214.5C 153.5,214.5 150.5,214.5 147.5,214.5C 147.5,213.5 147.5,212.5 147.5,211.5C 145.139,211.326 142.806,210.993 140.5,210.5C 140.5,209.5 140.5,208.5 140.5,207.5C 139.5,207.5 138.5,207.5 137.5,207.5C 137.5,206.5 137.5,205.5 137.5,204.5C 132.799,204.648 128.132,204.315 123.5,203.5C 121.319,202.129 118.986,201.129 116.5,200.5C 116.5,199.5 116.5,198.5 116.5,197.5C 114.167,197.5 111.833,197.5 109.5,197.5C 109.5,196.5 109.5,195.5 109.5,194.5C 102.174,193.938 94.8412,193.272 87.5,192.5C 86.6798,190.889 85.3464,190.222 83.5,190.5C 82.4196,188.004 81.0862,185.67 79.5,183.5 Z"/></g>
<g><path style="opacity:1" fill="#ea4355" d="M 185.5,183.5 C 186.043,183.56 186.376,183.893 186.5,184.5C 183.567,186.738 183.901,187.738 187.5,187.5C 187.5,188.5 187.5,189.5 187.5,190.5C 189.833,190.5 192.167,190.5 194.5,190.5C 194.5,191.5 194.5,192.5 194.5,193.5C 196.995,194.199 199.328,195.199 201.5,196.5C 201.5,197.833 201.5,199.167 201.5,200.5C 203.415,200.216 205.081,200.549 206.5,201.5C 204.877,204.491 202.543,206.824 199.5,208.5C 198.194,207.533 197.527,206.199 197.5,204.5C 196.5,204.5 195.5,204.5 194.5,204.5C 194.5,203.5 194.5,202.5 194.5,201.5C 192.5,201.167 190.5,200.833 188.5,200.5C 188.5,199.5 188.5,198.5 188.5,197.5C 187.167,197.5 185.833,197.5 184.5,197.5C 184.5,196.5 184.5,195.5 184.5,194.5C 181.834,194.067 179.168,193.567 176.5,193C 179.402,192.081 179.735,191.248 177.5,190.5C 180.141,188.196 182.808,185.862 185.5,183.5 Z"/></g>
<g><path style="opacity:1" fill="#e85f49" d="M 27.5,179.5 C 27.5,183.167 27.5,186.833 27.5,190.5C 26.0762,192.515 25.4095,194.848 25.5,197.5C 19.5,197.5 13.5,197.5 7.5,197.5C 7.5,198.5 7.5,199.5 7.5,200.5C 5.5,200.5 3.5,200.5 1.5,200.5C 1.73731,199.209 1.40397,198.209 0.5,197.5C 0.334703,193.818 0.50137,190.152 1,186.5C 1.18584,188.9 1.68584,191.234 2.5,193.5C 3.38568,192.675 3.71901,191.675 3.5,190.5C 8.16667,190.5 12.8333,190.5 17.5,190.5C 17.5,189.5 17.5,188.5 17.5,187.5C 20.1667,187.5 22.8333,187.5 25.5,187.5C 25.3347,183.818 25.5014,180.152 26,176.5C 26.2321,177.737 26.7321,178.737 27.5,179.5 Z"/></g>
<g><path style="opacity:1" fill="#f16040" d="M 83.5,190.5 C 85.3464,190.222 86.6798,190.889 87.5,192.5C 94.8412,193.272 102.174,193.938 109.5,194.5C 109.5,195.5 109.5,196.5 109.5,197.5C 111.833,197.5 114.167,197.5 116.5,197.5C 116.5,198.5 116.5,199.5 116.5,200.5C 118.986,201.129 121.319,202.129 123.5,203.5C 128.132,204.315 132.799,204.648 137.5,204.5C 137.5,205.5 137.5,206.5 137.5,207.5C 138.5,207.5 139.5,207.5 140.5,207.5C 140.5,208.5 140.5,209.5 140.5,210.5C 142.806,210.993 145.139,211.326 147.5,211.5C 147.5,212.5 147.5,213.5 147.5,214.5C 150.5,214.5 153.5,214.5 156.5,214.5C 156.833,216.5 157.167,218.5 157.5,220.5C 161.891,221.008 166.225,221.842 170.5,223C 168.881,223.236 167.881,224.069 167.5,225.5C 165.139,225.674 162.806,226.007 160.5,226.5C 160.611,225.883 160.944,225.383 161.5,225C 157.848,224.501 154.182,224.335 150.5,224.5C 150.5,223.5 150.5,222.5 150.5,221.5C 148.139,221.326 145.806,220.993 143.5,220.5C 143.5,218.5 143.5,216.5 143.5,214.5C 141.167,214.5 138.833,214.5 136.5,214.5C 136.5,213.5 136.5,212.5 136.5,211.5C 133.167,211.5 129.833,211.5 126.5,211.5C 126.5,210.167 126.5,208.833 126.5,207.5C 122.167,207.5 117.833,207.5 113.5,207.5C 113.5,206.5 113.5,205.5 113.5,204.5C 112.167,204.5 110.833,204.5 109.5,204.5C 109.5,205.5 109.5,206.5 109.5,207.5C 108.5,207.5 107.5,207.5 106.5,207.5C 106.5,206.5 106.5,205.5 106.5,204.5C 103.193,203.949 99.8599,203.616 96.5,203.5C 96.6495,202.448 96.4828,201.448 96,200.5C 95.6667,200.833 95.3333,201.167 95,201.5C 93.8333,200.333 92.6667,199.167 91.5,198C 90.5632,197.308 89.8966,197.475 89.5,198.5C 87.1468,196.14 85.1468,193.473 83.5,190.5 Z"/></g>
<g><path style="opacity:1" fill="#ec4850" d="M 177.5,190.5 C 179.735,191.248 179.402,192.081 176.5,193C 179.168,193.567 181.834,194.067 184.5,194.5C 184.5,195.5 184.5,196.5 184.5,197.5C 185.833,197.5 187.167,197.5 188.5,197.5C 188.5,198.5 188.5,199.5 188.5,200.5C 190.5,200.833 192.5,201.167 194.5,201.5C 194.5,202.5 194.5,203.5 194.5,204.5C 195.5,204.5 196.5,204.5 197.5,204.5C 197.527,206.199 198.194,207.533 199.5,208.5C 198.738,210.262 197.404,211.262 195.5,211.5C 194.432,210.566 193.099,210.232 191.5,210.5C 191.5,209.5 191.5,208.5 191.5,207.5C 190.5,207.5 189.5,207.5 188.5,207.5C 188.5,206.5 188.5,205.5 188.5,204.5C 186.139,204.326 183.806,203.993 181.5,203.5C 181.5,202.5 181.5,201.5 181.5,200.5C 180.5,200.5 179.5,200.5 178.5,200.5C 178.5,199.5 178.5,198.5 178.5,197.5C 176.076,197.808 173.743,197.474 171.5,196.5C 172.5,195.667 173.5,194.833 174.5,194C 173.906,193.536 173.239,193.369 172.5,193.5C 173.965,192.263 175.632,191.263 177.5,190.5 Z"/></g>
<g><path style="opacity:1" fill="#f05546" d="M 116.5,186.5 C 128.732,196.351 142.732,200.351 158.5,198.5C 160.011,199.502 161.678,200.169 163.5,200.5C 163.5,201.5 163.5,202.5 163.5,203.5C 164.833,203.5 166.167,203.5 167.5,203.5C 167.5,204.833 167.5,206.167 167.5,207.5C 169.833,207.5 172.167,207.5 174.5,207.5C 174.5,208.5 174.5,209.5 174.5,210.5C 176.806,210.993 179.139,211.326 181.5,211.5C 181.5,212.5 181.5,213.5 181.5,214.5C 182.5,214.5 183.5,214.5 184.5,214.5C 184.285,216.179 184.952,217.179 186.5,217.5C 183.912,219.625 180.912,220.958 177.5,221.5C 175.468,220.952 174.468,219.619 174.5,217.5C 172.5,217.5 170.5,217.5 168.5,217.5C 168.5,216.5 168.5,215.5 168.5,214.5C 165.061,212.91 161.394,211.576 157.5,210.5C 157.5,209.5 157.5,208.5 157.5,207.5C 155.167,207.5 152.833,207.5 150.5,207.5C 150.5,206.5 150.5,205.5 150.5,204.5C 148.194,204.007 145.861,203.674 143.5,203.5C 143.5,202.5 143.5,201.5 143.5,200.5C 141.143,200.663 138.81,200.497 136.5,200C 133.632,197.978 130.632,197.144 127.5,197.5C 126.712,196.23 125.712,195.23 124.5,194.5C 121.068,192.248 117.734,189.748 114.5,187C 115.094,186.536 115.761,186.369 116.5,186.5 Z"/></g>
<g><path style="opacity:1" fill="#ec6843" d="M 27.5,190.5 C 28.1655,198.483 28.4988,206.483 28.5,214.5C 27.6862,212.369 27.1862,210.036 27,207.5C 26.5045,209.473 26.3379,211.473 26.5,213.5C 22.5191,214.021 18.5191,214.354 14.5,214.5C 14.5,215.5 14.5,216.5 14.5,217.5C 9.65313,217.715 4.98646,217.715 0.5,217.5C 0.801552,214.941 0.468218,212.607 -0.5,210.5C -0.5,206.167 -0.5,201.833 -0.5,197.5C -0.166667,197.5 0.166667,197.5 0.5,197.5C 1.40397,198.209 1.73731,199.209 1.5,200.5C 3.5,200.5 5.5,200.5 7.5,200.5C 7.5,199.5 7.5,198.5 7.5,197.5C 13.5,197.5 19.5,197.5 25.5,197.5C 25.4095,194.848 26.0762,192.515 27.5,190.5 Z"/></g>
<g><path style="opacity:1" fill="#ee4e4a" d="M 172.5,193.5 C 173.239,193.369 173.906,193.536 174.5,194C 173.5,194.833 172.5,195.667 171.5,196.5C 173.743,197.474 176.076,197.808 178.5,197.5C 178.5,198.5 178.5,199.5 178.5,200.5C 179.5,200.5 180.5,200.5 181.5,200.5C 181.5,201.5 181.5,202.5 181.5,203.5C 183.806,203.993 186.139,204.326 188.5,204.5C 188.5,205.5 188.5,206.5 188.5,207.5C 189.5,207.5 190.5,207.5 191.5,207.5C 191.5,208.5 191.5,209.5 191.5,210.5C 193.099,210.232 194.432,210.566 195.5,211.5C 193.025,214.241 190.025,216.241 186.5,217.5C 184.952,217.179 184.285,216.179 184.5,214.5C 183.5,214.5 182.5,214.5 181.5,214.5C 181.5,213.5 181.5,212.5 181.5,211.5C 179.139,211.326 176.806,210.993 174.5,210.5C 174.5,209.5 174.5,208.5 174.5,207.5C 172.167,207.5 169.833,207.5 167.5,207.5C 167.5,206.167 167.5,204.833 167.5,203.5C 166.167,203.5 164.833,203.5 163.5,203.5C 163.5,202.5 163.5,201.5 163.5,200.5C 161.678,200.169 160.011,199.502 158.5,198.5C 163.188,197.153 167.854,195.486 172.5,193.5 Z"/></g>
<g><path style="opacity:1" fill="#f0723b" d="M 28.5,214.5 C 28.9843,218.232 29.651,221.899 30.5,225.5C 29.8826,225.611 29.3826,225.944 29,226.5C 28.6667,224.5 28.3333,222.5 28,220.5C 27.51,221.793 27.3433,223.127 27.5,224.5C 23.1667,224.5 18.8333,224.5 14.5,224.5C 14.5,225.5 14.5,226.5 14.5,227.5C 12.1944,227.993 9.86105,228.326 7.5,228.5C 7.5,229.5 7.5,230.5 7.5,231.5C 6.5,231.5 5.5,231.5 4.5,231.5C 4.64945,230.448 4.48278,229.448 4,228.5C 3.76791,229.737 3.26791,230.737 2.5,231.5C 1.40157,226.908 0.734905,222.241 0.5,217.5C 4.98646,217.715 9.65313,217.715 14.5,217.5C 14.5,216.5 14.5,215.5 14.5,214.5C 18.5191,214.354 22.5191,214.021 26.5,213.5C 26.3379,211.473 26.5045,209.473 27,207.5C 27.1862,210.036 27.6862,212.369 28.5,214.5 Z"/></g>
<g><path style="opacity:0.987" fill="#f4673c" d="M 160.5,226.5 C 131.791,229.636 108.124,220.302 89.5,198.5C 89.8966,197.475 90.5632,197.308 91.5,198C 92.6667,199.167 93.8333,200.333 95,201.5C 95.3333,201.167 95.6667,200.833 96,200.5C 96.4828,201.448 96.6495,202.448 96.5,203.5C 99.8599,203.616 103.193,203.949 106.5,204.5C 106.5,205.5 106.5,206.5 106.5,207.5C 107.5,207.5 108.5,207.5 109.5,207.5C 109.5,206.5 109.5,205.5 109.5,204.5C 110.833,204.5 112.167,204.5 113.5,204.5C 113.5,205.5 113.5,206.5 113.5,207.5C 117.833,207.5 122.167,207.5 126.5,207.5C 126.5,208.833 126.5,210.167 126.5,211.5C 129.833,211.5 133.167,211.5 136.5,211.5C 136.5,212.5 136.5,213.5 136.5,214.5C 138.833,214.5 141.167,214.5 143.5,214.5C 143.5,216.5 143.5,218.5 143.5,220.5C 145.806,220.993 148.139,221.326 150.5,221.5C 150.5,222.5 150.5,223.5 150.5,224.5C 154.182,224.335 157.848,224.501 161.5,225C 160.944,225.383 160.611,225.883 160.5,226.5 Z"/></g>
<g><path style="opacity:1" fill="#e33567" d="M 287.5,257.5 C 286.241,261.025 284.241,264.025 281.5,266.5C 280.232,264.095 279.565,261.428 279.5,258.5C 278.5,258.5 277.5,258.5 276.5,258.5C 276.5,256.5 276.5,254.5 276.5,252.5C 275.5,252.5 274.5,252.5 273.5,252.5C 273.167,249.833 272.833,247.167 272.5,244.5C 271.5,244.5 270.5,244.5 269.5,244.5C 268.668,239.758 268.335,235.091 268.5,230.5C 268.232,228.901 268.566,227.568 269.5,226.5C 269.783,227.289 270.283,227.956 271,228.5C 271.333,226.833 271.667,225.167 272,223.5C 273.356,224.38 274.856,224.714 276.5,224.5C 276.5,226.833 276.5,229.167 276.5,231.5C 277.5,231.5 278.5,231.5 279.5,231.5C 279.167,234.5 280.5,235.833 283.5,235.5C 283.5,237.5 283.5,239.5 283.5,241.5C 284.5,241.5 285.5,241.5 286.5,241.5C 286.218,246.927 286.551,252.26 287.5,257.5 Z"/></g>
<g><path style="opacity:1" fill="#f27939" d="M 30.5,225.5 C 30.366,227.292 30.6993,228.958 31.5,230.5C 26.9296,231.441 22.263,231.774 17.5,231.5C 17.5,232.5 17.5,233.5 17.5,234.5C 14.1667,235.833 10.8333,235.833 7.5,234.5C 6.94727,238.456 6.11393,238.456 5,234.5C 4.50999,235.793 4.34332,237.127 4.5,238.5C 3.38815,236.401 2.72148,234.067 2.5,231.5C 3.26791,230.737 3.76791,229.737 4,228.5C 4.48278,229.448 4.64945,230.448 4.5,231.5C 5.5,231.5 6.5,231.5 7.5,231.5C 7.5,230.5 7.5,229.5 7.5,228.5C 9.86105,228.326 12.1944,227.993 14.5,227.5C 14.5,226.5 14.5,225.5 14.5,224.5C 18.8333,224.5 23.1667,224.5 27.5,224.5C 27.3433,223.127 27.51,221.793 28,220.5C 28.3333,222.5 28.6667,224.5 29,226.5C 29.3826,225.944 29.8826,225.611 30.5,225.5 Z"/></g>
<g><path style="opacity:1" fill="#e1326e" d="M 273.5,190.5 C 273.5,195.167 273.5,199.833 273.5,204.5C 274.5,204.5 275.5,204.5 276.5,204.5C 276.5,206.833 276.5,209.167 276.5,211.5C 277.5,211.5 278.5,211.5 279.5,211.5C 279.833,213.5 280.167,215.5 280.5,217.5C 281.5,217.5 282.5,217.5 283.5,217.5C 283.5,218.5 283.5,219.5 283.5,220.5C 284.5,220.5 285.5,220.5 286.5,220.5C 286.5,221.833 286.5,223.167 286.5,224.5C 287.833,224.5 289.167,224.5 290.5,224.5C 290.5,226.833 290.5,229.167 290.5,231.5C 291.5,231.5 292.5,231.5 293.5,231.5C 293.351,232.552 293.517,233.552 294,234.5C 294.539,231.471 295.206,228.471 296,225.5C 296.232,226.737 296.732,227.737 297.5,228.5C 296.132,238.941 292.799,248.607 287.5,257.5C 286.551,252.26 286.218,246.927 286.5,241.5C 285.5,241.5 284.5,241.5 283.5,241.5C 283.5,239.5 283.5,237.5 283.5,235.5C 280.5,235.833 279.167,234.5 279.5,231.5C 278.5,231.5 277.5,231.5 276.5,231.5C 276.5,229.167 276.5,226.833 276.5,224.5C 274.856,224.714 273.356,224.38 272,223.5C 271.667,225.167 271.333,226.833 271,228.5C 270.283,227.956 269.783,227.289 269.5,226.5C 270.728,214.535 271.395,202.535 271.5,190.5C 272.321,187.359 272.821,184.025 273,180.5C 273.498,183.817 273.665,187.15 273.5,190.5 Z"/></g>
<g><path style="opacity:1" fill="#f58438" d="M 31.5,230.5 C 33.0551,236.837 35.3884,242.837 38.5,248.5C 34.0444,248.354 29.3777,248.354 24.5,248.5C 24.5,249.5 24.5,250.5 24.5,251.5C 19.7863,251.827 15.1196,251.493 10.5,250.5C 10.1207,248.787 9.12071,247.787 7.5,247.5C 5.52751,244.916 4.52751,241.916 4.5,238.5C 4.34332,237.127 4.50999,235.793 5,234.5C 6.11393,238.456 6.94727,238.456 7.5,234.5C 10.8333,235.833 14.1667,235.833 17.5,234.5C 17.5,233.5 17.5,232.5 17.5,231.5C 22.263,231.774 26.9296,231.441 31.5,230.5 Z"/></g>
<g><path style="opacity:1" fill="#e63a61" d="M 268.5,230.5 C 268.335,235.091 268.668,239.758 269.5,244.5C 270.5,244.5 271.5,244.5 272.5,244.5C 272.833,247.167 273.167,249.833 273.5,252.5C 274.5,252.5 275.5,252.5 276.5,252.5C 276.5,254.5 276.5,256.5 276.5,258.5C 277.5,258.5 278.5,258.5 279.5,258.5C 279.565,261.428 280.232,264.095 281.5,266.5C 280.557,269.109 278.89,271.109 276.5,272.5C 276.631,271.761 276.464,271.094 276,270.5C 275.311,271.357 274.478,272.023 273.5,272.5C 272.526,270.257 272.192,267.924 272.5,265.5C 271.5,265.5 270.5,265.5 269.5,265.5C 269.5,263.167 269.5,260.833 269.5,258.5C 268.5,258.5 267.5,258.5 266.5,258.5C 266.5,256.167 266.5,253.833 266.5,251.5C 265.5,251.5 264.5,251.5 263.5,251.5C 263.318,249.409 263.652,247.409 264.5,245.5C 264.043,244.702 263.376,244.369 262.5,244.5C 265.093,239.991 267.093,235.325 268.5,230.5 Z"/></g>
<g><path style="opacity:1" fill="#e8405b" d="M 262.5,244.5 C 263.376,244.369 264.043,244.702 264.5,245.5C 263.652,247.409 263.318,249.409 263.5,251.5C 264.5,251.5 265.5,251.5 266.5,251.5C 266.5,253.833 266.5,256.167 266.5,258.5C 267.5,258.5 268.5,258.5 269.5,258.5C 269.5,260.833 269.5,263.167 269.5,265.5C 270.5,265.5 271.5,265.5 272.5,265.5C 272.192,267.924 272.526,270.257 273.5,272.5C 274.478,272.023 275.311,271.357 276,270.5C 276.464,271.094 276.631,271.761 276.5,272.5C 273.052,277.287 268.719,280.954 263.5,283.5C 263.751,281.83 264.418,280.33 265.5,279C 264.151,278.228 263.318,277.061 263,275.5C 262.503,273.19 262.337,270.857 262.5,268.5C 261.5,268.5 260.5,268.5 259.5,268.5C 259.5,266.167 259.5,263.833 259.5,261.5C 258.5,261.5 257.5,261.5 256.5,261.5C 256.802,258.941 256.468,256.607 255.5,254.5C 257.833,251.167 260.167,247.833 262.5,244.5 Z"/></g>
<g><path style="opacity:1" fill="#f89139" d="M 7.5,247.5 C 9.12071,247.787 10.1207,248.787 10.5,250.5C 15.1196,251.493 19.7863,251.827 24.5,251.5C 24.5,250.5 24.5,249.5 24.5,248.5C 29.3777,248.354 34.0444,248.354 38.5,248.5C 41.5,252.167 44.8333,255.5 48.5,258.5C 46.1582,258.775 46.1582,259.608 48.5,261C 45.1832,261.498 41.8499,261.665 38.5,261.5C 38.5,260.5 38.5,259.5 38.5,258.5C 37.1667,258.5 35.8333,258.5 34.5,258.5C 34.5,259.5 34.5,260.5 34.5,261.5C 31.1401,261.616 27.8067,261.949 24.5,262.5C 24.5,263.5 24.5,264.5 24.5,265.5C 21.6239,265.208 18.9572,265.208 16.5,265.5C 12.4423,260.051 9.44234,254.051 7.5,247.5 Z"/></g>
<g><path style="opacity:1" fill="#ea4655" d="M 255.5,254.5 C 256.468,256.607 256.802,258.941 256.5,261.5C 257.5,261.5 258.5,261.5 259.5,261.5C 259.5,263.833 259.5,266.167 259.5,268.5C 260.5,268.5 261.5,268.5 262.5,268.5C 262.337,270.857 262.503,273.19 263,275.5C 263.318,277.061 264.151,278.228 265.5,279C 264.418,280.33 263.751,281.83 263.5,283.5C 262.564,284.974 261.23,285.974 259.5,286.5C 258.209,285.527 258.209,284.527 259.5,283.5C 258.675,282.614 257.675,282.281 256.5,282.5C 254.549,279.534 253.216,276.2 252.5,272.5C 251.5,272.5 250.5,272.5 249.5,272.5C 249.5,271.5 249.5,270.5 249.5,269.5C 248.5,269.5 247.5,269.5 246.5,269.5C 246.338,267.473 246.505,265.473 247,263.5C 248.771,262.696 250.271,261.529 251.5,260C 250.906,259.536 250.239,259.369 249.5,259.5C 251.475,257.863 253.475,256.196 255.5,254.5 Z"/></g>
<g><path style="opacity:0.994" fill="#ef564b" d="M 237.5,266.5 C 238.302,267.952 238.802,269.618 239,271.5C 240.011,272.337 241.178,272.67 242.5,272.5C 242.5,273.5 242.5,274.5 242.5,275.5C 243.5,275.5 244.5,275.5 245.5,275.5C 246.051,278.807 246.384,282.14 246.5,285.5C 247.5,285.5 248.5,285.5 249.5,285.5C 249.5,286.5 249.5,287.5 249.5,288.5C 251.179,288.285 252.179,288.952 252.5,290.5C 247.99,292.559 243.323,294.226 238.5,295.5C 237.692,291.122 236.692,286.789 235.5,282.5C 233.5,282.5 231.5,282.5 229.5,282.5C 229.167,280.5 228.833,278.5 228.5,276.5C 227.5,276.5 226.5,276.5 225.5,276.5C 225.5,275.167 225.5,273.833 225.5,272.5C 224.448,272.649 223.448,272.483 222.5,272C 224.167,271.667 225.833,271.333 227.5,271C 226.263,270.768 225.263,270.268 224.5,269.5C 228.793,268.343 233.127,267.343 237.5,266.5 Z"/></g>
<g><path style="opacity:0.983" fill="#fb9e41" d="M 48.5,258.5 C 55.6263,263.826 63.6263,267.326 72.5,269C 88.0951,271.045 103.762,271.879 119.5,271.5C 117.975,273.036 115.975,274.036 113.5,274.5C 117.276,274.997 120.61,276.33 123.5,278.5C 125.818,278.997 128.152,279.33 130.5,279.5C 130.5,280.5 130.5,281.5 130.5,282.5C 133.809,281.373 137.143,281.373 140.5,282.5C 140.5,283.5 140.5,284.5 140.5,285.5C 142.806,285.993 145.139,286.326 147.5,286.5C 147.5,287.5 147.5,288.5 147.5,289.5C 149.5,289.5 151.5,289.5 153.5,289.5C 153.33,290.822 153.663,291.989 154.5,293C 156.42,294.122 158.42,294.956 160.5,295.5C 160.5,296.833 160.5,298.167 160.5,299.5C 157.167,299.5 153.833,299.5 150.5,299.5C 150.5,298.167 150.5,296.833 150.5,295.5C 146.744,295.467 143.411,294.467 140.5,292.5C 140.5,291.5 140.5,290.5 140.5,289.5C 136.128,290.201 132.461,289.034 129.5,286C 127.527,285.505 125.527,285.338 123.5,285.5C 123.5,284.5 123.5,283.5 123.5,282.5C 121.167,282.5 118.833,282.5 116.5,282.5C 116.5,281.5 116.5,280.5 116.5,279.5C 110.869,279.794 105.202,279.46 99.5,278.5C 99.5,277.5 99.5,276.5 99.5,275.5C 95.1161,275.826 90.7828,275.492 86.5,274.5C 94.1451,273.669 101.812,273.169 109.5,273C 99.1535,272.638 88.8202,272.138 78.5,271.5C 78.5,272.833 78.5,274.167 78.5,275.5C 77.5,275.5 76.5,275.5 75.5,275.5C 75.5,274.5 75.5,273.5 75.5,272.5C 64.1667,272.5 52.8333,272.5 41.5,272.5C 41.5,273.5 41.5,274.5 41.5,275.5C 37.5656,275.021 33.8989,275.688 30.5,277.5C 28.1831,275.684 26.0165,273.684 24,271.5C 23.5357,272.094 23.369,272.761 23.5,273.5C 21.1765,270.874 18.8432,268.207 16.5,265.5C 18.9572,265.208 21.6239,265.208 24.5,265.5C 24.5,264.5 24.5,263.5 24.5,262.5C 27.8067,261.949 31.1401,261.616 34.5,261.5C 34.5,260.5 34.5,259.5 34.5,258.5C 35.8333,258.5 37.1667,258.5 38.5,258.5C 38.5,259.5 38.5,260.5 38.5,261.5C 41.8499,261.665 45.1832,261.498 48.5,261C 46.1582,259.608 46.1582,258.775 48.5,258.5 Z"/></g>
<g><path style="opacity:1" fill="#ed4e50" d="M 249.5,259.5 C 250.239,259.369 250.906,259.536 251.5,260C 250.271,261.529 248.771,262.696 247,263.5C 246.505,265.473 246.338,267.473 246.5,269.5C 247.5,269.5 248.5,269.5 249.5,269.5C 249.5,270.5 249.5,271.5 249.5,272.5C 250.5,272.5 251.5,272.5 252.5,272.5C 253.216,276.2 254.549,279.534 256.5,282.5C 257.675,282.281 258.675,282.614 259.5,283.5C 258.209,284.527 258.209,285.527 259.5,286.5C 257.365,288.071 255.032,289.404 252.5,290.5C 252.179,288.952 251.179,288.285 249.5,288.5C 249.5,287.5 249.5,286.5 249.5,285.5C 248.5,285.5 247.5,285.5 246.5,285.5C 246.384,282.14 246.051,278.807 245.5,275.5C 244.5,275.5 243.5,275.5 242.5,275.5C 242.5,274.5 242.5,273.5 242.5,272.5C 241.178,272.67 240.011,272.337 239,271.5C 238.802,269.618 238.302,267.952 237.5,266.5C 241.465,264.182 245.465,261.848 249.5,259.5 Z"/></g>
<g><path style="opacity:0.993" fill="#fa9943" d="M 119.5,271.5 C 125.167,271.5 130.833,271.5 136.5,271.5C 134.708,272.309 132.708,272.809 130.5,273C 139.833,273.667 139.833,274.333 130.5,275C 137.135,275.81 143.302,277.977 149,281.5C 150.766,282.233 152.599,282.567 154.5,282.5C 154.5,283.5 154.5,284.5 154.5,285.5C 156.5,285.833 158.5,286.167 160.5,286.5C 160.5,288.5 160.5,290.5 160.5,292.5C 162.833,292.5 165.167,292.5 167.5,292.5C 167.5,293.5 167.5,294.5 167.5,295.5C 170.5,295.167 171.833,296.5 171.5,299.5C 167.833,299.5 164.167,299.5 160.5,299.5C 160.5,298.167 160.5,296.833 160.5,295.5C 158.42,294.956 156.42,294.122 154.5,293C 153.663,291.989 153.33,290.822 153.5,289.5C 151.5,289.5 149.5,289.5 147.5,289.5C 147.5,288.5 147.5,287.5 147.5,286.5C 145.139,286.326 142.806,285.993 140.5,285.5C 140.5,284.5 140.5,283.5 140.5,282.5C 137.143,281.373 133.809,281.373 130.5,282.5C 130.5,281.5 130.5,280.5 130.5,279.5C 128.152,279.33 125.818,278.997 123.5,278.5C 120.61,276.33 117.276,274.997 113.5,274.5C 115.975,274.036 117.975,273.036 119.5,271.5 Z"/></g>
<g><path style="opacity:1" fill="#f26047" d="M 224.5,269.5 C 225.263,270.268 226.263,270.768 227.5,271C 225.833,271.333 224.167,271.667 222.5,272C 223.448,272.483 224.448,272.649 225.5,272.5C 225.5,273.833 225.5,275.167 225.5,276.5C 226.5,276.5 227.5,276.5 228.5,276.5C 228.833,278.5 229.167,280.5 229.5,282.5C 231.5,282.5 233.5,282.5 235.5,282.5C 236.692,286.789 237.692,291.122 238.5,295.5C 237.391,295.557 236.391,295.89 235.5,296.5C 232.671,295.778 230.671,294.445 229.5,292.5C 229.007,290.194 228.674,287.861 228.5,285.5C 227.5,285.5 226.5,285.5 225.5,285.5C 225.5,284.5 225.5,283.5 225.5,282.5C 224.5,282.5 223.5,282.5 222.5,282.5C 222.5,281.5 222.5,280.5 222.5,279.5C 221.178,279.67 220.011,279.337 219,278.5C 218.503,275.854 218.336,273.187 218.5,270.5C 220.435,269.85 222.435,269.517 224.5,269.5 Z"/></g>
<g><path style="opacity:1" fill="#f77c42" d="M 177.5,271.5 C 178.833,271.5 180.167,271.5 181.5,271.5C 183.607,272.468 185.941,272.802 188.5,272.5C 188.5,273.5 188.5,274.5 188.5,275.5C 190.5,275.5 192.5,275.5 194.5,275.5C 195.199,277.995 196.199,280.328 197.5,282.5C 198.833,282.5 200.167,282.5 201.5,282.5C 201.5,283.833 201.5,285.167 201.5,286.5C 202.833,286.5 204.167,286.5 205.5,286.5C 205.5,287.5 205.5,288.5 205.5,289.5C 206.5,289.5 207.5,289.5 208.5,289.5C 208.5,292.833 208.5,296.167 208.5,299.5C 206.167,299.5 203.833,299.5 201.5,299.5C 198.738,297.234 195.405,295.901 191.5,295.5C 191.5,293.5 191.5,291.5 191.5,289.5C 190.5,289.5 189.5,289.5 188.5,289.5C 188.5,288.5 188.5,287.5 188.5,286.5C 187.167,286.5 185.833,286.5 184.5,286.5C 184.5,285.167 184.5,283.833 184.5,282.5C 182.5,282.5 180.5,282.5 178.5,282.5C 178.833,279.5 177.5,278.167 174.5,278.5C 174.5,277.5 174.5,276.5 174.5,275.5C 172.473,275.662 170.473,275.495 168.5,275C 171.036,274.661 173.536,274.161 176,273.5C 177.03,273.164 177.53,272.497 177.5,271.5 Z"/></g>
<g><path style="opacity:1" fill="#f67442" d="M 181.5,271.5 C 187.833,271.5 194.167,271.5 200.5,271.5C 200.611,272.117 200.944,272.617 201.5,273C 197.544,274.114 197.544,274.947 201.5,275.5C 201.5,276.5 201.5,277.5 201.5,278.5C 202.5,278.5 203.5,278.5 204.5,278.5C 204.167,281.5 205.5,282.833 208.5,282.5C 208.5,283.5 208.5,284.5 208.5,285.5C 209.5,285.5 210.5,285.5 211.5,285.5C 211.167,288.5 212.5,289.833 215.5,289.5C 215.5,290.5 215.5,291.5 215.5,292.5C 216.5,292.5 217.5,292.5 218.5,292.5C 218.5,293.833 218.5,295.167 218.5,296.5C 220.199,296.34 221.866,296.506 223.5,297C 221.942,297.21 220.609,297.71 219.5,298.5C 218.209,298.263 217.209,298.596 216.5,299.5C 213.833,299.5 211.167,299.5 208.5,299.5C 208.5,296.167 208.5,292.833 208.5,289.5C 207.5,289.5 206.5,289.5 205.5,289.5C 205.5,288.5 205.5,287.5 205.5,286.5C 204.167,286.5 202.833,286.5 201.5,286.5C 201.5,285.167 201.5,283.833 201.5,282.5C 200.167,282.5 198.833,282.5 197.5,282.5C 196.199,280.328 195.199,277.995 194.5,275.5C 192.5,275.5 190.5,275.5 188.5,275.5C 188.5,274.5 188.5,273.5 188.5,272.5C 185.941,272.802 183.607,272.468 181.5,271.5 Z"/></g>
<g><path style="opacity:1" fill="#f88641" d="M 153.5,271.5 C 161.5,271.5 169.5,271.5 177.5,271.5C 177.53,272.497 177.03,273.164 176,273.5C 173.536,274.161 171.036,274.661 168.5,275C 170.473,275.495 172.473,275.662 174.5,275.5C 174.5,276.5 174.5,277.5 174.5,278.5C 177.5,278.167 178.833,279.5 178.5,282.5C 180.5,282.5 182.5,282.5 184.5,282.5C 184.5,283.833 184.5,285.167 184.5,286.5C 185.833,286.5 187.167,286.5 188.5,286.5C 188.5,287.5 188.5,288.5 188.5,289.5C 189.5,289.5 190.5,289.5 191.5,289.5C 191.5,291.5 191.5,293.5 191.5,295.5C 195.405,295.901 198.738,297.234 201.5,299.5C 197.167,299.5 192.833,299.5 188.5,299.5C 188.5,298.5 188.5,297.5 188.5,296.5C 187.167,296.5 185.833,296.5 184.5,296.5C 184.5,294.167 184.5,291.833 184.5,289.5C 180.995,290.124 178.162,289.124 176,286.5C 174.56,285.852 173.06,285.519 171.5,285.5C 171.5,284.5 171.5,283.5 171.5,282.5C 170.167,282.5 168.833,282.5 167.5,282.5C 167.5,281.5 167.5,280.5 167.5,279.5C 164.466,277.671 161.132,276.171 157.5,275C 159.833,274.667 162.167,274.333 164.5,274C 160.57,273.758 156.903,272.925 153.5,271.5 Z"/></g>
<g><path style="opacity:1" fill="#fba546" d="M 150.5,299.5 C 147.167,299.5 143.833,299.5 140.5,299.5C 140.5,298.5 140.5,297.5 140.5,296.5C 138.167,296.5 135.833,296.5 133.5,296.5C 133.5,295.167 133.5,293.833 133.5,292.5C 129.167,292.5 124.833,292.5 120.5,292.5C 120.5,291.5 120.5,290.5 120.5,289.5C 119.167,289.5 117.833,289.5 116.5,289.5C 116.5,288.5 116.5,287.5 116.5,286.5C 110.879,285.646 105.212,285.313 99.5,285.5C 99.5,284.5 99.5,283.5 99.5,282.5C 93.8333,282.5 88.1667,282.5 82.5,282.5C 82.5,281.5 82.5,280.5 82.5,279.5C 80.1667,279.5 77.8333,279.5 75.5,279.5C 75.5,280.5 75.5,281.5 75.5,282.5C 74.5,282.5 73.5,282.5 72.5,282.5C 72.5,281.5 72.5,280.5 72.5,279.5C 68.8333,279.5 65.1667,279.5 61.5,279.5C 61.5,280.5 61.5,281.5 61.5,282.5C 60.5,282.5 59.5,282.5 58.5,282.5C 58.5,281.5 58.5,280.5 58.5,279.5C 56.1667,279.5 53.8333,279.5 51.5,279.5C 51.5,280.5 51.5,281.5 51.5,282.5C 46.4889,282.666 41.4889,282.499 36.5,282C 34.6951,281.028 33.0284,279.861 31.5,278.5C 30.8933,278.624 30.56,278.957 30.5,279.5C 27.5726,278.243 25.2393,276.243 23.5,273.5C 23.369,272.761 23.5357,272.094 24,271.5C 26.0165,273.684 28.1831,275.684 30.5,277.5C 33.8989,275.688 37.5656,275.021 41.5,275.5C 41.5,274.5 41.5,273.5 41.5,272.5C 52.8333,272.5 64.1667,272.5 75.5,272.5C 75.5,273.5 75.5,274.5 75.5,275.5C 76.5,275.5 77.5,275.5 78.5,275.5C 78.5,274.167 78.5,272.833 78.5,271.5C 88.8202,272.138 99.1535,272.638 109.5,273C 101.812,273.169 94.1451,273.669 86.5,274.5C 90.7828,275.492 95.1161,275.826 99.5,275.5C 99.5,276.5 99.5,277.5 99.5,278.5C 105.202,279.46 110.869,279.794 116.5,279.5C 116.5,280.5 116.5,281.5 116.5,282.5C 118.833,282.5 121.167,282.5 123.5,282.5C 123.5,283.5 123.5,284.5 123.5,285.5C 125.527,285.338 127.527,285.505 129.5,286C 132.461,289.034 136.128,290.201 140.5,289.5C 140.5,290.5 140.5,291.5 140.5,292.5C 143.411,294.467 146.744,295.467 150.5,295.5C 150.5,296.833 150.5,298.167 150.5,299.5 Z"/></g>
<g><path style="opacity:1" fill="#f98e42" d="M 136.5,271.5 C 142.167,271.5 147.833,271.5 153.5,271.5C 156.903,272.925 160.57,273.758 164.5,274C 162.167,274.333 159.833,274.667 157.5,275C 161.132,276.171 164.466,277.671 167.5,279.5C 167.5,280.5 167.5,281.5 167.5,282.5C 168.833,282.5 170.167,282.5 171.5,282.5C 171.5,283.5 171.5,284.5 171.5,285.5C 173.06,285.519 174.56,285.852 176,286.5C 178.162,289.124 180.995,290.124 184.5,289.5C 184.5,291.833 184.5,294.167 184.5,296.5C 185.833,296.5 187.167,296.5 188.5,296.5C 188.5,297.5 188.5,298.5 188.5,299.5C 182.833,299.5 177.167,299.5 171.5,299.5C 171.833,296.5 170.5,295.167 167.5,295.5C 167.5,294.5 167.5,293.5 167.5,292.5C 165.167,292.5 162.833,292.5 160.5,292.5C 160.5,290.5 160.5,288.5 160.5,286.5C 158.5,286.167 156.5,285.833 154.5,285.5C 154.5,284.5 154.5,283.5 154.5,282.5C 152.599,282.567 150.766,282.233 149,281.5C 143.302,277.977 137.135,275.81 130.5,275C 139.833,274.333 139.833,273.667 130.5,273C 132.708,272.809 134.708,272.309 136.5,271.5 Z"/></g>
<g><path style="opacity:1" fill="#fcab4b" d="M 140.5,299.5 C 134.833,299.5 129.167,299.5 123.5,299.5C 123.5,298.5 123.5,297.5 123.5,296.5C 121.167,296.5 118.833,296.5 116.5,296.5C 116.5,295.5 116.5,294.5 116.5,293.5C 110.879,292.646 105.212,292.313 99.5,292.5C 99.5,291.5 99.5,290.5 99.5,289.5C 93.8333,289.5 88.1667,289.5 82.5,289.5C 82.5,288.5 82.5,287.5 82.5,286.5C 77.5338,287.246 72.5338,287.913 67.5,288.5C 64.8333,288.167 62.1667,287.833 59.5,287.5C 59.1131,286.28 58.2798,285.613 57,285.5C 53.577,285.816 50.4103,286.816 47.5,288.5C 44.9206,287.294 42.4206,285.961 40,284.5C 39.5357,285.094 39.369,285.761 39.5,286.5C 36.1897,284.518 33.1897,282.185 30.5,279.5C 30.56,278.957 30.8933,278.624 31.5,278.5C 33.0284,279.861 34.6951,281.028 36.5,282C 41.4889,282.499 46.4889,282.666 51.5,282.5C 51.5,281.5 51.5,280.5 51.5,279.5C 53.8333,279.5 56.1667,279.5 58.5,279.5C 58.5,280.5 58.5,281.5 58.5,282.5C 59.5,282.5 60.5,282.5 61.5,282.5C 61.5,281.5 61.5,280.5 61.5,279.5C 65.1667,279.5 68.8333,279.5 72.5,279.5C 72.5,280.5 72.5,281.5 72.5,282.5C 73.5,282.5 74.5,282.5 75.5,282.5C 75.5,281.5 75.5,280.5 75.5,279.5C 77.8333,279.5 80.1667,279.5 82.5,279.5C 82.5,280.5 82.5,281.5 82.5,282.5C 88.1667,282.5 93.8333,282.5 99.5,282.5C 99.5,283.5 99.5,284.5 99.5,285.5C 105.212,285.313 110.879,285.646 116.5,286.5C 116.5,287.5 116.5,288.5 116.5,289.5C 117.833,289.5 119.167,289.5 120.5,289.5C 120.5,290.5 120.5,291.5 120.5,292.5C 124.833,292.5 129.167,292.5 133.5,292.5C 133.5,293.833 133.5,295.167 133.5,296.5C 135.833,296.5 138.167,296.5 140.5,296.5C 140.5,297.5 140.5,298.5 140.5,299.5 Z"/></g>
<g><path style="opacity:1" fill="#f46b44" d="M 218.5,270.5 C 218.336,273.187 218.503,275.854 219,278.5C 220.011,279.337 221.178,279.67 222.5,279.5C 222.5,280.5 222.5,281.5 222.5,282.5C 223.5,282.5 224.5,282.5 225.5,282.5C 225.5,283.5 225.5,284.5 225.5,285.5C 226.5,285.5 227.5,285.5 228.5,285.5C 228.674,287.861 229.007,290.194 229.5,292.5C 230.671,294.445 232.671,295.778 235.5,296.5C 230.219,297.556 224.886,298.223 219.5,298.5C 220.609,297.71 221.942,297.21 223.5,297C 221.866,296.506 220.199,296.34 218.5,296.5C 218.5,295.167 218.5,293.833 218.5,292.5C 217.5,292.5 216.5,292.5 215.5,292.5C 215.5,291.5 215.5,290.5 215.5,289.5C 212.5,289.833 211.167,288.5 211.5,285.5C 210.5,285.5 209.5,285.5 208.5,285.5C 208.5,284.5 208.5,283.5 208.5,282.5C 205.5,282.833 204.167,281.5 204.5,278.5C 203.5,278.5 202.5,278.5 201.5,278.5C 201.5,277.5 201.5,276.5 201.5,275.5C 197.544,274.947 197.544,274.114 201.5,273C 200.944,272.617 200.611,272.117 200.5,271.5C 206.484,270.926 212.484,270.593 218.5,270.5 Z"/></g>
<g><path style="opacity:0.996" fill="#fdb350" d="M 123.5,299.5 C 109.833,299.5 96.1667,299.5 82.5,299.5C 67.3279,298.121 52.9946,293.788 39.5,286.5C 39.369,285.761 39.5357,285.094 40,284.5C 42.4206,285.961 44.9206,287.294 47.5,288.5C 50.4103,286.816 53.577,285.816 57,285.5C 58.2798,285.613 59.1131,286.28 59.5,287.5C 62.1667,287.833 64.8333,288.167 67.5,288.5C 72.5338,287.913 77.5338,287.246 82.5,286.5C 82.5,287.5 82.5,288.5 82.5,289.5C 88.1667,289.5 93.8333,289.5 99.5,289.5C 99.5,290.5 99.5,291.5 99.5,292.5C 105.212,292.313 110.879,292.646 116.5,293.5C 116.5,294.5 116.5,295.5 116.5,296.5C 118.833,296.5 121.167,296.5 123.5,296.5C 123.5,297.5 123.5,298.5 123.5,299.5 Z"/></g>
</svg>
