<?xml version="1.0" encoding="UTF-8"?>
<!DOCTYPE svg PUBLIC "-//W3C//DTD SVG 1.1//EN" "http://www.w3.org/Graphics/SVG/1.1/DTD/svg11.dtd">
<svg xmlns="http://www.w3.org/2000/svg" version="1.1" width="200px" height="200px" style="shape-rendering:geometricPrecision; text-rendering:geometricPrecision; image-rendering:optimizeQuality; fill-rule:evenodd; clip-rule:evenodd" xmlns:xlink="http://www.w3.org/1999/xlink">
<g><path style="opacity:1" fill="#575757" d="M -0.5,-0.5 C 66.1667,-0.5 132.833,-0.5 199.5,-0.5C 199.5,66.1667 199.5,132.833 199.5,199.5C 132.833,199.5 66.1667,199.5 -0.5,199.5C -0.5,132.833 -0.5,66.1667 -0.5,-0.5 Z"/></g>
<g><path style="opacity:1" fill="#eeeeee" d="M 85.5,27.5 C 126.743,23.1917 155.577,39.8583 172,77.5C 180.923,116.809 167.757,145.976 132.5,165C 97.5234,179.205 67.0234,172.705 41,145.5C 23.6779,122.897 20.0112,98.2308 30,71.5C 41.6145,48.0426 60.1145,33.3759 85.5,27.5 Z"/></g>
<g><path style="opacity:1" fill="#23b9f0" d="M 93.5,56.5 C 100.494,56.4149 102.161,59.2482 98.5,65C 92.5069,66.6683 90.0069,64.5017 91,58.5C 91.9947,57.9341 92.828,57.2674 93.5,56.5 Z"/></g>
<g><path style="opacity:1" fill="#5c5c5c" d="M 79.5,135.5 C 78.5489,136.919 78.2155,138.585 78.5,140.5C 79.9778,140.238 81.3112,140.571 82.5,141.5C 78.8927,142.489 75.226,142.823 71.5,142.5C 72.1834,140.824 73.5168,140.157 75.5,140.5C 81.8647,117.377 88.6981,94.3773 96,71.5C 107.772,94.7102 119.272,118.044 130.5,141.5C 126.764,143.105 123.598,142.439 121,139.5C 112.543,121.252 103.543,103.252 94,85.5C 88.6573,102.027 83.824,118.694 79.5,135.5 Z"/></g>
<g><path style="opacity:1" fill="#cbcbcb" d="M 79.5,135.5 C 79.5,136.833 79.5,138.167 79.5,139.5C 80.8333,139.5 82.1667,139.5 83.5,139.5C 83.5,140.833 83.5,142.167 83.5,143.5C 79.2984,143.817 75.2984,143.483 71.5,142.5C 75.226,142.823 78.8927,142.489 82.5,141.5C 81.3112,140.571 79.9778,140.238 78.5,140.5C 78.2155,138.585 78.5489,136.919 79.5,135.5 Z"/></g>
</svg>
