<?xml version="1.0" encoding="UTF-8"?>
<!DOCTYPE svg PUBLIC "-//W3C//DTD SVG 1.1//EN" "http://www.w3.org/Graphics/SVG/1.1/DTD/svg11.dtd">
<svg xmlns="http://www.w3.org/2000/svg" version="1.1" width="398px" height="398px" style="shape-rendering:geometricPrecision; text-rendering:geometricPrecision; image-rendering:optimizeQuality; fill-rule:evenodd; clip-rule:evenodd" xmlns:xlink="http://www.w3.org/1999/xlink">
<g><path style="opacity:1" fill="#344253" d="M 102.5,47.5 C 102.916,53.9522 102.416,60.2855 101,66.5C 97.3409,70.1151 93.3409,70.4485 89,67.5C 87.5291,50.9282 87.0291,34.2616 87.5,17.5C 88.1678,13.3352 90.6678,11.0019 95,10.5C 97.1394,11.2364 99.1394,12.2364 101,13.5C 102.456,24.7312 102.956,36.0645 102.5,47.5 Z"/></g>
<g><path style="opacity:1" fill="#2e3f51" d="M 189.5,16.5 C 189.5,32.5 189.5,48.5 189.5,64.5C 187.275,69.1087 183.609,70.6087 178.5,69C 177.117,67.7292 176.117,66.2292 175.5,64.5C 175.5,48.5 175.5,32.5 175.5,16.5C 177.585,11.1239 181.252,9.62389 186.5,12C 188.141,13.129 189.141,14.629 189.5,16.5 Z"/></g>
<g><path style="opacity:1" fill="#344253" d="M 277.5,17.5 C 277.667,33.5035 277.5,49.5035 277,65.5C 274.487,69.2115 270.987,70.3782 266.5,69C 265.667,68.1667 264.833,67.3333 264,66.5C 262.584,60.2855 262.084,53.9522 262.5,47.5C 262.044,36.0645 262.544,24.7312 264,13.5C 267.185,10.4308 270.685,9.93082 274.5,12C 276.607,13.2635 277.607,15.0968 277.5,17.5 Z"/></g>
<g><path style="opacity:1" fill="#304153" d="M 80.5,47.5 C 79.9588,50.7488 78.2921,53.2488 75.5,55C 60.1667,55.3333 44.8333,55.6667 29.5,56C 22.6667,58.8333 17.8333,63.6667 15,70.5C 14.5001,82.4954 14.3335,94.4954 14.5,106.5C 126.5,106.5 238.5,106.5 350.5,106.5C 350.667,94.4954 350.5,82.4954 350,70.5C 347.076,63.2417 341.909,58.4084 334.5,56C 319.5,55.6667 304.5,55.3333 289.5,55C 285.95,52.4536 284.617,48.9536 285.5,44.5C 286.29,43.2058 287.29,42.0391 288.5,41C 304.5,40.3333 320.5,40.3333 336.5,41C 350.895,45.0609 360.395,54.2276 365,68.5C 365.667,113.833 365.667,159.167 365,204.5C 363.982,206.928 362.148,208.262 359.5,208.5C 354.882,209.051 352.049,207.051 351,202.5C 350.5,175.502 350.333,148.502 350.5,121.5C 238.335,120.5 126.001,120.167 13.5,120.5C 13.1676,179.669 13.501,238.669 14.5,297.5C 15.927,307.422 21.2603,314.256 30.5,318C 89.5,318.333 148.5,318.667 207.5,319C 210.844,320.894 212.178,323.727 211.5,327.5C 210.797,329.716 209.464,331.549 207.5,333C 148.167,333.667 88.8333,333.667 29.5,333C 14.059,329.055 4.05903,319.555 -0.5,304.5C -0.5,225.833 -0.5,147.167 -0.5,68.5C 3.82656,56.0035 12.1599,47.1702 24.5,42C 41.7803,40.39 59.1136,40.0567 76.5,41C 78.9229,42.5707 80.2562,44.7374 80.5,47.5 Z"/></g>
<g><path style="opacity:1" fill="#e9685e" d="M 87.5,17.5 C 87.0291,34.2616 87.5291,50.9282 89,67.5C 93.3409,70.4485 97.3409,70.1151 101,66.5C 102.416,60.2855 102.916,53.9522 102.5,47.5C 104.95,47.702 107.283,47.3686 109.5,46.5C 109.245,50.4925 110.911,53.3258 114.5,55C 130.5,55.6667 146.5,55.6667 162.5,55C 165.079,53.9243 166.746,52.091 167.5,49.5C 169.717,48.6314 172.05,48.298 174.5,48.5C 174.179,54.0262 174.512,59.3595 175.5,64.5C 176.117,66.2292 177.117,67.7292 178.5,69C 183.609,70.6087 187.275,69.1087 189.5,64.5C 190.488,59.3595 190.821,54.0262 190.5,48.5C 192.95,48.298 195.283,48.6314 197.5,49.5C 198.203,51.7157 199.536,53.549 201.5,55C 217.833,55.6667 234.167,55.6667 250.5,55C 254.089,53.3258 255.755,50.4925 255.5,46.5C 257.717,47.3686 260.05,47.702 262.5,47.5C 262.084,53.9522 262.584,60.2855 264,66.5C 264.833,67.3333 265.667,68.1667 266.5,69C 270.987,70.3782 274.487,69.2115 277,65.5C 277.5,49.5035 277.667,33.5035 277.5,17.5C 278.494,27.3194 278.827,37.3194 278.5,47.5C 280.5,47.5 282.5,47.5 284.5,47.5C 284.263,46.209 284.596,45.209 285.5,44.5C 284.617,48.9536 285.95,52.4536 289.5,55C 304.5,55.3333 319.5,55.6667 334.5,56C 341.909,58.4084 347.076,63.2417 350,70.5C 350.5,82.4954 350.667,94.4954 350.5,106.5C 238.5,106.5 126.5,106.5 14.5,106.5C 14.3335,94.4954 14.5001,82.4954 15,70.5C 17.8333,63.6667 22.6667,58.8333 29.5,56C 44.8333,55.6667 60.1667,55.3333 75.5,55C 78.2921,53.2488 79.9588,50.7488 80.5,47.5C 82.5,47.5 84.5,47.5 86.5,47.5C 86.1726,37.3194 86.506,27.3194 87.5,17.5 Z"/></g>
<g><path style="opacity:1" fill="#324152" d="M 255.5,46.5 C 255.755,50.4925 254.089,53.3258 250.5,55C 234.167,55.6667 217.833,55.6667 201.5,55C 199.536,53.549 198.203,51.7157 197.5,49.5C 197.5,48.1667 197.5,46.8333 197.5,45.5C 197.859,43.629 198.859,42.129 200.5,41C 217.833,40.3333 235.167,40.3333 252.5,41C 254.607,42.2635 255.607,44.0968 255.5,46.5 Z"/></g>
<g><path style="opacity:1" fill="#324052" d="M 167.5,45.5 C 167.5,46.8333 167.5,48.1667 167.5,49.5C 166.746,52.091 165.079,53.9243 162.5,55C 146.5,55.6667 130.5,55.6667 114.5,55C 110.911,53.3258 109.245,50.4925 109.5,46.5C 109.393,44.0968 110.393,42.2635 112.5,41C 129.833,40.3333 147.167,40.3333 164.5,41C 166.141,42.129 167.141,43.629 167.5,45.5 Z"/></g>
<g><path style="opacity:1" fill="#be8a88" d="M 175.5,16.5 C 175.5,32.5 175.5,48.5 175.5,64.5C 174.512,59.3595 174.179,54.0262 174.5,48.5C 172.05,48.298 169.717,48.6314 167.5,49.5C 167.5,48.1667 167.5,46.8333 167.5,45.5C 169.456,47.1484 171.789,47.8151 174.5,47.5C 174.172,36.9865 174.506,26.6532 175.5,16.5 Z"/></g>
<g><path style="opacity:1" fill="#be8a89" d="M 189.5,16.5 C 190.494,26.6532 190.828,36.9865 190.5,47.5C 193.211,47.8151 195.544,47.1484 197.5,45.5C 197.5,46.8333 197.5,48.1667 197.5,49.5C 195.283,48.6314 192.95,48.298 190.5,48.5C 190.821,54.0262 190.488,59.3595 189.5,64.5C 189.5,48.5 189.5,32.5 189.5,16.5 Z"/></g>
<g><path style="opacity:1" fill="#6b7783" d="M 350.5,121.5 C 238.5,121.5 126.5,121.5 14.5,121.5C 14.5,180.167 14.5,238.833 14.5,297.5C 13.501,238.669 13.1676,179.669 13.5,120.5C 126.001,120.167 238.335,120.5 350.5,121.5 Z"/></g>
<g><path style="opacity:1" fill="#e4e4e4" d="M 350.5,121.5 C 350.333,148.502 350.5,175.502 351,202.5C 352.049,207.051 354.882,209.051 359.5,208.5C 358.555,213.405 358.221,218.405 358.5,223.5C 323.241,202.718 288.574,203.551 254.5,226C 222.44,253.355 212.773,287.188 225.5,327.5C 220.833,326.167 216.167,326.167 211.5,327.5C 212.178,323.727 210.844,320.894 207.5,319C 148.5,318.667 89.5,318.333 30.5,318C 21.2603,314.256 15.927,307.422 14.5,297.5C 14.5,238.833 14.5,180.167 14.5,121.5C 126.5,121.5 238.5,121.5 350.5,121.5 Z"/></g>
<g><path style="opacity:1" fill="#304153" d="M 155.5,159.5 C 171.796,158.934 177.629,166.267 173,181.5C 167.443,188.799 160.61,190.299 152.5,186C 146.882,181.071 145.049,174.905 147,167.5C 149.074,163.923 151.907,161.256 155.5,159.5 Z"/></g>
<g><path style="opacity:1" fill="#2f4052" d="M 206.5,159.5 C 219.999,158.171 226.499,164.171 226,177.5C 219.338,189.997 210.672,191.663 200,182.5C 195.031,172.638 197.198,164.971 206.5,159.5 Z"/></g>
<g><path style="opacity:1" fill="#2f4052" d="M 257.5,159.5 C 266.818,157.645 273.318,160.978 277,169.5C 278.072,182.884 271.905,189.051 258.5,188C 250.574,183.92 247.408,177.42 249,168.5C 251.025,164.644 253.858,161.644 257.5,159.5 Z"/></g>
<g><path style="opacity:1" fill="#2e4051" d="M 308.5,159.5 C 322.348,157.855 328.848,163.855 328,177.5C 324.462,186.351 317.962,189.518 308.5,187C 299.553,181.929 297.387,174.762 302,165.5C 304.063,163.266 306.229,161.266 308.5,159.5 Z"/></g>
<g><path style="opacity:1" fill="#324354" d="M 358.5,223.5 C 382.133,240.427 395.133,263.427 397.5,292.5C 397.5,295.167 397.5,297.833 397.5,300.5C 393.958,337.405 375.291,363.571 341.5,379C 314.256,389.073 287.923,387.073 262.5,373C 259.98,371.303 257.647,369.47 255.5,367.5C 254.415,365.413 252.749,364.08 250.5,363.5C 238.702,353.904 230.369,341.904 225.5,327.5C 212.773,287.188 222.44,253.355 254.5,226C 288.574,203.551 323.241,202.718 358.5,223.5 Z"/></g>
<g><path style="opacity:1" fill="#2f4052" d="M 53.5,210.5 C 68.8375,210.333 74.6708,217.667 71,232.5C 63.6255,240.949 55.6255,241.616 47,234.5C 40.787,224.068 42.9537,216.068 53.5,210.5 Z"/></g>
<g><path style="opacity:1" fill="#2e4052" d="M 104.5,210.5 C 120.102,210.031 125.935,217.365 122,232.5C 114.888,240.735 107.055,241.568 98.5,235C 92.843,224.657 94.843,216.49 104.5,210.5 Z"/></g>
<g><path style="opacity:1" fill="#2e4052" d="M 155.5,210.5 C 170.132,209.462 176.298,216.129 174,230.5C 166.322,241.72 157.655,242.387 148,232.5C 144.106,222.785 146.606,215.451 155.5,210.5 Z"/></g>
<g><path style="opacity:1" fill="#2e4052" d="M 207.5,210.5 C 224.547,210.938 229.714,218.938 223,234.5C 212.643,242.418 204.309,240.752 198,229.5C 195.88,220.406 199.047,214.073 207.5,210.5 Z"/></g>
<g><path style="opacity:1" fill="#fdd565" d="M 377.5,271.5 C 368.774,273.964 360.107,276.631 351.5,279.5C 348.796,276.697 345.463,275.863 341.5,277C 331.667,280.5 321.833,284 312,287.5C 302.178,273.201 292.845,258.534 284,243.5C 281.096,241.773 277.93,241.107 274.5,241.5C 272.642,239.117 271.308,236.45 270.5,233.5C 279.61,226.795 289.944,223.295 301.5,223C 330.347,221.383 353.18,232.216 370,255.5C 373.321,260.474 375.821,265.807 377.5,271.5 Z"/></g>
<g><path style="opacity:1" fill="#d2c7bb" d="M 270.5,233.5 C 271.308,236.45 272.642,239.117 274.5,241.5C 271.695,244.246 270.861,247.579 272,251.5C 282.458,268.92 293.292,286.086 304.5,303C 307.167,303.667 309.833,303.667 312.5,303C 324.424,298.47 336.424,294.136 348.5,290C 352.415,287.355 353.415,283.855 351.5,279.5C 360.107,276.631 368.774,273.964 377.5,271.5C 387.948,306.659 378.614,335.492 349.5,358C 321.257,374.945 293.257,374.612 265.5,357C 242.027,338.541 231.86,314.374 235,284.5C 239.449,262.24 251.282,245.24 270.5,233.5 Z"/></g>
<g><path style="opacity:1" fill="#2e3f50" d="M 274.5,241.5 C 277.93,241.107 281.096,241.773 284,243.5C 292.845,258.534 302.178,273.201 312,287.5C 321.833,284 331.667,280.5 341.5,277C 345.463,275.863 348.796,276.697 351.5,279.5C 353.415,283.855 352.415,287.355 348.5,290C 336.424,294.136 324.424,298.47 312.5,303C 309.833,303.667 307.167,303.667 304.5,303C 293.292,286.086 282.458,268.92 272,251.5C 270.861,247.579 271.695,244.246 274.5,241.5 Z"/></g>
<g><path style="opacity:1" fill="#2e4052" d="M 53.5,261.5 C 68.8497,261.344 74.683,268.677 71,283.5C 63.5843,291.955 55.5843,292.622 47,285.5C 40.7844,275.11 42.9511,267.11 53.5,261.5 Z"/></g>
<g><path style="opacity:1" fill="#2e4051" d="M 104.5,261.5 C 119.883,261.373 125.716,268.706 122,283.5C 114.888,291.735 107.055,292.568 98.5,286C 92.9385,275.784 94.9385,267.617 104.5,261.5 Z"/></g>
<g><path style="opacity:1" fill="#2e3f51" d="M 156.5,261.5 C 170.446,261.056 176.28,267.723 174,281.5C 169.328,289.748 162.494,292.248 153.5,289C 147.173,284.354 145.006,278.187 147,270.5C 149.43,266.566 152.597,263.566 156.5,261.5 Z"/></g>
<g><path style="opacity:1" fill="#959ea7" d="M 250.5,363.5 C 252.749,364.08 254.415,365.413 255.5,367.5C 253.251,366.92 251.585,365.587 250.5,363.5 Z"/></g>
</svg>
