<?xml version="1.0" encoding="UTF-8"?>
<!DOCTYPE svg PUBLIC "-//W3C//DTD SVG 1.1//EN" "http://www.w3.org/Graphics/SVG/1.1/DTD/svg11.dtd">
<svg xmlns="http://www.w3.org/2000/svg" version="1.1" width="180px" height="180px" style="shape-rendering:geometricPrecision; text-rendering:geometricPrecision; image-rendering:optimizeQuality; fill-rule:evenodd; clip-rule:evenodd" xmlns:xlink="http://www.w3.org/1999/xlink">
<g><path style="opacity:1" fill="#fefffe" d="M -0.5,-0.5 C 59.5,-0.5 119.5,-0.5 179.5,-0.5C 179.5,59.5 179.5,119.5 179.5,179.5C 119.5,179.5 59.5,179.5 -0.5,179.5C -0.5,119.5 -0.5,59.5 -0.5,-0.5 Z"/></g>
<g><path style="opacity:1" fill="#e00914" d="M 10.5,10.5 C 63.1667,10.5 115.833,10.5 168.5,10.5C 168.5,63.1667 168.5,115.833 168.5,168.5C 115.833,168.5 63.1667,168.5 10.5,168.5C 10.5,115.833 10.5,63.1667 10.5,10.5 Z"/></g>
<g><path style="opacity:1" fill="#fefffe" d="M 19.5,19.5 C 66.1667,19.5 112.833,19.5 159.5,19.5C 159.5,66.1667 159.5,112.833 159.5,159.5C 112.833,159.5 66.1667,159.5 19.5,159.5C 19.5,112.833 19.5,66.1667 19.5,19.5 Z"/></g>
<g><path style="opacity:1" fill="#e00914" d="M 36.5,36.5 C 52.8333,36.5 69.1667,36.5 85.5,36.5C 85.5,52.8333 85.5,69.1667 85.5,85.5C 69.1667,85.5 52.8333,85.5 36.5,85.5C 36.5,69.1667 36.5,52.8333 36.5,36.5 Z"/></g>
<g><path style="opacity:1" fill="#e2171a" d="M 93.5,36.5 C 109.837,36.3334 126.17,36.5001 142.5,37C 126.333,53.1667 110.167,69.3333 94,85.5C 93.5001,69.1701 93.3334,52.8367 93.5,36.5 Z"/></g>
<g><path style="opacity:1" fill="#e00914" d="M 36.5,93.5 C 52.8333,93.5 69.1667,93.5 85.5,93.5C 85.5,109.833 85.5,126.167 85.5,142.5C 69.1667,142.5 52.8333,142.5 36.5,142.5C 36.5,126.167 36.5,109.833 36.5,93.5 Z"/></g>
<g><path style="opacity:1" fill="#e2171a" d="M 93.5,93.5 C 109.965,109.465 126.299,125.632 142.5,142C 126.17,142.5 109.837,142.667 93.5,142.5C 93.5,126.167 93.5,109.833 93.5,93.5 Z"/></g>
</svg>
