<?xml version="1.0" encoding="UTF-8"?>
<!DOCTYPE svg PUBLIC "-//W3C//DTD SVG 1.1//EN" "http://www.w3.org/Graphics/SVG/1.1/DTD/svg11.dtd">
<svg xmlns="http://www.w3.org/2000/svg" version="1.1" width="79px" height="78px" style="shape-rendering:geometricPrecision; text-rendering:geometricPrecision; image-rendering:optimizeQuality; fill-rule:evenodd; clip-rule:evenodd" xmlns:xlink="http://www.w3.org/1999/xlink">
<g><path style="opacity:0.796" fill="#68af21" d="M 47.5,-0.5 C 50.1667,-0.5 52.8333,-0.5 55.5,-0.5C 57.2646,0.461384 59.2646,0.794717 61.5,0.5C 61.5,3.5 61.5,6.5 61.5,9.5C 57.7983,9.42096 54.1317,9.75429 50.5,10.5C 47.4027,8.77705 44.0693,7.44372 40.5,6.5C 32.5296,7.60447 24.5296,7.77114 16.5,7C 15.6198,5.64387 15.2865,4.14387 15.5,2.5C 24.0423,2.21014 32.5423,2.54347 41,3.5C 43.6339,2.77407 45.8005,1.44074 47.5,-0.5 Z"/></g>
<g><path style="opacity:0.94" fill="#68af21" d="M 34.5,10.5 C 57.8472,10.678 68.3472,22.3446 66,45.5C 59.9526,61.4447 48.4526,67.9447 31.5,65C 11.879,56.8063 6.37895,42.973 15,23.5C 19.8152,16.5177 26.3152,12.1843 34.5,10.5 Z M 36.5,23.5 C 51.0357,25.2591 55.869,32.9257 51,46.5C 42.6667,55.8333 34.3333,55.8333 26,46.5C 21.3648,35.1044 24.8648,27.4377 36.5,23.5 Z"/></g>
<g><path style="opacity:0.757" fill="#68af22" d="M -0.5,30.5 C -0.5,26.1667 -0.5,21.8333 -0.5,17.5C 2.20503,15.4185 5.20503,15.0852 8.5,16.5C 9.20677,19.9825 9.87344,23.4825 10.5,27C 9.96381,29.24 8.79715,31.0734 7,32.5C 7.43126,41.4792 7.43126,50.4792 7,59.5C 6.07227,61.3348 4.9056,61.6682 3.5,60.5C 2.66794,51.1845 2.16794,41.8511 2,32.5C 1.2917,31.6195 0.458367,30.9528 -0.5,30.5 Z"/></g>
<g><path style="opacity:0.767" fill="#68af21" d="M 78.5,46.5 C 78.5,49.8333 78.5,53.1667 78.5,56.5C 77.5489,57.9187 77.2155,59.5853 77.5,61.5C 74.5,61.5 71.5,61.5 68.5,61.5C 68.579,57.7983 68.2457,54.1317 67.5,50.5C 68.368,46.9705 69.7013,43.6371 71.5,40.5C 70.3955,32.5296 70.2289,24.5296 71,16.5C 72.3333,15.1667 73.6667,15.1667 75,16.5C 75.7879,24.703 75.6212,32.8697 74.5,41C 74.9943,43.5055 76.3277,45.3388 78.5,46.5 Z"/></g>
<g><path style="opacity:0.769" fill="#68af22" d="M 29.5,77.5 C 25.8333,77.5 22.1667,77.5 18.5,77.5C 17.791,76.596 16.791,76.2627 15.5,76.5C 15.1866,73.7531 15.52,71.0865 16.5,68.5C 19.8333,67.8333 23.1667,67.1667 26.5,66.5C 29.6404,68.3049 32.9737,69.6382 36.5,70.5C 44.1444,69.4345 51.811,69.2679 59.5,70C 61.1066,71.049 61.7733,72.549 61.5,74.5C 51.8276,74.3335 42.1609,74.5002 32.5,75C 31.4293,75.8518 30.4293,76.6851 29.5,77.5 Z"/></g>
</svg>
