<?xml version="1.0" standalone="no"?>
<!DOCTYPE svg PUBLIC "-//W3C//DTD SVG 20010904//EN"
 "http://www.w3.org/TR/2001/REC-SVG-20010904/DTD/svg10.dtd">
<svg version="1.0" xmlns="http://www.w3.org/2000/svg"
 width="484.000000pt" height="484.000000pt" viewBox="0 0 484.000000 484.000000"
 preserveAspectRatio="xMidYMid meet">

<g transform="translate(0.000000,484.000000) scale(0.100000,-0.100000)"
fill="#000000" stroke="none">
<path d="M577 3478 c-16 -12 -17 -45 -15 -403 l3 -390 59 -3 c41 -2 62 1 67
10 5 7 9 123 9 258 l0 245 34 -65 c54 -106 228 -424 238 -437 16 -20 114 -17
122 3 3 9 6 186 6 394 0 365 -1 380 -19 390 -11 5 -34 10 -51 10 -17 0 -40 -5
-51 -10 -18 -10 -19 -24 -19 -252 0 -140 -4 -238 -9 -232 -5 5 -38 65 -74 134
-117 225 -178 335 -195 348 -9 6 -32 12 -52 12 -20 0 -44 -6 -53 -12z"/>
<path d="M1243 3480 l-23 -9 0 -383 c0 -211 4 -389 8 -396 7 -9 53 -12 198
-10 l189 3 0 60 0 60 -120 5 -120 5 0 105 0 105 110 5 110 5 3 48 c5 72 -3 77
-125 77 l-104 0 3 93 3 92 100 2 c149 4 145 2 145 72 0 52 -2 59 -22 65 -36 9
-330 6 -355 -4z"/>
<path d="M1728 3479 c-13 -7 -18 -23 -18 -59 0 -61 13 -70 104 -70 l66 0 0
-323 c0 -238 3 -326 12 -335 16 -16 120 -16 136 0 9 9 12 97 12 335 l0 322 78
3 77 3 3 59 c2 41 -1 62 -10 67 -19 13 -439 10 -460 -2z"/>
<path d="M2318 3479 c-21 -12 -25 -98 -6 -117 8 -8 54 -12 140 -12 98 0 128
-3 128 -13 0 -7 -4 -17 -9 -23 -9 -10 -184 -322 -258 -462 -44 -82 -44 -83
-30 -125 l14 -42 239 0 239 0 0 60 0 60 -147 3 c-85 1 -148 7 -148 12 0 10
118 226 229 420 57 100 66 122 66 166 0 85 3 84 -234 84 -121 0 -213 -5 -223
-11z"/>
<path d="M1972 2620 c-80 -17 -138 -64 -170 -140 -51 -119 -64 -271 -36 -407
20 -96 46 -153 92 -198 49 -47 91 -60 197 -60 72 1 98 5 131 22 53 28 98 83
126 152 20 50 23 73 23 226 0 154 -2 176 -23 231 -27 71 -79 129 -139 156 -50
22 -142 30 -201 18z m139 -143 c56 -38 73 -97 73 -262 0 -126 -3 -146 -24
-194 -25 -58 -60 -81 -121 -81 -41 0 -93 52 -110 111 -17 59 -17 271 0 329 32
110 105 149 182 97z"/>
<path d="M1220 2600 c-7 -12 -9 -148 -8 -397 l3 -378 75 0 75 0 3 153 3 152
70 0 c79 0 126 19 177 71 40 41 52 83 52 184 0 93 -20 146 -69 188 -46 38 -90
47 -238 47 -121 0 -133 -2 -143 -20z m267 -125 c48 -33 54 -136 12 -189 -18
-22 -28 -26 -75 -26 l-54 0 0 115 0 115 48 0 c27 0 57 -7 69 -15z"/>
<path d="M2455 2607 c-3 -6 -4 -185 -3 -397 l3 -385 185 0 185 0 3 50 c4 68
-8 75 -130 75 l-98 0 0 329 c0 372 8 341 -86 341 -35 0 -56 -5 -59 -13z"/>
<path d="M2941 2606 c-8 -9 -10 -122 -9 -397 l3 -384 69 -3 c49 -2 72 1 77 10
13 20 11 745 -1 769 -9 15 -22 19 -69 19 -37 0 -63 -5 -70 -14z"/>
<path d="M3200 2601 c-14 -27 -13 -84 2 -99 7 -7 42 -12 85 -12 l73 0 2 -332
3 -333 75 0 75 0 3 332 2 332 83 3 82 3 3 48 c5 79 10 77 -249 77 -215 0 -229
-1 -239 -19z"/>
<path d="M3807 2613 c-4 -3 -7 -184 -7 -400 l0 -394 73 3 72 3 3 389 c2 305
-1 391 -10 398 -16 9 -122 11 -131 1z"/>
<path d="M4112 2612 c-9 -7 -12 -93 -10 -398 l3 -389 70 0 70 0 5 180 5 180
46 -85 c26 -47 69 -128 95 -180 l49 -95 83 -3 c73 -3 82 -1 82 15 -1 10 -50
101 -110 203 l-109 185 27 45 c14 25 36 63 48 85 11 22 47 86 79 143 39 69 55
106 48 113 -5 5 -41 9 -79 7 l-69 -3 -87 -169 c-48 -93 -92 -174 -98 -180 -7
-7 -10 44 -10 166 0 151 -2 177 -16 182 -23 9 -107 7 -122 -2z"/>
<path d="M942 1745 c-70 -31 -97 -98 -90 -228 7 -139 57 -193 168 -183 45 4
60 10 82 35 37 42 51 101 46 201 -5 102 -23 142 -78 170 -46 23 -82 25 -128 5z
m113 -95 c23 -45 20 -176 -5 -217 -33 -54 -86 -41 -109 26 -22 66 -8 192 23
213 6 4 26 8 43 8 26 0 36 -6 48 -30z"/>
<path d="M1594 1741 c-58 -27 -78 -72 -82 -191 -3 -83 0 -101 20 -140 31 -60
74 -83 149 -77 97 8 99 11 99 132 l0 105 -65 0 -65 0 0 -30 c0 -23 4 -30 20
-30 18 0 20 -7 20 -55 0 -48 -3 -55 -19 -55 -11 0 -32 10 -47 23 -23 20 -27
33 -31 94 -6 81 8 138 39 154 12 7 42 9 69 6 42 -5 51 -3 63 15 19 26 14 34
-31 53 -47 20 -89 19 -139 -4z"/>
<path d="M1217 1743 c-4 -3 -7 -95 -7 -204 l0 -199 25 -6 c48 -12 55 -1 55 80
0 78 7 92 40 81 13 -4 26 -28 42 -78 12 -40 27 -75 33 -79 17 -13 55 -9 61 6
7 18 -34 156 -52 175 -11 12 -9 19 11 43 43 51 30 153 -22 177 -26 12 -175 15
-186 4z m152 -89 c17 -39 -5 -79 -44 -79 -29 0 -30 2 -33 53 l-3 52 34 0 c27
0 36 -5 46 -26z"/>
</g>
</svg>
