<?xml version="1.0" encoding="UTF-8"?>
<!DOCTYPE svg PUBLIC "-//W3C//DTD SVG 1.1//EN" "http://www.w3.org/Graphics/SVG/1.1/DTD/svg11.dtd">
<svg xmlns="http://www.w3.org/2000/svg" version="1.1" width="240px" height="256px" style="shape-rendering:geometricPrecision; text-rendering:geometricPrecision; image-rendering:optimizeQuality; fill-rule:evenodd; clip-rule:evenodd" xmlns:xlink="http://www.w3.org/1999/xlink">
<g><path style="opacity:0.989" fill="#13783e" d="M 128.5,-0.5 C 133.5,-0.5 138.5,-0.5 143.5,-0.5C 143.5,34.1667 143.5,68.8333 143.5,103.5C 127.5,94.5 111.5,85.5 95.5,76.5C 95.5,75.8333 95.5,75.1667 95.5,74.5C 95.5,71.8333 95.5,69.1667 95.5,66.5C 95.5,64.1667 95.5,61.8333 95.5,59.5C 95.5,57.1667 95.5,54.8333 95.5,52.5C 92.734,34.1101 98.4006,19.1101 112.5,7.5C 117.317,3.75802 122.651,1.09136 128.5,-0.5 Z"/></g>
<g><path style="opacity:0.993" fill="#288044" d="M 143.5,-0.5 C 144.5,-0.5 145.5,-0.5 146.5,-0.5C 149.655,0.442336 152.655,1.77567 155.5,3.5C 155.5,39.1667 155.5,74.8333 155.5,110.5C 151.136,108.656 147.136,106.323 143.5,103.5C 143.5,68.8333 143.5,34.1667 143.5,-0.5 Z"/></g>
<g><path style="opacity:0.991" fill="#358548" d="M 155.5,3.5 C 157.284,3.89254 158.95,4.5592 160.5,5.5C 160.832,41.3372 160.498,77.0039 159.5,112.5C 157.847,112.34 156.514,111.674 155.5,110.5C 155.5,74.8333 155.5,39.1667 155.5,3.5 Z"/></g>
<g><path style="opacity:0.99" fill="#3f8a4b" d="M 160.5,5.5 C 162.67,7.08622 165.004,8.41956 167.5,9.5C 167.5,45.5 167.5,81.5 167.5,117.5C 164.46,116.32 161.794,114.653 159.5,112.5C 160.498,77.0039 160.832,41.3372 160.5,5.5 Z"/></g>
<g><path style="opacity:0.961" fill="#c3dc88" d="M 112.5,7.5 C 98.4006,19.1101 92.734,34.1101 95.5,52.5C 75.3264,52.8305 55.3264,52.4971 35.5,51.5C 60.996,36.5838 86.6626,21.9172 112.5,7.5 Z"/></g>
<g><path style="opacity:0.99" fill="#4b9050" d="M 167.5,9.5 C 170.709,11.2651 173.709,13.2651 176.5,15.5C 175.502,50.9961 175.168,86.6628 175.5,122.5C 172.797,120.819 170.131,119.153 167.5,117.5C 167.5,81.5 167.5,45.5 167.5,9.5 Z"/></g>
<g><path style="opacity:0.993" fill="#579755" d="M 176.5,15.5 C 178.784,15.9752 180.784,16.9752 182.5,18.5C 182.5,54.5 182.5,90.5 182.5,126.5C 180.33,124.914 177.996,123.58 175.5,122.5C 175.168,86.6628 175.502,50.9961 176.5,15.5 Z"/></g>
<g><path style="opacity:0.997" fill="#639e5a" d="M 182.5,18.5 C 185.54,19.6803 188.206,21.347 190.5,23.5C 190.5,59.1667 190.5,94.8333 190.5,130.5C 188.117,128.642 185.45,127.308 182.5,126.5C 182.5,90.5 182.5,54.5 182.5,18.5 Z"/></g>
<g><path style="opacity:0.996" fill="#70a660" d="M 190.5,23.5 C 193.395,24.3994 196.062,25.7328 198.5,27.5C 197.507,63.0938 197.174,98.7604 197.5,134.5C 195.167,133.167 192.833,131.833 190.5,130.5C 190.5,94.8333 190.5,59.1667 190.5,23.5 Z"/></g>
<g><path style="opacity:0.995" fill="#7daf67" d="M 198.5,27.5 C 200.833,28.8333 203.167,30.1667 205.5,31.5C 205.5,67.1667 205.5,102.833 205.5,138.5C 202.605,137.601 199.938,136.267 197.5,134.5C 197.174,98.7604 197.507,63.0938 198.5,27.5 Z"/></g>
<g><path style="opacity:0.994" fill="#8ab76d" d="M 205.5,31.5 C 207.537,32.8465 209.537,34.1798 211.5,35.5C 211.5,71.1667 211.5,106.833 211.5,142.5C 209.205,141.525 207.205,140.192 205.5,138.5C 205.5,102.833 205.5,67.1667 205.5,31.5 Z"/></g>
<g><path style="opacity:0.994" fill="#98c074" d="M 211.5,35.5 C 215.025,36.7589 218.025,38.7589 220.5,41.5C 220.5,77.1667 220.5,112.833 220.5,148.5C 217.5,146.5 214.5,144.5 211.5,142.5C 211.5,106.833 211.5,71.1667 211.5,35.5 Z"/></g>
<g><path style="opacity:0.98" fill="#aacc7c" d="M 220.5,41.5 C 222.914,42.9108 224.581,44.9108 225.5,47.5C 225.5,82.8333 225.5,118.167 225.5,153.5C 223.5,152.167 221.833,150.5 220.5,148.5C 220.5,112.833 220.5,77.1667 220.5,41.5 Z"/></g>
<g><path style="opacity:0.982" fill="#b6d381" d="M 225.5,47.5 C 228.164,49.4844 229.831,52.1511 230.5,55.5C 230.5,90.8333 230.5,126.167 230.5,161.5C 228.847,158.869 227.181,156.203 225.5,153.5C 225.5,118.167 225.5,82.8333 225.5,47.5 Z"/></g>
<g><path style="opacity:0.986" fill="#b4d281" d="M 35.5,51.5 C 55.3264,52.4971 75.3264,52.8305 95.5,52.5C 95.5,54.8333 95.5,57.1667 95.5,59.5C 71.1667,59.5 46.8333,59.5 22.5,59.5C 26.6301,56.5968 30.9634,53.9301 35.5,51.5 Z"/></g>
<g><path style="opacity:0.988" fill="#a7ca7b" d="M 22.5,59.5 C 46.8333,59.5 71.1667,59.5 95.5,59.5C 95.5,61.8333 95.5,64.1667 95.5,66.5C 68.1667,66.5 40.8333,66.5 13.5,66.5C 15.6367,63.027 18.6367,60.6936 22.5,59.5 Z"/></g>
<g><path style="opacity:0.985" fill="#c1db86" d="M 230.5,55.5 C 232.328,58.135 233.495,61.135 234,64.5C 234.5,100.832 234.667,137.165 234.5,173.5C 233.049,169.632 231.715,165.632 230.5,161.5C 230.5,126.167 230.5,90.8333 230.5,55.5 Z"/></g>
<g><path style="opacity:0.992" fill="#9ac175" d="M 13.5,66.5 C 40.8333,66.5 68.1667,66.5 95.5,66.5C 95.5,69.1667 95.5,71.8333 95.5,74.5C 66.5,74.5 37.5,74.5 8.5,74.5C 9.38326,71.2957 11.0499,68.6291 13.5,66.5 Z"/></g>
<g><path style="opacity:0.994" fill="#8eb96f" d="M 8.5,74.5 C 37.5,74.5 66.5,74.5 95.5,74.5C 95.5,75.1667 95.5,75.8333 95.5,76.5C 95.5,78.5 95.5,80.5 95.5,82.5C 65.1667,82.5 34.8333,82.5 4.5,82.5C 5.32338,79.5198 6.65671,76.8531 8.5,74.5 Z"/></g>
<g><path style="opacity:0.998" fill="#82b169" d="M 4.5,82.5 C 34.8333,82.5 65.1667,82.5 95.5,82.5C 95.5,85.5 95.5,88.5 95.5,91.5C 64.8333,91.5 34.1667,91.5 3.5,91.5C 3.36772,88.4299 3.70105,85.4299 4.5,82.5 Z"/></g>
<g><path style="opacity:0.992" fill="#75a963" d="M 3.5,91.5 C 34.1667,91.5 64.8333,91.5 95.5,91.5C 95.5,94.1667 95.5,96.8333 95.5,99.5C 64.5,99.5 33.5,99.5 2.5,99.5C 2.27863,96.7212 2.61197,94.0545 3.5,91.5 Z"/></g>
<g><path style="opacity:0.992" fill="#6da45f" d="M 2.5,99.5 C 33.5,99.5 64.5,99.5 95.5,99.5C 95.5,101.167 95.5,102.833 95.5,104.5C 64.5,104.5 33.5,104.5 2.5,104.5C 2.5,102.833 2.5,101.167 2.5,99.5 Z"/></g>
<g><path style="opacity:0.992" fill="#639e5a" d="M 2.5,104.5 C 33.5,104.5 64.5,104.5 95.5,104.5C 95.5,106.833 95.5,109.167 95.5,111.5C 64.5,111.5 33.5,111.5 2.5,111.5C 2.5,109.167 2.5,106.833 2.5,104.5 Z"/></g>
<g><path style="opacity:0.992" fill="#5a9956" d="M 2.5,111.5 C 33.5,111.5 64.5,111.5 95.5,111.5C 95.5,113.167 95.5,114.833 95.5,116.5C 64.5,116.5 33.5,116.5 2.5,116.5C 2.5,114.833 2.5,113.167 2.5,111.5 Z"/></g>
<g><path style="opacity:0.992" fill="#509352" d="M 2.5,116.5 C 33.5,116.5 64.5,116.5 95.5,116.5C 95.5,119.833 95.5,123.167 95.5,126.5C 64.5096,125.618 33.5096,125.285 2.5,125.5C 2.5,122.5 2.5,119.5 2.5,116.5 Z"/></g>
<g><path style="opacity:0.991" fill="#12773d" d="M 182.5,126.5 C 185.45,127.308 188.117,128.642 190.5,130.5C 192.833,131.833 195.167,133.167 197.5,134.5C 199.938,136.267 202.605,137.601 205.5,138.5C 207.205,140.192 209.205,141.525 211.5,142.5C 214.5,144.5 217.5,146.5 220.5,148.5C 221.833,150.5 223.5,152.167 225.5,153.5C 227.181,156.203 228.847,158.869 230.5,161.5C 231.715,165.632 233.049,169.632 234.5,173.5C 234.95,180.666 234.283,187.666 232.5,194.5C 205.961,178.069 179.628,161.403 153.5,144.5C 163.334,138.751 173.001,132.751 182.5,126.5 Z"/></g>
<g><path style="opacity:0.992" fill="#438c4d" d="M 2.5,125.5 C 33.5096,125.285 64.5096,125.618 95.5,126.5C 95.5,128.5 95.5,130.5 95.5,132.5C 64.5,132.5 33.5,132.5 2.5,132.5C 2.5,130.167 2.5,127.833 2.5,125.5 Z"/></g>
<g><path style="opacity:0.992" fill="#368648" d="M 2.5,132.5 C 33.5,132.5 64.5,132.5 95.5,132.5C 95.5,135.167 95.5,137.833 95.5,140.5C 64.4994,140.208 33.4994,139.875 2.5,139.5C 2.5,137.167 2.5,134.833 2.5,132.5 Z"/></g>
<g><path style="opacity:0.995" fill="#298044" d="M 2.5,139.5 C 33.4994,139.875 64.4994,140.208 95.5,140.5C 95.5,142.5 95.5,144.5 95.5,146.5C 64.4941,146.588 33.4941,146.255 2.5,145.5C 2.5,143.5 2.5,141.5 2.5,139.5 Z"/></g>
<g><path style="opacity:0.988" fill="#207d42" d="M 153.5,144.5 C 179.628,161.403 205.961,178.069 232.5,194.5C 231.59,197.992 229.924,200.992 227.5,203.5C 199.464,185.819 171.464,168.153 143.5,150.5C 146.494,148 149.827,146 153.5,144.5 Z"/></g>
<g><path style="opacity:0.992" fill="#1e7c41" d="M 2.5,145.5 C 33.4941,146.255 64.4941,146.588 95.5,146.5C 95.5,148.5 95.5,150.5 95.5,152.5C 64.5,152.5 33.5,152.5 2.5,152.5C 2.5,150.167 2.5,147.833 2.5,145.5 Z"/></g>
<g><path style="opacity:0.992" fill="#11773d" d="M 2.5,152.5 C 33.5,152.5 64.5,152.5 95.5,152.5C 95.5,160.833 95.5,169.167 95.5,177.5C 93.1911,179.987 90.5244,181.987 87.5,183.5C 84.4604,184.68 81.7937,186.347 79.5,188.5C 76.2402,189.774 73.2402,191.44 70.5,193.5C 67.9959,194.584 65.6626,195.917 63.5,197.5C 60.341,198.331 57.341,199.331 54.5,200.5C 52.5,200.833 50.5,201.167 48.5,201.5C 42.4012,201.624 36.4012,200.957 30.5,199.5C 10.4779,190.424 1.14461,174.758 2.5,152.5 Z"/></g>
<g><path style="opacity:0.99" fill="#318447" d="M 143.5,150.5 C 171.464,168.153 199.464,185.819 227.5,203.5C 225.884,208.057 222.884,211.39 218.5,213.5C 189.13,194.82 159.797,176.153 130.5,157.5C 134.701,154.9 139.034,152.566 143.5,150.5 Z"/></g>
<g><path style="opacity:0.991" fill="#4c9050" d="M 122.5,162.5 C 152.208,180.681 181.541,199.348 210.5,218.5C 207.709,220.735 204.709,222.735 201.5,224.5C 172.167,205.5 142.833,186.5 113.5,167.5C 116.24,165.44 119.24,163.774 122.5,162.5 Z"/></g>
<g><path style="opacity:0.99" fill="#559654" d="M 113.5,167.5 C 142.833,186.5 172.167,205.5 201.5,224.5C 199.95,225.441 198.284,226.107 196.5,226.5C 167.167,207.833 137.833,189.167 108.5,170.5C 109.965,169.263 111.632,168.263 113.5,167.5 Z"/></g>
<g><path style="opacity:0.989" fill="#66a05c" d="M 100.5,174.5 C 129.833,193.5 159.167,212.5 188.5,231.5C 187.035,232.737 185.368,233.737 183.5,234.5C 181.263,232.28 178.929,230.113 176.5,228C 149.512,211.358 122.846,194.525 96.5,177.5C 97.795,176.512 99.1283,175.512 100.5,174.5 Z"/></g>
<g><path style="opacity:0.993" fill="#6ea560" d="M 95.5,177.5 C 95.8333,177.5 96.1667,177.5 96.5,177.5C 122.846,194.525 149.512,211.358 176.5,228C 178.929,230.113 181.263,232.28 183.5,234.5C 181.365,236.071 179.032,237.404 176.5,238.5C 146.973,219.905 117.306,201.572 87.5,183.5C 90.5244,181.987 93.1911,179.987 95.5,177.5 Z"/></g>
<g><path style="opacity:0.994" fill="#7daf67" d="M 87.5,183.5 C 117.306,201.572 146.973,219.905 176.5,238.5C 173.76,240.56 170.76,242.226 167.5,243.5C 138.511,224.669 109.178,206.336 79.5,188.5C 81.7937,186.347 84.4604,184.68 87.5,183.5 Z"/></g>
<g><path style="opacity:0.992" fill="#8ab66d" d="M 79.5,188.5 C 109.178,206.336 138.511,224.669 167.5,243.5C 165.206,245.653 162.54,247.32 159.5,248.5C 132.008,230.53 104.341,212.696 76.5,195C 74.6547,193.872 72.6547,193.372 70.5,193.5C 73.2402,191.44 76.2402,189.774 79.5,188.5 Z"/></g>
<g><path style="opacity:1" fill="#3d894b" d="M 130.5,157.5 C 159.797,176.153 189.13,194.82 218.5,213.5C 216.371,215.95 213.704,217.617 210.5,218.5C 181.541,199.348 152.208,180.681 122.5,162.5C 124.794,160.347 127.46,158.68 130.5,157.5 Z"/></g>
<g><path style="opacity:0.992" fill="#96bf73" d="M 70.5,193.5 C 72.6547,193.372 74.6547,193.872 76.5,195C 104.341,212.696 132.008,230.53 159.5,248.5C 157.112,250.361 154.446,251.694 151.5,252.5C 122.803,233.151 93.4696,214.818 63.5,197.5C 65.6626,195.917 67.9959,194.584 70.5,193.5 Z"/></g>
<g><path style="opacity:0.991" fill="#a3c779" d="M 63.5,197.5 C 93.4696,214.818 122.803,233.151 151.5,252.5C 148.888,253.371 146.221,254.037 143.5,254.5C 118.905,237.859 93.9053,221.692 68.5,206C 63.6696,204.412 59.003,202.579 54.5,200.5C 57.341,199.331 60.341,198.331 63.5,197.5 Z"/></g>
<g><path style="opacity:0.985" fill="#bad683" d="M 30.5,199.5 C 36.4012,200.957 42.4012,201.624 48.5,201.5C 74.9335,218.559 101.6,235.392 128.5,252C 129.381,252.708 130.047,253.542 130.5,254.5C 124.802,253.767 119.469,251.934 114.5,249C 86.2722,232.726 58.2722,216.226 30.5,199.5 Z"/></g>
<g><path style="opacity:0.998" fill="#b0cf7e" d="M 54.5,200.5 C 59.003,202.579 63.6696,204.412 68.5,206C 93.9053,221.692 118.905,237.859 143.5,254.5C 139.167,254.5 134.833,254.5 130.5,254.5C 130.047,253.542 129.381,252.708 128.5,252C 101.6,235.392 74.9335,218.559 48.5,201.5C 50.5,201.167 52.5,200.833 54.5,200.5 Z"/></g>
<g><path style="opacity:1" fill="#5d9b58" d="M 108.5,170.5 C 137.833,189.167 167.167,207.833 196.5,226.5C 194.178,228.664 191.511,230.331 188.5,231.5C 159.167,212.5 129.833,193.5 100.5,174.5C 103.193,173.153 105.86,171.82 108.5,170.5 Z"/></g>
</svg>
