<?xml version="1.0" encoding="UTF-8"?>
<!DOCTYPE svg PUBLIC "-//W3C//DTD SVG 1.1//EN" "http://www.w3.org/Graphics/SVG/1.1/DTD/svg11.dtd">
<svg xmlns="http://www.w3.org/2000/svg" version="1.1" width="300px" height="85px" style="shape-rendering:geometricPrecision; text-rendering:geometricPrecision; image-rendering:optimizeQuality; fill-rule:evenodd; clip-rule:evenodd" xmlns:xlink="http://www.w3.org/1999/xlink">
<g><path style="opacity:1" fill="#f5961d" d="M 168.5,-0.5 C 211.167,-0.5 253.833,-0.5 296.5,-0.5C 297.167,0.833333 298.167,1.83333 299.5,2.5C 299.5,28.8333 299.5,55.1667 299.5,81.5C 298.167,82.1667 297.167,83.1667 296.5,84.5C 253.833,84.5 211.167,84.5 168.5,84.5C 166.856,83.6836 165.69,82.3502 165,80.5C 164.333,54.8333 164.333,29.1667 165,3.5C 165.69,1.64977 166.856,0.316435 168.5,-0.5 Z"/></g>
<g><path style="opacity:0.902" fill="#000000" d="M -0.5,11.5 C 9.50555,11.3335 19.5056,11.5002 29.5,12C 38.6304,15.7527 42.4637,22.5861 41,32.5C 38.6692,41.4935 32.8359,45.9935 23.5,46C 19.5138,46.4988 15.5138,46.6655 11.5,46.5C 11.5,53.1667 11.5,59.8333 11.5,66.5C 7.5,66.5 3.5,66.5 -0.5,66.5C -0.5,48.1667 -0.5,29.8333 -0.5,11.5 Z M 11.5,21.5 C 16.2318,21.3776 20.8984,21.8776 25.5,23C 29.911,27.8677 29.2443,31.8677 23.5,35C 19.1667,35.6667 14.8333,35.6667 10.5,35C 11.4667,30.5986 11.8,26.0986 11.5,21.5 Z"/></g>
<g><path style="opacity:1" fill="#080400" d="M 176.5,14.5 C 179.833,14.5 183.167,14.5 186.5,14.5C 186.334,19.8437 186.501,25.1771 187,30.5C 193.048,26.7131 199.215,26.5464 205.5,30C 207.049,31.214 208.215,32.714 209,34.5C 209.5,44.828 209.666,55.1613 209.5,65.5C 206.5,65.5 203.5,65.5 200.5,65.5C 200.666,56.8269 200.5,48.1603 200,39.5C 195.842,34.2218 191.509,34.2218 187,39.5C 186.5,48.1603 186.334,56.8269 186.5,65.5C 183.167,65.5 179.833,65.5 176.5,65.5C 176.5,48.5 176.5,31.5 176.5,14.5 Z"/></g>
<g><path style="opacity:1" fill="#080401" d="M 255.5,14.5 C 258.5,14.5 261.5,14.5 264.5,14.5C 264.334,19.8437 264.501,25.1771 265,30.5C 272.38,26.5482 279.547,27.0482 286.5,32C 293.184,42.1969 293.017,52.3636 286,62.5C 279.179,67.3503 272.179,67.6836 265,63.5C 262.196,65.3444 259.03,66.0111 255.5,65.5C 255.5,48.5 255.5,31.5 255.5,14.5 Z"/></g>
<g><path style="opacity:0.885" fill="#000000" d="M 56.5,25.5 C 77.2782,24.4421 85.7782,34.1088 82,54.5C 75.3053,66.5808 65.4719,70.0808 52.5,65C 43.033,58.61 39.8663,49.7767 43,38.5C 45.4424,31.8884 49.9424,27.555 56.5,25.5 Z M 61.5,34.5 C 68.5672,35.268 71.9005,39.268 71.5,46.5C 70.2575,57.0373 65.0908,59.704 56,54.5C 51.6995,45.9244 53.5328,39.2577 61.5,34.5 Z"/></g>
<g><path style="opacity:0.837" fill="#000000" d="M 87.5,25.5 C 90.8333,25.5 94.1667,25.5 97.5,25.5C 97.3505,26.552 97.5172,27.552 98,28.5C 98.9025,27.2986 100.069,26.4652 101.5,26C 105.537,25.3933 109.537,25.56 113.5,26.5C 112.955,30.4709 111.621,34.1376 109.5,37.5C 105.534,34.5469 102.367,35.2135 100,39.5C 98.6541,48.4414 98.1541,57.4414 98.5,66.5C 94.5,66.5 90.5,66.5 86.5,66.5C 86.1853,52.7544 86.5187,39.0877 87.5,25.5 Z"/></g>
<g><path style="opacity:0.853" fill="#000000" d="M 118.5,25.5 C 121.833,25.5 125.167,25.5 128.5,25.5C 128.351,26.552 128.517,27.552 129,28.5C 134.461,25.5881 140.294,24.7548 146.5,26C 150.77,27.2704 153.27,30.1037 154,34.5C 154.5,45.1615 154.667,55.8281 154.5,66.5C 150.5,66.5 146.5,66.5 142.5,66.5C 142.666,56.8276 142.5,47.1609 142,37.5C 139.365,34.1752 136.198,33.6752 132.5,36C 131.107,37.1711 130.273,38.6711 130,40.5C 129.5,49.1603 129.334,57.8269 129.5,66.5C 125.5,66.5 121.5,66.5 117.5,66.5C 117.185,52.7544 117.519,39.0877 118.5,25.5 Z"/></g>
<g><path style="opacity:1" fill="#0b0501" d="M 215.5,28.5 C 218.833,28.5 222.167,28.5 225.5,28.5C 225.334,37.5062 225.5,46.5062 226,55.5C 231.135,59.957 235.468,59.2904 239,53.5C 239.5,45.1733 239.666,36.84 239.5,28.5C 242.833,28.5 246.167,28.5 249.5,28.5C 249.5,40.8333 249.5,53.1667 249.5,65.5C 246.5,65.5 243.5,65.5 240.5,65.5C 240.719,64.325 240.386,63.325 239.5,62.5C 232.299,67.8061 225.133,67.8061 218,62.5C 217.138,60.913 216.471,59.2464 216,57.5C 215.5,47.8391 215.334,38.1724 215.5,28.5 Z"/></g>
<g><path style="opacity:1" fill="#f0931d" d="M 269.5,35.5 C 274.439,34.3519 277.939,36.0186 280,40.5C 280.667,44.8333 280.667,49.1667 280,53.5C 277.928,58.1433 274.428,59.6433 269.5,58C 262.855,50.4303 262.855,42.9303 269.5,35.5 Z"/></g>
</svg>
