<?xml version="1.0" encoding="UTF-8"?>
<!DOCTYPE svg PUBLIC "-//W3C//DTD SVG 1.1//EN" "http://www.w3.org/Graphics/SVG/1.1/DTD/svg11.dtd">
<svg xmlns="http://www.w3.org/2000/svg" version="1.1" width="499px" height="499px" style="shape-rendering:geometricPrecision; text-rendering:geometricPrecision; image-rendering:optimizeQuality; fill-rule:evenodd; clip-rule:evenodd" xmlns:xlink="http://www.w3.org/1999/xlink">
<g><path style="opacity:1" fill="#8a0f0e" d="M 236.5,0.5 C 323.307,0.154615 392.474,34.4879 444,103.5C 494.009,179.251 502.675,259.585 470,344.5C 438.594,414.903 386.094,461.736 312.5,485C 226.934,506.272 150.934,488.272 84.5,431C 12.155,359.142 -11.0116,273.642 15,174.5C 43.776,88.724 101.609,33.224 188.5,8C 204.477,4.40993 220.477,1.90993 236.5,0.5 Z"/></g>
<g><path style="opacity:1" fill="#fdfcfc" d="M 413.5,176.5 C 411.448,177.053 411.115,178.053 412.5,179.5C 417.006,177.286 419.673,178.619 420.5,183.5C 419.935,185.405 418.935,187.071 417.5,188.5C 419.192,196.237 417.359,197.237 412,191.5C 411.13,192.108 410.63,192.941 410.5,194C 411.946,198.56 413.946,202.727 416.5,206.5C 413.513,206.998 410.513,207.498 407.5,208C 406.424,209.726 406.257,211.559 407,213.5C 408.972,214.305 410.472,215.639 411.5,217.5C 409.05,219.867 406.05,220.867 402.5,220.5C 401.801,222.995 400.801,225.328 399.5,227.5C 405.128,227.587 405.795,229.42 401.5,233C 405.95,237.604 404.95,240.104 398.5,240.5C 398.415,242.929 397.415,244.929 395.5,246.5C 396.04,247.748 396.707,248.915 397.5,250C 395.077,251.64 394.077,253.973 394.5,257C 394.411,259.713 395.078,262.213 396.5,264.5C 394.269,268.291 392.602,272.291 391.5,276.5C 391.86,279.079 392.526,281.579 393.5,284C 390.58,287.434 389.913,291.267 391.5,295.5C 389.093,302.498 385.093,308.332 379.5,313C 377.256,313.906 374.923,314.406 372.5,314.5C 368.194,313.566 363.861,312.733 359.5,312C 356.044,308.549 352.044,305.882 347.5,304C 345.549,302.266 344.549,300.099 344.5,297.5C 343.178,297.67 342.011,297.337 341,296.5C 341.485,291.269 339.819,286.935 336,283.5C 334.392,280.618 333.059,277.618 332,274.5C 330.989,273.663 329.822,273.33 328.5,273.5C 328.919,270.675 327.919,268.509 325.5,267C 320.386,263.364 315.219,259.864 310,256.5C 308.748,253.986 308.248,251.32 308.5,248.5C 304.5,249.167 302.833,247.5 303.5,243.5C 300.833,243.5 298.167,243.5 295.5,243.5C 295.277,241.658 294.943,239.825 294.5,238C 294.8,235.68 296.133,234.513 298.5,234.5C 303.054,236.36 307.554,238.36 312,240.5C 313.726,240.054 315.226,239.221 316.5,238C 318.167,237.333 319.833,237.333 321.5,238C 328.158,242.995 334.491,248.328 340.5,254C 344.177,254.108 347.843,254.108 351.5,254C 352.872,255.242 353.872,256.742 354.5,258.5C 359.302,259.359 363.969,258.692 368.5,256.5C 372.019,253.146 375.686,249.98 379.5,247C 382.269,246.79 384.769,247.623 387,249.5C 387.867,246.962 387.201,244.962 385,243.5C 381.206,244.076 377.54,245.076 374,246.5C 371.681,245.591 371.014,243.925 372,241.5C 373.883,240.347 374.716,238.681 374.5,236.5C 376.677,236.586 378.677,237.253 380.5,238.5C 383.071,237.272 384.405,235.272 384.5,232.5C 381.507,233.135 378.507,233.301 375.5,233C 373.697,232.363 372.364,231.197 371.5,229.5C 374.145,224.74 376.312,219.74 378,214.5C 379.845,213.95 381.345,212.95 382.5,211.5C 380.257,210.526 377.924,210.192 375.5,210.5C 375.328,208.508 375.995,206.842 377.5,205.5C 376.395,204.108 375.061,202.941 373.5,202C 376.684,198.108 378.351,193.608 378.5,188.5C 376.897,179.161 374.897,169.994 372.5,161C 374.307,157.686 374.807,154.186 374,150.5C 372.45,136.938 368.45,124.271 362,112.5C 360.893,106.799 359.727,101.132 358.5,95.5C 354.839,95.7102 351.339,95.0436 348,93.5C 344.519,94.1227 341.019,94.6227 337.5,95C 336.87,96.892 335.87,98.5587 334.5,100C 331.167,100.667 327.833,101.333 324.5,102C 321.124,105.356 317.124,107.69 312.5,109C 307.207,110.209 301.874,111.209 296.5,112C 295.939,113.676 294.939,115.009 293.5,116C 261.13,122.894 228.797,129.894 196.5,137C 195.707,138.085 195.04,139.252 194.5,140.5C 190.365,142.378 186.032,143.545 181.5,144C 179.395,145.193 177.728,146.86 176.5,149C 174.616,149.216 172.949,149.883 171.5,151C 179,157.167 186.5,163.333 194,169.5C 195.548,176.123 196.882,182.789 198,189.5C 200.966,193.143 203.3,197.143 205,201.5C 204.704,204.968 204.204,208.468 203.5,212C 203.833,213.5 204.167,215 204.5,216.5C 208.006,218.426 208.339,220.926 205.5,224C 206.4,228.369 207.734,232.536 209.5,236.5C 207.956,241.577 206.289,246.577 204.5,251.5C 206.429,251.231 208.095,251.731 209.5,253C 207.878,254.295 206.545,255.795 205.5,257.5C 206.191,260.931 207.191,264.264 208.5,267.5C 205.681,271.93 204.348,276.597 204.5,281.5C 207.39,278.528 209.724,278.861 211.5,282.5C 209.5,285.5 207.5,288.5 205.5,291.5C 207.149,292.148 208.482,293.148 209.5,294.5C 208.252,296.459 206.585,297.959 204.5,299C 206.891,299.287 209.224,299.787 211.5,300.5C 213.976,291.649 215.809,282.649 217,273.5C 218.493,269.942 220.66,269.609 223.5,272.5C 230.916,270.979 238.249,269.146 245.5,267C 250.833,266.333 256.167,266.333 261.5,267C 267.852,269.885 269.186,274.385 265.5,280.5C 267.965,281.065 270.298,282.232 272.5,284C 270.026,284.113 268.026,285.113 266.5,287C 262.181,287.76 257.848,288.427 253.5,289C 245.732,293.292 237.399,295.958 228.5,297C 226.833,297.833 225.167,298.667 223.5,299.5C 222.37,304.185 222.537,308.851 224,313.5C 225.579,315.041 227.413,316.208 229.5,317C 240.601,318.568 251.601,317.901 262.5,315C 265.984,312.516 269.15,309.683 272,306.5C 273.804,309.014 273.97,311.681 272.5,314.5C 254.659,323.025 236.159,325.691 217,322.5C 214.167,324.836 213,327.836 213.5,331.5C 215.948,331.01 217.615,331.843 218.5,334C 216.672,335.163 215.672,336.83 215.5,339C 216.27,341.81 216.937,344.643 217.5,347.5C 217.514,349.593 216.848,351.426 215.5,353C 216.563,354.188 217.897,354.688 219.5,354.5C 221.089,357.964 220.589,360.964 218,363.5C 217.833,364.833 217.667,366.167 217.5,367.5C 220.662,378.295 223.329,389.295 225.5,400.5C 224.5,401.833 223.5,403.167 222.5,404.5C 222.977,405.478 223.643,406.311 224.5,407C 230.394,408.037 236.061,407.371 241.5,405C 259.477,403.789 277.477,402.789 295.5,402C 297.25,400.681 299.25,400.181 301.5,400.5C 301.5,401.833 301.5,403.167 301.5,404.5C 281.542,410.48 262.542,418.647 244.5,429C 242.5,429.333 240.5,429.667 238.5,430C 230.809,434.523 223.143,439.189 215.5,444C 214.833,445 214.167,446 213.5,447C 197.323,450.446 181.156,453.946 165,457.5C 158.966,455.521 152.799,454.021 146.5,453C 141.628,449.967 136.628,447.133 131.5,444.5C 130.679,441.553 130.179,438.553 130,435.5C 128.644,434.62 127.144,434.286 125.5,434.5C 125.159,430.291 124.492,426.125 123.5,422C 123.585,420.893 123.919,419.893 124.5,419C 126.433,418.749 128.266,418.249 130,417.5C 130.5,419.333 131.667,420.5 133.5,421C 138.881,422.363 144.215,423.863 149.5,425.5C 162.494,421.626 175.661,418.626 189,416.5C 187.906,411.188 187.073,405.688 186.5,400C 186.411,397.287 187.078,394.787 188.5,392.5C 185.2,380.095 182.2,367.595 179.5,355C 180.03,352.793 181.03,350.793 182.5,349C 180.382,348.74 178.716,347.74 177.5,346C 184.161,339.046 185.161,331.379 180.5,323C 182.5,321.333 184.5,319.667 186.5,318C 180.763,318.097 177.763,315.264 177.5,309.5C 178.821,307.668 179.821,305.668 180.5,303.5C 179.167,303.5 177.833,303.5 176.5,303.5C 177.827,297.238 178.827,290.905 179.5,284.5C 178.386,282.215 177.053,280.048 175.5,278C 176.394,276.604 177.061,275.104 177.5,273.5C 175.685,264.92 173.685,256.42 171.5,248C 170.207,247.51 168.873,247.343 167.5,247.5C 167.62,245.801 167.954,244.135 168.5,242.5C 166.145,237.6 164.478,232.433 163.5,227C 164.62,225.263 165.62,223.429 166.5,221.5C 163.452,218.961 161.452,215.794 160.5,212C 161.077,209.343 162.077,206.843 163.5,204.5C 162.141,202.308 160.308,200.641 158,199.5C 158.627,195.889 158.96,192.223 159,188.5C 158.009,187.061 156.676,186.061 155,185.5C 153.461,178.14 151.795,170.807 150,163.5C 149.439,162.978 148.772,162.645 148,162.5C 122.777,169.516 97.2767,175.016 71.5,179C 67.9738,176.974 65.3071,174.141 63.5,170.5C 58.7755,169.276 55.9421,166.276 55,161.5C 53.3333,159.833 51.6667,158.167 50,156.5C 49.4547,151.889 48.6214,147.389 47.5,143C 48.2034,137.857 48.7034,132.691 49,127.5C 52.4474,125.236 56.2808,123.903 60.5,123.5C 65.8172,124.993 70.8172,127.159 75.5,130C 78.036,130.339 80.536,130.839 83,131.5C 83.9454,131.905 84.6121,132.572 85,133.5C 86.0617,132.903 87.2284,132.57 88.5,132.5C 92.4015,133.972 96.4015,134.472 100.5,134C 107.348,131.871 114.348,130.538 121.5,130C 125.98,128.928 129.647,126.594 132.5,123C 139.882,121.539 147.215,119.873 154.5,118C 159.892,116.47 164.892,114.137 169.5,111C 180.9,108.587 192.233,105.92 203.5,103C 204.5,102 205.5,101 206.5,100C 211.943,99.9894 217.11,98.8228 222,96.5C 223.626,97.2887 225.126,98.2887 226.5,99.5C 258.218,91.3881 290.218,84.2215 322.5,78C 324.791,74.2812 328.124,72.6145 332.5,73C 334.543,69.7466 336.71,66.5799 339,63.5C 345.812,61.8899 352.645,60.2232 359.5,58.5C 369.633,61.1979 379.633,64.1979 389.5,67.5C 391.071,66.6906 392.738,66.3573 394.5,66.5C 394.608,68.7834 395.441,70.7834 397,72.5C 401.333,76.1667 405.667,79.8333 410,83.5C 413.048,89.7739 413.214,96.1072 410.5,102.5C 413.492,115.466 416.325,128.466 419,141.5C 420.056,145.624 419.222,149.29 416.5,152.5C 419.596,159.803 420.93,167.303 420.5,175C 418.26,175.977 415.927,176.477 413.5,176.5 Z"/></g>
<g><path style="opacity:1" fill="#faf5f5" d="M 301.5,120.5 C 308.555,120.277 313.721,123.277 317,129.5C 319.151,139.404 319.818,149.404 319,159.5C 318.632,160.91 317.799,161.91 316.5,162.5C 315.3,161.469 313.966,160.635 312.5,160C 309.918,155.414 306.584,151.414 302.5,148C 305.482,147.502 308.482,147.335 311.5,147.5C 311.525,141.433 309.858,135.933 306.5,131C 305.271,130.219 303.938,129.719 302.5,129.5C 294.777,132.195 287.443,135.695 280.5,140C 279.903,141.062 279.57,142.228 279.5,143.5C 281.158,151.288 282.491,159.122 283.5,167C 281.264,172.445 280.931,177.779 282.5,183C 282.167,183.5 281.833,184 281.5,184.5C 277.63,183.132 274.464,180.798 272,177.5C 270.764,167.866 269.764,158.199 269,148.5C 265.147,141.915 264.813,135.248 268,128.5C 269.364,127.742 270.531,128.242 271.5,130C 273.5,130.667 275.5,130.667 277.5,130C 286.088,128.034 294.088,124.867 301.5,120.5 Z"/></g>
<g><path style="opacity:1" fill="#fbf6f6" d="M 239.5,133.5 C 244.634,133.432 248.634,135.432 251.5,139.5C 249.772,143.619 248.605,147.953 248,152.5C 247.783,163.553 246.95,174.553 245.5,185.5C 243.833,186.833 242.167,186.833 240.5,185.5C 235.767,187.686 230.767,189.186 225.5,190C 221.58,191.598 217.914,193.598 214.5,196C 212.5,196.667 210.5,196.667 208.5,196C 199.799,186.236 195.632,174.736 196,161.5C 195.269,155.472 193.935,149.805 192,144.5C 196.026,144.466 200.193,144.299 204.5,144C 208.99,142.544 213.656,141.544 218.5,141C 222.049,140.226 225.382,138.893 228.5,137C 232.716,137.065 236.382,135.898 239.5,133.5 Z"/></g>
<g><path style="opacity:1" fill="#8b1210" d="M 235.5,141.5 C 237.203,148.813 238.203,156.479 238.5,164.5C 236.59,169.428 236.257,174.428 237.5,179.5C 228.716,183.049 219.716,185.216 210.5,186C 209.299,185.097 208.465,183.931 208,182.5C 206.99,172.698 205.657,163.031 204,153.5C 208.631,150.289 213.798,148.455 219.5,148C 224.996,146.081 230.329,143.914 235.5,141.5 Z"/></g>
<g><path style="opacity:1" fill="#c38383" d="M 413.5,176.5 C 412.89,177.391 412.557,178.391 412.5,179.5C 411.115,178.053 411.448,177.053 413.5,176.5 Z"/></g>
<g><path style="opacity:1" fill="#fbf7f7" d="M 243.5,201.5 C 249.121,201.306 253.621,203.306 257,207.5C 257.749,208.635 257.583,209.635 256.5,210.5C 251.348,212.913 246.681,216.079 242.5,220C 248.738,224.569 253.905,230.069 258,236.5C 259.08,238.996 260.414,241.33 262,243.5C 262.667,246.167 262.667,248.833 262,251.5C 260.013,252.218 258.179,253.218 256.5,254.5C 254.032,253.197 251.699,251.697 249.5,250C 246.048,243.001 242.214,236.168 238,229.5C 237.311,228.643 236.478,227.977 235.5,227.5C 229.865,236.966 224.031,246.3 218,255.5C 216.312,259.089 216.145,262.756 217.5,266.5C 212.312,264.426 209.979,260.426 210.5,254.5C 211.394,247.736 213.727,241.569 217.5,236C 216.833,235.667 216.167,235.333 215.5,235C 219.127,234.372 220.96,232.205 221,228.5C 224.083,226.583 226.25,223.916 227.5,220.5C 222.985,216.378 217.652,213.878 211.5,213C 210.62,211.644 210.286,210.144 210.5,208.5C 216.517,209.136 222.517,209.969 228.5,211C 230.333,212.167 232.167,213.333 234,214.5C 236.667,211.833 239.333,209.167 242,206.5C 243.009,204.975 243.509,203.308 243.5,201.5 Z"/></g>
<g><path style="opacity:1" fill="#99302a" d="M 379.5,221.5 C 381.465,221.948 381.798,222.948 380.5,224.5C 379.614,223.675 379.281,222.675 379.5,221.5 Z"/></g>
<g><path style="opacity:1" fill="#962a24" d="M 311.5,242.5 C 314.858,243.527 316.525,245.86 316.5,249.5C 313.525,249.287 310.858,248.287 308.5,246.5C 309.524,245.148 310.524,243.815 311.5,242.5 Z"/></g>
<g><path style="opacity:1" fill="#9a312b" d="M 323.5,256.5 C 325.337,256.639 325.67,257.306 324.5,258.5C 323.702,258.043 323.369,257.376 323.5,256.5 Z"/></g>
<g><path style="opacity:1" fill="#8f1d18" d="M 242.5,272.5 C 247.179,272.334 251.845,272.501 256.5,273C 258.803,275.164 260.137,277.831 260.5,281C 248.564,284.487 236.564,287.987 224.5,291.5C 224.167,290.833 223.833,290.167 223.5,289.5C 224.163,286.194 224.663,282.861 225,279.5C 228.341,277.428 231.841,276.761 235.5,277.5C 234.607,280.084 234.274,282.751 234.5,285.5C 241.167,283.801 243.833,279.467 242.5,272.5 Z"/></g>
<g><path style="opacity:1" fill="#952822" d="M 342.5,275.5 C 344.337,275.639 344.67,276.306 343.5,277.5C 342.702,277.043 342.369,276.376 342.5,275.5 Z"/></g>
<g><path style="opacity:1" fill="#962b24" d="M 183.5,290.5 C 185.97,291.36 186.137,292.694 184,294.5C 183.51,293.207 183.343,291.873 183.5,290.5 Z"/></g>
<g><path style="opacity:1" fill="#972b28" d="M 190.5,289.5 C 192.337,289.639 192.67,290.306 191.5,291.5C 190.702,291.043 190.369,290.376 190.5,289.5 Z"/></g>
<g><path style="opacity:1" fill="#a4443b" d="M 189.5,304.5 C 190.5,304.5 191.5,304.5 192.5,304.5C 191.754,308.31 190.754,308.31 189.5,304.5 Z"/></g>
<g><path style="opacity:1" fill="#c88b8a" d="M 211.5,305.5 C 212.788,307.035 212.788,308.701 211.5,310.5C 210.566,308.905 210.566,307.239 211.5,305.5 Z"/></g>
<g><path style="opacity:1" fill="#8c1313" d="M 183.5,309.5 C 185.337,309.639 185.67,310.306 184.5,311.5C 183.702,311.043 183.369,310.376 183.5,309.5 Z"/></g>
<g><path style="opacity:1" fill="#a44541" d="M 202.5,311.5 C 204.912,311.694 205.912,313.027 205.5,315.5C 204.5,315.5 203.5,315.5 202.5,315.5C 202.5,314.167 202.5,312.833 202.5,311.5 Z"/></g>
<g><path style="opacity:1" fill="#a64844" d="M 187.5,327.5 C 189.465,327.948 189.798,328.948 188.5,330.5C 187.614,329.675 187.281,328.675 187.5,327.5 Z"/></g>
<g><path style="opacity:1" fill="#fbf5f5" d="M 261.5,334.5 C 268.074,334.544 272.907,337.544 276,343.5C 276.812,354.337 275.812,365.004 273,375.5C 272.576,377.615 271.409,378.448 269.5,378C 267.667,376.167 265.833,374.333 264,372.5C 263.508,371.451 263.674,370.451 264.5,369.5C 262.588,367.343 260.921,365.009 259.5,362.5C 262.373,362.124 265.373,362.124 268.5,362.5C 268.666,357.821 268.499,353.155 268,348.5C 267.129,345.127 264.962,343.46 261.5,343.5C 253.534,344.408 245.867,346.408 238.5,349.5C 237.668,357.813 237.168,366.147 237,374.5C 234.665,380.383 232.832,386.383 231.5,392.5C 227.801,390.968 225.301,388.301 224,384.5C 224.999,369.549 225.665,354.549 226,339.5C 226.941,337.939 228.108,336.605 229.5,335.5C 231.253,337.261 233.253,338.594 235.5,339.5C 242.176,338.777 248.843,337.943 255.5,337C 257.611,336.155 259.611,335.322 261.5,334.5 Z"/></g>
</svg>
