<?xml version="1.0" encoding="UTF-8"?>
<!DOCTYPE svg PUBLIC "-//W3C//DTD SVG 1.1//EN" "http://www.w3.org/Graphics/SVG/1.1/DTD/svg11.dtd">
<svg xmlns="http://www.w3.org/2000/svg" version="1.1" width="245px" height="300px" style="shape-rendering:geometricPrecision; text-rendering:geometricPrecision; image-rendering:optimizeQuality; fill-rule:evenodd; clip-rule:evenodd" xmlns:xlink="http://www.w3.org/1999/xlink">
<g><path style="opacity:0.97" fill="#030100" d="M 58.5,-0.5 C 60.8333,-0.5 63.1667,-0.5 65.5,-0.5C 66.8333,0.833333 68.1667,0.833333 69.5,-0.5C 72.5,-0.5 75.5,-0.5 78.5,-0.5C 80.4371,1.75565 82.7705,2.08898 85.5,0.5C 88.3655,0.931209 91.0322,1.93121 93.5,3.5C 94.2935,3.0688 95.1268,2.73546 96,2.5C 111.819,6.64964 122.152,16.6496 127,32.5C 130.176,22.9615 135.676,15.1281 143.5,9C 145.5,8.66667 147.5,8.33333 149.5,8C 152.507,3.61115 156.507,2.11115 161.5,3.5C 164.819,0.769154 168.485,0.102487 172.5,1.5C 174.026,1.00569 175.359,0.339027 176.5,-0.5C 179.167,-0.5 181.833,-0.5 184.5,-0.5C 185.833,0.833333 187.167,0.833333 188.5,-0.5C 190.833,-0.5 193.167,-0.5 195.5,-0.5C 199.453,0.896713 203.453,2.39671 207.5,4C 213.221,3.68463 218.221,5.35129 222.5,9C 231.645,9.1238 234.979,13.4571 232.5,22C 233.894,23.7395 234.561,25.7395 234.5,28C 233.139,32.3749 232.306,36.8749 232,41.5C 229.125,44.5425 227.792,48.2092 228,52.5C 227.047,54.4552 225.713,56.1218 224,57.5C 223.297,62.3736 220.797,66.0403 216.5,68.5C 215.573,70.1128 214.739,71.7795 214,73.5C 208.199,77.2662 202.699,81.4328 197.5,86C 215.193,95.8749 223.693,111.042 223,131.5C 227.971,137.141 232.971,142.808 238,148.5C 240.486,153.489 242.652,158.489 244.5,163.5C 244.5,170.5 244.5,177.5 244.5,184.5C 242.248,192.281 238.414,199.281 233,205.5C 229.79,216.127 226.79,226.793 224,237.5C 218.474,251.026 208.974,260.526 195.5,266C 185.953,273.276 175.62,279.276 164.5,284C 154.852,291.377 144.185,296.543 132.5,299.5C 127.167,299.5 121.833,299.5 116.5,299.5C 105.863,296.395 96.5295,290.895 88.5,283C 84.4189,281.529 80.4189,279.862 76.5,278C 65.2228,270.114 53.7228,262.614 42,255.5C 37.8395,250.514 34.1728,245.181 31,239.5C 27.8652,227.764 24.5319,216.097 21,204.5C 5.40696,185.031 4.74029,165.031 19,144.5C 23.0541,140.446 27.0541,136.446 31,132.5C 30.017,111.621 38.517,96.1211 56.5,86C 51.3008,81.4328 45.8008,77.2662 40,73.5C 39.1376,71.913 38.4709,70.2464 38,68.5C 33.0256,66.0243 30.1923,62.0243 29.5,56.5C 27.8035,55.6364 26.6368,54.3031 26,52.5C 26.208,48.2092 24.8747,44.5425 22,41.5C 21.2419,39.2305 21.4086,37.0639 22.5,35C 19.0071,31.0589 18.6737,26.8922 21.5,22.5C 18.7999,13.6859 22.1332,9.18591 31.5,9C 35.7793,5.35129 40.7793,3.68463 46.5,4C 50.5475,2.39671 54.5475,0.896713 58.5,-0.5 Z"/></g>
<g><path style="opacity:1" fill="#385113" d="M 189.5,8.5 C 190.601,7.40168 191.934,7.23502 193.5,8C 192.956,8.71719 192.289,9.21719 191.5,9.5C 191.158,8.66175 190.492,8.32842 189.5,8.5 Z"/></g>
<g><path style="opacity:1" fill="#334a12" d="M 54.5,10.5 C 53.8333,10.5 53.5,10.8333 53.5,11.5C 52.7109,11.2172 52.0442,10.7172 51.5,10C 52.7494,9.25988 53.7494,9.42654 54.5,10.5 Z"/></g>
<g><path style="opacity:1" fill="#73a727" d="M 78.5,82.5 C 75.6146,82.8064 72.9479,82.4731 70.5,81.5C 71.5981,80.603 71.5981,79.7697 70.5,79C 66.4452,78.7685 62.4452,78.2685 58.5,77.5C 58.1667,77.1667 57.8333,76.8333 57.5,76.5C 58.1667,75.8333 58.8333,75.1667 59.5,74.5C 54.8967,72.865 50.5634,70.6984 46.5,68C 48.1667,67.6667 49.8333,67.3333 51.5,67C 47.1559,64.8295 43.1559,62.1628 39.5,59C 40.938,58.7811 42.2713,58.2811 43.5,57.5C 39.9809,54.9039 36.6475,52.0706 33.5,49C 35.1667,48.6667 36.8333,48.3333 38.5,48C 35.6503,45.3176 32.9836,42.4843 30.5,39.5C 32.1667,38.8333 33.8333,38.1667 35.5,37.5C 33.1667,34.8333 30.8333,32.1667 28.5,29.5C 30.0453,28.5481 31.712,28.2148 33.5,28.5C 32.7812,24.5619 31.1145,21.0619 28.5,18C 32.8711,17.8275 37.2044,17.3275 41.5,16.5C 38.339,13.8323 38.839,12.499 43,12.5C 46.3868,12.9107 49.7202,13.5774 53,14.5C 54.6833,13.8235 54.8499,12.8235 53.5,11.5C 53.5,10.8333 53.8333,10.5 54.5,10.5C 57.2035,10.9555 59.8702,11.6221 62.5,12.5C 63.1667,12.1667 63.8333,11.8333 64.5,11.5C 63.6872,10.1861 62.6872,9.01948 61.5,8C 66.1463,8.4167 70.4796,9.9167 74.5,12.5C 74.8333,12 75.1667,11.5 75.5,11C 74.3849,9.60685 73.8849,8.10685 74,6.5C 77.636,8.6372 81.136,10.9705 84.5,13.5C 85.9705,12.6195 86.8038,11.2861 87,9.5C 89.6443,11.31 92.1443,13.31 94.5,15.5C 95.1667,14.1667 95.8333,12.8333 96.5,11.5C 99.8605,14.1938 102.86,17.1938 105.5,20.5C 106.167,19.5 106.833,18.5 107.5,17.5C 118.481,26.4526 122.314,37.7859 119,51.5C 117.261,54.9067 114.594,57.24 111,58.5C 94.0968,45.6321 75.5968,35.7988 55.5,29C 73.6406,37.8185 90.1406,48.9852 105,62.5C 105.196,68.0164 103.029,72.5164 98.5,76C 92.4979,80.1655 85.8312,82.3321 78.5,82.5 Z"/></g>
<g><path style="opacity:1" fill="#73a727" d="M 189.5,8.5 C 190.492,8.32842 191.158,8.66175 191.5,9.5C 189.375,10.3676 189.209,11.3676 191,12.5C 193.724,11.3132 196.557,10.6465 199.5,10.5C 200.492,10.3284 201.158,10.6618 201.5,11.5C 200.596,12.209 200.263,13.209 200.5,14.5C 205.463,13.5036 210.463,13.3369 215.5,14C 214.5,15 213.5,16 212.5,17C 216.871,17.1725 221.204,17.6725 225.5,18.5C 223.049,21.4003 221.715,24.7337 221.5,28.5C 223.288,28.2148 224.955,28.5481 226.5,29.5C 224.167,32.5 221.5,35.1667 218.5,37.5C 220.423,38.3078 222.423,38.8078 224.5,39C 222.205,42.2974 219.538,45.2974 216.5,48C 217.938,48.2189 219.271,48.7189 220.5,49.5C 217.5,52.1667 214.5,54.8333 211.5,57.5C 212.729,58.2811 214.062,58.7811 215.5,59C 211.844,62.1628 207.844,64.8295 203.5,67C 204.938,67.2189 206.271,67.7189 207.5,68.5C 203.323,70.6173 198.99,72.4506 194.5,74C 195.5,74.8333 196.5,75.6667 197.5,76.5C 193.009,78.2168 188.343,78.8835 183.5,78.5C 183.263,79.791 183.596,80.791 184.5,81.5C 181.375,82.4794 178.042,82.8128 174.5,82.5C 162.012,81.9296 153.346,75.9296 148.5,64.5C 160.478,52.1886 174.144,42.1886 189.5,34.5C 192.967,32.9328 196.3,31.0995 199.5,29C 195.253,29.8051 191.253,31.3051 187.5,33.5C 172.143,39.345 158.143,47.5116 145.5,58C 139.584,57.0971 135.751,53.5971 134,47.5C 133.919,35.6546 138.253,25.6546 147,17.5C 147.833,18.5 148.667,19.5 149.5,20.5C 152.15,17.3489 154.984,14.3489 158,11.5C 158.49,12.7932 158.657,14.1266 158.5,15.5C 159.552,15.6495 160.552,15.4828 161.5,15C 163.35,12.9824 165.35,11.1491 167.5,9.5C 168.148,11.1492 169.148,12.4825 170.5,13.5C 173.328,11.2519 176.328,9.25192 179.5,7.5C 179.654,8.90912 179.821,10.5758 180,12.5C 182.896,10.4672 186.063,9.13382 189.5,8.5 Z"/></g>
<g><path style="opacity:1" fill="#304611" d="M 199.5,10.5 C 200.386,9.2241 201.386,9.2241 202.5,10.5C 202.376,11.1067 202.043,11.44 201.5,11.5C 201.158,10.6618 200.492,10.3284 199.5,10.5 Z"/></g>
<g><path style="opacity:1" fill="#1e290d" d="M 189.5,34.5 C 189.158,33.6618 188.492,33.3284 187.5,33.5C 191.253,31.3051 195.253,29.8051 199.5,29C 196.3,31.0995 192.967,32.9328 189.5,34.5 Z"/></g>
<g><path style="opacity:1" fill="#3e5a15" d="M 70.5,81.5 C 72.9479,82.4731 75.6146,82.8064 78.5,82.5C 75.3601,83.6408 72.0267,83.8075 68.5,83C 69.0442,82.2828 69.7109,81.7828 70.5,81.5 Z"/></g>
<g><path style="opacity:1" fill="#3b5614" d="M 184.5,81.5 C 185.289,81.7828 185.956,82.2828 186.5,83C 182.311,83.8119 178.311,83.6453 174.5,82.5C 178.042,82.8128 181.375,82.4794 184.5,81.5 Z"/></g>
<g><path style="opacity:1" fill="#ba1041" d="M 119.5,83.5 C 130.405,82.5597 140.405,85.0597 149.5,91C 161.808,100.051 161.474,108.385 148.5,116C 137.754,119.368 126.754,120.368 115.5,119C 107.522,117.434 101.355,113.267 97,106.5C 95.9438,99.1142 98.7771,93.6142 105.5,90C 110.147,87.5056 114.814,85.339 119.5,83.5 Z"/></g>
<g><path style="opacity:1" fill="#b71040" d="M 71.5,89.5 C 77.8692,89.347 84.2026,89.6803 90.5,90.5C 90.0711,94.0244 88.5711,97.0244 86,99.5C 75.0025,111.173 62.8359,121.339 49.5,130C 46.9373,131.079 44.2706,131.579 41.5,131.5C 41.1141,109.911 51.1141,95.911 71.5,89.5 Z"/></g>
<g><path style="opacity:1" fill="#b81040" d="M 161.5,90.5 C 192.261,87.9395 208.261,101.939 209.5,132.5C 207.473,132.662 205.473,132.495 203.5,132C 188.186,122.691 174.686,111.191 163,97.5C 160.697,95.4528 160.197,93.1194 161.5,90.5 Z"/></g>
<g><path style="opacity:1" fill="#ba1041" d="M 155.5,120.5 C 181.183,121.351 195.516,134.517 198.5,160C 196.766,183.059 184.433,192.726 161.5,189C 139.662,179.491 130.828,162.991 135,139.5C 138.866,129.795 145.699,123.461 155.5,120.5 Z"/></g>
<g><path style="opacity:1" fill="#ba1041" d="M 86.5,122.5 C 103.198,120.762 114.365,127.762 120,143.5C 122.321,160.552 116.821,174.385 103.5,185C 91.7906,192.695 79.7906,193.362 67.5,187C 55.9565,176.325 52.7899,163.492 58,148.5C 63.6025,135.391 73.1025,126.724 86.5,122.5 Z"/></g>
<g><path style="opacity:1" fill="#b71040" d="M 209.5,141.5 C 211.527,141.338 213.527,141.505 215.5,142C 234.764,157.548 237.598,175.714 224,196.5C 222.883,198.124 221.383,199.124 219.5,199.5C 216.559,198.394 214.392,196.394 213,193.5C 206.972,178.311 204.972,162.644 207,146.5C 207.847,144.807 208.68,143.14 209.5,141.5 Z"/></g>
<g><path style="opacity:1" fill="#b81040" d="M 37.5,141.5 C 40.6421,141.799 42.8088,143.466 44,146.5C 46.2182,162.982 44.2182,178.982 38,194.5C 33.8259,202.351 29.4925,202.351 25,194.5C 14.0185,172.99 18.1851,155.324 37.5,141.5 Z"/></g>
<g><path style="opacity:1" fill="#ba1041" d="M 118.5,185.5 C 133.35,183.393 145.85,187.726 156,198.5C 167.191,220.294 161.691,236.461 139.5,247C 117.456,252.229 102.289,244.396 94,223.5C 92.3682,204.414 100.535,191.748 118.5,185.5 Z"/></g>
<g><path style="opacity:1" fill="#ba1041" d="M 197.5,197.5 C 201.182,197.335 204.848,197.501 208.5,198C 212.916,201.324 215.416,205.824 216,211.5C 218.045,235.793 207.545,251.959 184.5,260C 167.1,262.256 160.6,254.756 165,237.5C 170.525,219.813 181.358,206.48 197.5,197.5 Z"/></g>
<g><path style="opacity:1" fill="#ba1041" d="M 45.5,201.5 C 52.3124,201.603 58.6457,203.437 64.5,207C 80.9775,217.788 88.4775,232.954 87,252.5C 84.3828,257.976 80.0495,260.309 74,259.5C 60.6688,258.189 50.3355,251.856 43,240.5C 37.0807,229.172 36.0807,217.506 40,205.5C 41.8121,204.023 43.6455,202.69 45.5,201.5 Z"/></g>
<g><path style="opacity:1" fill="#b91041" d="M 114.5,258.5 C 125.207,258.224 135.873,258.724 146.5,260C 151.767,261.193 156.267,263.693 160,267.5C 160.667,268.833 160.667,270.167 160,271.5C 148.934,286.747 134.101,292.58 115.5,289C 109.875,286.521 104.542,283.521 99.5,280C 91.6837,274.391 91.6837,269.057 99.5,264C 104.447,261.692 109.447,259.859 114.5,258.5 Z"/></g>
</svg>
