<?xml version="1.0" encoding="UTF-8"?>
<!DOCTYPE svg PUBLIC "-//W3C//DTD SVG 1.1//EN" "http://www.w3.org/Graphics/SVG/1.1/DTD/svg11.dtd">
<svg xmlns="http://www.w3.org/2000/svg" version="1.1" width="512px" height="512px" style="shape-rendering:geometricPrecision; text-rendering:geometricPrecision; image-rendering:optimizeQuality; fill-rule:evenodd; clip-rule:evenodd" xmlns:xlink="http://www.w3.org/1999/xlink">
<g><path style="opacity:0.988" fill="#221f1f" d="M 222.5,21.5 C 316.904,16.125 391.071,51.7917 445,128.5C 483.157,190.567 491.823,256.567 471,326.5C 442.744,405.756 388.244,457.256 307.5,481C 211.71,502.84 130.543,478.007 64,406.5C 41.9594,380.758 26.4594,351.425 17.5,318.5C 47.4173,330.197 77.2506,342.197 107,354.5C 119.65,392.912 146.15,410.412 186.5,407C 212.647,400.851 229.813,385.018 238,359.5C 239.451,352.334 240.618,345.167 241.5,338C 267.5,319.667 293.5,301.333 319.5,283C 355.387,282.319 382.554,266.819 401,236.5C 420.064,195.38 413.231,159.214 380.5,128C 349.263,104.516 315.929,101.182 280.5,118C 250.749,135.982 235.249,162.482 234,197.5C 215.5,223.833 197,250.167 178.5,276.5C 163.175,276.538 149.008,280.538 136,288.5C 93.9174,271.197 51.7507,254.197 9.5,237.5C 17.4491,155.787 56.4491,93.9533 126.5,52C 156.568,35.3245 188.568,25.1579 222.5,21.5 Z M 314.5,151.5 C 348.168,150.007 365.668,166.007 367,199.5C 361.478,225.684 345.312,238.517 318.5,238C 298.12,234.897 285.286,223.397 280,203.5C 277.769,176.922 289.269,159.588 314.5,151.5 Z"/></g>
<g><path style="opacity:0.753" fill="#221f1f" d="M 472.5,66.5 C 486.338,64.0012 496.172,69.0012 502,81.5C 505.031,102.798 495.864,112.965 474.5,112C 460.443,107.743 454.61,98.2429 457,83.5C 459.247,75.0897 464.414,69.4231 472.5,66.5 Z M 474.5,70.5 C 491.157,69.3247 498.99,76.9914 498,93.5C 492.99,106.755 483.823,110.921 470.5,106C 457.727,95.4385 457.394,84.4385 469.5,73C 471.491,72.6264 473.158,71.793 474.5,70.5 Z M 476.5,81.5 C 478.527,81.3379 480.527,81.5045 482.5,82C 483.479,86.5166 481.479,88.35 476.5,87.5C 476.5,85.5 476.5,83.5 476.5,81.5 Z"/></g>
<g><path style="opacity:0.735" fill="#221f1f" d="M 471.5,77.5 C 475.846,77.3343 480.179,77.501 484.5,78C 489.757,82.156 489.757,86.4894 484.5,91C 486.545,93.5864 488.211,96.4198 489.5,99.5C 487.926,100.631 486.259,100.798 484.5,100C 483.039,97.5794 481.706,95.0794 480.5,92.5C 479.311,91.5713 477.978,91.238 476.5,91.5C 476.5,94.5 476.5,97.5 476.5,100.5C 474.833,100.5 473.167,100.5 471.5,100.5C 471.5,92.8333 471.5,85.1667 471.5,77.5 Z M 476.5,81.5 C 476.5,83.5 476.5,85.5 476.5,87.5C 481.479,88.35 483.479,86.5166 482.5,82C 480.527,81.5045 478.527,81.3379 476.5,81.5 Z"/></g>
<g><path style="opacity:0.926" fill="#221f1f" d="M 316.5,135.5 C 341.594,134.131 361.094,143.797 375,164.5C 388.768,192.67 384.601,217.837 362.5,240C 342.862,254.498 321.528,257.498 298.5,249C 269.095,233.345 258.262,209.179 266,176.5C 274.96,152.96 291.794,139.293 316.5,135.5 Z M 314.5,151.5 C 289.269,159.588 277.769,176.922 280,203.5C 285.286,223.397 298.12,234.897 318.5,238C 345.312,238.517 361.478,225.684 367,199.5C 365.668,166.007 348.168,150.007 314.5,151.5 Z"/></g>
<g><path style="opacity:0.911" fill="#221f1f" d="M 165.5,292.5 C 196.642,290.473 216.142,304.473 224,334.5C 226.249,365.846 212.082,385.013 181.5,392C 157.864,394.35 140.197,385.35 128.5,365C 128.833,364.5 129.167,364 129.5,363.5C 143.106,369.701 157.106,374.701 171.5,378.5C 198.287,374.561 210.12,359.228 207,332.5C 203.763,322.596 197.597,315.096 188.5,310C 177.354,305.591 166.354,300.925 155.5,296C 158.85,294.514 162.184,293.347 165.5,292.5 Z"/></g>
</svg>
