<?xml version="1.0" encoding="UTF-8"?>
<!DOCTYPE svg PUBLIC "-//W3C//DTD SVG 1.1//EN" "http://www.w3.org/Graphics/SVG/1.1/DTD/svg11.dtd">
<svg xmlns="http://www.w3.org/2000/svg" version="1.1" width="192px" height="192px" style="shape-rendering:geometricPrecision; text-rendering:geometricPrecision; image-rendering:optimizeQuality; fill-rule:evenodd; clip-rule:evenodd" xmlns:xlink="http://www.w3.org/1999/xlink">
<g><path style="opacity:1" fill="#fdfdfd" d="M -0.5,-0.5 C 27.5,-0.5 55.5,-0.5 83.5,-0.5C 75.0073,-0.226238 68.174,3.44043 63,10.5C 59.6667,15.8333 56.3333,21.1667 53,26.5C 49.5117,34.81 45.5117,42.81 41,50.5C 42.0048,78.5484 44.0048,106.548 47,134.5C 47.5323,137.264 48.3657,139.93 49.5,142.5C 40.2111,149.955 31.7111,158.288 24,167.5C 22.3267,174.726 21.4934,182.059 21.5,189.5C 26.1522,189.998 30.8189,190.331 35.5,190.5C 35.5,190.833 35.5,191.167 35.5,191.5C 23.5,191.5 11.5,191.5 -0.5,191.5C -0.5,127.5 -0.5,63.5 -0.5,-0.5 Z"/></g>
<g><path style="opacity:1" fill="#fdfdfd" d="M 94.5,-0.5 C 126.833,-0.5 159.167,-0.5 191.5,-0.5C 191.5,63.5 191.5,127.5 191.5,191.5C 179.833,191.5 168.167,191.5 156.5,191.5C 159.028,190.834 161.694,190.168 164.5,189.5C 158.977,179.432 155.144,168.765 153,157.5C 149.044,151.21 144.044,145.876 138,141.5C 138.196,119.592 139.696,97.7585 142.5,76C 141.015,62.8838 140.181,49.7171 140,36.5C 132.631,25.1217 124.464,14.2884 115.5,4C 108.481,1.98227 101.481,0.482268 94.5,-0.5 Z"/></g>
<g><path style="opacity:1" fill="#060606" d="M 83.5,-0.5 C 87.1667,-0.5 90.8333,-0.5 94.5,-0.5C 101.481,0.482268 108.481,1.98227 115.5,4C 124.464,14.2884 132.631,25.1217 140,36.5C 140.181,49.7171 141.015,62.8838 142.5,76C 139.696,97.7585 138.196,119.592 138,141.5C 144.044,145.876 149.044,151.21 153,157.5C 155.144,168.765 158.977,179.432 164.5,189.5C 161.694,190.168 159.028,190.834 156.5,191.5C 146.167,191.5 135.833,191.5 125.5,191.5C 122.713,190.523 119.713,190.19 116.5,190.5C 116.5,188.833 116.5,187.167 116.5,185.5C 118.471,175.63 119.804,165.63 120.5,155.5C 120.315,154.416 119.982,153.416 119.5,152.5C 119.737,151.209 119.404,150.209 118.5,149.5C 118.649,148.448 118.483,147.448 118,146.5C 114.283,142.238 110.45,138.072 106.5,134C 104.512,133.062 102.512,132.228 100.5,131.5C 101.625,130.348 101.625,129.348 100.5,128.5C 100.5,127.833 100.167,127.5 99.5,127.5C 99.5,126.833 99.8333,126.5 100.5,126.5C 103.062,129.223 106.062,131.389 109.5,133C 112.118,135.739 114.618,138.573 117,141.5C 117.5,140.5 118,139.5 118.5,138.5C 112.704,130.204 105.038,124.371 95.5,121C 87.8412,118.115 80.1745,115.448 72.5,113C 91.6589,114.579 107.659,122.579 120.5,137C 123.219,137.594 123.886,136.76 122.5,134.5C 123.167,134.167 123.833,133.833 124.5,133.5C 125.427,135.476 126.76,135.809 128.5,134.5C 127.476,133.148 126.476,131.815 125.5,130.5C 125.842,129.662 126.508,129.328 127.5,129.5C 128.583,129.539 129.583,129.873 130.5,130.5C 130.833,130 131.167,129.5 131.5,129C 127.953,126.954 125.286,124.12 123.5,120.5C 123.328,119.508 123.662,118.842 124.5,118.5C 126.319,121.655 128.985,123.655 132.5,124.5C 132.649,123.448 132.483,122.448 132,121.5C 129.183,118.353 126.016,115.52 122.5,113C 123,112.5 123.5,112 124,111.5C 127,113.833 130,116.167 133,118.5C 133.613,116.505 133.113,114.838 131.5,113.5C 132.398,112.842 133.398,112.176 134.5,111.5C 134.376,110.893 134.043,110.56 133.5,110.5C 133.167,109.833 132.833,109.167 132.5,108.5C 133.167,107.833 133.833,107.167 134.5,106.5C 134.5,105.833 134.5,105.167 134.5,104.5C 135.686,103.039 135.686,101.705 134.5,100.5C 134.5,100.167 134.5,99.8333 134.5,99.5C 135.108,98.2003 135.775,96.8669 136.5,95.5C 136.457,94.5836 136.124,93.9169 135.5,93.5C 130.335,81.8323 127.502,69.4989 127,56.5C 126.617,55.944 126.117,55.6107 125.5,55.5C 125.44,54.9569 125.107,54.6236 124.5,54.5C 123.818,55.2427 123.151,55.9094 122.5,56.5C 122.978,53.7224 121.978,51.7224 119.5,50.5C 118.893,50.6236 118.56,50.9569 118.5,51.5C 118.167,51.5 117.833,51.5 117.5,51.5C 117.101,48.0123 116.434,47.8456 115.5,51C 116.36,57.8172 117.026,64.6505 117.5,71.5C 117.815,75.3714 117.482,79.0381 116.5,82.5C 116.164,73.1186 115.497,63.7853 114.5,54.5C 113.841,51.5448 113.508,48.5448 113.5,45.5C 112.5,45.5 111.5,45.5 110.5,45.5C 110.802,48.0593 110.468,50.3926 109.5,52.5C 109.806,49.6146 109.473,46.9479 108.5,44.5C 106.952,44.8212 106.285,45.8212 106.5,47.5C 106.167,47.5 105.833,47.5 105.5,47.5C 104.774,44.9873 103.441,44.3207 101.5,45.5C 98.9595,72.0379 84.2928,86.0379 57.5,87.5C 57.5,88.5 57.5,89.5 57.5,90.5C 60.0379,90.4928 62.5379,90.1595 65,89.5C 67.3597,90.78 69.8597,91.4467 72.5,91.5C 73.1667,91.5 73.5,91.8333 73.5,92.5C 68.4351,92.781 63.4351,92.4476 58.5,91.5C 57.6143,92.325 57.281,93.325 57.5,94.5C 59.1667,94.5 60.8333,94.5 62.5,94.5C 63.8333,95.1667 65.1667,95.8333 66.5,96.5C 63.4281,96.1826 60.4281,96.5159 57.5,97.5C 58.325,98.3857 59.325,98.719 60.5,98.5C 59.5,99.1667 58.5,99.8333 57.5,100.5C 59.0897,102.821 61.4231,103.821 64.5,103.5C 64.1583,104.338 63.4916,104.672 62.5,104.5C 60.712,104.215 59.0453,104.548 57.5,105.5C 60.7862,106.755 64.1196,107.755 67.5,108.5C 67.1583,109.338 66.4916,109.672 65.5,109.5C 62.7531,109.187 60.0865,109.52 57.5,110.5C 57.9569,111.298 58.6236,111.631 59.5,111.5C 58.5,112.167 57.5,112.833 56.5,113.5C 56.4701,114.497 56.9701,115.164 58,115.5C 61.3995,116.956 64.8995,117.956 68.5,118.5C 68.5,118.833 68.5,119.167 68.5,119.5C 64.8023,119.806 61.3023,119.139 58,117.5C 56.3925,117.974 56.2258,118.641 57.5,119.5C 63.0993,122.438 68.4326,125.771 73.5,129.5C 73.8333,129.333 74.1667,129.167 74.5,129C 72.0167,126.594 69.35,124.427 66.5,122.5C 66.8333,122.167 67.1667,121.833 67.5,121.5C 71.3094,124.142 74.9761,126.975 78.5,130C 80.4068,131.122 82.4068,131.955 84.5,132.5C 85.7054,133.686 87.0387,133.686 88.5,132.5C 93.3053,135.071 97.9719,137.904 102.5,141C 106.157,145.823 110.157,150.323 114.5,154.5C 113.635,155.583 112.635,155.749 111.5,155C 105.323,150.818 99.1562,146.652 93,142.5C 91.1739,143.01 91.0072,143.844 92.5,145C 98.0873,148.71 103.587,152.543 109,156.5C 109.591,157.483 109.257,158.15 108,158.5C 102.248,154.703 96.7483,150.536 91.5,146C 90.5165,145.409 89.8499,145.743 89.5,147C 93.5737,152.065 98.5737,156.065 104.5,159C 106.924,161.178 108.59,163.845 109.5,167C 108.039,169.298 106.372,171.465 104.5,173.5C 106.524,175.69 108.357,178.023 110,180.5C 111.124,183.442 111.458,186.442 111,189.5C 107.273,189.959 103.439,189.959 99.5,189.5C 100.283,184.477 101.283,179.477 102.5,174.5C 101.844,171.667 100.51,169.167 98.5,167C 99.7763,164.719 101.443,162.719 103.5,161C 98.0314,157.697 92.6981,154.197 87.5,150.5C 84.8708,153.924 83.2041,157.757 82.5,162C 83.5578,171.31 85.2244,180.477 87.5,189.5C 78.487,189.552 69.487,189.219 60.5,188.5C 52.1686,189.25 43.8352,189.917 35.5,190.5C 30.8189,190.331 26.1522,189.998 21.5,189.5C 21.4934,182.059 22.3267,174.726 24,167.5C 31.7111,158.288 40.2111,149.955 49.5,142.5C 48.3657,139.93 47.5323,137.264 47,134.5C 44.0048,106.548 42.0048,78.5484 41,50.5C 45.5117,42.81 49.5117,34.81 53,26.5C 56.3333,21.1667 59.6667,15.8333 63,10.5C 68.174,3.44043 75.0073,-0.226238 83.5,-0.5 Z"/></g>
<g><path style="opacity:1" fill="#242424" d="M 105.5,47.5 C 105.833,47.5 106.167,47.5 106.5,47.5C 108.41,72.0275 97.4096,87.0275 73.5,92.5C 73.5,91.8333 73.1667,91.5 72.5,91.5C 81.2743,88.6071 89.4409,84.2738 97,78.5C 102.788,68.9397 105.621,58.6064 105.5,47.5 Z"/></g>
<g><path style="opacity:1" fill="#d8d8d8" d="M 85.5,47.5 C 83.4298,55.7863 78.7632,62.2863 71.5,67C 72.8193,67.195 74.1526,67.0283 75.5,66.5C 74.7101,67.7942 73.7101,68.9609 72.5,70C 69.1068,71.62 65.7735,73.12 62.5,74.5C 61.0222,74.762 59.6888,74.4287 58.5,73.5C 60.5,72.6667 62.5,71.8333 64.5,71C 66.9573,67.9416 69.9573,65.6083 73.5,64C 76.9738,58.0399 80.9738,52.5399 85.5,47.5 Z"/></g>
<g><path style="opacity:1" fill="#2d2d2d" d="M 85.5,47.5 C 86.1667,48.1667 86.8333,48.8333 87.5,49.5C 84.2776,55.7213 80.2776,61.388 75.5,66.5C 74.1526,67.0283 72.8193,67.195 71.5,67C 78.7632,62.2863 83.4298,55.7863 85.5,47.5 Z"/></g>
<g><path style="opacity:1" fill="#262626" d="M 89.5,47.5 C 91.1405,48.147 92.4739,49.147 93.5,50.5C 92.3132,54.9199 90.8132,59.2533 89,63.5C 82.578,68.7746 76.078,73.7746 69.5,78.5C 67.3792,78.3253 65.3792,78.6586 63.5,79.5C 63.5,79.1667 63.5,78.8333 63.5,78.5C 73.7881,74.7312 82.2881,68.3979 89,59.5C 90.0281,56.4909 90.6948,53.4909 91,50.5C 89.368,56.9302 85.868,62.0969 80.5,66C 77.2677,67.2305 74.6011,69.2305 72.5,72C 69.7334,73.0833 67.0668,74.25 64.5,75.5C 64.1583,74.6618 63.4916,74.3284 62.5,74.5C 65.7735,73.12 69.1068,71.62 72.5,70C 73.7101,68.9609 74.7101,67.7942 75.5,66.5C 78.9892,65.5231 81.8225,63.5231 84,60.5C 86.7112,56.5318 88.5445,52.1985 89.5,47.5 Z"/></g>
<g><path style="opacity:1" fill="#dadada" d="M 72.5,47.5 C 73.552,47.3505 74.552,47.5172 75.5,48C 71.3333,54.8333 65.8333,60.3333 59,64.5C 58.8595,62.7445 59.3595,61.0778 60.5,59.5C 62.707,56.7955 65.3737,54.6288 68.5,53C 69.965,51.2258 71.2983,49.3925 72.5,47.5 Z"/></g>
<g><path style="opacity:1" fill="#e1e1e1" d="M 78.5,47.5 C 79.552,47.3505 80.552,47.5172 81.5,48C 76.0239,57.3095 68.6906,64.8095 59.5,70.5C 58.4173,69.635 58.2506,68.635 59,67.5C 67.0447,62.2893 73.5447,55.6226 78.5,47.5 Z"/></g>
<g><path style="opacity:1" fill="#dbdbdb" d="M 89.5,47.5 C 88.5445,52.1985 86.7112,56.5318 84,60.5C 81.8225,63.5231 78.9892,65.5231 75.5,66.5C 80.2776,61.388 84.2776,55.7213 87.5,49.5C 87.5,48.1667 88.1667,47.5 89.5,47.5 Z"/></g>
<g><path style="opacity:1" fill="#b7b7b7" d="M 114.5,54.5 C 113.517,58.2984 113.183,62.2984 113.5,66.5C 112.675,62.3528 112.175,58.0195 112,53.5C 111.826,58.3514 111.326,63.0181 110.5,67.5C 110.768,65.901 110.434,64.5676 109.5,63.5C 109.5,59.8333 109.5,56.1667 109.5,52.5C 110.468,50.3926 110.802,48.0593 110.5,45.5C 111.5,45.5 112.5,45.5 113.5,45.5C 113.508,48.5448 113.841,51.5448 114.5,54.5 Z"/></g>
<g><path style="opacity:1" fill="#d7d7d7" d="M 63.5,78.5 C 61.396,78.7989 59.396,78.4656 57.5,77.5C 57.7093,76.914 58.0426,76.414 58.5,76C 60.4727,75.5045 62.4727,75.3379 64.5,75.5C 67.0668,74.25 69.7334,73.0833 72.5,72C 74.6011,69.2305 77.2677,67.2305 80.5,66C 85.868,62.0969 89.368,56.9302 91,50.5C 90.6948,53.4909 90.0281,56.4909 89,59.5C 82.2881,68.3979 73.7881,74.7312 63.5,78.5 Z"/></g>
<g><path style="opacity:1" fill="#222222" d="M 101.5,45.5 C 103.441,44.3207 104.774,44.9873 105.5,47.5C 103.674,57.4808 100.507,67.1475 96,76.5C 94.8333,77.6667 93.6667,78.8333 92.5,80C 87.2689,82.2306 82.2689,84.8973 77.5,88C 74.5576,89.1244 71.5576,89.4577 68.5,89C 76.9426,85.8633 85.1093,82.03 93,77.5C 98.414,68.0198 101.914,57.8531 103.5,47C 103.164,45.9701 102.497,45.4701 101.5,45.5 Z"/></g>
<g><path style="opacity:1" fill="#dedede" d="M 95.5,50.5 C 93.6679,61.3318 88.0013,69.4985 78.5,75C 75.7209,76.7224 72.7209,77.8891 69.5,78.5C 76.078,73.7746 82.578,68.7746 89,63.5C 90.8132,59.2533 92.3132,54.9199 93.5,50.5C 94.1667,45.1667 94.8333,45.1667 95.5,50.5 Z"/></g>
<g><path style="opacity:1" fill="#5b5b5b" d="M 110.5,68.5 C 110.5,69.1667 110.833,69.5 111.5,69.5C 111.802,72.0593 111.468,74.3926 110.5,76.5C 110.167,76.5 109.833,76.5 109.5,76.5C 109.194,73.6146 109.527,70.9479 110.5,68.5 Z"/></g>
<g><path style="opacity:1" fill="#9a9a9a" d="M 133.5,63.5 C 136.065,68.0976 137.232,73.0976 137,78.5C 135.388,73.6092 134.222,68.6092 133.5,63.5 Z"/></g>
<g><path style="opacity:1" fill="#dadada" d="M 64.5,83.5 C 71.3003,80.6217 77.967,77.4551 84.5,74C 90.8864,68.1261 94.8864,60.9594 96.5,52.5C 96.9126,50.1099 97.5793,47.7765 98.5,45.5C 98.6279,60.7419 92.2946,72.5752 79.5,81C 72.2876,83.4081 64.9543,85.2414 57.5,86.5C 57.5,85.5 57.5,84.5 57.5,83.5C 59.8333,83.5 62.1667,83.5 64.5,83.5 Z"/></g>
<g><path style="opacity:1" fill="#242424" d="M 95.5,50.5 C 95.3284,51.4916 95.6618,52.1583 96.5,52.5C 94.8864,60.9594 90.8864,68.1261 84.5,74C 77.967,77.4551 71.3003,80.6217 64.5,83.5C 62.3021,82.8347 59.9688,82.1681 57.5,81.5C 57.6236,80.8933 57.9569,80.56 58.5,80.5C 62.5062,82.0685 66.1728,81.4019 69.5,78.5C 72.7209,77.8891 75.7209,76.7224 78.5,75C 88.0013,69.4985 93.6679,61.3318 95.5,50.5 Z"/></g>
<g><path style="opacity:1" fill="#dadada" d="M 101.5,45.5 C 102.497,45.4701 103.164,45.9701 103.5,47C 101.914,57.8531 98.414,68.0198 93,77.5C 85.1093,82.03 76.9426,85.8633 68.5,89C 71.5576,89.4577 74.5576,89.1244 77.5,88C 82.2689,84.8973 87.2689,82.2306 92.5,80C 93.6667,78.8333 94.8333,77.6667 96,76.5C 100.507,67.1475 103.674,57.4808 105.5,47.5C 105.621,58.6064 102.788,68.9397 97,78.5C 89.4409,84.2738 81.2743,88.6071 72.5,91.5C 69.8597,91.4467 67.3597,90.78 65,89.5C 62.5379,90.1595 60.0379,90.4928 57.5,90.5C 57.5,89.5 57.5,88.5 57.5,87.5C 84.2928,86.0379 98.9595,72.0379 101.5,45.5 Z"/></g>
<g><path style="opacity:1" fill="#dadada" d="M 118.5,51.5 C 118.56,50.9569 118.893,50.6236 119.5,50.5C 121.978,51.7224 122.978,53.7224 122.5,56.5C 123.788,68.2599 125.621,79.9265 128,91.5C 130.031,94.3553 132.197,97.022 134.5,99.5C 134.5,99.8333 134.5,100.167 134.5,100.5C 134.103,101.525 133.437,101.692 132.5,101C 129.567,98.7357 127.4,95.9024 126,92.5C 123.301,83.024 121.968,73.3573 122,63.5C 121.261,59.2497 120.094,55.2497 118.5,51.5 Z"/></g>
<g><path style="opacity:1" fill="#dcdcdc" d="M 129.5,59.5 C 130.966,60.347 131.8,61.6803 132,63.5C 131.962,70.1243 133.296,76.4577 136,82.5C 136.667,84.8333 136.667,87.1667 136,89.5C 134.457,84.7801 132.791,80.1134 131,75.5C 130.677,70.1343 130.177,64.8009 129.5,59.5 Z"/></g>
<g><path style="opacity:1" fill="#212121" d="M 117.5,51.5 C 117.833,51.5 118.167,51.5 118.5,51.5C 120.094,55.2497 121.261,59.2497 122,63.5C 121.968,73.3573 123.301,83.024 126,92.5C 127.4,95.9024 129.567,98.7357 132.5,101C 133.437,101.692 134.103,101.525 134.5,100.5C 135.686,101.705 135.686,103.039 134.5,104.5C 129.939,102.775 126.439,99.775 124,95.5C 121.724,80.8151 119.557,66.1484 117.5,51.5 Z"/></g>
<g><path style="opacity:1" fill="#dddddd" d="M 117.5,51.5 C 119.557,66.1484 121.724,80.8151 124,95.5C 126.439,99.775 129.939,102.775 134.5,104.5C 134.5,105.167 134.5,105.833 134.5,106.5C 129.491,105.24 125.325,102.574 122,98.5C 119.591,89.521 118.091,80.521 117.5,71.5C 117.026,64.6505 116.36,57.8172 115.5,51C 116.434,47.8456 117.101,48.0123 117.5,51.5 Z"/></g>
<g><path style="opacity:1" fill="#dadada" d="M 114.5,54.5 C 115.497,63.7853 116.164,73.1186 116.5,82.5C 115.586,91.9993 118.586,99.9993 125.5,106.5C 123.534,107.372 121.534,107.205 119.5,106C 117.599,103.387 115.265,101.72 112.5,101C 113.79,103.292 115.457,105.292 117.5,107C 122.453,108.57 127.12,110.737 131.5,113.5C 133.113,114.838 133.613,116.505 133,118.5C 130,116.167 127,113.833 124,111.5C 123.5,112 123,112.5 122.5,113C 126.016,115.52 129.183,118.353 132,121.5C 132.483,122.448 132.649,123.448 132.5,124.5C 128.985,123.655 126.319,121.655 124.5,118.5C 121.247,113.741 117.413,109.408 113,105.5C 112,103.5 111,101.5 110,99.5C 109.309,91.8053 109.475,84.1387 110.5,76.5C 111.468,74.3926 111.802,72.0593 111.5,69.5C 112.33,78.324 112.83,87.324 113,96.5C 114.529,97.7287 115.696,99.2287 116.5,101C 117.332,101.688 117.998,101.521 118.5,100.5C 114.894,96.1874 113.894,91.3541 115.5,86C 113.771,79.6465 113.105,73.1465 113.5,66.5C 113.183,62.2984 113.517,58.2984 114.5,54.5 Z"/></g>
<g><path style="opacity:1" fill="#d9d9d9" d="M 125.5,55.5 C 126.117,55.6107 126.617,55.944 127,56.5C 127.502,69.4989 130.335,81.8323 135.5,93.5C 135.649,94.552 135.483,95.552 135,96.5C 133.088,94.3428 131.421,92.0094 130,89.5C 127.767,79.2415 125.934,68.9081 124.5,58.5C 124.52,57.2739 124.853,56.2739 125.5,55.5 Z"/></g>
<g><path style="opacity:1" fill="#ebebeb" d="M 69.5,78.5 C 66.1728,81.4019 62.5062,82.0685 58.5,80.5C 60.2915,80.634 61.9582,80.3007 63.5,79.5C 65.3792,78.6586 67.3792,78.3253 69.5,78.5 Z"/></g>
<g><path style="opacity:1" fill="#1a1a1a" d="M 125.5,55.5 C 124.853,56.2739 124.52,57.2739 124.5,58.5C 125.934,68.9081 127.767,79.2415 130,89.5C 131.421,92.0094 133.088,94.3428 135,96.5C 135.483,95.552 135.649,94.552 135.5,93.5C 136.124,93.9169 136.457,94.5836 136.5,95.5C 135.775,96.8669 135.108,98.2003 134.5,99.5C 132.197,97.022 130.031,94.3553 128,91.5C 125.621,79.9265 123.788,68.2599 122.5,56.5C 123.151,55.9094 123.818,55.2427 124.5,54.5C 125.107,54.6236 125.44,54.9569 125.5,55.5 Z"/></g>
<g><path style="opacity:1" fill="#1c1c1c" d="M 113.5,66.5 C 113.105,73.1465 113.771,79.6465 115.5,86C 113.894,91.3541 114.894,96.1874 118.5,100.5C 117.998,101.521 117.332,101.688 116.5,101C 115.696,99.2287 114.529,97.7287 113,96.5C 112.83,87.324 112.33,78.324 111.5,69.5C 110.833,69.5 110.5,69.1667 110.5,68.5C 110.5,68.1667 110.5,67.8333 110.5,67.5C 111.326,63.0181 111.826,58.3514 112,53.5C 112.175,58.0195 112.675,62.3528 113.5,66.5 Z"/></g>
<g><path style="opacity:1" fill="#212121" d="M 108.5,44.5 C 109.473,46.9479 109.806,49.6146 109.5,52.5C 109.5,56.1667 109.5,59.8333 109.5,63.5C 108.508,66.8229 107.508,70.1563 106.5,73.5C 103.611,76.2558 101.444,79.5891 100,83.5C 90.2995,91.5527 79.1328,95.8861 66.5,96.5C 65.1667,95.8333 63.8333,95.1667 62.5,94.5C 95.5055,94.1593 110.839,77.4926 108.5,44.5 Z"/></g>
<g><path style="opacity:1" fill="#dcdcdc" d="M 109.5,63.5 C 110.434,64.5676 110.768,65.901 110.5,67.5C 110.5,67.8333 110.5,68.1667 110.5,68.5C 109.527,70.9479 109.194,73.6146 109.5,76.5C 105.893,89.2719 97.5592,97.1052 84.5,100C 89.2508,100.189 93.9174,100.855 98.5,102C 101.063,103.015 102.396,104.515 102.5,106.5C 100.138,104.638 97.4709,103.471 94.5,103C 83.1103,101.66 71.7769,100.16 60.5,98.5C 59.325,98.719 58.325,98.3857 57.5,97.5C 60.4281,96.5159 63.4281,96.1826 66.5,96.5C 79.1328,95.8861 90.2995,91.5527 100,83.5C 101.444,79.5891 103.611,76.2558 106.5,73.5C 107.508,70.1563 108.508,66.8229 109.5,63.5 Z"/></g>
<g><path style="opacity:1" fill="#1a1a1a" d="M 106.5,73.5 C 107.376,73.3691 108.043,73.7025 108.5,74.5C 101.485,93.6802 87.8186,101.514 67.5,98C 80.4658,98.4192 91.6325,94.2525 101,85.5C 103.509,81.8056 105.342,77.8056 106.5,73.5 Z"/></g>
<g><path style="opacity:1" fill="#d5d5d5" d="M 108.5,44.5 C 110.839,77.4926 95.5055,94.1593 62.5,94.5C 60.8333,94.5 59.1667,94.5 57.5,94.5C 57.281,93.325 57.6143,92.325 58.5,91.5C 63.4351,92.4476 68.4351,92.781 73.5,92.5C 97.4096,87.0275 108.41,72.0275 106.5,47.5C 106.285,45.8212 106.952,44.8212 108.5,44.5 Z"/></g>
<g><path style="opacity:1" fill="#1b1b1b" d="M 109.5,76.5 C 109.833,76.5 110.167,76.5 110.5,76.5C 109.475,84.1387 109.309,91.8053 110,99.5C 111,101.5 112,103.5 113,105.5C 117.413,109.408 121.247,113.741 124.5,118.5C 123.662,118.842 123.328,119.508 123.5,120.5C 118.531,114.688 113.697,108.688 109,102.5C 107.189,98.0123 106.189,93.3457 106,88.5C 104.43,91.6335 104.097,94.9668 105,98.5C 106.275,100.717 107.275,103.051 108,105.5C 112.688,110.687 117.188,116.02 121.5,121.5C 118.178,119.736 115.011,117.07 112,113.5C 109.252,110.266 106.752,106.932 104.5,103.5C 105.262,107.691 107.096,111.358 110,114.5C 115.092,120.43 120.925,125.43 127.5,129.5C 126.508,129.328 125.842,129.662 125.5,130.5C 117.592,125.533 110.926,119.2 105.5,111.5C 103.31,109.476 100.977,107.643 98.5,106C 84.6942,105.087 71.0275,103.253 57.5,100.5C 58.5,99.8333 59.5,99.1667 60.5,98.5C 71.7769,100.16 83.1103,101.66 94.5,103C 97.4709,103.471 100.138,104.638 102.5,106.5C 102.396,104.515 101.063,103.015 98.5,102C 93.9174,100.855 89.2508,100.189 84.5,100C 97.5592,97.1052 105.893,89.2719 109.5,76.5 Z"/></g>
<g><path style="opacity:1" fill="#e6e6e6" d="M 104.5,103.5 C 100.581,101.154 99.5815,97.8207 101.5,93.5C 102.29,96.9246 103.29,100.258 104.5,103.5 Z"/></g>
<g><path style="opacity:1" fill="#bbbbbb" d="M 95.5,97.5 C 96.675,97.281 97.675,97.6143 98.5,98.5C 96.9483,99.7979 95.9483,99.4646 95.5,97.5 Z"/></g>
<g><path style="opacity:1" fill="#1f1f1f" d="M 117.5,71.5 C 118.091,80.521 119.591,89.521 122,98.5C 125.325,102.574 129.491,105.24 134.5,106.5C 133.833,107.167 133.167,107.833 132.5,108.5C 131.064,106.681 129.397,106.348 127.5,107.5C 128.605,108.892 129.939,110.059 131.5,111C 132.437,111.692 133.103,111.525 133.5,110.5C 134.043,110.56 134.376,110.893 134.5,111.5C 133.398,112.176 132.398,112.842 131.5,113.5C 127.12,110.737 122.453,108.57 117.5,107C 115.457,105.292 113.79,103.292 112.5,101C 115.265,101.72 117.599,103.387 119.5,106C 121.534,107.205 123.534,107.372 125.5,106.5C 118.586,99.9993 115.586,91.9993 116.5,82.5C 117.482,79.0381 117.815,75.3714 117.5,71.5 Z"/></g>
<g><path style="opacity:1" fill="#ebebeb" d="M 62.5,104.5 C 67.0889,106.875 72.0889,107.875 77.5,107.5C 74.7131,108.477 71.7131,108.81 68.5,108.5C 68.1667,108.5 67.8333,108.5 67.5,108.5C 64.1196,107.755 60.7862,106.755 57.5,105.5C 59.0453,104.548 60.712,104.215 62.5,104.5 Z"/></g>
<g><path style="opacity:1" fill="#b5b5b5" d="M 77.5,107.5 C 82.228,108.349 86.8946,109.515 91.5,111C 92.6956,111.654 92.6956,112.154 91.5,112.5C 83.8383,110.359 76.1716,109.026 68.5,108.5C 71.7131,108.81 74.7131,108.477 77.5,107.5 Z"/></g>
<g><path style="opacity:1" fill="#e1e1e1" d="M 57.5,100.5 C 71.0275,103.253 84.6942,105.087 98.5,106C 100.977,107.643 103.31,109.476 105.5,111.5C 110.926,119.2 117.592,125.533 125.5,130.5C 126.476,131.815 127.476,133.148 128.5,134.5C 126.76,135.809 125.427,135.476 124.5,133.5C 119.407,129.912 114.74,125.745 110.5,121C 104.216,117.699 98.2158,114.032 92.5,110C 93.5,109.333 94.5,109.333 95.5,110C 99.4357,111.547 102.936,113.713 106,116.5C 106.5,116.333 107,116.167 107.5,116C 103.718,112.22 99.3844,109.22 94.5,107C 84.3036,106.982 74.3036,105.816 64.5,103.5C 61.4231,103.821 59.0897,102.821 57.5,100.5 Z"/></g>
<g><path style="opacity:1" fill="#ebebeb" d="M 132.5,108.5 C 132.833,109.167 133.167,109.833 133.5,110.5C 133.103,111.525 132.437,111.692 131.5,111C 129.939,110.059 128.605,108.892 127.5,107.5C 129.397,106.348 131.064,106.681 132.5,108.5 Z"/></g>
<g><path style="opacity:1" fill="#1e1e1e" d="M 64.5,103.5 C 74.3036,105.816 84.3036,106.982 94.5,107C 99.3844,109.22 103.718,112.22 107.5,116C 107,116.167 106.5,116.333 106,116.5C 102.936,113.713 99.4357,111.547 95.5,110C 94.5,109.333 93.5,109.333 92.5,110C 98.2158,114.032 104.216,117.699 110.5,121C 114.74,125.745 119.407,129.912 124.5,133.5C 123.833,133.833 123.167,134.167 122.5,134.5C 115.195,127.04 106.861,120.873 97.5,116C 90.3648,113.478 83.0314,111.645 75.5,110.5C 71.8227,112.14 68.4894,111.806 65.5,109.5C 66.4916,109.672 67.1583,109.338 67.5,108.5C 67.8333,108.5 68.1667,108.5 68.5,108.5C 76.1716,109.026 83.8383,110.359 91.5,112.5C 92.6956,112.154 92.6956,111.654 91.5,111C 86.8946,109.515 82.228,108.349 77.5,107.5C 72.0889,107.875 67.0889,106.875 62.5,104.5C 63.4916,104.672 64.1583,104.338 64.5,103.5 Z"/></g>
<g><path style="opacity:1" fill="#e2e2e2" d="M 65.5,109.5 C 68.4894,111.806 71.8227,112.14 75.5,110.5C 83.0314,111.645 90.3648,113.478 97.5,116C 106.861,120.873 115.195,127.04 122.5,134.5C 123.886,136.76 123.219,137.594 120.5,137C 107.659,122.579 91.6589,114.579 72.5,113C 80.1745,115.448 87.8412,118.115 95.5,121C 105.038,124.371 112.704,130.204 118.5,138.5C 118,139.5 117.5,140.5 117,141.5C 114.618,138.573 112.118,135.739 109.5,133C 106.062,131.389 103.062,129.223 100.5,126.5C 90.0703,122.965 79.7369,118.798 69.5,114C 66.2799,112.648 62.9466,111.814 59.5,111.5C 58.6236,111.631 57.9569,111.298 57.5,110.5C 60.0865,109.52 62.7531,109.187 65.5,109.5 Z"/></g>
<g><path style="opacity:1" fill="#dddddd" d="M 123.5,120.5 C 125.286,124.12 127.953,126.954 131.5,129C 131.167,129.5 130.833,130 130.5,130.5C 129.583,129.873 128.583,129.539 127.5,129.5C 120.925,125.43 115.092,120.43 110,114.5C 107.096,111.358 105.262,107.691 104.5,103.5C 106.752,106.932 109.252,110.266 112,113.5C 115.011,117.07 118.178,119.736 121.5,121.5C 117.188,116.02 112.688,110.687 108,105.5C 107.275,103.051 106.275,100.717 105,98.5C 104.097,94.9668 104.43,91.6335 106,88.5C 106.189,93.3457 107.189,98.0123 109,102.5C 113.697,108.688 118.531,114.688 123.5,120.5 Z"/></g>
<g><path style="opacity:1" fill="#202020" d="M 59.5,111.5 C 62.9466,111.814 66.2799,112.648 69.5,114C 79.7369,118.798 90.0703,122.965 100.5,126.5C 99.8333,126.5 99.5,126.833 99.5,127.5C 94.3471,126.404 94.3471,127.07 99.5,129.5C 100.107,129.376 100.44,129.043 100.5,128.5C 101.625,129.348 101.625,130.348 100.5,131.5C 86.9818,122.742 72.3151,116.742 56.5,113.5C 57.5,112.833 58.5,112.167 59.5,111.5 Z"/></g>
<g><path style="opacity:1" fill="#d2d2d2" d="M 68.5,119.5 C 73.9312,123.083 79.2645,126.916 84.5,131C 85.7383,131.69 85.7383,132.19 84.5,132.5C 82.4068,131.955 80.4068,131.122 78.5,130C 74.9761,126.975 71.3094,124.142 67.5,121.5C 67.1667,121.833 66.8333,122.167 66.5,122.5C 69.35,124.427 72.0167,126.594 74.5,129C 74.1667,129.167 73.8333,129.333 73.5,129.5C 68.4326,125.771 63.0993,122.438 57.5,119.5C 56.2258,118.641 56.3925,117.974 58,117.5C 61.3023,119.139 64.8023,119.806 68.5,119.5 Z"/></g>
<g><path style="opacity:1" fill="#a9a9a9" d="M 59.5,123.5 C 61.4233,123.795 63.0899,124.628 64.5,126C 62.1713,126.396 60.5046,125.562 59.5,123.5 Z"/></g>
<g><path style="opacity:1" fill="#c6c6c6" d="M 99.5,127.5 C 100.167,127.5 100.5,127.833 100.5,128.5C 100.44,129.043 100.107,129.376 99.5,129.5C 94.3471,127.07 94.3471,126.404 99.5,127.5 Z"/></g>
<g><path style="opacity:1" fill="#e1e1e1" d="M 56.5,113.5 C 72.3151,116.742 86.9818,122.742 100.5,131.5C 102.512,132.228 104.512,133.062 106.5,134C 110.45,138.072 114.283,142.238 118,146.5C 118.483,147.448 118.649,148.448 118.5,149.5C 118.565,149.938 118.399,150.272 118,150.5C 112.711,144.422 106.878,138.922 100.5,134C 94.9107,131.401 89.5773,128.401 84.5,125C 82.5,124.667 80.5,124.333 78.5,124C 75.2729,121.888 71.9396,120.055 68.5,118.5C 64.8995,117.956 61.3995,116.956 58,115.5C 56.9701,115.164 56.4701,114.497 56.5,113.5 Z"/></g>
<g><path style="opacity:1" fill="#d4d4d4" d="M 93.5,138.5 C 98.5866,139.903 102.587,142.903 105.5,147.5C 104.998,148.521 104.332,148.688 103.5,148C 99.5921,145.254 96.2588,142.088 93.5,138.5 Z"/></g>
<g><path style="opacity:1" fill="#212121" d="M 68.5,118.5 C 71.9396,120.055 75.2729,121.888 78.5,124C 80.5,124.333 82.5,124.667 84.5,125C 89.5773,128.401 94.9107,131.401 100.5,134C 106.878,138.922 112.711,144.422 118,150.5C 118.399,150.272 118.565,149.938 118.5,149.5C 119.404,150.209 119.737,151.209 119.5,152.5C 118.127,152.657 116.793,152.49 115.5,152C 106.17,139.362 94.1705,130.696 79.5,126C 82.921,127.699 85.921,129.865 88.5,132.5C 87.0387,133.686 85.7054,133.686 84.5,132.5C 85.7383,132.19 85.7383,131.69 84.5,131C 79.2645,126.916 73.9312,123.083 68.5,119.5C 68.5,119.167 68.5,118.833 68.5,118.5 Z"/></g>
<g><path style="opacity:1" fill="#f4f4f4" d="M 119.5,152.5 C 119.982,153.416 120.315,154.416 120.5,155.5C 119.804,165.63 118.471,175.63 116.5,185.5C 115.539,187.265 115.205,189.265 115.5,191.5C 88.8333,191.5 62.1667,191.5 35.5,191.5C 35.5,191.167 35.5,190.833 35.5,190.5C 43.8352,189.917 52.1686,189.25 60.5,188.5C 69.487,189.219 78.487,189.552 87.5,189.5C 85.2244,180.477 83.5578,171.31 82.5,162C 83.2041,157.757 84.8708,153.924 87.5,150.5C 92.6981,154.197 98.0314,157.697 103.5,161C 101.443,162.719 99.7763,164.719 98.5,167C 100.51,169.167 101.844,171.667 102.5,174.5C 101.283,179.477 100.283,184.477 99.5,189.5C 103.439,189.959 107.273,189.959 111,189.5C 111.458,186.442 111.124,183.442 110,180.5C 108.357,178.023 106.524,175.69 104.5,173.5C 106.372,171.465 108.039,169.298 109.5,167C 108.59,163.845 106.924,161.178 104.5,159C 98.5737,156.065 93.5737,152.065 89.5,147C 89.8499,145.743 90.5165,145.409 91.5,146C 96.7483,150.536 102.248,154.703 108,158.5C 109.257,158.15 109.591,157.483 109,156.5C 103.587,152.543 98.0873,148.71 92.5,145C 91.0072,143.844 91.1739,143.01 93,142.5C 99.1562,146.652 105.323,150.818 111.5,155C 112.635,155.749 113.635,155.583 114.5,154.5C 110.157,150.323 106.157,145.823 102.5,141C 97.9719,137.904 93.3053,135.071 88.5,132.5C 85.921,129.865 82.921,127.699 79.5,126C 94.1705,130.696 106.17,139.362 115.5,152C 116.793,152.49 118.127,152.657 119.5,152.5 Z"/></g>
<g><path style="opacity:1" fill="#909090" d="M 116.5,185.5 C 116.5,187.167 116.5,188.833 116.5,190.5C 119.713,190.19 122.713,190.523 125.5,191.5C 122.167,191.5 118.833,191.5 115.5,191.5C 115.205,189.265 115.539,187.265 116.5,185.5 Z"/></g>
</svg>
