<?xml version="1.0" encoding="UTF-8"?>
<!DOCTYPE svg PUBLIC "-//W3C//DTD SVG 1.1//EN" "http://www.w3.org/Graphics/SVG/1.1/DTD/svg11.dtd">
<svg xmlns="http://www.w3.org/2000/svg" version="1.1" width="1024px" height="1024px" style="shape-rendering:geometricPrecision; text-rendering:geometricPrecision; image-rendering:optimizeQuality; fill-rule:evenodd; clip-rule:evenodd" xmlns:xlink="http://www.w3.org/1999/xlink">
<g><path style="opacity:1" fill="#fefefe" d="M -0.5,-0.5 C 208.167,-0.5 416.833,-0.5 625.5,-0.5C 504.131,9.42148 406.965,62.7548 334,159.5C 291.879,218.691 268.712,284.691 264.5,357.5C 263.502,391.663 263.168,425.996 263.5,460.5C 335.335,460.833 407.002,460.499 478.5,459.5C 478.333,428.165 478.5,396.832 479,365.5C 489.489,292.018 529.989,243.851 600.5,221C 653.165,207.37 702.165,215.37 747.5,245C 784.338,274.5 804.505,313 808,360.5C 811.778,411.448 797.111,456.114 764,494.5C 732.701,525.557 694.868,542.057 650.5,544C 621.169,544.5 591.835,544.667 562.5,544.5C 562.5,616.167 562.5,687.833 562.5,759.5C 600.181,759.848 637.847,759.348 675.5,758C 800.071,744.336 896.571,685.503 965,581.5C 999.319,525.545 1018.82,464.879 1023.5,399.5C 1023.5,607.5 1023.5,815.5 1023.5,1023.5C 844.167,1023.5 664.833,1023.5 485.5,1023.5C 485.5,861.5 485.5,699.5 485.5,537.5C 323.5,537.5 161.5,537.5 -0.5,537.5C -0.5,358.167 -0.5,178.833 -0.5,-0.5 Z"/></g>
<g><path style="opacity:1" fill="#59bec9" d="M 625.5,-0.5 C 640.167,-0.5 654.833,-0.5 669.5,-0.5C 753.814,3.8766 828.814,32.3766 894.5,85C 963.451,145.372 1004.95,221.206 1019,312.5C 1021.08,327.264 1022.58,341.931 1023.5,356.5C 1023.5,370.833 1023.5,385.167 1023.5,399.5C 1018.82,464.879 999.319,525.545 965,581.5C 896.571,685.503 800.071,744.336 675.5,758C 637.847,759.348 600.181,759.848 562.5,759.5C 562.5,687.833 562.5,616.167 562.5,544.5C 591.835,544.667 621.169,544.5 650.5,544C 694.868,542.057 732.701,525.557 764,494.5C 797.111,456.114 811.778,411.448 808,360.5C 804.505,313 784.338,274.5 747.5,245C 702.165,215.37 653.165,207.37 600.5,221C 529.989,243.851 489.489,292.018 479,365.5C 478.5,396.832 478.333,428.165 478.5,459.5C 407.167,459.5 335.833,459.5 264.5,459.5C 264.5,425.5 264.5,391.5 264.5,357.5C 268.712,284.691 291.879,218.691 334,159.5C 406.965,62.7548 504.131,9.42148 625.5,-0.5 Z"/></g>
<g><path style="opacity:1" fill="#fefefe" d="M 669.5,-0.5 C 787.5,-0.5 905.5,-0.5 1023.5,-0.5C 1023.5,118.5 1023.5,237.5 1023.5,356.5C 1022.58,341.931 1021.08,327.264 1019,312.5C 1004.95,221.206 963.451,145.372 894.5,85C 828.814,32.3766 753.814,3.8766 669.5,-0.5 Z"/></g>
<g><path style="opacity:1" fill="#79cad3" d="M 264.5,357.5 C 264.5,391.5 264.5,425.5 264.5,459.5C 335.833,459.5 407.167,459.5 478.5,459.5C 407.002,460.499 335.335,460.833 263.5,460.5C 263.168,425.996 263.502,391.663 264.5,357.5 Z"/></g>
<g><path style="opacity:1" fill="#59bec9" d="M -0.5,537.5 C 161.5,537.5 323.5,537.5 485.5,537.5C 485.5,699.5 485.5,861.5 485.5,1023.5C 424.167,1023.5 362.833,1023.5 301.5,1023.5C 277.181,1017.01 262.681,1001.35 258,976.5C 257.5,906.167 257.333,835.834 257.5,765.5C 186.166,765.667 114.833,765.5 43.5,765C 18.5261,758.532 3.85942,742.699 -0.5,717.5C -0.5,657.5 -0.5,597.5 -0.5,537.5 Z"/></g>
<g><path style="opacity:1" fill="#fefefe" d="M -0.5,717.5 C 3.85942,742.699 18.5261,758.532 43.5,765C 114.833,765.5 186.166,765.667 257.5,765.5C 257.333,835.834 257.5,906.167 258,976.5C 262.681,1001.35 277.181,1017.01 301.5,1023.5C 200.833,1023.5 100.167,1023.5 -0.5,1023.5C -0.5,921.5 -0.5,819.5 -0.5,717.5 Z"/></g>
</svg>
