<?xml version="1.0" encoding="UTF-8"?>
<!DOCTYPE svg PUBLIC "-//W3C//DTD SVG 1.1//EN" "http://www.w3.org/Graphics/SVG/1.1/DTD/svg11.dtd">
<svg xmlns="http://www.w3.org/2000/svg" version="1.1" width="300px" height="300px" style="shape-rendering:geometricPrecision; text-rendering:geometricPrecision; image-rendering:optimizeQuality; fill-rule:evenodd; clip-rule:evenodd" xmlns:xlink="http://www.w3.org/1999/xlink">
<g><path style="opacity:0.999" fill="#dd4814" d="M 130.5,-0.5 C 143.167,-0.5 155.833,-0.5 168.5,-0.5C 242.284,13.6171 285.95,57.6171 299.5,131.5C 299.5,143.167 299.5,154.833 299.5,166.5C 288.945,230.384 252.945,272.884 191.5,294C 182.807,296.387 174.14,298.22 165.5,299.5C 154.833,299.5 144.167,299.5 133.5,299.5C 81.35,291.846 42.1833,265.179 16,219.5C 7.54549,202.975 2.04549,185.642 -0.5,167.5C -0.5,155.5 -0.5,143.5 -0.5,131.5C 13.0476,57.6191 56.7143,13.6191 130.5,-0.5 Z"/></g>
<g><path style="opacity:1" fill="#fefcfb" d="M 193.5,41.5 C 206.256,38.9591 215.089,43.6258 220,55.5C 221.926,68.8169 216.426,77.3169 203.5,81C 189.585,81.5399 181.919,74.8733 180.5,61C 181.031,51.9687 185.364,45.4687 193.5,41.5 Z"/></g>
<g><path style="opacity:1" fill="#fefcfb" d="M 235.5,136.5 C 235.5,138.833 235.5,141.167 235.5,143.5C 226.167,143.5 216.833,143.5 207.5,143.5C 203.209,116.039 187.542,98.8722 160.5,92C 153.167,91.3333 145.833,91.3333 138.5,92C 133.858,92.74 129.524,94.24 125.5,96.5C 120.194,88.7244 115.527,80.5577 111.5,72C 122.562,65.0249 134.729,61.8583 148,62.5C 155.934,62.3954 163.767,63.2287 171.5,65C 177.815,84.4998 191.148,92.1664 211.5,88C 224.694,101.554 232.694,117.721 235.5,136.5 Z"/></g>
<g><path style="opacity:1" fill="#fefcfb" d="M 99.5,77.5 C 101.017,77.5106 102.184,78.1772 103,79.5C 107.3,86.6009 111.466,93.7675 115.5,101C 88.5277,124.64 84.0277,152.14 102,183.5C 106.009,188.675 110.509,193.342 115.5,197.5C 110.987,205.873 105.987,213.873 100.5,221.5C 83.0547,209.118 71.3881,192.618 65.5,172C 78.7347,156.913 78.7347,141.913 65.5,127C 71.1853,106.505 82.5186,90.0046 99.5,77.5 Z"/></g>
<g><path style="opacity:1" fill="#fefbfa" d="M 41.5,129.5 C 60.0105,128.509 68.5105,137.176 67,155.5C 60.6447,168.175 50.8113,172.008 37.5,167C 27.0756,159.046 24.9089,149.213 31,137.5C 33.9753,133.952 37.4753,131.286 41.5,129.5 Z"/></g>
<g><path style="opacity:1" fill="#ed9b7f" d="M 235.5,136.5 C 236.473,138.948 236.806,141.615 236.5,144.5C 226.652,144.827 216.986,144.494 207.5,143.5C 216.833,143.5 226.167,143.5 235.5,143.5C 235.5,141.167 235.5,138.833 235.5,136.5 Z"/></g>
<g><path style="opacity:1" fill="#fefcfb" d="M 207.5,154.5 C 217.167,154.5 226.833,154.5 236.5,154.5C 234.656,176.849 225.823,195.849 210,211.5C 190.712,206.783 178.212,213.949 172.5,233C 151.591,238.923 131.424,237.09 112,227.5C 111.333,226.5 111.333,225.5 112,224.5C 116.263,216.964 120.763,209.63 125.5,202.5C 148.37,211.674 169.37,208.507 188.5,193C 199.495,182.51 205.828,169.676 207.5,154.5 Z"/></g>
<g><path style="opacity:1" fill="#fefcfb" d="M 194.5,217.5 C 215.561,217.324 223.395,227.324 218,247.5C 210.064,257.941 200.231,260.108 188.5,254C 179.771,245.66 178.271,236.16 184,225.5C 186.94,221.963 190.44,219.297 194.5,217.5 Z"/></g>
</svg>
