<?xml version="1.0" encoding="UTF-8"?>
<!DOCTYPE svg PUBLIC "-//W3C//DTD SVG 1.1//EN" "http://www.w3.org/Graphics/SVG/1.1/DTD/svg11.dtd">
<svg xmlns="http://www.w3.org/2000/svg" version="1.1" width="385px" height="385px" style="shape-rendering:geometricPrecision; text-rendering:geometricPrecision; image-rendering:optimizeQuality; fill-rule:evenodd; clip-rule:evenodd" xmlns:xlink="http://www.w3.org/1999/xlink">
<g><path style="opacity:1" fill="#0b0b0b" d="M 65.5,-0.5 C 149.833,-0.5 234.167,-0.5 318.5,-0.5C 338.993,0.74675 355.659,9.41342 368.5,25.5C 368.738,27.4044 369.738,28.7377 371.5,29.5C 378.61,39.0511 382.943,49.7177 384.5,61.5C 384.5,130.5 384.5,199.5 384.5,268.5C 380.644,293.67 367.311,312.17 344.5,324C 339.067,326.442 333.4,328.108 327.5,329C 302.854,330.204 278.187,330.871 253.5,331C 197.962,335.675 147.295,353.509 101.5,384.5C 97.8333,384.5 94.1667,384.5 90.5,384.5C 86.2857,381.953 83.619,378.287 82.5,373.5C 82.5,358.833 82.5,344.167 82.5,329.5C 77.8333,329.5 73.1667,329.5 68.5,329.5C 55.2458,330.19 43.2458,326.857 32.5,319.5C 32.0269,318.094 31.0269,317.427 29.5,317.5C 28.7377,315.738 27.4044,314.738 25.5,314.5C 10.579,302.654 1.91237,287.32 -0.5,268.5C -0.5,199.5 -0.5,130.5 -0.5,61.5C 2.59928,40.9727 12.5993,24.6394 29.5,12.5C 31.0269,12.573 32.0269,11.9063 32.5,10.5C 42.5286,3.90975 53.5286,0.243084 65.5,-0.5 Z"/></g>
<g><path style="opacity:1" fill="#767676" d="M 368.5,25.5 C 370.262,26.2623 371.262,27.5956 371.5,29.5C 369.738,28.7377 368.738,27.4044 368.5,25.5 Z"/></g>
<g><path style="opacity:1" fill="#ca5015" d="M 323.5,28.5 C 325.515,29.9238 327.848,30.5905 330.5,30.5C 348.513,39.512 357.013,54.1786 356,74.5C 301.484,108.424 246.818,142.091 192,175.5C 138.522,142.412 84.6884,109.579 30.5,77C 28.4062,75.745 27.4062,73.9116 27.5,71.5C 28.2805,49.2371 39.2805,35.0704 60.5,29C 148.166,28.5 235.833,28.3333 323.5,28.5 Z"/></g>
<g><path style="opacity:1" fill="#666666" d="M 323.5,28.5 C 326.152,28.4095 328.485,29.0762 330.5,30.5C 327.848,30.5905 325.515,29.9238 323.5,28.5 Z"/></g>
<g><path style="opacity:1" fill="#ca5015" d="M 34.5,111.5 C 34.9731,112.906 35.9731,113.573 37.5,113.5C 40.4937,116 43.827,118 47.5,119.5C 47.9731,120.906 48.9731,121.573 50.5,121.5C 53.4937,124 56.827,126 60.5,127.5C 60.9731,128.906 61.9731,129.573 63.5,129.5C 64.8993,130.89 66.5659,131.89 68.5,132.5C 68.9731,133.906 69.9731,134.573 71.5,134.5C 71.8417,135.338 72.5084,135.672 73.5,135.5C 73.9731,136.906 74.9731,137.573 76.5,137.5C 77.8993,138.89 79.5659,139.89 81.5,140.5C 81.9731,141.906 82.9731,142.573 84.5,142.5C 84.8417,143.338 85.5084,143.672 86.5,143.5C 86.9731,144.906 87.9731,145.573 89.5,145.5C 90.8993,146.89 92.5659,147.89 94.5,148.5C 94.9731,149.906 95.9731,150.573 97.5,150.5C 97.8417,151.338 98.5084,151.672 99.5,151.5C 99.9731,152.906 100.973,153.573 102.5,153.5C 103.899,154.89 105.566,155.89 107.5,156.5C 107.973,157.906 108.973,158.573 110.5,158.5C 110.842,159.338 111.508,159.672 112.5,159.5C 112.973,160.906 113.973,161.573 115.5,161.5C 116.899,162.89 118.566,163.89 120.5,164.5C 120.973,165.906 121.973,166.573 123.5,166.5C 123.842,167.338 124.508,167.672 125.5,167.5C 125.973,168.906 126.973,169.573 128.5,169.5C 129.899,170.89 131.566,171.89 133.5,172.5C 133.973,173.906 134.973,174.573 136.5,174.5C 136.842,175.338 137.508,175.672 138.5,175.5C 138.973,176.906 139.973,177.573 141.5,177.5C 142.899,178.89 144.566,179.89 146.5,180.5C 146.973,181.906 147.973,182.573 149.5,182.5C 149.842,183.338 150.508,183.672 151.5,183.5C 151.973,184.906 152.973,185.573 154.5,185.5C 155.899,186.89 157.566,187.89 159.5,188.5C 159.973,189.906 160.973,190.573 162.5,190.5C 162.842,191.338 163.508,191.672 164.5,191.5C 164.973,192.906 165.973,193.573 167.5,193.5C 168.899,194.89 170.566,195.89 172.5,196.5C 172.973,197.906 173.973,198.573 175.5,198.5C 181.268,204.381 188.268,206.881 196.5,206C 249.378,173.415 302.378,140.915 355.5,108.5C 355.833,134 356.167,159.5 356.5,185C 356.627,213.524 356.127,242.024 355,270.5C 351.014,283.868 342.847,293.535 330.5,299.5C 327.848,299.41 325.515,300.076 323.5,301.5C 298.151,301.255 272.818,301.755 247.5,303C 229.417,304.586 211.75,307.753 194.5,312.5C 191.848,312.41 189.515,313.076 187.5,314.5C 179.255,316.026 171.255,318.36 163.5,321.5C 160.603,322.129 157.936,323.129 155.5,324.5C 139.977,330.011 125.144,337.011 111,345.5C 110.667,334.833 110.333,324.167 110,313.5C 108.167,307.667 104.333,303.833 98.5,302C 85.8333,301.667 73.1667,301.333 60.5,301C 43.8045,297.306 33.3045,287.139 29,270.5C 28.6667,267.5 28.3333,264.5 28,261.5C 27.1667,210.497 27.3334,159.497 28.5,108.5C 30.5336,109.559 32.5336,110.559 34.5,111.5 Z"/></g>
</svg>
