<?xml version="1.0" encoding="UTF-8"?>
<!DOCTYPE svg PUBLIC "-//W3C//DTD SVG 1.1//EN" "http://www.w3.org/Graphics/SVG/1.1/DTD/svg11.dtd">
<svg xmlns="http://www.w3.org/2000/svg" version="1.1" width="385px" height="385px" style="shape-rendering:geometricPrecision; text-rendering:geometricPrecision; image-rendering:optimizeQuality; fill-rule:evenodd; clip-rule:evenodd" xmlns:xlink="http://www.w3.org/1999/xlink">
<g><path style="opacity:1" fill="#0c0c0c" d="M 65.5,-0.5 C 149.833,-0.5 234.167,-0.5 318.5,-0.5C 348.818,2.2914 369.651,17.9581 381,46.5C 382.36,51.5962 383.526,56.5962 384.5,61.5C 384.5,130.5 384.5,199.5 384.5,268.5C 380.644,293.67 367.311,312.17 344.5,324C 339.067,326.442 333.4,328.108 327.5,329C 302.854,330.204 278.187,330.871 253.5,331C 197.962,335.675 147.295,353.509 101.5,384.5C 97.8333,384.5 94.1667,384.5 90.5,384.5C 86.2857,381.953 83.619,378.287 82.5,373.5C 82.5,358.833 82.5,344.167 82.5,329.5C 77.8333,329.5 73.1667,329.5 68.5,329.5C 55.2458,330.19 43.2458,326.857 32.5,319.5C 32.0269,318.094 31.0269,317.427 29.5,317.5C 28.7377,315.738 27.4044,314.738 25.5,314.5C 10.579,302.654 1.91237,287.32 -0.5,268.5C -0.5,199.5 -0.5,130.5 -0.5,61.5C 2.59928,40.9727 12.5993,24.6394 29.5,12.5C 31.0269,12.573 32.0269,11.9063 32.5,10.5C 42.5286,3.90975 53.5286,0.243084 65.5,-0.5 Z M 323.5,28.5 C 325.515,29.9238 327.848,30.5905 330.5,30.5C 348.526,39.5424 357.026,54.2091 356,74.5C 301.484,108.424 246.818,142.091 192,175.5C 137.933,142.214 83.7665,109.048 29.5,76C 28.0564,74.874 27.3898,73.374 27.5,71.5C 28.2236,49.284 39.2236,35.1174 60.5,29C 148.166,28.5 235.833,28.3333 323.5,28.5 Z M 34.5,111.5 C 34.9731,112.906 35.9731,113.573 37.5,113.5C 40.4937,116 43.827,118 47.5,119.5C 47.9731,120.906 48.9731,121.573 50.5,121.5C 53.4937,124 56.827,126 60.5,127.5C 60.9731,128.906 61.9731,129.573 63.5,129.5C 64.8993,130.89 66.5659,131.89 68.5,132.5C 68.9731,133.906 69.9731,134.573 71.5,134.5C 71.8417,135.338 72.5084,135.672 73.5,135.5C 73.9731,136.906 74.9731,137.573 76.5,137.5C 77.8993,138.89 79.5659,139.89 81.5,140.5C 81.9731,141.906 82.9731,142.573 84.5,142.5C 84.8417,143.338 85.5084,143.672 86.5,143.5C 86.9731,144.906 87.9731,145.573 89.5,145.5C 90.8993,146.89 92.5659,147.89 94.5,148.5C 94.9731,149.906 95.9731,150.573 97.5,150.5C 97.8417,151.338 98.5084,151.672 99.5,151.5C 99.9731,152.906 100.973,153.573 102.5,153.5C 103.899,154.89 105.566,155.89 107.5,156.5C 107.973,157.906 108.973,158.573 110.5,158.5C 110.842,159.338 111.508,159.672 112.5,159.5C 112.973,160.906 113.973,161.573 115.5,161.5C 116.899,162.89 118.566,163.89 120.5,164.5C 120.973,165.906 121.973,166.573 123.5,166.5C 123.842,167.338 124.508,167.672 125.5,167.5C 125.973,168.906 126.973,169.573 128.5,169.5C 129.899,170.89 131.566,171.89 133.5,172.5C 133.973,173.906 134.973,174.573 136.5,174.5C 136.842,175.338 137.508,175.672 138.5,175.5C 138.973,176.906 139.973,177.573 141.5,177.5C 142.899,178.89 144.566,179.89 146.5,180.5C 146.973,181.906 147.973,182.573 149.5,182.5C 149.842,183.338 150.508,183.672 151.5,183.5C 151.973,184.906 152.973,185.573 154.5,185.5C 155.899,186.89 157.566,187.89 159.5,188.5C 159.973,189.906 160.973,190.573 162.5,190.5C 162.842,191.338 163.508,191.672 164.5,191.5C 164.973,192.906 165.973,193.573 167.5,193.5C 168.899,194.89 170.566,195.89 172.5,196.5C 172.973,197.906 173.973,198.573 175.5,198.5C 181.268,204.381 188.268,206.881 196.5,206C 249.632,173.698 302.632,141.198 355.5,108.5C 355.833,134 356.167,159.5 356.5,185C 356.627,213.524 356.127,242.024 355,270.5C 350.946,283.715 342.779,293.381 330.5,299.5C 327.848,299.41 325.515,300.076 323.5,301.5C 298.151,301.255 272.818,301.755 247.5,303C 229.417,304.586 211.75,307.753 194.5,312.5C 191.848,312.41 189.515,313.076 187.5,314.5C 179.255,316.026 171.255,318.36 163.5,321.5C 160.603,322.129 157.936,323.129 155.5,324.5C 139.977,330.011 125.144,337.011 111,345.5C 110.667,334.833 110.333,324.167 110,313.5C 108.167,307.667 104.333,303.833 98.5,302C 85.8333,301.667 73.1667,301.333 60.5,301C 40.5198,295.354 29.6864,282.187 28,261.5C 27.1667,210.497 27.3334,159.497 28.5,108.5C 30.5336,109.559 32.5336,110.559 34.5,111.5 Z"/></g>
<g><path style="opacity:1" fill="#7a7a7a" d="M 32.5,10.5 C 32.0269,11.9063 31.0269,12.573 29.5,12.5C 29.9731,11.0937 30.9731,10.427 32.5,10.5 Z"/></g>
<g><path style="opacity:1" fill="#666666" d="M 323.5,28.5 C 326.152,28.4095 328.485,29.0762 330.5,30.5C 327.848,30.5905 325.515,29.9238 323.5,28.5 Z"/></g>
<g><path style="opacity:1" fill="#858585" d="M 34.5,111.5 C 36.0269,111.427 37.0269,112.094 37.5,113.5C 35.9731,113.573 34.9731,112.906 34.5,111.5 Z"/></g>
<g><path style="opacity:1" fill="#848484" d="M 47.5,119.5 C 49.0269,119.427 50.0269,120.094 50.5,121.5C 48.9731,121.573 47.9731,120.906 47.5,119.5 Z"/></g>
<g><path style="opacity:1" fill="#838383" d="M 60.5,127.5 C 62.0269,127.427 63.0269,128.094 63.5,129.5C 61.9731,129.573 60.9731,128.906 60.5,127.5 Z"/></g>
<g><path style="opacity:1" fill="#929292" d="M 68.5,132.5 C 70.0269,132.427 71.0269,133.094 71.5,134.5C 69.9731,134.573 68.9731,133.906 68.5,132.5 Z"/></g>
<g><path style="opacity:1" fill="#828282" d="M 73.5,135.5 C 75.0269,135.427 76.0269,136.094 76.5,137.5C 74.9731,137.573 73.9731,136.906 73.5,135.5 Z"/></g>
<g><path style="opacity:1" fill="#929292" d="M 81.5,140.5 C 83.0269,140.427 84.0269,141.094 84.5,142.5C 82.9731,142.573 81.9731,141.906 81.5,140.5 Z"/></g>
<g><path style="opacity:1" fill="#818181" d="M 86.5,143.5 C 88.0269,143.427 89.0269,144.094 89.5,145.5C 87.9731,145.573 86.9731,144.906 86.5,143.5 Z"/></g>
<g><path style="opacity:1" fill="#919191" d="M 94.5,148.5 C 96.0269,148.427 97.0269,149.094 97.5,150.5C 95.9731,150.573 94.9731,149.906 94.5,148.5 Z"/></g>
<g><path style="opacity:1" fill="#818181" d="M 99.5,151.5 C 101.027,151.427 102.027,152.094 102.5,153.5C 100.973,153.573 99.9731,152.906 99.5,151.5 Z"/></g>
<g><path style="opacity:1" fill="#909090" d="M 107.5,156.5 C 109.027,156.427 110.027,157.094 110.5,158.5C 108.973,158.573 107.973,157.906 107.5,156.5 Z"/></g>
<g><path style="opacity:1" fill="#808080" d="M 112.5,159.5 C 114.027,159.427 115.027,160.094 115.5,161.5C 113.973,161.573 112.973,160.906 112.5,159.5 Z"/></g>
<g><path style="opacity:1" fill="#8f8f8f" d="M 120.5,164.5 C 122.027,164.427 123.027,165.094 123.5,166.5C 121.973,166.573 120.973,165.906 120.5,164.5 Z"/></g>
<g><path style="opacity:1" fill="#7f7f7f" d="M 125.5,167.5 C 127.027,167.427 128.027,168.094 128.5,169.5C 126.973,169.573 125.973,168.906 125.5,167.5 Z"/></g>
<g><path style="opacity:1" fill="#8e8e8e" d="M 133.5,172.5 C 135.027,172.427 136.027,173.094 136.5,174.5C 134.973,174.573 133.973,173.906 133.5,172.5 Z"/></g>
<g><path style="opacity:1" fill="#7e7e7e" d="M 138.5,175.5 C 140.027,175.427 141.027,176.094 141.5,177.5C 139.973,177.573 138.973,176.906 138.5,175.5 Z"/></g>
<g><path style="opacity:1" fill="#8d8d8d" d="M 146.5,180.5 C 148.027,180.427 149.027,181.094 149.5,182.5C 147.973,182.573 146.973,181.906 146.5,180.5 Z"/></g>
<g><path style="opacity:1" fill="#7d7d7d" d="M 151.5,183.5 C 153.027,183.427 154.027,184.094 154.5,185.5C 152.973,185.573 151.973,184.906 151.5,183.5 Z"/></g>
<g><path style="opacity:1" fill="#8c8c8c" d="M 159.5,188.5 C 161.027,188.427 162.027,189.094 162.5,190.5C 160.973,190.573 159.973,189.906 159.5,188.5 Z"/></g>
<g><path style="opacity:1" fill="#7c7c7c" d="M 164.5,191.5 C 166.027,191.427 167.027,192.094 167.5,193.5C 165.973,193.573 164.973,192.906 164.5,191.5 Z"/></g>
<g><path style="opacity:1" fill="#8b8b8b" d="M 172.5,196.5 C 174.027,196.427 175.027,197.094 175.5,198.5C 173.973,198.573 172.973,197.906 172.5,196.5 Z"/></g>
<g><path style="opacity:1" fill="#565656" d="M 330.5,299.5 C 328.485,300.924 326.152,301.59 323.5,301.5C 325.515,300.076 327.848,299.41 330.5,299.5 Z"/></g>
<g><path style="opacity:1" fill="#5d5d5d" d="M 194.5,312.5 C 192.485,313.924 190.152,314.59 187.5,314.5C 189.515,313.076 191.848,312.41 194.5,312.5 Z"/></g>
<g><path style="opacity:1" fill="#878787" d="M 25.5,314.5 C 27.4044,314.738 28.7377,315.738 29.5,317.5C 27.5956,317.262 26.2623,316.262 25.5,314.5 Z"/></g>
<g><path style="opacity:1" fill="#919191" d="M 29.5,317.5 C 31.0269,317.427 32.0269,318.094 32.5,319.5C 30.9731,319.573 29.9731,318.906 29.5,317.5 Z"/></g>
<g><path style="opacity:1" fill="#636363" d="M 163.5,321.5 C 161.383,323.655 158.716,324.655 155.5,324.5C 157.936,323.129 160.603,322.129 163.5,321.5 Z"/></g>
<g><path style="opacity:1" fill="#cccccc" d="M 68.5,329.5 C 73.1667,329.5 77.8333,329.5 82.5,329.5C 82.5,344.167 82.5,358.833 82.5,373.5C 81.5041,359.343 81.1707,345.01 81.5,330.5C 76.9677,330.818 72.6344,330.485 68.5,329.5 Z"/></g>
</svg>
