<?xml version="1.0" encoding="UTF-8"?>
<!DOCTYPE svg PUBLIC "-//W3C//DTD SVG 1.1//EN" "http://www.w3.org/Graphics/SVG/1.1/DTD/svg11.dtd">
<svg xmlns="http://www.w3.org/2000/svg" version="1.1" width="300px" height="300px" style="shape-rendering:geometricPrecision; text-rendering:geometricPrecision; image-rendering:optimizeQuality; fill-rule:evenodd; clip-rule:evenodd" xmlns:xlink="http://www.w3.org/1999/xlink">
<g><path style="opacity:0.998" fill="#1588fe" d="M 57.5,-0.5 C 118.833,-0.5 180.167,-0.5 241.5,-0.5C 247.421,0.731718 253.087,2.73172 258.5,5.5C 257.448,5.35055 256.448,5.51722 255.5,6C 257.5,7 259.5,8 261.5,9C 186.833,9.66667 112.167,9.66667 37.5,9C 39.5,8 41.5,7 43.5,6C 42.552,5.51722 41.552,5.35055 40.5,5.5C 45.9127,2.73172 51.5794,0.731718 57.5,-0.5 Z"/></g>
<g><path style="opacity:0.999" fill="#148cfe" d="M 40.5,5.5 C 41.552,5.35055 42.552,5.51722 43.5,6C 41.5,7 39.5,8 37.5,9C 112.167,9.66667 186.833,9.66667 261.5,9C 259.5,8 257.5,7 255.5,6C 256.448,5.51722 257.448,5.35055 258.5,5.5C 263.343,7.41764 267.677,10.0843 271.5,13.5C 270.761,13.369 270.094,13.5357 269.5,14C 276.731,19.3967 282.731,25.8967 287.5,33.5C 195.5,34.8333 103.5,34.8333 11.5,33.5C 12.8333,31.5 14.1667,29.5 15.5,27.5C 15.3764,26.8933 15.0431,26.56 14.5,26.5C 21.2176,17.1343 29.8843,10.1343 40.5,5.5 Z"/></g>
<g><path style="opacity:1" fill="#1392fe" d="M 271.5,13.5 C 284.947,23.2861 293.614,36.2861 297.5,52.5C 296.778,52.0825 296.278,51.4158 296,50.5C 295.982,52.7972 296.149,55.1305 296.5,57.5C 198.5,57.5 100.5,57.5 2.5,57.5C 2.51109,55.4534 2.84442,53.4534 3.5,51.5C 3.25284,50.2867 2.58617,49.62 1.5,49.5C 4.04891,40.7259 8.38224,33.0593 14.5,26.5C 15.0431,26.56 15.3764,26.8933 15.5,27.5C 14.1667,29.5 12.8333,31.5 11.5,33.5C 103.5,34.8333 195.5,34.8333 287.5,33.5C 282.731,25.8967 276.731,19.3967 269.5,14C 270.094,13.5357 270.761,13.369 271.5,13.5 Z"/></g>
<g><path style="opacity:1" fill="#1397fe" d="M 1.5,49.5 C 2.58617,49.62 3.25284,50.2867 3.5,51.5C 2.84442,53.4534 2.51109,55.4534 2.5,57.5C 100.5,57.5 198.5,57.5 296.5,57.5C 296.149,55.1305 295.982,52.7972 296,50.5C 296.278,51.4158 296.778,52.0825 297.5,52.5C 298.167,54.1667 298.833,55.8333 299.5,57.5C 299.5,63.1667 299.5,68.8333 299.5,74.5C 199.5,74.5 99.5,74.5 -0.5,74.5C -0.5,68.8333 -0.5,63.1667 -0.5,57.5C 0.531006,55.0392 1.19767,52.3725 1.5,49.5 Z"/></g>
<g><path style="opacity:1" fill="#129aff" d="M -0.5,74.5 C 99.5,74.5 199.5,74.5 299.5,74.5C 299.5,78.8333 299.5,83.1667 299.5,87.5C 199.5,87.5 99.5,87.5 -0.5,87.5C -0.5,83.1667 -0.5,78.8333 -0.5,74.5 Z"/></g>
<g><path style="opacity:1" fill="#139ffe" d="M -0.5,87.5 C 99.5,87.5 199.5,87.5 299.5,87.5C 299.5,95.1667 299.5,102.833 299.5,110.5C 255.499,110.333 211.499,110.5 167.5,111C 168.672,111.419 169.672,112.085 170.5,113C 170.272,113.399 169.938,113.565 169.5,113.5C 158.547,107.376 146.881,105.376 134.5,107.5C 121.101,91.9534 104.768,88.12 85.5,96C 79.3358,99.6648 74.3358,104.498 70.5,110.5C 69.8333,111.167 69.1667,111.833 68.5,112.5C 45.7299,110.526 22.7299,109.86 -0.5,110.5C -0.5,102.833 -0.5,95.1667 -0.5,87.5 Z"/></g>
<g><path style="opacity:1" fill="#fdd41e" d="M 134.5,107.5 C 134.5,107.833 134.5,108.167 134.5,108.5C 127.938,110.448 121.938,113.448 116.5,117.5C 100.574,116.682 84.574,116.182 68.5,116C 69.5,114.333 70.5,112.667 71.5,111C 71.2716,110.601 70.9382,110.435 70.5,110.5C 74.3358,104.498 79.3358,99.6648 85.5,96C 104.768,88.12 121.101,91.9534 134.5,107.5 Z"/></g>
<g><path style="opacity:1" fill="#11a5fe" d="M -0.5,110.5 C 22.7299,109.86 45.7299,110.526 68.5,112.5C 66.1556,116.868 64.8222,121.535 64.5,126.5C 63.6787,129.641 63.1787,132.975 63,136.5C 41.9089,135.506 20.7422,135.173 -0.5,135.5C -0.5,127.167 -0.5,118.833 -0.5,110.5 Z"/></g>
<g><path style="opacity:1" fill="#12a5ff" d="M 299.5,110.5 C 299.5,118.833 299.5,127.167 299.5,135.5C 273.165,135.333 246.831,135.5 220.5,136C 222.833,138.333 225.167,140.667 227.5,143C 227.272,143.399 226.938,143.565 226.5,143.5C 223.455,140.453 220.122,137.787 216.5,135.5C 207.142,129.685 196.976,128.018 186,130.5C 181.662,123.663 176.162,117.996 169.5,113.5C 169.938,113.565 170.272,113.399 170.5,113C 169.672,112.085 168.672,111.419 167.5,111C 211.499,110.5 255.499,110.333 299.5,110.5 Z"/></g>
<g><path style="opacity:1" fill="#fedf2c" d="M 70.5,110.5 C 70.9382,110.435 71.2716,110.601 71.5,111C 70.5,112.667 69.5,114.333 68.5,116C 84.574,116.182 100.574,116.682 116.5,117.5C 110.384,123.399 106.051,130.399 103.5,138.5C 102.662,138.842 102.328,139.508 102.5,140.5C 101.596,139.791 101.263,138.791 101.5,137.5C 89.4143,138.133 77.581,137.466 66,135.5C 65.5172,136.448 65.3505,137.448 65.5,138.5C 64.5166,134.702 64.1832,130.702 64.5,126.5C 64.8222,121.535 66.1556,116.868 68.5,112.5C 69.1667,111.833 69.8333,111.167 70.5,110.5 Z"/></g>
<g><path style="opacity:1" fill="#c1e7fe" d="M 169.5,113.5 C 176.162,117.996 181.662,123.663 186,130.5C 196.976,128.018 207.142,129.685 216.5,135.5C 191.97,136.153 167.47,136.819 143,137.5C 142.825,132.981 142.325,128.647 141.5,124.5C 140.775,118.391 138.442,113.057 134.5,108.5C 134.5,108.167 134.5,107.833 134.5,107.5C 146.881,105.376 158.547,107.376 169.5,113.5 Z"/></g>
<g><path style="opacity:1" fill="#13abfe" d="M 64.5,126.5 C 64.1832,130.702 64.5166,134.702 65.5,138.5C 66.9823,147.8 71.3156,155.467 78.5,161.5C 77.9222,162.547 77.2555,162.38 76.5,161C 50.8355,160.5 25.1688,160.333 -0.5,160.5C -0.5,152.167 -0.5,143.833 -0.5,135.5C 20.7422,135.173 41.9089,135.506 63,136.5C 63.1787,132.975 63.6787,129.641 64.5,126.5 Z"/></g>
<g><path style="opacity:1" fill="#10abff" d="M 299.5,135.5 C 299.5,143.833 299.5,152.167 299.5,160.5C 278.164,160.333 256.831,160.5 235.5,161C 236.622,164.409 236.789,167.909 236,171.5C 235.817,168.635 235.317,165.969 234.5,163.5C 234.768,161.901 234.434,160.568 233.5,159.5C 232.597,154.361 230.597,149.694 227.5,145.5C 227.167,144.833 226.833,144.167 226.5,143.5C 226.938,143.565 227.272,143.399 227.5,143C 225.167,140.667 222.833,138.333 220.5,136C 246.831,135.5 273.165,135.333 299.5,135.5 Z"/></g>
<g><path style="opacity:1" fill="#fef7cb" d="M 134.5,108.5 C 138.442,113.057 140.775,118.391 141.5,124.5C 141.786,130.259 141.452,135.925 140.5,141.5C 128.709,141.448 116.709,141.448 104.5,141.5C 104.737,140.209 104.404,139.209 103.5,138.5C 106.051,130.399 110.384,123.399 116.5,117.5C 121.938,113.448 127.938,110.448 134.5,108.5 Z"/></g>
<g><path style="opacity:1" fill="#cfeefe" d="M 141.5,124.5 C 142.325,128.647 142.825,132.981 143,137.5C 167.47,136.819 191.97,136.153 216.5,135.5C 220.122,137.787 223.455,140.453 226.5,143.5C 226.833,144.167 227.167,144.833 227.5,145.5C 226.347,146.313 226.347,147.313 227.5,148.5C 197.669,149.83 168.003,149.83 138.5,148.5C 138.878,146.079 139.545,143.746 140.5,141.5C 141.452,135.925 141.786,130.259 141.5,124.5 Z"/></g>
<g><path style="opacity:1" fill="#feed3e" d="M 102.5,140.5 C 101.64,144.434 101.307,148.434 101.5,152.5C 97.8945,152.799 94.5612,153.965 91.5,156C 88.2656,158.417 85.2656,160.917 82.5,163.5C 81.1667,162.833 79.8333,162.167 78.5,161.5C 71.3156,155.467 66.9823,147.8 65.5,138.5C 65.3505,137.448 65.5172,136.448 66,135.5C 77.581,137.466 89.4143,138.133 101.5,137.5C 101.263,138.791 101.596,139.791 102.5,140.5 Z"/></g>
<g><path style="opacity:1" fill="#fefce2" d="M 103.5,138.5 C 104.404,139.209 104.737,140.209 104.5,141.5C 116.709,141.448 128.709,141.448 140.5,141.5C 139.545,143.746 138.878,146.079 138.5,148.5C 134.963,153.579 130.963,158.246 126.5,162.5C 112.686,170.568 98.3526,171.568 83.5,165.5C 83.1667,164.833 82.8333,164.167 82.5,163.5C 85.2656,160.917 88.2656,158.417 91.5,156C 94.5612,153.965 97.8945,152.799 101.5,152.5C 101.307,148.434 101.64,144.434 102.5,140.5C 102.328,139.508 102.662,138.842 103.5,138.5 Z"/></g>
<g><path style="opacity:1" fill="#dbf2fe" d="M 227.5,145.5 C 230.597,149.694 232.597,154.361 233.5,159.5C 232.596,160.209 232.263,161.209 232.5,162.5C 196.861,162.512 161.528,162.512 126.5,162.5C 130.963,158.246 134.963,153.579 138.5,148.5C 168.003,149.83 197.669,149.83 227.5,148.5C 226.347,147.313 226.347,146.313 227.5,145.5 Z"/></g>
<g><path style="opacity:1" fill="#10b2fe" d="M -0.5,160.5 C 25.1688,160.333 50.8355,160.5 76.5,161C 77.2555,162.38 77.9222,162.547 78.5,161.5C 79.8333,162.167 81.1667,162.833 82.5,163.5C 82.8333,164.167 83.1667,164.833 83.5,165.5C 80.8193,168.192 79.4859,171.525 79.5,175.5C 79.2941,179.898 79.6274,184.232 80.5,188.5C 80.631,189.239 80.4643,189.906 80,190.5C 53.3933,188.514 26.56,187.847 -0.5,188.5C -0.5,179.167 -0.5,169.833 -0.5,160.5 Z"/></g>
<g><path style="opacity:1" fill="#10b2ff" d="M 299.5,160.5 C 299.5,169.833 299.5,179.167 299.5,188.5C 276.142,189.156 253.142,188.49 230.5,186.5C 231.371,183.888 232.037,181.221 232.5,178.5C 234.238,173.783 234.904,168.783 234.5,163.5C 235.317,165.969 235.817,168.635 236,171.5C 236.789,167.909 236.622,164.409 235.5,161C 256.831,160.5 278.164,160.333 299.5,160.5 Z"/></g>
<g><path style="opacity:1" fill="#e9f7fe" d="M 233.5,159.5 C 234.434,160.568 234.768,161.901 234.5,163.5C 234.904,168.783 234.238,173.783 232.5,178.5C 181.833,178.5 131.167,178.5 80.5,178.5C 80.7373,177.209 80.404,176.209 79.5,175.5C 79.4859,171.525 80.8193,168.192 83.5,165.5C 98.3526,171.568 112.686,170.568 126.5,162.5C 161.528,162.512 196.861,162.512 232.5,162.5C 232.263,161.209 232.596,160.209 233.5,159.5 Z"/></g>
<g><path style="opacity:1" fill="#f3fbff" d="M 79.5,175.5 C 80.404,176.209 80.7373,177.209 80.5,178.5C 131.167,178.5 181.833,178.5 232.5,178.5C 232.037,181.221 231.371,183.888 230.5,186.5C 224.152,197.183 214.819,203.683 202.5,206C 168.5,206.667 134.5,206.667 100.5,206C 90.8244,203.485 84.1577,197.651 80.5,188.5C 79.6274,184.232 79.2941,179.898 79.5,175.5 Z"/></g>
<g><path style="opacity:1" fill="#16b9ff" d="M 230.5,186.5 C 253.142,188.49 276.142,189.156 299.5,188.5C 299.5,196.5 299.5,204.5 299.5,212.5C 199.5,212.5 99.5,212.5 -0.5,212.5C -0.5,204.5 -0.5,196.5 -0.5,188.5C 26.56,187.847 53.3933,188.514 80,190.5C 80.4643,189.906 80.631,189.239 80.5,188.5C 84.1577,197.651 90.8244,203.485 100.5,206C 134.5,206.667 168.5,206.667 202.5,206C 214.819,203.683 224.152,197.183 230.5,186.5 Z"/></g>
<g><path style="opacity:1" fill="#0dbeff" d="M -0.5,212.5 C 99.5,212.5 199.5,212.5 299.5,212.5C 299.5,219.167 299.5,225.833 299.5,232.5C 297.824,233.183 297.157,234.517 297.5,236.5C 198.833,236.5 100.167,236.5 1.5,236.5C 1.84316,234.517 1.17649,233.183 -0.5,232.5C -0.5,225.833 -0.5,219.167 -0.5,212.5 Z"/></g>
<g><path style="opacity:0.999" fill="#0cc4fe" d="M -0.5,232.5 C 1.17649,233.183 1.84316,234.517 1.5,236.5C 100.167,236.5 198.833,236.5 297.5,236.5C 297.157,234.517 297.824,233.183 299.5,232.5C 299.5,235.5 299.5,238.5 299.5,241.5C 298.162,248.18 295.828,254.513 292.5,260.5C 292.388,256.661 291.721,256.661 290.5,260.5C 196.5,261.833 102.5,261.833 8.5,260.5C 6.38952,255.945 4.55619,251.278 3,246.5C 2.50999,247.793 2.34332,249.127 2.5,250.5C 1.37448,247.535 0.37448,244.535 -0.5,241.5C -0.5,238.5 -0.5,235.5 -0.5,232.5 Z"/></g>
<g><path style="opacity:1" fill="#0bcafe" d="M 292.5,260.5 C 290.281,265.709 287.281,270.376 283.5,274.5C 283.631,273.761 283.464,273.094 283,272.5C 276.828,280.013 269.495,286.013 261,290.5C 186.667,289.167 112.333,289.167 38,290.5C 28.4688,285.305 20.4688,278.305 14,269.5C 13.5357,270.094 13.369,270.761 13.5,271.5C 8.01771,265.539 4.35104,258.539 2.5,250.5C 2.34332,249.127 2.50999,247.793 3,246.5C 4.55619,251.278 6.38952,255.945 8.5,260.5C 102.5,261.833 196.5,261.833 290.5,260.5C 291.721,256.661 292.388,256.661 292.5,260.5 Z"/></g>
<g><path style="opacity:0.997" fill="#0bd0fe" d="M 283.5,274.5 C 272.21,287.475 258.21,295.808 241.5,299.5C 180.167,299.5 118.833,299.5 57.5,299.5C 39.3065,295.735 24.6399,286.402 13.5,271.5C 13.369,270.761 13.5357,270.094 14,269.5C 20.4688,278.305 28.4688,285.305 38,290.5C 112.333,289.167 186.667,289.167 261,290.5C 269.495,286.013 276.828,280.013 283,272.5C 283.464,273.094 283.631,273.761 283.5,274.5 Z"/></g>
</svg>
