<?xml version="1.0" encoding="UTF-8"?>
<!DOCTYPE svg PUBLIC "-//W3C//DTD SVG 1.1//EN" "http://www.w3.org/Graphics/SVG/1.1/DTD/svg11.dtd">
<svg xmlns="http://www.w3.org/2000/svg" version="1.1" width="300px" height="208px" style="shape-rendering:geometricPrecision; text-rendering:geometricPrecision; image-rendering:optimizeQuality; fill-rule:evenodd; clip-rule:evenodd" xmlns:xlink="http://www.w3.org/1999/xlink">
<g><path style="opacity:1" fill="#ea1c24" d="M 52.5,-0.5 C 117.167,-0.5 181.833,-0.5 246.5,-0.5C 258.294,0.567903 269.628,3.73457 280.5,9C 286.514,12.8397 290.847,18.0064 293.5,24.5C 293.5,25.5 293.5,26.5 293.5,27.5C 197.498,27.1667 101.498,27.5 5.5,28.5C 3.82179,33.0354 2.65512,37.7021 2,42.5C 1.80192,40.6183 1.30192,38.9516 0.5,37.5C 3.46067,18.3715 14.4607,6.87152 33.5,3C 39.9725,1.81257 46.3058,0.645903 52.5,-0.5 Z"/></g>
<g><path style="opacity:1" fill="#e31c26" d="M 293.5,24.5 C 294.793,25.842 295.626,27.5087 296,29.5C 297.255,34.9539 298.422,40.2872 299.5,45.5C 299.5,47.5 299.5,49.5 299.5,51.5C 298.676,55.3123 298.176,59.3123 298,63.5C 297.505,61.5273 297.338,59.5273 297.5,57.5C 198.833,57.5 100.167,57.5 1.5,57.5C 1.66463,60.5184 1.49796,63.5184 1,66.5C 0.826144,61.3165 0.326144,56.3165 -0.5,51.5C -0.5,48.5 -0.5,45.5 -0.5,42.5C 0.451145,41.0813 0.784479,39.4147 0.5,37.5C 1.30192,38.9516 1.80192,40.6183 2,42.5C 2.65512,37.7021 3.82179,33.0354 5.5,28.5C 101.498,27.5 197.498,27.1667 293.5,27.5C 293.5,26.5 293.5,25.5 293.5,24.5 Z"/></g>
<g><path style="opacity:1" fill="#dd1d28" d="M -0.5,51.5 C 0.326144,56.3165 0.826144,61.3165 1,66.5C 1.49796,63.5184 1.66463,60.5184 1.5,57.5C 100.167,57.5 198.833,57.5 297.5,57.5C 297.338,59.5273 297.505,61.5273 298,63.5C 298.176,59.3123 298.676,55.3123 299.5,51.5C 299.5,58.8333 299.5,66.1667 299.5,73.5C 298.671,80.3213 298.171,87.3213 298,94.5C 297.502,91.1832 297.335,87.8499 297.5,84.5C 254.457,84.1775 211.457,84.5108 168.5,85.5C 155.167,78.8333 141.833,72.1667 128.5,65.5C 126.151,63.659 123.485,62.3257 120.5,61.5C 120.44,60.9569 120.107,60.6236 119.5,60.5C 118.501,73.8167 118.167,87.15 118.5,100.5C 117.512,95.3595 117.179,90.0262 117.5,84.5C 78.1667,84.5 38.8333,84.5 -0.5,84.5C -0.5,73.5 -0.5,62.5 -0.5,51.5 Z"/></g>
<g><path style="opacity:1" fill="#fefefd" d="M 120.5,61.5 C 123.485,62.3257 126.151,63.659 128.5,65.5C 128.414,66.4959 128.748,67.3292 129.5,68C 149.736,80.9418 169.736,94.1085 189.5,107.5C 188.833,107.5 188.5,107.833 188.5,108.5C 172.844,115.994 157.511,123.994 142.5,132.5C 134.883,135.642 127.55,139.308 120.5,143.5C 119.167,116.167 119.167,88.8333 120.5,61.5 Z"/></g>
<g><path style="opacity:1" fill="#e8dfdf" d="M 128.5,65.5 C 141.833,72.1667 155.167,78.8333 168.5,85.5C 178.772,90.9711 189.105,96.4711 199.5,102C 196.3,104.099 192.967,105.933 189.5,107.5C 169.736,94.1085 149.736,80.9418 129.5,68C 128.748,67.3292 128.414,66.4959 128.5,65.5 Z"/></g>
<g><path style="opacity:1" fill="#d61c29" d="M -0.5,84.5 C 38.8333,84.5 78.1667,84.5 117.5,84.5C 117.179,90.0262 117.512,95.3595 118.5,100.5C 118.5,114.833 118.5,129.167 118.5,143.5C 117.523,140.713 117.19,137.713 117.5,134.5C 117.5,126.5 117.5,118.5 117.5,110.5C 78.1667,110.5 38.8333,110.5 -0.5,110.5C -0.5,101.833 -0.5,93.1667 -0.5,84.5 Z"/></g>
<g><path style="opacity:1" fill="#d71d29" d="M 299.5,73.5 C 299.5,83.1667 299.5,92.8333 299.5,102.5C 298.672,108.987 298.172,115.654 298,122.5C 297.501,118.514 297.334,114.514 297.5,110.5C 260.818,111.16 224.485,110.494 188.5,108.5C 188.5,107.833 188.833,107.5 189.5,107.5C 192.967,105.933 196.3,104.099 199.5,102C 189.105,96.4711 178.772,90.9711 168.5,85.5C 211.457,84.5108 254.457,84.1775 297.5,84.5C 297.335,87.8499 297.502,91.1832 298,94.5C 298.171,87.3213 298.671,80.3213 299.5,73.5 Z"/></g>
<g><path style="opacity:1" fill="#f2beb7" d="M 120.5,61.5 C 119.167,88.8333 119.167,116.167 120.5,143.5C 119.833,144.833 119.167,144.833 118.5,143.5C 118.5,129.167 118.5,114.833 118.5,100.5C 118.167,87.15 118.501,73.8167 119.5,60.5C 120.107,60.6236 120.44,60.9569 120.5,61.5 Z"/></g>
<g><path style="opacity:1" fill="#d11d2a" d="M 299.5,102.5 C 299.5,110.5 299.5,118.5 299.5,126.5C 298.672,132.987 298.172,139.654 298,146.5C 297.501,142.514 297.334,138.514 297.5,134.5C 245.489,135.162 193.823,134.496 142.5,132.5C 157.511,123.994 172.844,115.994 188.5,108.5C 224.485,110.494 260.818,111.16 297.5,110.5C 297.334,114.514 297.501,118.514 298,122.5C 298.172,115.654 298.672,108.987 299.5,102.5 Z"/></g>
<g><path style="opacity:1" fill="#d11d2a" d="M -0.5,110.5 C 38.8333,110.5 78.1667,110.5 117.5,110.5C 117.5,118.5 117.5,126.5 117.5,134.5C 78.8333,134.5 40.1667,134.5 1.5,134.5C 1.66582,139.179 1.49915,143.845 1,148.5C 0.826144,143.316 0.326144,138.316 -0.5,133.5C -0.5,125.833 -0.5,118.167 -0.5,110.5 Z"/></g>
<g><path style="opacity:1" fill="#cc1e2b" d="M 299.5,126.5 C 299.5,135.167 299.5,143.833 299.5,152.5C 298.532,154.607 298.198,156.941 298.5,159.5C 297.883,159.389 297.383,159.056 297,158.5C 296.503,155.854 296.336,153.187 296.5,150.5C 197.43,150.169 98.4296,150.502 -0.5,151.5C -0.5,145.5 -0.5,139.5 -0.5,133.5C 0.326144,138.316 0.826144,143.316 1,148.5C 1.49915,143.845 1.66582,139.179 1.5,134.5C 40.1667,134.5 78.8333,134.5 117.5,134.5C 117.19,137.713 117.523,140.713 118.5,143.5C 119.167,144.833 119.833,144.833 120.5,143.5C 127.55,139.308 134.883,135.642 142.5,132.5C 193.823,134.496 245.489,135.162 297.5,134.5C 297.334,138.514 297.501,142.514 298,146.5C 298.172,139.654 298.672,132.987 299.5,126.5 Z"/></g>
<g><path style="opacity:1" fill="#c91d2c" d="M 298.5,159.5 C 297.406,167.784 294.74,175.451 290.5,182.5C 289.957,182.44 289.624,182.107 289.5,181.5C 291.853,177.109 293.187,172.442 293.5,167.5C 197.5,167.5 101.5,167.5 5.5,167.5C 5.85112,169.869 6.01779,172.203 6,174.5C 4.85906,171.938 4.02573,169.272 3.5,166.5C 3.25284,165.287 2.58617,164.62 1.5,164.5C 1.10057,160.989 0.433899,157.656 -0.5,154.5C -0.5,153.5 -0.5,152.5 -0.5,151.5C 98.4296,150.502 197.43,150.169 296.5,150.5C 296.336,153.187 296.503,155.854 297,158.5C 297.383,159.056 297.883,159.389 298.5,159.5 Z"/></g>
<g><path style="opacity:1" fill="#c41d2c" d="M 1.5,164.5 C 2.58617,164.62 3.25284,165.287 3.5,166.5C 4.02573,169.272 4.85906,171.938 6,174.5C 6.01779,172.203 5.85112,169.869 5.5,167.5C 101.5,167.5 197.5,167.5 293.5,167.5C 293.187,172.442 291.853,177.109 289.5,181.5C 289.624,182.107 289.957,182.44 290.5,182.5C 287.581,189.753 282.581,195.086 275.5,198.5C 274.448,198.649 273.448,198.483 272.5,198C 275.009,196.579 277.343,194.912 279.5,193C 193.167,192.333 106.833,192.333 20.5,193C 23.5017,195.503 26.8351,197.503 30.5,199C 29.9056,199.464 29.2389,199.631 28.5,199.5C 25.7766,198.648 23.11,197.481 20.5,196C 10.4628,187.763 4.12948,177.263 1.5,164.5 Z"/></g>
<g><path style="opacity:0.999" fill="#c01e2d" d="M 275.5,198.5 C 266.342,203.205 256.675,206.205 246.5,207.5C 182.833,207.5 119.167,207.5 55.5,207.5C 49.9681,206.351 44.3014,205.184 38.5,204C 34.7708,203.156 31.4374,201.656 28.5,199.5C 29.2389,199.631 29.9056,199.464 30.5,199C 26.8351,197.503 23.5017,195.503 20.5,193C 106.833,192.333 193.167,192.333 279.5,193C 277.343,194.912 275.009,196.579 272.5,198C 273.448,198.483 274.448,198.649 275.5,198.5 Z"/></g>
</svg>
