<?xml version="1.0" encoding="UTF-8"?>
<!DOCTYPE svg PUBLIC "-//W3C//DTD SVG 1.1//EN" "http://www.w3.org/Graphics/SVG/1.1/DTD/svg11.dtd">
<svg xmlns="http://www.w3.org/2000/svg" version="1.1" width="300px" height="300px" style="shape-rendering:geometricPrecision; text-rendering:geometricPrecision; image-rendering:optimizeQuality; fill-rule:evenodd; clip-rule:evenodd" xmlns:xlink="http://www.w3.org/1999/xlink">
<g><path style="opacity:0.989" fill="#ff0100" d="M 130.5,-0.5 C 143.167,-0.5 155.833,-0.5 168.5,-0.5C 241.837,13.5039 285.504,57.1706 299.5,130.5C 299.5,143.167 299.5,155.833 299.5,168.5C 285.504,241.829 241.837,285.496 168.5,299.5C 155.833,299.5 143.167,299.5 130.5,299.5C 57.1627,285.496 13.4961,241.829 -0.5,168.5C -0.5,155.833 -0.5,143.167 -0.5,130.5C 13.4961,57.1706 57.1627,13.5039 130.5,-0.5 Z"/></g>
<g><path style="opacity:1" fill="#fff5f5" d="M 136.5,71.5 C 184.033,68.5621 214.199,89.8954 227,135.5C 230.83,181.364 210.996,211.531 167.5,226C 125.699,232.851 95.5319,217.351 77,179.5C 63.0268,134.966 76.1934,101.133 116.5,78C 123.126,75.2902 129.793,73.1235 136.5,71.5 Z"/></g>
<g><path style="opacity:1" fill="#ff0502" d="M 137.5,78.5 C 175.237,75.6041 201.737,91.2707 217,125.5C 226.396,159.645 217.229,187.478 189.5,209C 171.554,220.055 152.221,223.388 131.5,219C 102.79,209.62 85.2896,190.12 79,160.5C 75.466,125.391 89.2993,99.8912 120.5,84C 126.127,81.6232 131.793,79.7899 137.5,78.5 Z"/></g>
<g><path style="opacity:1" fill="#fffdfd" d="M 122.5,110.5 C 144.635,122.735 166.635,135.235 188.5,148C 166.415,161.124 144.582,174.624 123,188.5C 122.5,162.502 122.333,136.502 122.5,110.5 Z"/></g>
</svg>
