<?xml version="1.0" encoding="UTF-8"?>
<svg width="457px" height="170px" viewBox="0 0 457 170" version="1.1" xmlns="http://www.w3.org/2000/svg" xmlns:xlink="http://www.w3.org/1999/xlink">
    <!-- Generator: Sketch 40.3 (33839) - http://www.bohemiancoding.com/sketch -->
    <title>YTV</title>
    <desc>Created with Sketch.</desc>
    <defs></defs>
    <g id="Page-1" stroke="none" stroke-width="1" fill="none" fill-rule="evenodd">
        <g id="Artboard" transform="translate(-1.000000, -161.000000)" fill="#FFFFFF">
            <path d="M54.6427099,247.824211 L1.78279101,167.936369 C0.826045612,166.341794 0.746318025,164.787106 1.54360586,163.272259 C2.34089369,161.757412 3.69626267,161 5.60975347,161 L36.7038234,161 C37.6605688,161 38.4578447,161.239183 39.095675,161.717555 C39.7335052,162.195928 40.2118707,162.674294 40.5307859,163.152666 L73.7775222,212.185623 L107.024259,163.152666 C107.343174,162.674294 107.781675,162.195928 108.339777,161.717555 C108.897878,161.239183 109.735018,161 110.851221,161 L141.945291,161 C143.858782,161 145.214151,161.757412 146.011439,163.272259 C146.808726,164.787106 146.728999,166.341794 145.772253,167.936369 L92.194779,247.585026 L92.194779,323.88509 C92.194779,325.16075 91.7562773,326.237072 90.8792607,327.114089 C90.0022441,327.991106 88.9259216,328.429607 87.6502611,328.429607 L59.1872278,328.429607 C57.9115673,328.429607 56.8352449,327.991106 55.9582283,327.114089 C55.0812117,326.237072 54.6427099,325.16075 54.6427099,323.88509 L54.6427099,247.824211 Z M202.459135,196.160218 L168.255658,196.160218 C166.979997,196.160218 165.903675,195.721716 165.026658,194.844699 C164.149642,193.967683 163.71114,192.89136 163.71114,191.6157 L163.71114,165.544518 C163.71114,164.268857 164.149642,163.192535 165.026658,162.315518 C165.903675,161.438502 166.979997,161 168.255658,161 L274.453866,161 C275.729527,161 276.805849,161.438502 277.682866,162.315518 C278.559882,163.192535 278.998384,164.268857 278.998384,165.544518 L278.998384,191.6157 C278.998384,192.89136 278.559882,193.967683 277.682866,194.844699 C276.805849,195.721716 275.729527,196.160218 274.453866,196.160218 L240.250389,196.160218 L240.250389,323.88509 C240.250389,325.16075 239.811887,326.237072 238.934871,327.114089 C238.057854,327.991106 236.981532,328.429607 235.705871,328.429607 L207.003653,328.429607 C205.727992,328.429607 204.65167,327.991106 203.774653,327.114089 C202.897637,326.237072 202.459135,325.16075 202.459135,323.88509 L202.459135,196.160218 Z M417.486588,163.631037 C417.805503,162.993206 418.323732,162.39525 419.041291,161.837148 C419.75885,161.279047 420.59599,161 421.552735,161 L453.364361,161 C455.118394,161 456.433899,161.637821 457.310916,162.913481 C458.187932,164.189142 458.227796,165.624238 457.430508,167.218814 L382.32637,328.190422 C381.369625,329.944456 380.014256,330.821459 378.260223,330.821459 L375.868371,330.821459 C373.95488,330.821459 372.599511,329.944456 371.802223,328.190422 L297.176456,167.218814 C296.379168,165.624238 296.419032,164.189142 297.296048,162.913481 C298.173065,161.637821 299.48857,161 301.242603,161 L333.054229,161 C334.010974,161 334.848114,161.279047 335.565673,161.837148 C336.283232,162.39525 336.801461,162.993206 337.120376,163.631037 L376.585927,250.933618 L378.021037,250.933618 L417.486588,163.631037 Z" id="YTV"></path>
        </g>
    </g>
</svg>
